<?xml version="1.0" encoding="UTF-8"?>
<svg id="Camada_1" data-name="Camada 1" xmlns="http://www.w3.org/2000/svg" viewBox="0 0 100 100">
  <defs>
    <style>
      .cls-1 {
        fill: #fff;
      }
    </style>
  </defs>
  <path class="cls-1" d="M45.74,53.17c-.62,2.61-1.85,4.87-3.88,6.65-6.39,5.6-16.57,2.28-18.64-6.08-1.6-6.45,2.32-12.92,8.72-14.4,.85-.2,1.72-.28,2.59-.27,1.12,.01,2.25,.02,3.37,.03,.29,.05,.4,.28,.52,.5,.74,1.34,1.48,2.68,2.21,4.02,.15,.28,.43,.57,.15,.94-.28,.15-.58,.11-.87,.12-1.63,0-3.25-.02-4.88,0-1.75,.03-3.39,.42-4.56,1.84-1.73,2.09-1.96,4.44-.96,6.89,.89,2.2,2.65,3.32,4.99,3.52,.75,.07,1.46-.14,2.12-.48,1.37-.71,2.38-1.77,2.97-3.21,.24-.6,.16-.71-.5-.73-.5-.01-1.01,.02-1.51-.02-.48-.03-.61-.29-.39-.69,.63-1.17,1.27-2.33,1.94-3.48,.16-.28,.41-.43,.73-.44,.98,0,1.97-.09,2.95,.05,.58,.36,.74,1.01,1.06,1.55,.58,.95,1.07,1.95,1.64,2.9,.14,.24,.23,.49,.24,.77Z"/>
  <path class="cls-1" d="M62.95,56.9c1.35-.02,2.7,0,4.05-.06,1.37-.06,2.11-.95,1.88-2.21-.1-.54-.42-.97-.78-1.35-.74-.81-1.51-1.59-2.28-2.38-.69-.71-1.36-1.42-1.94-2.22-1.88-2.61-1.49-5.76,.97-7.85,1.43-1.21,3.09-1.65,4.95-1.73,1.17-.05,1.81,.29,2.3,1.36,.64,1.41,1.48,2.72,2.3,4.18-1.33,0-2.56,0-3.78,0-.61,0-1.23-.02-1.52,.66-.29,.68-.03,1.24,.44,1.74,.86,.92,1.88,1.67,2.8,2.54,1.4,1.32,2.65,2.74,3.12,4.67,.97,4.03-2.34,8.18-6.56,8.24-.94,.01-1.88,.01-2.82,.02-.32-.05-.42-.33-.55-.56-.79-1.46-1.63-2.9-2.4-4.37-.11-.21-.33-.4-.18-.68Z"/>
  <path class="cls-1" d="M45.74,53.17c-.96-1.7-1.92-3.4-2.88-5.1-.86-1.08-1.51-2.27-1.98-3.57-.94-1.83-1.93-3.62-2.97-5.39-.72-1.34-1.45-2.68-2.22-4.11,.74,0,1.38,0,2.01,0,3.02,0,6.05,0,9.07,0,1.22,0,2.42,.2,3.54,.72,2.42,1.14,3.31,3.66,2.06,6.04-.81,1.54-1.7,3.04-2.57,4.54-1.34,2.29-2.7,4.57-4.05,6.86Z"/>
  <path class="cls-1" d="M62.95,56.9c1.04,1.87,2.09,3.74,3.13,5.61,.54,1.01,1.08,2.02,1.63,3.02,.21,.38,.31,.58-.29,.58-3.16-.01-6.32,.04-9.48,.01-2.48-.02-4.67-.82-6.43-2.64-.14-.15-.29-.3-.4-.47-1.27-1.93-2.26-4.02-3.42-5.97,.12-.24,.28-.17,.4-.17,2.27,0,4.54,.01,6.8-.01,.49,0,.62,.16,.61,.63-.03,1.37,0,2.75-.02,4.12-.01,.49,.15,.62,.62,.61,1.26-.03,2.52-.03,3.78,0,.46,.01,.59-.15,.58-.59-.02-1.4,0-2.8-.02-4.19,0-.46,.14-.6,.58-.57,.64,.04,1.28,.03,1.92,.04Z"/>
  <path class="cls-1" d="M51.5,52.46c1.32-2.33,2.58-4.56,3.85-6.79,.05,.01,.1,.03,.14,.04v5.31q0,1.44-1.43,1.44c-.81,0-1.63,0-2.57,0Z"/>
</svg>