<?xml version="1.0" encoding="UTF-8"?>
<svg id="Camada_1" data-name="Camada 1" xmlns="http://www.w3.org/2000/svg" viewBox="0 0 100 100">
  <defs>
    <style>
      .cls-1 {
        fill: #fff;
      }
    </style>
  </defs>
  <path class="cls-1" d="M51.69,22.43c.04,.16,.05,.33,.07,.49,.11,.89,.2,1.79,.26,2.69,.07,1.19,.11,2.39,.03,3.58-.04,.56-.07,1.13-.13,1.69-.27,2.42-.91,4.73-1.97,6.93-1.43,2.95-3.5,5.36-6.16,7.27-1.23,.89-2.54,1.64-3.92,2.28-1.13,.53-2.27,1.02-3.41,1.53-.14,.06-.3,.12-.45,.15-.35,.08-.58-.01-.76-.32-.11-.2-.2-.41-.28-.63-.5-1.39-1-2.78-1.49-4.17-.28-.78-.55-1.57-.83-2.35-.04-.12-.08-.24-.1-.36-.03-.14,.03-.22,.17-.25,.08-.01,.16-.02,.24-.02,.39-.01,.78-.02,1.17-.04,3.42-.19,6.47-1.32,9.11-3.52,1.29-1.08,2.41-2.31,3.4-3.67,1.86-2.58,3.27-5.39,4.21-8.43,.27-.86,.51-1.73,.73-2.6,.02-.08,.05-.17,.07-.25,.02,0,.04,0,.05,0Z"/>
  <path class="cls-1" d="M60.57,60.89c-.05-.1-.08-.16-.11-.22-1.65-3.52-4.21-6.18-7.63-8.03-1.49-.81-3.05-1.45-4.69-1.86-.86-.22-1.73-.37-2.61-.46-.98-.11-1.96-.12-2.94-.09-.68,.03-1.36,.09-2.03,.18-1.21,.16-2.4,.42-3.58,.73-.05,.01-.1,.02-.15,.01-.01,0-.04-.06-.03-.08,.01-.03,.05-.05,.08-.07,2.35-1.37,4.81-2.48,7.45-3.13,.94-.23,1.9-.41,2.87-.52,.79-.09,1.59-.14,2.38-.13,2.5,0,4.9,.53,7.15,1.64,1.34,.66,2.57,1.49,3.7,2.46,.8,.69,1.54,1.43,2.28,2.18,.48,.48,.96,.97,1.44,1.45,.07,.08,.15,.15,.21,.24,.13,.18,.14,.36,.01,.54-.03,.05-.07,.1-.11,.15-1.17,1.6-2.34,3.2-3.51,4.79-.05,.06-.1,.12-.17,.21Z"/>
  <path class="cls-1" d="M66.12,52.06s-.1-.04-.14-.06c-1.67-.8-3.25-1.75-4.7-2.91-2.79-2.23-4.81-5.01-6.08-8.34-.53-1.39-.92-2.82-1.18-4.29-.15-.85-.25-1.71-.32-2.58-.11-1.31-.11-2.61-.08-3.92,.02-.7,.07-1.4,.1-2.09,0-.12,.02-.25,.04-.37,.04-.27,.18-.39,.45-.38,.09,0,.18,.02,.26,.04,1.22,.31,2.43,.62,3.64,.94,.04,.01,.08,.03,.13,.04,.24,.07,.37,.23,.39,.48,0,.09,.02,.18,.01,.26,0,.24-.02,.48-.04,.72-.08,1.17-.11,2.33-.08,3.5,.02,.9,.07,1.8,.15,2.7,.23,2.37,.67,4.7,1.41,6.97,1.1,3.37,2.95,6.27,5.54,8.7,.15,.14,.29,.28,.44,.43,.04,.04,.06,.08,.1,.12-.01,.01-.02,.03-.04,.04Z"/>
  <path class="cls-1" d="M29.16,66.05h1.09c.05,.07,.07,.16,.09,.24,.24,.95,.49,1.9,.73,2.85,.02,.07,.04,.13,.07,.23,.04-.09,.03-.15,.03-.2,0-.94,0-1.87,0-2.81,0-.1,0-.19,0-.29,.14-.04,.26-.02,.38-.02,.12,0,.25,0,.38,0,.01,.06,.03,.11,.03,.16,0,.05,0,.11,0,.16,0,1.71,0,3.41,0,5.12,0,.1,.01,.19-.02,.28-.21,.05-.68,.05-.92,0-.07-.25-.14-.52-.21-.78-.07-.27-.14-.53-.21-.8-.07-.27-.14-.55-.21-.82-.07-.27-.13-.53-.21-.8-.07-.26-.13-.52-.23-.82-.06,.14-.04,.24-.04,.34,0,1.13,0,2.26,0,3.4,0,.1,.01,.19-.03,.3-.25,.03-.49,.01-.75,.01-.01-.06-.03-.11-.04-.16,0-.06,0-.12,0-.19,0-1.69,0-3.38,0-5.07,0-.1-.01-.21,.03-.34Z"/>
  <path class="cls-1" d="M61.61,71.77c-.04-.24-.06-3.53-.03-5.49,0-.07,.01-.14,.02-.22,.07,0,.13-.02,.19-.02,.41,0,.81,0,1.22,0,.13,0,.26,.02,.39,.05,.48,.1,.76,.39,.84,.87,.05,.34,.05,.69,0,1.03-.05,.31-.2,.56-.51,.72,.03,.03,.05,.06,.08,.07,.35,.17,.5,.47,.53,.83,.03,.37,.04,.74,0,1.11-.06,.6-.45,.97-1.05,1.05-.11,.01-.23,.02-.34,.02-.37,0-.74,0-1.11,0-.08,0-.16,.02-.23-.03Zm.9-2.54c0,.06-.01,.1-.01,.13,0,.49,0,.97,0,1.46,0,.05,.02,.1,.03,.15,.06,0,.1,0,.14,0,.12,0,.25,0,.37,0,.24-.01,.39-.13,.41-.37,.02-.32,0-.65,0-.98,0-.03-.02-.07-.03-.1-.06-.18-.18-.28-.36-.3-.17-.02-.35-.02-.54,0Zm0-.85c.12,0,.22,0,.33,0,.35,0,.5-.15,.53-.49,.01-.19,0-.39,0-.58,0-.08-.03-.16-.06-.23-.05-.11-.14-.18-.26-.2-.17-.02-.35-.02-.52,0-.04,.21-.05,1.13-.01,1.5Z"/>
  <path class="cls-1" d="M32.68,71.77s-.02-.07-.02-.1c0-1.86,0-3.73,0-5.6,.06-.01,.11-.03,.16-.03,.43,0,.87,0,1.3,0,.05,0,.11,0,.16,0,.74,.1,1.01,.54,1.09,1.11,.01,.1,.01,.21,.01,.32,0,.96,0,1.93,0,2.89,0,.2-.01,.39-.07,.58-.14,.47-.45,.74-.93,.83-.07,.01-.14,.02-.21,.02-.47,0-.94,0-1.4,0-.02,0-.05-.01-.08-.02Zm.9-.82s.07,.02,.09,.02c.12,0,.25,0,.37,0,.24-.01,.38-.13,.42-.37,.02-.1,.02-.21,.02-.32,0-.91,0-1.82,0-2.73,0-.09,0-.18,0-.26-.01-.08-.03-.16-.07-.23-.04-.09-.12-.15-.22-.18-.12-.03-.44-.02-.6,.02-.03,.21-.03,3.75,0,4.04Z"/>
  <path class="cls-1" d="M50.36,66.05c.07,0,.14,0,.2,0,.39,0,.78,0,1.17,0,.16,0,.32,.02,.47,.06,.37,.09,.62,.33,.75,.68,.08,.22,.11,.44,.11,.68,0,.97,0,1.94,0,2.92,0,.15-.02,.3-.04,.45-.11,.57-.47,.89-1.05,.96-.11,.01-.21,.02-.32,.02-.34,0-.69,0-1.03,0-.08,0-.16,0-.25-.01-.01-.06-.03-.11-.03-.15,0-.06,0-.12,0-.19,0-1.69,0-3.37,0-5.06,0-.1-.02-.21,.03-.34Zm.9,.83c-.04,.11-.03,.21-.03,.3,0,.82,0,1.64,0,2.46,0,.37,0,.74,0,1.11,0,.07-.02,.14,.06,.21,.14,0,.3,0,.46,0,.19-.01,.32-.11,.36-.3,.02-.11,.04-.23,.04-.34,0-.55,0-1.09,0-1.64,0-.4,0-.79,0-1.19,0-.12-.02-.25-.05-.36-.04-.14-.14-.23-.28-.25-.18-.02-.37-.02-.55,0Z"/>
  <path class="cls-1" d="M48.39,68.93c0,.5,0,1.01,0,1.51,0,.14-.01,.28-.04,.42-.12,.58-.47,.91-1.06,1-.22,.03-.44,.03-.66-.02-.54-.12-.84-.46-.95-.98-.03-.15-.04-.3-.04-.45,0-.99,0-1.98,0-2.97,0-.2,.02-.41,.08-.6,.13-.44,.41-.71,.85-.82,.31-.08,.63-.07,.94,.02,.38,.11,.64,.36,.77,.74,.07,.19,.1,.39,.1,.6,0,.52,0,1.04,0,1.57Zm-.9,0c0-.5,0-1.01,0-1.51,0-.11,0-.21-.03-.31-.06-.22-.22-.33-.46-.32-.22,0-.37,.12-.41,.34-.02,.11-.03,.23-.03,.34,0,.97,0,1.94,0,2.92,0,.09,0,.18,.02,.26,.04,.31,.23,.42,.52,.4,.19-.02,.32-.11,.36-.29,.03-.11,.04-.23,.04-.34,0-.49,0-.99,0-1.48Z"/>
  <path class="cls-1" d="M56.35,68.91c0,.5,0,1.01,0,1.51,0,.15-.01,.3-.04,.45-.12,.58-.48,.91-1.06,.99-.22,.03-.44,.02-.66-.02-.53-.11-.83-.45-.94-.96-.03-.15-.05-.32-.05-.47,0-.99,0-1.98,0-2.97,0-.2,.02-.41,.08-.6,.13-.44,.42-.71,.86-.82,.32-.08,.65-.07,.97,.03,.35,.11,.59,.34,.73,.68,.08,.21,.11,.43,.11,.65,0,.51,0,1.03,0,1.54Zm-.9,.02c0-.5,0-1.01,0-1.51,0-.11,0-.23-.04-.34-.06-.21-.21-.3-.45-.3-.22,0-.37,.12-.42,.33-.03,.12-.03,.25-.03,.37,0,.95,0,1.91,0,2.86,0,.1,0,.19,.02,.29,.04,.3,.23,.44,.54,.4,.17-.02,.29-.1,.33-.26,.03-.11,.05-.22,.05-.34,0-.5,0-1.01,0-1.51Z"/>
  <path class="cls-1" d="M27.64,66.05h.82c.07,.09,.04,.18,.04,.27,0,.43,0,.87,0,1.3,0,.9,0,1.8,0,2.71,0,.16,0,.32-.03,.48-.08,.6-.45,.98-1.05,1.06-.25,.04-.49,.03-.74-.04-.36-.1-.63-.32-.76-.68-.05-.14-.08-.29-.11-.44-.02-.11-.01-.23-.01-.34,0-1.34,0-2.67,0-4.01,0-.1,0-.19,0-.28,.2-.05,.56-.05,.86-.02,.07,.08,.04,.19,.04,.28,0,1.21,0,2.42,0,3.63,0,.19,0,.37,0,.56,0,.09,.01,.18,.04,.26,.05,.15,.15,.23,.31,.25,.07,0,.14,0,.21,0,.15-.01,.25-.09,.3-.23,.03-.07,.04-.15,.05-.23,0-.1,0-.19,0-.29,0-1.31,0-2.62,0-3.93,0-.1,0-.19,.01-.31Z"/>
  <path class="cls-1" d="M41.03,67.97c-.03-.16-.01-.31-.02-.46,0-.11,0-.23-.01-.34-.03-.23-.18-.36-.41-.37-.23-.01-.39,.1-.45,.33-.02,.08-.03,.17-.03,.26,0,1.03,0,2.07,0,3.1,0,.1,.02,.21,.05,.31,.06,.18,.21,.28,.41,.27,.18,0,.33-.07,.4-.25,.03-.09,.04-.19,.05-.29,0-.21,0-.42,0-.64,0-.07,0-.14,.01-.22,.28-.03,.54-.02,.81,0,0,.06,.02,.11,.02,.16,0,.25,0,.5,0,.74,0,.2-.03,.39-.1,.57-.14,.35-.38,.59-.75,.69-.08,.02-.15,.04-.24,.07v.21c.08,.01,.15,.03,.22,.04,.2,.04,.3,.13,.33,.3,.03,.22-.06,.41-.24,.49-.08,.03-.17,.06-.25,.07-.2,0-.41,0-.61,0-.07,0-.14-.02-.21-.05-.23-.08-.3-.19-.3-.47,.18-.05,.37-.02,.56-.02,.02,.04,.03,.08,.05,.11,.05,.09,.12,.12,.22,.1,.09-.02,.14-.08,.14-.17,0-.1-.03-.17-.13-.21-.06-.02-.12-.04-.19-.05-.01-.11-.02-.23-.03-.34-.09-.02-.18-.05-.26-.07-.39-.11-.65-.35-.78-.73-.06-.18-.1-.38-.1-.57,0-1.07,0-2.14,0-3.21,0-.19,.03-.37,.09-.55,.13-.4,.41-.66,.82-.76,.29-.07,.58-.07,.87,0,.42,.11,.69,.38,.82,.79,.08,.26,.1,.85,.04,1.15-.19,.04-.52,.05-.81,0Z"/>
  <path class="cls-1" d="M61.11,71.77c-.21,.05-.65,.05-.89,0-.05-.35-.11-.71-.16-1.06-.19-.05-.54-.06-.98-.03-.07,.04-.07,.12-.08,.19-.04,.3-.09,.59-.13,.89-.14,.08-.28,.04-.42,.04-.13,0-.26,.01-.4-.02,0-.05-.01-.08,0-.12,.3-1.86,.61-3.73,.91-5.59,.2-.05,.85-.06,1.22-.02,.01,.05,.04,.11,.05,.17,.22,1.33,.43,2.65,.65,3.98,.08,.47,.16,.94,.23,1.41,0,.05,0,.1,.01,.15Zm-1.59-4.54c-.01,.06-.03,.11-.04,.17-.05,.36-.1,.71-.15,1.07-.06,.4-.11,.8-.17,1.2,0,.07-.04,.14,.02,.2,.27,.04,.55,.03,.73-.01,0-.23-.2-1.78-.39-2.63Z"/>
  <path class="cls-1" d="M38.82,71.78c-.28,.04-.67,.03-.87,0-.09-.35-.09-.73-.19-1.08-.25-.03-.78-.03-1,0-.08,.35-.1,.71-.18,1.06-.17,.06-.54,.07-.81,.02,0-.02-.02-.05-.01-.07,.3-1.87,.61-3.75,.92-5.63,.21-.05,.41-.02,.61-.02,.2,0,.4-.01,.62,.01,.31,1.87,.61,3.72,.91,5.58,0,.04,0,.09,0,.14Zm-1.93-1.91c.26,.04,.58,.04,.77-.02-.12-.89-.25-1.78-.39-2.67-.03,.06-.05,.11-.05,.17-.11,.82-.23,1.64-.34,2.47,0,.02,.01,.03,.02,.05Z"/>
  <path class="cls-1" d="M43,71.79c-.28,.01-.53,.02-.78,0-.01-.02-.02-.03-.02-.03,0,0-.01-.02-.01-.02,.3-1.86,.6-3.71,.9-5.57,0-.03,.02-.07,.04-.1,.21-.03,.96-.04,1.2,0,0,.03,.02,.06,.03,.09,.3,1.81,.59,3.62,.89,5.44,0,.05,0,.1,.01,.16-.09,.06-.19,.04-.29,.04-.1,0-.19,0-.29,0-.1,0-.19,0-.3,0-.06-.19-.07-.38-.1-.56-.03-.18-.05-.36-.09-.54-.22-.04-.74-.04-1.01,0-.11,.35-.09,.73-.2,1.1Zm1.05-1.91c.05-.1,.02-.19,0-.28-.03-.22-.06-.44-.09-.66-.07-.52-.15-1.03-.22-1.55-.01-.07-.01-.15-.07-.22-.2,1.15-.37,2.47-.35,2.71,.24,0,.49,.02,.73,0Z"/>
  <path class="cls-1" d="M66.67,69.66h.81c.01,.06,.03,.11,.03,.15,0,.25,0,.49,0,.74,0,.12-.01,.25-.04,.37-.13,.54-.47,.86-1.02,.94-.22,.03-.44,.03-.66-.02-.48-.11-.77-.41-.89-.88-.04-.15-.06-.31-.06-.47,0-1.04,0-2.09,0-3.13,0-.2,.03-.39,.09-.57,.13-.4,.4-.66,.81-.77,.3-.08,.6-.08,.89,0,.51,.14,.78,.5,.86,1,.05,.31,.02,.62,.02,.92-.15,.07-.29,.04-.43,.04-.13,0-.26,.02-.41-.02,0-.06-.02-.11-.02-.16,0-.15,0-.3,0-.45,0-.08,0-.16-.02-.24-.05-.21-.2-.33-.42-.33-.22,0-.37,.1-.43,.31-.02,.08-.03,.17-.03,.26,0,1.04,0,2.09,0,3.13,0,.1,.02,.21,.05,.31,.04,.14,.15,.21,.29,.24,.33,.06,.53-.1,.55-.44,.01-.22,0-.44,0-.66,0-.09,0-.17,.01-.28Z"/>
  <path class="cls-1" d="M71.11,70.12c.28-.02,.54-.02,.81,0,.05,.12,.02,.22,.04,.33,.01,.11,.02,.23,.05,.34,.04,.16,.16,.25,.33,.27,.06,0,.12,0,.18,0,.18-.02,.29-.11,.34-.28,.09-.3,.05-.58-.1-.85-.08-.15-.19-.28-.3-.4-.12-.13-.25-.25-.38-.36-.22-.2-.44-.41-.61-.66-.36-.51-.43-1.07-.26-1.67,.14-.49,.48-.77,.99-.83,.18-.02,.37-.02,.55,0,.49,.06,.81,.32,.96,.79,.08,.27,.11,.55,.08,.83-.22,.05-.61,.05-.83,0,0-.06-.01-.12-.02-.18,0-.09,0-.18-.02-.26-.05-.31-.31-.46-.61-.35-.14,.05-.22,.15-.25,.29-.06,.27-.03,.53,.12,.77,.08,.13,.18,.26,.29,.37,.13,.14,.27,.25,.4,.38,.18,.18,.37,.36,.53,.56,.44,.55,.5,1.17,.32,1.83-.14,.51-.5,.77-1.01,.85-.24,.03-.48,.03-.71-.03-.39-.1-.65-.34-.79-.71-.11-.31-.12-.64-.09-1Z"/>
  <path class="cls-1" d="M75.22,71.79c-.31,.02-.59,.02-.88,0,0-.08-.02-.14-.02-.2-.03-1.54-.02-5.25,.03-5.52,.05,0,.1-.02,.15-.02,.41,0,.81,0,1.22,0,.14,0,.28,.02,.42,.06,.38,.1,.64,.33,.77,.7,.05,.16,.09,.33,.1,.49,.02,.3,0,.6,0,.9,0,.11-.02,.23-.05,.34-.12,.53-.48,.84-1.01,.9-.13,.01-.26,.01-.4,.02-.09,0-.17,0-.25,0-.09,.07-.06,.16-.06,.24,0,.6,0,1.2,0,1.8,0,.09,0,.17,0,.29Zm.04-3.16c.15,0,.29,0,.43,0,.23-.02,.35-.13,.39-.36,0-.04,.01-.09,.01-.13,0-.26,0-.53,0-.79,0-.09-.03-.19-.06-.28-.03-.09-.1-.15-.19-.17-.2-.04-.4-.05-.59,0-.03,.3-.03,1.5,.01,1.73Z"/>
  <path class="cls-1" d="M25.39,66.86c-.27,.03-.51,0-.74,.02-.24,0-.48-.02-.73,.02-.04,.18-.02,.35-.02,.53,0,.17,0,.34,0,.5,0,.17-.01,.35,.01,.54,.38,.04,.75,0,1.13,.03,.05,.13,.02,.26,.03,.39,0,.12,0,.24,0,.38-.06,0-.11,.02-.16,.02-.26,0-.51,0-.77,0-.07,0-.14,.01-.21,.02-.04,.28-.01,.56-.02,.83,0,.27,0,.53,0,.8v.82c-.15,.08-.3,.04-.45,.04-.14,0-.28,0-.43,0,0-.07-.02-.12-.02-.17,0-1.8,0-3.61,0-5.41,0-.04,0-.09,.01-.14,.04-.01,.08-.03,.12-.03,.71,0,1.42,0,2.12,0,.03,0,.07,0,.11,.02,.04,.26,.01,.51,.02,.8Z"/>
  <path class="cls-1" d="M70.05,66.05c.26-.01,.51-.02,.77,0-.02,.06-.03,.11-.05,.16-.43,1.16-2.09,5.34-2.22,5.56-.24,.04-.53,.04-.74-.01,0-.03,0-.07,.02-.1,.74-1.87,1.48-3.74,2.22-5.62Z"/>
  <path class="cls-1" d="M43.01,65.67c-.14-.08-.28-.15-.41-.26,.05-.16,.13-.29,.23-.42,.22-.27,.48-.34,.8-.21,.08,.03,.16,.08,.23,.12,.05,.03,.11,.06,.17,.07,.1,.03,.19,0,.26-.08,.05-.06,.09-.12,.15-.2,.15,.06,.28,.15,.41,.24-.03,.13-.11,.24-.18,.35-.24,.35-.58,.42-.94,.24-.09-.04-.17-.1-.26-.13-.14-.06-.23-.04-.33,.08-.03,.03-.05,.07-.08,.11-.02,.03-.04,.05-.07,.09Z"/>
</svg>