<?xml version="1.0" encoding="UTF-8"?>
<svg id="Camada_1" data-name="Camada 1" xmlns="http://www.w3.org/2000/svg" viewBox="0 0 100 100">
  <defs>
    <style>
      .cls-1 {
        fill: #fff;
      }
    </style>
  </defs>
  <path class="cls-1" d="m16,47.27c.05-.17.18-.2.34-.2,2.61,0,5.23,0,7.84,0,.1,0,.15-.03.21-.11,1.95-2.84,3.9-5.68,5.85-8.51.06-.08.12-.12.22-.12,1.62,0,3.23,0,4.85,0,.04,0,.08,0,.13,0v8.68h-4.2v-3.48s-.02,0-.02,0c-.8,1.17-1.6,2.35-2.42,3.55.06,0,.11,0,.15,0,2.93,0,5.86,0,8.79,0,.2,0,.31.13.27.33-.02.11-.1.17-.21.17-.04,0-.08,0-.11,0-3.02,0-6.05,0-9.07,0-.11,0-.17.03-.22.12-.13.21-.28.41-.43.64.06,0,.11.01.15.01,3.18,0,6.36,0,9.54,0,.04,0,.08,0,.12,0,.2,0,.32.19.22.37-.04.07-.09.12-.18.12-.05,0-.1,0-.14,0-3.28,0-6.56,0-9.84,0-.16,0-.27.04-.35.18-.1.17-.22.32-.33.49-.02.03-.03.06-.06.1h.17c3.49,0,6.99,0,10.48,0,.19,0,.28.1.26.28-.01.14-.1.22-.24.22-.03,0-.06,0-.09,0-3.6,0-7.2,0-10.8,0-.1,0-.16.03-.22.11-.14.22-.3.44-.46.69h.16c3.79,0,7.58,0,11.37,0,.21,0,.31.12.28.32-.02.11-.1.18-.21.18-.04,0-.08,0-.12,0-3.88,0-7.76,0-11.64,0-.13,0-.21.03-.27.14-.11.18-.23.35-.35.52-.02.03-.03.06-.06.1.07,0,.12,0,.18,0,4.04,0,8.08,0,12.12,0,.04,0,.08,0,.12,0,.1,0,.18.02.22.12.04.1.04.2-.02.29-.05.07-.12.08-.2.08-.72,0-1.44,0-2.16,0-.03,0-.06,0-.09,0-.07,0-.1.02-.1.1,0,.36-.01.72,0,1.08.04.75.37,1.23,1.12,1.42.36.09.74.11,1.11.17.02,0,.04,0,.07,0v3.08h-8.83s0-.1,0-.14c0-.94,0-1.87,0-2.81v-.12c.28-.03.54-.05.81-.1.2-.03.4-.08.59-.15.62-.23.87-.71.9-1.37.02-.35,0-.69,0-1.04,0-.09-.03-.12-.12-.11-1.99,0-3.99,0-5.98,0-.08,0-.12.03-.17.09-.3.44-.6.88-.9,1.33-.09.14-.18.29-.24.45-.09.24-.03.43.19.58.2.14.44.21.68.25.2.03.4.05.61.08,0,.04,0,.09,0,.13,0,.76,0,1.53,0,2.29,0,.22.01.43.02.65h-8.93s0-.1,0-.14c0-.94,0-1.87,0-2.81,0-.04,0-.08,0-.12.04,0,.06,0,.08,0,.35-.01.7-.02,1.05-.04.74-.05,1.34-.38,1.78-.98.4-.55.78-1.12,1.17-1.69,0-.01,0-.03.01-.06-.05,0-.1,0-.14,0-1.32,0-2.64,0-3.96,0-.04,0-.08,0-.12,0-.09,0-.15-.05-.18-.12-.01-.03-.03-.05-.04-.08,0-.03,0-.05,0-.08.04-.18.17-.23.33-.2.04,0,.08,0,.12,0,1.41,0,2.82,0,4.23,0,.09,0,.15-.02.2-.1.12-.19.25-.37.38-.55.02-.03.04-.06.07-.11h-.15c-1.61,0-3.22,0-4.84,0-.04,0-.08,0-.11,0-.09,0-.15-.05-.19-.13-.01-.03-.03-.06-.04-.09,0-.03,0-.05,0-.08.05-.17.18-.2.34-.2,1.75,0,3.49,0,5.24,0,.08,0,.12-.02.17-.09.13-.2.27-.39.4-.59.02-.04.05-.07.08-.13-.07,0-.11,0-.15,0-1.9,0-3.81,0-5.71,0-.18,0-.31-.04-.36-.22v-.08c.06-.17.19-.2.36-.2,1.81,0,3.61,0,5.42,0,.24,0,.47,0,.71,0,.05,0,.11-.03.13-.07.15-.2.28-.4.42-.61.01-.02.02-.05.04-.09h-.17c-2.19,0-4.37,0-6.56,0-.04,0-.09,0-.13,0-.09,0-.15-.05-.18-.12-.01-.03-.03-.05-.04-.08,0-.03,0-.05,0-.08.06-.18.18-.23.36-.21.04,0,.08,0,.12,0,2.27,0,4.54,0,6.82,0,.1,0,.17-.03.23-.12.12-.19.25-.36.37-.54.02-.03.04-.06.06-.11h-.17c-2.48,0-4.96,0-7.44,0-.04,0-.08,0-.11,0-.09,0-.15-.05-.19-.13-.01-.03-.03-.06-.04-.09,0-.03,0-.05,0-.08Zm.61,10.81s.02.02.03.03c.06-.18.2-.15.32-.14.1,0,.13-.03.13-.13,0-.53,0-1.06,0-1.58,0-.23,0-.23.23-.23.36,0,.73,0,1.08-.11.71-.21,1.28-.63,1.76-1.19.26-.3.48-.64.71-.97,3.34-4.8,6.67-9.6,10.01-14.4.06-.09.12-.12.23-.12,1.22,0,2.43,0,3.65,0,.03,0,.07,0,.1,0,.03-.01.07-.04.07-.07.02-.1.03-.21.05-.32-.01,0-.05,0-.09,0-1.39,0-2.78,0-4.18,0-.09,0-.14.03-.18.1-.48.69-.96,1.38-1.43,2.07-2.3,3.32-4.6,6.63-6.9,9.95-.68.98-1.36,1.96-2.04,2.94-.34.49-.74.93-1.24,1.27-.45.31-.94.48-1.49.46-.23,0-.45,0-.68,0-.1,0-.14.03-.13.13,0,.74,0,1.49,0,2.23,0,.03,0,.07,0,.1Zm16.66-5.37c-.58,0-1.16,0-1.74,0q-.14,0-.14.14c0,.48,0,.97,0,1.45-.02.62-.33.99-.91,1.16-.41.11-.83.15-1.25.16-.13,0-.14,0-.14.14,0,.73,0,1.45,0,2.18,0,.03,0,.06,0,.08.01.02.07.03.07.02.05-.1.14-.08.23-.08.14,0,.14,0,.14-.14,0-.57,0-1.13,0-1.7,0-.08.02-.12.11-.13.29-.04.58-.07.86-.14.82-.2,1.26-.72,1.32-1.56.03-.35.01-.7.02-1.06,0-.14,0-.14.14-.14.97,0,1.93,0,2.9,0,.27,0,.26,0,.27-.26,0-.1-.03-.14-.13-.13-.58,0-1.16,0-1.74,0Z"/>
  <path class="cls-1" d="m69.79,47.8c.07-.25.13-.49.2-.72,0-.02.06-.05.1-.05.28,0,.57,0,.85,0,.74,0,1.48,0,2.22,0,.45,0,.89.05,1.32.18.62.2,1.04.59,1.18,1.25.07.35.04.7-.03,1.05-.13.63-.35,1.21-.74,1.73-.52.69-1.21,1.11-2.05,1.28-.44.09-.88.13-1.33.13-.98,0-1.97,0-2.95,0-.03,0-.07,0-.11,0,.04-.16.08-.3.12-.45.03-.09.03-.22.09-.27.06-.05.19-.02.29-.02.07,0,.15-.02.22-.03.2-.03.29-.17.33-.36.08-.35.17-.7.26-1.04.2-.74.4-1.48.59-2.23.02-.08.03-.15.05-.23.02-.1-.01-.17-.11-.19-.1-.02-.2-.03-.3-.04-.06,0-.13,0-.2,0Zm1.49,4.08c.25-.02.49,0,.71-.05.44-.08.74-.37.95-.75.27-.49.46-1.02.57-1.57.07-.32.15-.64.1-.97-.05-.36-.22-.61-.59-.67-.17-.03-.34-.01-.51-.02-.11,0-.16.03-.19.14-.29,1.08-.59,2.16-.88,3.24-.06.21-.11.41-.17.65Z"/>
  <path class="cls-1" d="m83.95,52.8c-.68-.02-1.19-.07-1.67-.29-.58-.27-.91-.71-1-1.34-.11-.76.06-1.48.41-2.15.55-1.07,1.45-1.69,2.6-1.98.48-.12.97-.15,1.47-.12.46.03.9.11,1.31.34.57.32.88.8.93,1.44.06.77-.17,1.48-.54,2.14-.57,1.01-1.45,1.59-2.56,1.84-.36.08-.73.1-.93.13Zm-.61-1.66c0,.06.01.17.03.28.05.35.26.57.58.6.34.04.66-.04.9-.29.16-.17.3-.36.42-.57.27-.48.43-1.01.56-1.55.1-.42.18-.83.12-1.27-.05-.34-.22-.56-.52-.62-.18-.04-.36-.03-.54.03-.35.11-.57.36-.75.65-.26.42-.41.88-.56,1.35-.13.43-.24.87-.24,1.38Z"/>
  <path class="cls-1" d="m77.24,51.86c-.07.25-.13.48-.2.7,0,.02-.06.05-.09.05-.19,0-.37,0-.56,0-.58,0-1.15,0-1.73,0h-.11s0-.05,0-.07c.06-.2.11-.41.17-.61,0-.03.06-.07.09-.07.42.02.7-.2.9-.54.33-.53.65-1.06.97-1.58.53-.87,1.07-1.75,1.6-2.62.04-.07.09-.1.17-.1.6,0,1.19,0,1.79,0h.12c0,.13.02.25.03.37.02.4.03.8.04,1.2.03.77.07,1.55.1,2.32,0,.19.01.38.02.56.02.29.14.41.43.42.11,0,.21,0,.33,0-.07.25-.13.48-.2.71,0,.02-.07.04-.1.04-.37,0-.75,0-1.12,0-.69,0-1.37,0-2.06,0-.04,0-.08,0-.14,0,.05-.18.09-.34.13-.5.07-.25.07-.25.33-.26.1,0,.19,0,.29-.01.12-.02.17-.09.2-.2.08-.27,0-.53,0-.79,0-.07-.05-.06-.1-.06-.23,0-.46,0-.69,0-.23,0-.45,0-.68,0-.04,0-.1.03-.12.07-.14.21-.28.43-.41.65-.08.12-.02.25.13.28.07.02.14.02.2.02.07,0,.15,0,.24,0Zm1.33-3.47s-.02,0-.03-.01c-.31.56-.63,1.11-.95,1.68.05,0,.07,0,.1,0,.27,0,.55,0,.82,0,.09,0,.11-.03.11-.11-.02-.5-.03-1-.04-1.5,0-.02,0-.05,0-.07Z"/>
  <path class="cls-1" d="m67.36,47.04c0,.17.02.33.03.49.02.61.04,1.22.07,1.83.03.67.05,1.34.08,2.01,0,.07.01.14.02.2.05.24.16.33.42.34.11,0,.21,0,.33,0-.07.25-.13.48-.2.71,0,.02-.07.04-.1.04-.3,0-.6,0-.89,0-.76,0-1.52,0-2.27,0-.04,0-.09,0-.14,0,0-.04,0-.06.01-.08.05-.19.11-.39.16-.58.02-.06.05-.09.11-.09.13,0,.26,0,.39,0,.15,0,.24-.1.28-.23.06-.21.01-.41,0-.62-.01-.21-.03-.21-.24-.21-.4,0-.8,0-1.2,0-.08,0-.13.03-.17.1-.12.21-.26.41-.39.62-.08.12-.03.25.11.29.07.02.14.02.2.02.08,0,.16,0,.25,0-.05.2-.1.38-.15.56-.07.22,0,.19-.25.19-.72,0-1.44,0-2.16,0h-.14c.04-.14.08-.27.11-.4.04-.22.09-.38.39-.37.24.01.43-.16.57-.36.12-.16.23-.34.34-.52.78-1.28,1.57-2.56,2.35-3.84.04-.07.09-.1.18-.1.6,0,1.19,0,1.79,0h.12Zm-1.76,1.36s-.02,0-.03,0c-.31.56-.63,1.11-.95,1.69.33,0,.63,0,.93,0,.09,0,.1-.03.1-.11-.01-.5-.03-1-.04-1.5,0-.03,0-.05-.01-.08Z"/>
  <path class="cls-1" d="m45.44,51.95c-.07.25-.13.48-.2.7,0,.02-.05.05-.08.05-.07,0-.15,0-.23,0-.99,0-1.98,0-2.97,0-.05,0-.09,0-.15,0,.07-.25.14-.49.21-.73,0-.03.06-.05.09-.05.13,0,.26,0,.39,0,.18,0,.23-.07.29-.23.07-.19,0-.37,0-.56,0-.02,0-.05,0-.07q-.01-.2-.21-.2c-.41,0-.82,0-1.22,0-.09,0-.14.03-.19.11-.12.21-.25.41-.38.61-.07.11-.02.25.12.29.06.02.13.02.19.02.08,0,.16,0,.26,0-.05.2-.1.4-.15.58-.07.25,0,.21-.27.21-.71,0-1.43,0-2.14,0-.04,0-.08,0-.13,0,0-.03,0-.05,0-.07.06-.2.11-.41.17-.61,0-.03.06-.07.09-.07.43.03.7-.21.91-.54.38-.61.76-1.23,1.13-1.85.48-.78.96-1.56,1.44-2.35.04-.07.09-.1.17-.1.6,0,1.2,0,1.8,0,.09,0,.12.02.13.12.03.81.07,1.61.1,2.42.02.38.03.76.04,1.14.01.27.02.55.04.82.02.26.14.37.41.38.11,0,.22,0,.35,0Zm-2.72-1.88c-.01-.57-.03-1.12-.04-1.68-.01,0-.02,0-.04,0-.31.56-.63,1.11-.95,1.68h1.03Z"/>
  <path class="cls-1" d="m49.73,52.66c.07-.25.13-.48.2-.71,0-.02.04-.05.07-.04.47.03.74-.24.97-.61.84-1.37,1.68-2.74,2.52-4.12.05-.08.1-.11.19-.11.59,0,1.18,0,1.77,0h.12c0,.17.02.33.03.49.03.78.06,1.56.09,2.34.02.49.04.98.06,1.47,0,.08,0,.15.02.22.04.24.15.34.41.35.11,0,.22,0,.35,0-.07.25-.13.48-.2.7,0,.02-.04.04-.07.05-.02,0-.05,0-.08,0-1.04,0-2.07,0-3.11,0h-.14c.03-.12.06-.22.08-.32.03-.12.07-.24.1-.37.02-.08.06-.12.15-.11.12,0,.23,0,.35,0,.19,0,.23-.06.29-.24.07-.22.01-.43,0-.64,0-.19-.02-.19-.21-.19-.41,0-.83,0-1.24,0-.07,0-.11.02-.15.08-.14.23-.29.45-.44.67-.08.12-.04.25.11.29.09.02.2.02.3.02.05,0,.1,0,.16,0-.07.25-.13.48-.2.71,0,.02-.07.04-.11.05-.35,0-.69,0-1.04,0-.41,0-.82,0-1.22,0-.04,0-.07,0-.14,0Zm3.05-2.62c.36,0,.69,0,1.02,0,.02,0,.05-.05.05-.07-.02-.51-.05-1.02-.07-1.54,0-.03-.01-.05-.02-.07h-.02c-.31.55-.63,1.11-.95,1.69Z"/>
  <path class="cls-1" d="m63.19,46.99c-.05.19-.09.36-.14.53-.14.54-.29,1.08-.43,1.62-.02.09-.06.12-.16.12-.25,0-.5,0-.75,0-.09,0-.11-.03-.1-.11.03-.3.02-.6-.07-.88-.1-.33-.33-.49-.66-.51-.58-.05-.98.21-1.28.69-.29.47-.48.98-.6,1.51-.08.36-.15.72-.19,1.08-.02.19,0,.39.06.58.07.28.33.45.64.47.73.04,1.23-.31,1.61-.9.1-.15.16-.33.24-.5.02-.03.05-.07.08-.07.26,0,.52,0,.78,0,0,0,.01,0,.02.01,0,.02,0,.04-.01.06-.39,1.17-1.18,1.87-2.39,2.11-.63.13-1.27.12-1.89-.06-.7-.2-1.28-.72-1.29-1.66-.02-1.35.68-3.08,2.35-3.85.61-.28,1.26-.37,1.92-.3.17.02.33.04.5.07.21.04.4.13.57.25.06.04.1.05.13-.02.09-.21.26-.26.47-.24.19.02.38,0,.59,0Z"/>
  <path class="cls-1" d="m51.83,47.08c-.06.21-.11.41-.16.62-.12.46-.25.92-.37,1.39-.02.08-.05.11-.13.1-.23,0-.46,0-.7,0,.02-.13.05-.25.05-.36,0-.18,0-.35-.04-.53-.03-.17-.15-.29-.32-.32-.19-.03-.39-.04-.58-.05-.02,0-.06.05-.07.09-.2.75-.4,1.51-.6,2.26-.09.35-.19.71-.28,1.06-.03.12-.04.24-.05.35,0,.09.04.15.12.17.09.02.18.04.27.04.15,0,.29,0,.45,0,0,.03,0,.06-.01.08-.05.19-.11.39-.16.58-.02.07-.05.1-.12.09-.11,0-.23,0-.34,0-1.03,0-2.06,0-3.1,0-.04,0-.08,0-.13,0,0-.04,0-.07.01-.09.05-.19.11-.38.16-.57.02-.06.04-.09.11-.09.2,0,.4-.02.6-.04.14-.02.23-.11.27-.25.11-.4.23-.8.34-1.2.21-.81.42-1.61.63-2.42,0-.03.01-.06.03-.13-.16.02-.29.05-.43.07-.51.07-.79.41-.99.84-.05.11-.07.22-.11.33-.01.03-.04.07-.07.07-.24,0-.48,0-.74,0,0-.04.01-.07.02-.09.17-.64.34-1.28.51-1.92.02-.07.04-.09.12-.09,1.91,0,3.82,0,5.73,0,.02,0,.03,0,.07,0Z"/>
  <path class="cls-1" d="m78.41,46.48c.09-.16.17-.3.26-.44.01-.02.06-.04.08-.04.65,0,1.3,0,1.94,0,0,0,.02,0,.05.02-.09.16-.18.31-.27.46-.01.02-.05.02-.07.02-.65,0-1.3,0-1.94,0,0,0-.02,0-.05-.01Z"/>
</svg>