<?xml version="1.0" encoding="UTF-8"?>
<svg id="Camada_1" data-name="Camada 1" xmlns="http://www.w3.org/2000/svg" viewBox="0 0 100 100">
  <defs>
    <style>
      .cls-1 {
        fill: #fff;
      }
    </style>
  </defs>
  <g id="g12">
    <path id="path6" class="cls-1" d="M32.67,47.1l-13.06,13.05h13.06v-13.05"/>
    <path id="path8" class="cls-1" d="M44.93,52.8l7.34,7.34,29.41-29.38H49.02l-11.44,11.43v17.94h7.77l-7.33-7.33,7.33-7.34h6.93l-7.36,7.36v-.03"/>
    <path id="path10" class="cls-1" d="M37.58,67.21h1.79v2.9l2.08-2.9h2.01l-2.47,3.09,2.72,3.63h-2.23l-2.12-3.12v3.12h-1.79v-6.72h0s0,0,0,0Zm6.62-.54h1.71v7.26h-1.71v-7.26h0s0,0,0,0Zm5.76,5c-.5,0-.86,.06-1.08,.16-.22,.11-.33,.28-.33,.52,0,.17,.06,.31,.18,.42,.12,.11,.27,.16,.47,.16,.31,0,.56-.1,.76-.31,.2-.21,.3-.48,.3-.81v-.14s-.29,0-.29,0Zm1.9-.34v2.6h-1.48l-.04-.77c-.2,.29-.45,.5-.73,.63-.29,.13-.63,.2-1.03,.2-.5,0-.91-.14-1.21-.43-.3-.29-.45-.67-.45-1.15,0-.55,.22-.96,.65-1.23,.44-.27,1.11-.4,2.01-.4h.67v-.07c0-.27-.1-.48-.31-.62-.21-.15-.51-.22-.91-.22-.19,0-.42,.03-.67,.1-.25,.07-.52,.17-.8,.3l-.03-1.12c.28-.12,.58-.2,.9-.26,.32-.06,.68-.09,1.07-.09,.81,0,1.41,.2,1.79,.61,.38,.41,.57,1.04,.57,1.91h0s0,0,0,0Zm4-1.26c-.34,0-.61,.12-.8,.36-.2,.24-.3,.57-.3,.98s.09,.75,.28,.98c.19,.24,.45,.36,.78,.36,.31,0,.56-.12,.75-.35,.18-.23,.28-.54,.28-.93,0-.42-.09-.75-.28-1.01-.19-.26-.42-.39-.71-.39h0Zm-2.81-3.4h1.71v2.97c.2-.28,.43-.48,.7-.62,.27-.14,.58-.2,.93-.2,.67,0,1.2,.23,1.6,.69,.4,.46,.6,1.08,.6,1.86s-.2,1.42-.61,1.91c-.41,.48-.94,.73-1.6,.73-.39,0-.74-.09-1.05-.27-.31-.18-.56-.45-.75-.8v1h-1.52v-7.26h0Zm6.64,2.28h1.71v4.98h-1.71v-4.98h0Zm0-2.28h1.71v1.38h-1.71v-1.38Zm8.23,4.35v2.91h-1.69v-2.56c0-.39-.07-.68-.21-.87-.14-.19-.35-.29-.63-.29s-.53,.12-.71,.36c-.18,.24-.27,.56-.27,.96v2.39h-1.71v-4.98h1.55v.89c.2-.33,.45-.59,.76-.76,.31-.17,.66-.26,1.04-.26,.61,0,1.07,.19,1.39,.56,.32,.37,.48,.92,.48,1.64"/>
  </g>
</svg>