<?xml version="1.0" encoding="UTF-8"?>
<svg id="Camada_1" data-name="Camada 1" xmlns="http://www.w3.org/2000/svg" viewBox="0 0 100 100">
  <defs>
    <style>
      .cls-1 {
        fill: #fff;
      }
    </style>
  </defs>
  <path class="cls-1" d="M49.69,39.21c1.25-1.25,2.47-2.55,3.76-3.75,2.22-2.06,5.5-2.04,7.62-.03,2.17,2.06,2.34,5.53,.22,7.78-2.58,2.75-5.24,5.42-7.94,8.05-1.82,1.77-4.88,1.96-6.91,.39-1.74-1.35-3.35-2.88-4.64-4.71,.6-.58,1.2-1.15,1.8-1.73,1.38-1.4,2.76-2.79,4.14-4.19,.65-.61,1.3-1.21,1.95-1.81h0Zm.28,10.85c.62,.07,1.36-.36,2.01-1.01,2.46-2.44,4.95-4.85,7.35-7.35,1.43-1.49,1.39-3.32-.03-4.49-1.46-1.21-2.95-1.14-4.33,.23-2.92,2.92-5.85,5.83-8.75,8.77-.27,.27-.95,.6-.59,1,1.12,1.2,2.01,2.81,4.33,2.85h0Z"/>
  <path class="cls-1" d="M49.69,39.21c-.65,.6-1.3,1.21-1.95,1.81-1.16-1.21-2.3-2.45-3.5-3.63-1.36-1.35-2.85-1.44-4.27-.12-1.43,1.33-1.39,2.89-.15,4.29,1.16,1.31,2.51,2.44,3.78,3.65-.6,.58-1.2,1.15-1.8,1.73-1.26-1.22-2.59-2.38-3.77-3.68-2.07-2.27-2.02-5.43,.01-7.56,2.14-2.24,5.29-2.42,7.7-.33,1.38,1.2,2.63,2.55,3.94,3.84h0Z"/>
  <path class="cls-1" d="M19.22,57.75c0,1.67,.02,3.34-.01,5.01,0,.42,.25,1.05-.59,1.06-.86,0-.56-.65-.57-1.05-.03-2.31-.03-4.63,0-6.94,0-.39-.29-.96,.34-1.13,.69-.2,1.01,.24,1.33,.8,1.02,1.82,2.08,3.61,3.4,5.4v-4.38c0-.36,.01-.71,0-1.07-.02-.43,0-.8,.6-.8,.63,0,.7,.35,.69,.86-.01,2.4,0,4.8-.02,7.21,0,.39,.25,.95-.43,1.08-.55,.11-.88-.12-1.16-.63-.79-1.44-1.64-2.84-2.47-4.26-.24-.41-.5-.81-.76-1.22-.12,.02-.24,.04-.36,.05h0Z"/>
  <path class="cls-1" d="M74.4,58.92c0,1.28,0,2.57,0,3.85,0,.34,.05,.68-.36,.9-1.45,.81-4.4,.01-5.05-1.4-.88-1.9-.1-4.45,1.75-4.86,1.59-.35,2.95-.44,2.47-2.61-.09-.43,.42-.31,.71-.34,.43-.03,.49,.25,.49,.59,0,1.28,0,2.57,0,3.85h0Zm-1.23,1.58c0-.35-.04-.71,0-1.06,.15-1.19-.58-1.36-1.47-1.21-.93,.15-1.49,.8-1.61,1.7-.13,.96-.21,1.98,.8,2.61,.6,.37,1.3,.41,1.92,.17,.65-.25,.27-.93,.35-1.41,.04-.26,0-.53,0-.79h0Z"/>
  <path class="cls-1" d="M51.6,63.87c-.4-.03-.82,.02-1.19-.11-.32-.12-1,.02-.77-.75,.17-.59,.52-.63,1-.44,.56,.22,1.14,.2,1.71,.12,.68-.1,1.29-.38,1.43-1.17,.14-.82-.21-1.37-.95-1.7-.56-.25-1.13-.5-1.69-.76-1-.47-1.48-1.26-1.35-2.36,.12-1.09,.74-1.73,1.81-2.03,.94-.26,1.84-.11,2.76,.05,.38,.07,.53,.28,.44,.66-.09,.36-.29,.5-.68,.44-.57-.09-1.12-.28-1.71-.16-.61,.12-1.12,.38-1.23,1.04-.1,.6,.26,1.01,.78,1.26,.44,.21,.89,.39,1.34,.58,1.62,.72,2.22,1.67,1.95,3.06-.29,1.45-1.24,2.18-2.99,2.27-.22,.01-.44,0-.66,0h0Z"/>
  <path class="cls-1" d="M78.91,63.9c-2.34,.02-3.42-1.13-3.36-3.58,.06-2.13,1.22-3.29,3.2-3.19,1.62,.08,2.8,1.67,2.51,3.26-.1,.53-.4,.48-.75,.49-.88,0-1.77-.02-2.66,.01-.31,.01-.77-.23-.9,.27-.09,.34,.06,.69,.29,.98,.58,.74,1.39,.6,2.19,.66,.45,.03,1.28-.7,1.31,.37,.03,.84-.8,.58-1.32,.67-.17,.03-.35,.04-.53,.05h0Zm-.56-3.96c.49-.33,1.42,.39,1.49-.55,.06-.79-.62-1.21-1.45-1.19-.78,.02-1.36,.47-1.36,1.17,0,1.01,.91,.23,1.32,.57h0Z"/>
  <path class="cls-1" d="M28.58,57.13c1.88,0,3.04,1.31,3.03,3.41-.02,2.07-1.12,3.32-2.96,3.34-1.9,.02-3.1-1.26-3.12-3.34-.02-2.07,1.17-3.41,3.05-3.42h0Zm-1.7,3.36c-.02,1.43,.69,2.42,1.73,2.4,.99-.02,1.66-.95,1.69-2.33,.02-1.43-.68-2.37-1.76-2.36-1.04,.02-1.64,.84-1.66,2.29h0Z"/>
  <path class="cls-1" d="M60.99,61.02c0,.09,.01,.18,0,.27-.15,.78,.47,1.88-.38,2.3-1.06,.52-2.35,.48-3.5,.06-.8-.29-1.23-.98-1.19-1.89,.04-.96,.57-1.58,1.42-1.89,.49-.18,1.04-.2,1.56-.26,.27-.03,.64,.24,.75-.25,.09-.39-.08-.69-.4-.91-.57-.4-1.2-.27-1.8-.18-.41,.06-.81,.24-.95-.33-.17-.71,.46-.66,.83-.74,2.45-.54,3.66,.43,3.67,2.89v.93h0Zm-1.31,.68c.15-.71-.07-1.17-.94-1.07-.72,.08-1.45,.17-1.48,1.12-.04,1.03,.73,1.03,1.44,1.08,.77,.05,1.17-.26,.97-1.13h0Z"/>
  <path class="cls-1" d="M47.41,61.09s0,.09,0,.13c-.14,.8,.45,1.9-.33,2.35-.99,.56-2.25,.44-3.38,.14-.8-.21-1.24-.86-1.3-1.68-.06-.85,.24-1.56,1.05-1.99,.57-.3,1.19-.33,1.8-.43,.34-.05,.88,.3,.89-.4,0-.5-.32-.87-.79-.93-.52-.07-1.07-.08-1.58,.04-.45,.1-.66,.03-.78-.4-.15-.55,.3-.57,.61-.67,2.3-.76,3.82,.35,3.83,2.77,0,.36,0,.71,0,1.07h0Zm-1.19,.67c.12-.83-.19-1.22-1.02-1.13-.74,.08-1.48,.22-1.5,1.15-.02,.89,.69,1.05,1.39,1.07,.73,.02,1.37-.13,1.14-1.09h0Z"/>
  <path class="cls-1" d="M67.6,60.53c0,.35,0,.71,0,1.07,0,2.2-.04,2.24-2.13,2.3-2.13,.06-3.12-.7-3.17-2.48-.03-1.15-.01-2.31,0-3.46,0-.35-.03-.73,.5-.75,.53-.02,.69,.26,.68,.74-.01,.8-.02,1.6,0,2.4,.02,.48,.05,.98,.19,1.44,.31,1.06,1.18,1.06,2.05,.99,.98-.08,.54-.87,.57-1.34,.06-1.15,.03-2.31,.02-3.46,0-.47,.11-.78,.65-.77,.54,0,.64,.35,.64,.8-.01,.84,0,1.69,0,2.53h0Z"/>
  <path class="cls-1" d="M33.58,62.77c.35,0,.66,.02,.97,0,.49-.04,.86-.29,.93-.8,.07-.47-.25-.73-.64-.9-.45-.19-.91-.35-1.35-.56-.7-.33-1.12-.86-1.04-1.69,.09-.79,.52-1.29,1.27-1.53,.83-.27,1.66-.22,2.48,.04,.28,.09,.47,.2,.35,.56-.11,.31-.16,.52-.62,.44-.73-.13-1.83-.58-2.06,.43-.25,1.08,1.03,.98,1.68,1.29,.86,.42,1.34,.99,1.24,1.97-.1,.98-.74,1.5-1.6,1.74-.5,.14-1.06,.13-1.58,.06-.45-.05-1.23,.27-1.2-.61,.03-.99,.79-.32,1.17-.45h0Z"/>
  <path class="cls-1" d="M38.46,62.77c.43,0,.69,.02,.96,0,.49-.03,.88-.26,.99-.75,.12-.53-.26-.81-.7-.99-.45-.18-.91-.33-1.36-.54-.66-.3-1.07-.82-1.02-1.57,.05-.76,.41-1.34,1.18-1.61,.83-.29,1.65-.26,2.48-.03,.3,.08,.63,.18,.48,.62-.11,.32-.27,.47-.68,.41-.74-.11-1.85-.56-2.06,.46-.21,1.03,1.05,.96,1.71,1.28,.8,.37,1.34,.92,1.3,1.82-.04,.94-.62,1.55-1.48,1.86-.68,.24-1.4,.18-2.11,.1-.42-.05-.98,0-.88-.68,.09-.61,.56-.42,.94-.4,.13,0,.27,.03,.24,.02h0Z"/>
  <path class="cls-1" d="M66.97,54.81c-.98,.68-1.46,1.88-2.87,1.43,.68-.94,1.23-1.96,2.87-1.43h0Z"/>
</svg>