<?xml version="1.0" encoding="UTF-8"?>
<svg id="Camada_1" data-name="Camada 1" xmlns="http://www.w3.org/2000/svg" viewBox="0 0 100 100">
  <defs>
    <style>
      .cls-1 {
        fill: #fff;
      }

      .cls-1, .cls-2 {
        fill-rule: evenodd;
      }

      .cls-2 {
        fill: none;
      }
    </style>
  </defs>
  <path class="cls-1" d="m50.31,32.4h.81l.86.16.86.16.75.32.75.32.7.49.65.43.59.6.59.6.43.65.48.7.32.76.32.76.16.87.16.87.05.81-.05.92-.16.87-.16.76-.32.81-.32.76-.48.7-.43.7-.59.6-.59.49-.65.54-.7.38-.75.43-.75.22-.86.27-.86.05-.81.11-.86-.11-.86-.05-.86-.27-.75-.22-.75-.43-.7-.38-.65-.54-.65-.49-.54-.6-.48-.7-.43-.7-.38-.76-.27-.81-.16-.76-.16-.87-.05-.92.05-.81.16-.87.16-.87.27-.76.38-.76.43-.7.48-.65.54-.6.65-.6.65-.43.7-.49.75-.32.75-.32.86-.16.86-.16h.86Zm0,.81h0l-.81.05-.81.05-.7.22-.7.22-.65.38-.65.38-.59.43-.59.54-.48.54-.43.54-.38.7-.32.65-.27.7-.22.76-.11.76v1.57l.11.76.22.81.27.65.32.7.38.65.43.6.48.54.59.49.59.43.65.38.65.32.7.27.7.16.81.16.81.05.75-.05.81-.16.7-.16.7-.27.65-.32.65-.38.59-.43.59-.49.48-.54.43-.6.38-.65.32-.7.27-.65.22-.81.11-.76v-1.57l-.11-.76-.22-.76-.27-.7-.32-.65-.38-.7-.43-.54-.48-.54-.59-.54-.59-.43-.65-.38-.65-.38-.7-.22-.7-.22-.81-.05-.75-.05h0Z"/>
  <path class="cls-1" d="m50.7,42.92v2.6h-.82v-2.6h-3.92l-.44-.11-.33-.11-.27-.22-.16-.22-.16-.32v-.54l.11-.38.11-.49.22-.38.16-.38.22-.32.33-.43.27-.32.33-.27.16-.11.38-.11h.49l.16-.27.11-.22.22-.16.27-.22h.05l.05-.05.44-.16.54-.11.54-.05h1.03l.54.05.54.11.44.16.27.16.27.22.16.27.16.27.27-.11.22.11.27.05.22.11.33.32.33.32.27.32.27.43.16.38.22.38.11.49.11.38v.54l-.16.32-.16.22-.27.22-.33.11-.44.11h-3.92Zm2.99-3.79h0l-.11-.11-.11-.05h-.16l-.11.05-.05.11-.11.11-1.42,2.49v.22l.05.05.11.05h2.99l.11-.05.16-.05.05-.16v-.05l.05-.11h0v-.11l-.22-.65-.33-.65-.38-.65-.54-.43h0Zm-6.8,0h0l-.54.43-.38.65-.33.65-.22.65v.11h0v.11l.05.05.05.16.16.05.05.05h3.05l.05-.05.11-.05v-.22l-1.42-2.49-.11-.11-.11-.11-.05-.05h-.16l-.11.05-.11.11h0Zm5.17-1.03h0v-.05h0l-.44-.11-.44-.05-.44-.11h-.93l-.44.11-.44.05-.44.11v.05h0l-.16.11-.11.11v.11l-.05.16.05.11.05.22,1.74,3.03.11.05.16.05.11-.05.11-.05,1.74-3.03.05-.22.05-.11-.05-.16-.05-.16-.05-.05-.16-.11h0Z"/>
  <path class="cls-1" d="m23.37,53.5l2.09,3.99,2.14-3.99h3.22v7.98h-3.22v-3.99l-2.14,3.99-2.09-3.99v3.99h-3.22v-7.98h3.22Zm13.76,1.2l-1.27,4.17h2.6l-1.33-4.17h0Zm-5.31,6.79h0l2.49-7.98h5.69l2.49,7.98h-3.22l-.41-1.32h-3.44l-.38,1.32h-3.22Zm15.6-7.09l.3.02.27.07.22.05.22.12.19.15.14.22.08.2.05.25-.05.27-.05.22-.14.25-.19.17-.19.15-.24.12-.3.1-.3.02h-.68v-2.42h.68Zm2.09-.9h-6.01v7.98h3.22v-3.34h3.03l.24-.02.24-.05.24-.1.22-.1.22-.12.19-.1.16-.15.16-.2.16-.17.14-.17.11-.22.05-.2.05-.22.08-.22v-.5l-.08-.2-.05-.25-.05-.2-.11-.17-.14-.22-.16-.17-.16-.15-.16-.15-.19-.15-.22-.12-.22-.1-.24-.05-.24-.07-.24-.02-.24-.02h0Zm3.63,0h8.53v1.3h-5.31v2.05h5.31v1.3h-5.31v3.34h-3.22v-7.98h0Zm22.56,6.66h5.31v1.32h-8.53v-7.98h8.53v1.3h-5.31v2.05h5.31v1.3h-5.31v2.02h0Zm-8.99-5.74h.27l.27.07.22.1.24.07.19.15.14.22.05.07.03.12v.12l.03.12-.03.27-.08.22-.14.25-.16.17-.22.15-.24.12-.27.1-.3.02h-.68v-2.39h.68Zm4.6,4.99h0v.1-.1h0Zm0,.1h0v-.1l-.05-.17-.03-.22-.05-.17-.08-.17-.08-.15-.11-.15-.14-.15-.14-.15-.16-.12-.16-.12-.16-.1-.19-.07-.19-.07-.19-.02-.24-.02-.19-.02h.19l.24-.05.19-.05.19-.05.19-.1.22-.1.16-.12.11-.1.19-.15.08-.15.14-.17.11-.17.05-.17.03-.17.03-.22.05-.2-.05-.17-.03-.22-.03-.17-.05-.17-.11-.2-.14-.17-.08-.15-.19-.12-.11-.15-.16-.12-.22-.07-.19-.1-.19-.05-.19-.07-.24-.02h-6.55v7.98h3.25v-3.32h.68l.3.05.27.07.24.12.22.15.16.17.14.25.08.25.03.27v1.97h3.17v-1.97h0Z"/>
  <polygon class="cls-2" points="-81.59 77.55 172.95 77.55 172.95 122 -81.59 122 -81.59 77.55 -81.59 77.55"/>
</svg>