<?xml version="1.0" encoding="UTF-8"?>
<svg id="Camada_1" data-name="Camada 1" xmlns="http://www.w3.org/2000/svg" viewBox="0 0 100 100">
  <defs>
    <style>
      .cls-1 {
        fill: #fff;
        fill-rule: evenodd;
      }
    </style>
  </defs>
  <path class="cls-1" d="M50.31,21.4h.81l.86,.16,.86,.16,.75,.32,.75,.32,.7,.49,.65,.43,.59,.6,.59,.6,.43,.65,.48,.7,.32,.76,.32,.76,.16,.87,.16,.87,.05,.81-.05,.92-.16,.87-.16,.76-.32,.81-.32,.76-.48,.7-.43,.7-.59,.6-.59,.49-.65,.54-.7,.38-.75,.43-.75,.22-.86,.27-.86,.05-.81,.11-.86-.11-.86-.05-.86-.27-.75-.22-.75-.43-.7-.38-.65-.54-.65-.49-.54-.6-.48-.7-.43-.7-.38-.76-.27-.81-.16-.76-.16-.87-.05-.92,.05-.81,.16-.87,.16-.87,.27-.76,.38-.76,.43-.7,.48-.65,.54-.6,.65-.6,.65-.43,.7-.49,.75-.32,.75-.32,.86-.16,.86-.16h.86Zm0,.81h0l-.81,.05-.81,.05-.7,.22-.7,.22-.65,.38-.65,.38-.59,.43-.59,.54-.48,.54-.43,.54-.38,.7-.32,.65-.27,.7-.22,.76-.11,.76v1.57l.11,.76,.22,.81,.27,.65,.32,.7,.38,.65,.43,.6,.48,.54,.59,.49,.59,.43,.65,.38,.65,.32,.7,.27,.7,.16,.81,.16,.81,.05,.75-.05,.81-.16,.7-.16,.7-.27,.65-.32,.65-.38,.59-.43,.59-.49,.48-.54,.43-.6,.38-.65,.32-.7,.27-.65,.22-.81,.11-.76v-1.57l-.11-.76-.22-.76-.27-.7-.32-.65-.38-.7-.43-.54-.48-.54-.59-.54-.59-.43-.65-.38-.65-.38-.7-.22-.7-.22-.81-.05-.75-.05h0Z"/>
  <path class="cls-1" d="M50.7,31.92v2.6h-.82v-2.6h-3.92l-.44-.11-.33-.11-.27-.22-.16-.22-.16-.32v-.54l.11-.38,.11-.49,.22-.38,.16-.38,.22-.32,.33-.43,.27-.32,.33-.27,.16-.11,.38-.11h.49l.16-.27,.11-.22,.22-.16,.27-.22h.05l.05-.05,.44-.16,.54-.11,.54-.05h1.03l.54,.05,.54,.11,.44,.16,.27,.16,.27,.22,.16,.27,.16,.27,.27-.11,.22,.11,.27,.05,.22,.11,.33,.32,.33,.32,.27,.32,.27,.43,.16,.38,.22,.38,.11,.49,.11,.38v.54l-.16,.32-.16,.22-.27,.22-.33,.11-.44,.11h-3.92Zm2.99-3.79h0l-.11-.11-.11-.05h-.16l-.11,.05-.05,.11-.11,.11-1.42,2.49v.22l.05,.05,.11,.05h2.99l.11-.05,.16-.05,.05-.16v-.05l.05-.11h0v-.11l-.22-.65-.33-.65-.38-.65-.54-.43h0Zm-6.8,0h0l-.54,.43-.38,.65-.33,.65-.22,.65v.11h0v.11l.05,.05,.05,.16,.16,.05,.05,.05h3.05l.05-.05,.11-.05v-.22l-1.42-2.49-.11-.11-.11-.11-.05-.05h-.16l-.11,.05-.11,.11h0Zm5.17-1.03h0v-.05h0l-.44-.11-.44-.05-.44-.11h-.93l-.44,.11-.44,.05-.44,.11v.05h0l-.16,.11-.11,.11v.11l-.05,.16,.05,.11,.05,.22,1.74,3.03,.11,.05,.16,.05,.11-.05,.11-.05,1.74-3.03,.05-.22,.05-.11-.05-.16-.05-.16-.05-.05-.16-.11h0Z"/>
  <path class="cls-1" d="M23.37,42.5l2.09,3.99,2.14-3.99h3.22v7.98h-3.22v-3.99l-2.14,3.99-2.09-3.99v3.99h-3.22v-7.98h3.22Zm13.76,1.2l-1.27,4.17h2.6l-1.33-4.17h0Zm-5.31,6.79h0l2.49-7.98h5.69l2.49,7.98h-3.22l-.41-1.32h-3.44l-.38,1.32h-3.22Zm15.6-7.09l.3,.02,.27,.07,.22,.05,.22,.12,.19,.15,.14,.22,.08,.2,.05,.25-.05,.27-.05,.22-.14,.25-.19,.17-.19,.15-.24,.12-.3,.1-.3,.02h-.68v-2.42h.68Zm2.09-.9h-6.01v7.98h3.22v-3.34h3.03l.24-.02,.24-.05,.24-.1,.22-.1,.22-.12,.19-.1,.16-.15,.16-.2,.16-.17,.14-.17,.11-.22,.05-.2,.05-.22,.08-.22v-.5l-.08-.2-.05-.25-.05-.2-.11-.17-.14-.22-.16-.17-.16-.15-.16-.15-.19-.15-.22-.12-.22-.1-.24-.05-.24-.07-.24-.02-.24-.02h0Zm3.63,0h8.53v1.3h-5.31v2.05h5.31v1.3h-5.31v3.34h-3.22v-7.98h0Zm22.56,6.66h5.31v1.32h-8.53v-7.98h8.53v1.3h-5.31v2.05h5.31v1.3h-5.31v2.02h0Zm-8.99-5.74h.27l.27,.07,.22,.1,.24,.07,.19,.15,.14,.22,.05,.07,.03,.12v.12l.03,.12-.03,.27-.08,.22-.14,.25-.16,.17-.22,.15-.24,.12-.27,.1-.3,.02h-.68v-2.39h.68Zm4.6,4.99h0v0h0Zm0,.1h0v-.1l-.05-.17-.03-.22-.05-.17-.08-.17-.08-.15-.11-.15-.14-.15-.14-.15-.16-.12-.16-.12-.16-.1-.19-.07-.19-.07-.19-.02-.24-.02-.19-.02h.19l.24-.05,.19-.05,.19-.05,.19-.1,.22-.1,.16-.12,.11-.1,.19-.15,.08-.15,.14-.17,.11-.17,.05-.17,.03-.17,.03-.22,.05-.2-.05-.17-.03-.22-.03-.17-.05-.17-.11-.2-.14-.17-.08-.15-.19-.12-.11-.15-.16-.12-.22-.07-.19-.1-.19-.05-.19-.07-.24-.02h-6.55v7.98h3.25v-3.32h.68l.3,.05,.27,.07,.24,.12,.22,.15,.16,.17,.14,.25,.08,.25,.03,.27v1.97h3.17v-1.97h0Z"/>
  <path class="cls-1" d="M25.35,69.2l-.55-1.64h-2.91l-.58,1.64h-1.18l3.18-7.87h.28l2.93,7.87h-1.18Zm-1.93-5.83l-1.25,3.41h2.33l-1.08-3.41h0Zm3.58,5.46l.38-.97,.15,.1,.2,.1,.2,.07,.23,.1,.2,.05,.23,.05,.18,.02h.48l.28-.07,.23-.1,.2-.17,.18-.17,.1-.2,.1-.22,.03-.22-.03-.22-.05-.17-.05-.17-.1-.15-.15-.2-.23-.17-.33-.17-.35-.22-.63-.25-.38-.22-.3-.2-.28-.22-.18-.27-.15-.22-.1-.32-.05-.32v-.55l.03-.2,.03-.17,.1-.22,.08-.15,.1-.17,.13-.15,.15-.15,.15-.12,.18-.12,.18-.07,.2-.1,.2-.05,.23-.07,.23-.02h.55l.28,.02,.28,.02,.25,.07,.2,.05,.18,.07,.15,.07,.15,.1-.3,.92-.28-.15-.38-.15-.23-.05-.2-.07-.2-.02h-.2l-.25,.02-.23,.07-.2,.07-.18,.12-.13,.2-.13,.17-.05,.2v.22l.03,.3,.1,.22,.13,.25,.18,.17,.3,.2,.53,.27,.63,.3,.38,.2,.3,.22,.28,.2,.18,.27,.15,.27,.1,.3,.05,.35v.62l-.03,.2-.08,.17-.05,.22-.13,.17-.13,.15-.13,.17-.18,.15-.18,.15-.18,.12-.25,.1-.23,.07-.23,.07-.28,.05-.28,.02h-.55l-.25-.02-.2-.02-.25-.05-.2-.07-.23-.07-.18-.1-.2-.12h0Zm5.23,0l.4-.97,.15,.1,.18,.1,.23,.07,.2,.1,.23,.05,.2,.05,.18,.02h.5l.23-.07,.25-.1,.2-.17,.18-.17,.1-.2,.1-.22,.03-.22-.03-.22-.03-.17-.08-.17-.08-.15-.15-.2-.25-.17-.3-.17-.38-.22-.63-.25-.38-.22-.33-.2-.25-.22-.18-.27-.15-.22-.1-.32-.05-.32v-.55l.03-.2,.03-.17,.1-.22,.08-.15,.1-.17,.13-.15,.15-.15,.15-.12,.2-.12,.18-.07,.18-.1,.23-.05,.2-.07,.25-.02h.55l.25,.02,.28,.02,.25,.07,.2,.05,.2,.07,.15,.07,.15,.1-.33,.92-.25-.15-.4-.15-.2-.05-.23-.07-.18-.02h-.23l-.23,.02-.25,.07-.18,.07-.18,.12-.13,.2-.13,.17-.08,.2v.22l.05,.3,.05,.22,.15,.25,.18,.17,.3,.2,.53,.27,.63,.3,.38,.2,.3,.22,.25,.2,.2,.27,.13,.27,.13,.3,.05,.35v.62l-.03,.2-.05,.17-.08,.22-.13,.17-.1,.15-.13,.17-.18,.15-.2,.15-.2,.12-.23,.1-.2,.07-.25,.07-.28,.05-.28,.02h-.53l-.25-.02-.25-.02-.2-.05-.23-.07-.2-.07-.23-.1-.18-.12h0Zm5.79,.37v-7.75h1.08v7.75h-1.08Zm2.5-.37l.38-.97,.15,.1,.2,.1,.2,.07,.23,.1,.2,.05,.23,.05,.18,.02h.48l.25-.07,.25-.1,.2-.17,.15-.17,.13-.2,.1-.22v-.45l-.05-.17-.05-.17-.1-.15-.15-.2-.23-.17-.33-.17-.35-.22-.65-.25-.35-.22-.33-.2-.25-.22-.18-.27-.15-.22-.1-.32-.05-.32-.05-.32,.05-.22,.03-.2,.03-.17,.1-.22,.05-.15,.13-.17,.13-.15,.15-.15,.15-.12,.18-.12,.18-.07,.2-.1,.2-.05,.23-.07,.23-.02h.55l.28,.02,.28,.02,.25,.07,.2,.05,.18,.07,.15,.07,.15,.1-.33,.92-.25-.15-.38-.15-.23-.05-.2-.07-.2-.02h-.2l-.25,.02-.23,.07-.2,.07-.18,.12-.15,.2-.1,.17-.05,.2v.22l.03,.3,.08,.22,.15,.25,.18,.17,.3,.2,.53,.27,.63,.3,.38,.2,.3,.22,.23,.2,.23,.27,.13,.27,.1,.3,.08,.35v.62l-.03,.2-.08,.17-.05,.22-.13,.17-.13,.15-.13,.17-.18,.15-.18,.15-.23,.12-.2,.1-.23,.07-.23,.07-.28,.05-.28,.02h-.55l-.25-.02-.23-.02-.23-.05-.2-.07-.23-.07-.2-.1-.18-.12h0Zm8.42-6.45v6.83h-1.05v-6.83h-2.5v-.92h6.16v.92h-2.6Zm4.58,0v2.17h2.5v.9h-2.5v2.79h3.51v.97h-4.61v-7.75h4.61v.92h-3.51Zm1.98-1.54l-.9-1-.93,1h-.95l1.63-1.79h.58l1.6,1.79h-1.03Zm7.81,8.45l-4.03-5.66v5.58h-1v-7.75h.43l3.91,5.36v-5.36h1.03v7.82h-.33Zm6.91-7.55l-.38,.9-.15-.1-.15-.05-.18-.05-.18-.07-.43-.05-.53-.02h-.23l-.25,.05-.25,.05-.2,.1-.2,.12-.18,.15-.18,.17-.15,.22-.15,.2-.13,.27-.13,.25-.08,.27-.08,.3-.05,.3-.05,.32v.67l.05,.3,.05,.3,.08,.27,.08,.22,.13,.27,.13,.22,.15,.2,.18,.22,.15,.15,.23,.15,.18,.12,.2,.07,.23,.07,.25,.02h.5l.25-.02,.25-.07,.2-.07,.2-.1,.2-.15,.18-.15,.15-.17,.58,.8-.25,.22-.23,.17-.28,.15-.3,.15-.3,.1-.35,.05-.33,.05h-.73l-.33-.05-.35-.1-.33-.1-.28-.15-.28-.2-.25-.22-.23-.25-.23-.3-.18-.3-.15-.35-.13-.32-.08-.4-.08-.37-.03-.42-.03-.42,.03-.42,.03-.42,.08-.4,.1-.35,.13-.32,.15-.37,.23-.3,.2-.3,.25-.27,.28-.22,.28-.2,.28-.15,.33-.15,.33-.05,.35-.07,.35-.02,.6,.02,.53,.1,.25,.05,.23,.07,.18,.07,.23,.1h0Zm1.7,7.47v-7.75h1.08v7.75h-1.08Zm7.31,0l-.55-1.64h-2.91l-.58,1.64h-1.2l3.16-7.87h.28l2.98,7.87h-1.18Zm-1.98-5.83l-1.23,3.41h2.35l-1.13-3.41h0Z"/>
  <polygon class="cls-1" points="44.6 55.04 55.97 55.04 55.97 55.62 44.6 55.62 44.6 55.04 44.6 55.04"/>
</svg>