<?xml version="1.0" encoding="UTF-8"?>
<svg id="Camada_1" data-name="Camada 1" xmlns="http://www.w3.org/2000/svg" viewBox="0 0 100 100">
  <defs>
    <style>
      .cls-1 {
        fill: #fff;
      }
    </style>
  </defs>
  <path class="cls-1" d="M31.5,58.28c.01,.83-.3,1.04-1.07,1.05-2.94,.04-2.94,.06-2.94-2.86,0-2.38,.03-4.75-.03-7.13-.05-2.28-2.59-3.55-4.55-2.35-.41,.25-.35,.61-.36,.97,0,1.52-.03,3.03,0,4.54,.02,.74-.16,1.09-1.02,1.11-2.99,.06-2.99,.09-2.99-2.91,0-3.89,.04-7.78-.02-11.67-.01-.97,.29-1.35,1.23-1.53,2.77-.53,2.79-.55,2.77,2.27-.01,1.27-.06,2.53-.09,3.8l.07,.06s-.02,.09-.02,.09c.58-.04,1.17-.08,1.75-.12,.09,0,.18-.01,.27-.02,3.3-.46,5.6,.57,6.56,2.95,.28,.7,.38,1.42,.38,2.16,.01,3.19-.01,6.39,.04,9.58h0Z"/>
  <path class="cls-1" d="M22.78,57.33c-.01,1.27-1,2.22-2.29,2.2-1.2-.02-2.16-1-2.17-2.21-.02-1.37,.96-2.36,2.3-2.31,1.28,.04,2.18,1.01,2.17,2.32h0Z"/>
  <path class="cls-1" d="M80.02,59.19c-2.84,1.04-5.7,.78-8.54-.1-.85-.26-1.22-.73-.97-1.63,.08-.31,.05-.65,.09-.98,.11-.91,.23-1.47,1.47-.9,1.96,.9,4.08,1.2,6.19,.45,1.75-.62,2.22-2.72,.99-4.12-.73-.83-1.73-1.21-2.71-1.61-1.25-.51-2.54-.93-3.64-1.73-2.06-1.48-3.02-4.17-2.45-6.62,.62-2.65,2.35-3.99,4.94-4.43,.85-.14,1.7-.19,2.93-.19,1.07-.02,2.48,.2,3.88,.53,.82,.2,1.18,.61,1,1.45-.05,.24-.06,.49-.08,.73-.1,1.15-.47,1.59-1.79,1.16-1.61-.52-3.33-.8-5.06-.28-.94,.28-1.59,.84-1.8,1.8-.22,1,.08,1.86,.84,2.54,1,.9,2.28,1.24,3.49,1.72,2.19,.85,4.3,1.93,4.91,4.39,.81,3.28-.01,6.47-3.69,7.81h0Z"/>
  <path class="cls-1" d="M46.93,49.37c-.24-3.15-2.18-5.43-4.97-5.84-3.85-.56-6.73,.89-7.9,4.03-.79,2.13-.79,4.35-.35,6.54,.65,3.22,2.59,5,5.8,5.44,1.42,.19,2.85,.18,4.27-.11,2.38-.49,2.55-.72,2.66-3.13,.04-.78-.15-.78-.8-.54-1.75,.62-3.54,1-5.41,.58-1.72-.39-2.66-1.56-2.69-3.39,2.03,0,4.07,0,6.1,0q3.56,0,3.28-3.58h0Zm-9.39,3.55s0,.02-.01,.02h-.02l.03-.02h0Zm-.03-2.91l-.05-.06c-.44-.01-.67-.14-.56-.68,.51-2.47,2.43-3.66,4.84-2.96,1.14,.33,2.14,2.25,1.75,3.39-.04,.11-.26,.15-.4,.22-.15,.07-.29,.13-.44,.2-1.71-.04-3.42-.07-5.14-.11h0Z"/>
  <path class="cls-1" d="M69.03,48.31c-.81-2.91-2.81-4.54-5.8-4.81-2.18-.19-4.31,.08-6.41,.73-.8,.25-1.09,.63-1.08,1.48,.05,3.16,.02,6.31,.02,9.47,0,2.58,0,5.16,0,7.75,0,3.12,0,3.11,3.1,2.92,.63-.04,.86-.24,.84-.88-.04-1.27,.06-2.55-.03-3.81-.08-1.18,.18-1.62,1.52-1.55,4.29,.2,6.91-1.64,7.9-5.46,.5-1.93,.48-3.9-.06-5.83h0Zm-3.84,5.31c-.27,.81-.78,1.48-1.26,2.16,.04,.04,.09,.09,.13,.13,.17-.09,.31-.19,.44-.3-.13,.11-.27,.21-.44,.3h0s-.04,.04-.06,.05c.02-.02,.04-.04,.06-.05-.04-.04-.08-.09-.13-.13-1.1,.53-2.25,.66-3.45,.52-.55-.06-.8-.31-.79-.86,0-2.58,0-5.16,0-7.73,0-.4,.1-.68,.53-.85,2.16-.85,4.44,.34,4.94,2.61,.3,1.38,.12,2.77,.03,4.15h0Z"/>
  <path class="cls-1" d="M52.86,58.11c.02,1.01-.32,1.24-1.26,1.21-2.8-.07-2.79-.03-2.79-2.88,0-5.65,.04-11.3-.03-16.95-.02-1.32,.34-1.89,1.68-2.06,2.38-.3,2.36-.37,2.36,2.01,0,2.95,0,5.9,0,8.85h.02c0,3.28-.04,6.55,.02,9.83h0Z"/>
</svg>