<?xml version="1.0" encoding="UTF-8"?>
<svg id="Camada_1" data-name="Camada 1" xmlns="http://www.w3.org/2000/svg" viewBox="0 0 100 100">
  <defs>
    <style>
      .cls-1 {
        fill: #fff;
      }
    </style>
  </defs>
  <g id="Layer_2" data-name="Layer 2">
    <g id="Layer_1-2" data-name="Layer 1-2">
      <path class="cls-1" d="M15.9,51.54h-.05v-1.23s.03-.02,.05-.01c.16,.4,.16,.85,0,1.25Z"/>
      <path class="cls-1" d="M73.73,37.03c.18-.1,.13,.1,.14,.14,.59,1.29,1.17,2.58,1.76,3.88,1.49,3.31,2.98,6.63,4.47,9.94-.07,.12-.19,.14-.3,.15-1.21,.23-2.41,.47-3.62,.68-.03,0-.06,0-.09,0-.27-.12-.4-.39-.59-.6-.58-.65-1.15-1.32-1.73-1.97-.03-.03-.04-.07-.06-.1-.01-.05-.02-.1-.02-.15-.01-.18-.01-.37-.01-.56v-9.54c0-.62-.03-1.24,.06-1.86Z"/>
      <path class="cls-1" d="M30.47,47.35v5.4c-.02,.2,0,.41,.09,.6,.02,.04,.05,.1,.09,.11,.42,.08,.32,.41,.32,.68v1.14c0,.15-.03,.22-.19,.24-.49,.09-1,.07-1.48-.05-.99-.29-1.4-1.04-1.56-1.99-.05-.31-.07-.62-.06-.93v-10.69c0-.32,.1-.38,.39-.37,.71,.02,1.42,.02,2.14,0,.22,0,.28,.06,.28,.28-.01,1.86-.01,3.72-.01,5.58Z"/>
      <path class="cls-1" d="M68.97,58.81c-.78,.4-1.55,.8-2.33,1.2-1.38,.7-2.75,1.4-4.13,2.1-.08-.08,0-.14,.02-.19,1.23-2.74,2.47-5.49,3.7-8.23,.01-.02,.03-.05,.05-.07,.34-.19,.73-.2,1.1-.28,1.44-.28,2.87-.56,4.31-.82,.11-.03,.23-.04,.35-.04,.14,.07,.06,.16,.02,.24-.06,.13-.13,.26-.2,.39-.9,1.76-1.73,3.55-2.63,5.31-.06,.15-.15,.28-.26,.39Z"/>
      <path class="cls-1" d="M72.07,52.53c-1.2,.23-2.39,.46-3.59,.69-.67,.13-1.33,.26-1.99,.39-.07,0-.14,.01-.2,.02,.45-1.01,.89-2.02,1.35-3.03,.85-1.89,1.71-3.78,2.56-5.68,.28,.18,.46,.47,.68,.72,.92,1.03,1.8,2.1,2.73,3.12,.07,.09,.13,.19,.18,.3v.11c.06,.09,0,.17-.03,.25-.5,1-1,2-1.5,3-.02,.04-.05,.08-.09,.11-.03,.02-.06,.02-.08,0Z"/>
      <path class="cls-1" d="M59.83,48.65c-1.28,.1-1.85,.83-2.03,2-.03,.17-.04,.34-.06,.51,.03,1.43,0,2.85,.01,4.28,0,.04-.01,.08-.04,.11h-2.56c-.08-.22-.03-.45-.04-.68,0-.47,0-.94,0-1.41v-3.2c.01-.11,0-.21-.02-.32-.04-.81-.08-1.62-.14-2.43-.03-.36-.07-.73-.14-1.09-.03-.15,.02-.17,.14-.17h2.31c.15,0,.18,.07,.18,.19,.02,.44,.14,.87,.11,1.31,.13,0,.14-.09,.17-.15,.47-.84,1.2-1.24,2.14-1.31,.61-.05,1.23-.01,1.83,.12,.12,.03,.23,.03,.15,.21-.28,.61-.56,1.22-.84,1.83-.04,.08-.04,.2-.18,.18-.33-.04-.67-.04-1,0Z"/>
      <path class="cls-1" d="M72.07,52.53l.08-.03c.08-.1,.2-.16,.33-.16,1.09-.2,2.18-.42,3.27-.62,.1-.03,.21-.03,.31,.02l.07,.02c.23,.08,.33,.3,.47,.46,.53,.62,1.1,1.2,1.59,1.85,0,.03,0,.06-.02,.08l-8.9,4.52c-.1,.05-.19,.09-.29,.14,.07-.16,.14-.32,.22-.47l2.87-5.74s0-.04,0-.07Z"/>
      <path class="cls-1" d="M73.77,49.06c-.67-.77-1.35-1.54-2.02-2.31-.46-.52-.92-1.05-1.38-1.57-.08-.07-.15-.16-.19-.26l2.28-5.08c.42-.93,.84-1.87,1.26-2.82,.06,.06,.04,.14,.04,.22v11.75s0,.04,0,.06Z"/>
      <path class="cls-1" d="M78.16,54.16s0-.03,0-.05c.18-.21,.46-.28,.7-.41,.64-.37,1.3-.7,1.98-.98,.03,0,.06,.02,.08,.04,.42,.96,.85,1.92,1.28,2.88,.91,2.02,1.82,4.04,2.73,6.06,.05,.09,.06,.19,.05,.29l-6.82-7.83Z"/>
      <path class="cls-1" d="M80.88,52.74l-2.71,1.37c-.46-.52-.93-1.04-1.39-1.57-.22-.25-.44-.52-.66-.77l2.73-.53c.42-.08,.84-.17,1.25-.25l.04,.02c.29,.39,.42,.85,.62,1.28,.07,.14,.2,.28,.11,.46Z"/>
      <path class="cls-1" d="M80.88,52.74c-.2-.46-.4-.92-.6-1.39-.05-.12-.09-.24-.13-.35,.74-.2,1.51-.3,2.26-.45,1.43-.28,2.86-.55,4.3-.82,.04,0,.09,0,.13,0l-5.91,3.02h-.05Z"/>
      <path class="cls-1" d="M41.93,48.11c-.41-.83-1.14-1.46-2.03-1.75-1.38-.46-2.69-.41-3.83,.61-.21,.22-.4,.46-.58,.71-.02-.07-.04-.15-.06-.22-.09-.62-.46-.99-1.05-1.16-.48-.12-.99-.14-1.48-.05-.14,.02-.15,.09-.15,.19v1.46c0,.1,.01,.17,.12,.2,.3,.08,.36,.32,.39,.59,.04,.45,.05,.91,.04,1.37,0,2.58,0,5.16,.01,7.75,0,.72,.02,1.44,0,2.16,0,.23,.07,.28,.28,.27,.62-.02,1.25-.03,1.87,0,.28,0,.38-.05,.37-.36-.03-1.36-.02-2.73-.04-4.09,0-.24,.04-.33,.31-.27,.92,.22,1.89,.23,2.81,.03,1.73-.38,3-1.32,3.48-3.08,.42-1.46,.25-3.03-.48-4.36Zm-2.2,3.98c-.35,1.1-1.33,1.69-2.56,1.58-.35-.02-.7-.09-1.03-.19-.13-.02-.22-.14-.2-.27,0-.44,0-.88,0-1.38s-.05-1.07,.05-1.63c.18-1.05,.82-1.68,1.76-1.72,1.02-.04,1.79,.53,2.04,1.56,.17,.67,.15,1.38-.06,2.05Z"/>
      <path class="cls-1" d="M25.61,53.66c-.42-.1-.44-.44-.44-.78,0-1.29,0-2.59,0-3.88v-1.78c0-.14,0-.28-.18-.35-1.78-.68-3.6-1.01-5.49-.61-2.08,.45-3.46,2.01-3.58,4.03v1.25c.12,1.81,1.13,3.86,3.7,4.11,1.33,.13,2.44-.27,3.22-1.4,.04-.05,.05-.14,.14-.11,.19,.83,.49,1.19,1.15,1.35,.47,.1,.95,.11,1.42,.03,.14-.02,.15-.09,.15-.19v-1.46c0-.07,.03-.17-.08-.19Zm-3.19-1.83c-.25,.92-.83,1.43-1.72,1.47-.93,.04-1.65-.43-1.96-1.31-.28-.79-.25-1.65,.06-2.43,.33-.83,1-1.21,1.86-1.3,.55-.05,1.11,0,1.65,.17,.14,.02,.23,.14,.21,.28,0,0,0,0,0,0-.01,.41,0,.82,0,1.23-.01,.64,.07,1.27-.1,1.89Z"/>
      <path class="cls-1" d="M52.53,52.89c-.11,.04-.22,.09-.32,.12-1.18,.42-2.38,.66-3.64,.5-1.07-.14-1.79-.7-1.98-1.61-.02-.1-.1-.22,0-.3s.2,.02,.29,.06c1.26,.51,2.66,.56,3.95,.15,1.31-.41,2.09-1.38,2.11-2.53,.02-1.46-.61-2.38-2.01-2.9-.95-.35-1.97-.44-2.97-.28-1.67,.27-2.93,1.12-3.61,2.71-.42,.98-.45,2.02-.32,3.07,.22,1.78,1.35,3.08,3.08,3.58,1.03,.29,2.08,.31,3.13,.2,.79-.06,1.56-.27,2.27-.62,.11-.05,.2-.09,.19-.25-.05-.63-.08-1.26-.11-1.89-.02,0-.03,0-.05,0Zm-5.77-3.43c.45-1.11,1.71-1.66,2.82-1.21,.09,.04,.17,.08,.26,.12,.34,.17,.54,.54,.51,.92-.03,.39-.26,.62-.59,.77s-.67,.18-1.17,.18c-.56-.03-1.11-.15-1.64-.34-.25-.09-.27-.2-.18-.43Z"/>
    </g>
  </g>
</svg>