<?xml version="1.0" encoding="UTF-8"?>
<svg id="Camada_1" data-name="Camada 1" xmlns="http://www.w3.org/2000/svg" viewBox="0 0 100 100">
  <defs>
    <style>
      .cls-1 {
        fill: #fff;
      }
    </style>
  </defs>
  <path class="cls-1" d="M35.33,66.3v-3.54c2.21,0,3.02-.12,3.43,2.61h.23v-3.02h-6.1v.41h1.04v7.84h-1.16v.41h6.27v-3.19h-.29c-.29,2.44-.93,2.79-2.67,2.79h-.81v-3.77h.46c.75,0,1.22,.46,1.39,1.8h.29v-3.95h-.29s-.06,1.68-1.39,1.68h-.41v-.06Z"/>
  <path class="cls-1" d="M32.84,66.41h-3.43v.41h1.16v2.79c-.17,.7-1.28,.99-1.57,.99-2.21,0-2.03-3.19-2.03-4.06,0-.75-.06-4.06,2.03-4.06,1.51,0,2.26,1.45,2.55,2.79h.23v-3.13s-1.04,.75-1.04,.7c0,0-.46-.7-1.8-.7-2.55,0-3.54,2.55-3.54,4.35,0,1.63,.75,4.47,3.54,4.47,.87,0,1.45-.46,1.8-.93l1.1,.87v-4.12h.93v-.35h.06Z"/>
  <path class="cls-1" d="M72.83,67.75c-.29,2.44-.93,2.79-2.67,2.79h-.12v-7.78h1.1v-.41h-3.6v.41h1.1v7.84h-.87l-3.19-8.48h-.46s-2.67,7.66-2.67,7.72c0,0-.17,.64-.64,.75-.41,0-.35-.17-.35-.29v-1.51c0-.41-.06-1.28-.41-1.68-.46-.46-1.22-.46-1.22-.52,0,0,1.97-.41,1.97-2.26,0-1.34-.93-1.97-2.44-2.03h-4.3v.41h1.1v7.84h-1.1v.41h3.54v-.41h-1.1v-3.77h1.45c2.55,.23-.46,4.18,2.9,4.18h2.09v-.41c-.12,0-.87,0-.93-.52-.06-.41,.52-1.8,.52-1.8h2.9s.87,2.32,.93,2.32h-.99v.41h7.84v-3.19s-.41,0-.41,0Zm-14.92-1.39h-1.39v-3.6h1.8c1.04,.17,1.1,1.39,1.1,1.74,0,.93-.41,1.86-1.51,1.86m4.88,1.51l1.28-3.72,1.34,3.72h-2.61Z"/>
  <path class="cls-1" d="M49.79,62.7c2.21,0,3.08-.12,3.43,2.61h.23v-3.02h-8.82v.41h.23c.29,0,1.04,0,1.1,.7h0v4.99l-4.12-6.1h-2.26v.41h.35c.46,0,1.04,0,1.1,.7v6.39c0,.64-.93,.87-1.34,.87h0v.29h3.08v-.29c-.41,0-1.34-.23-1.34-.87v-5.63c1.63,2.32,4.7,6.79,4.76,6.79h.17v-7.55c.06-.64,.75-.7,1.1-.7h.99v7.84h-1.16v.41h6.27v-3.19h-.29c-.29,2.44-.93,2.79-2.67,2.79h-.81v-3.77h.46c.75,0,1.22,.46,1.39,1.8h.29v-3.95h-.29s-.06,1.68-1.39,1.68h-.41v-3.6h-.06Z"/>
  <polygon class="cls-1" points="77.13 62.76 77.13 62.29 73.59 62.29 73.59 62.76 74.69 62.76 74.69 70.54 73.59 70.54 73.59 70.94 77.13 70.94 77.13 70.54 75.97 70.54 75.97 62.76 77.13 62.76"/>
  <path class="cls-1" d="M67.78,56.95l1.1-.41h0c1.57-.64,1.8-1.04,1.68-2.09v-4.18c1.16,3.02,2.32,5.11,4.59,5.11,.29,0,.64-.06,.99-.12l.87-.17-.64-.7c-.41-.41-.58-.75-.81-1.16-.12-.17-.17-.35-.29-.52-.52-.87-1.8-1.16-2.84-.7-.46-.93-.93-2.15-1.51-3.66l-.12-.29c-.12-.23-.17-.46-.29-.7v-.06h0c-.35-.81-.75-1.57-1.16-2.32-.41-.7-.81-1.28-1.28-1.8-1.22-1.39-2.79-2.26-4.7-2.61-1.34-.23-2.26-.29-3.48-.35-.23,0-.52,0-.75-.06-.52-.06-1.63-.12-2.73-.23-.75-.06-1.45-.12-2.03-.17,.06-.17,.06-.35,.06-.52,0-.23,0-.46-.06-.64h7.66c1.97,0,3.43-.87,4.24-2.61,1.97,0,3.37-.93,4.24-2.61h.29c2.03,0,3.48-.93,4.35-2.79l.29-.52h-25.89c-1.68,0-3.13,1.1-3.72,2.84v.06c-.46-1.22-1.22-2.26-2.26-2.9-1.45-.87-3.08-1.16-4.35-.75-.41,.12-.87,.29-1.22,.52-.29,.23-.75,.52-1.04,.93-.35,.41-.64,.93-.87,1.39-.17,.12-.29,.23-.35,.35l-.29,.58v.06c-.35,.81-.81,1.39-1.16,1.86-.35,.41-.35,.81-.35,1.04,.06,.29,.17,.52,.35,.7h0c-.12,.17-.17,.41-.17,.58,0,.7,.58,1.22,1.34,1.22,.52,0,.99-.23,1.45-.58,.17-.12,.7-.46,.87-.46,.23,0,.41,.17,.41,.41,0,.58-.7,.87-1.22,.87l-1.04,.12c-.75,.06-1.1,.46-1.1,.81s.17,.58,.29,.7l.06,.06,.29,.23-1.22,1.86c-.81-.75-1.74-1.16-2.55-1.22-.52,0-.99,.12-1.34,.46-.12,.12-.17,.17-.23,.29h0c-.87,0-1.57,.46-1.92,.99-.41,.58-.23,1.57,.23,2.32l-2.9,.81v13.47h51.67v-2.67h-9.4v-.06Zm6.68-3.66c.12,.17,.17,.35,.29,.46,.12,.17,.23,.35,.35,.58-.81-.06-1.45-.52-1.97-1.34,.46-.23,1.1-.06,1.34,.29m-11.2-11.49c1.68,.29,3.02,1.04,4.06,2.21,.23,.23,.41,.52,.64,.81-2.79-.35-3.77-.75-5.34-3.13,.23,0,.41,.06,.64,.12m-1.22-4.06h-5.28c.46-.41,.81-.93,1.1-1.51h7.14c-.58,1.04-1.57,1.51-2.96,1.51m4.18-2.55h-5.28c.46-.41,.87-.93,1.16-1.57h7.14c-.58,1.04-1.57,1.57-3.02,1.57m.41-4.01h7.08c-.7,.93-1.63,1.39-2.96,1.39h-5.28c.46-.41,.87-.87,1.16-1.39m-28.79,.23c.17-.23,.46-.46,.75-.7,.23-.17,.58-.35,.93-.41,.52-.12,1.1-.12,1.68,0l-1.92,1.16c-.23,0-.46-.06-.7-.06-.35,0-.64,0-.87,.06q.06,0,.12-.06m-2.21,8.36c0-.06,.06-.12,.12-.12l.93,.06c1.1-.06,2.26-.52,2.38-1.68,0-.81-.58-1.57-1.34-1.57-.41,0-.93,.29-1.45,.64-.35,.23-.64,.41-.81,.41-.12,0-.23-.12-.23-.17v-.06l.58-.81-.52-.35c-.12-.06-.29-.23-.29-.29s.06-.12,.06-.17c.23-.23,.46-.52,.7-.93,.17-.23,.23-.35,.46-.35s.46,.17,.46,.46c0,.17,.17,.29,.41,.29s.35-.17,.46-.29c0,0,.52-.46,.23-.7s-1.57,.29-1.22-.87l.12-.17c.12-.17,.75-.64,1.97-.64,.23,0,.46,0,.75,.06h.17l2.67-1.63c0,.06,.06,.12,.06,.12h0c.12,.81-.35,1.74-1.16,2.21l-.35,.17,.23,1.22c-.7,.23-1.16,.75-1.16,1.39,0,.23,.06,.52,.12,.81,.06,.41,.17,.81,.17,1.22,0,1.28-1.74,2.09-3.19,2.03h-.06c-.06,0-.99-.06-1.22-.23-.06,.06-.06,0-.06-.06m-6.62,3.95c.23-.35,.7-.58,1.28-.52l.46,.06,.17-.41c.06-.12,.12-.23,.17-.29,.12-.12,.35-.17,.58-.17,.64,0,1.45,.46,2.09,1.16,.23,.23,.46,.58,.64,.87,.06,.06,.06,.12,.12,.17,.06,.06,.12,.17,.12,.17,0,.06,.35,.52,.35,.58,.23-.29,.46-.64,.64-.93v-.06c-.06-.12-.17-.29-.23-.41l-.06-.06h0s-.06-.06-.06-.12c-.06-.12-.17-.29-.23-.35l1.39-2.21c.35,.06,.64,.06,.81,.06h.06c1.97,0,4.01-1.16,4.01-3.02v-.06c0-.52-.12-.99-.17-1.39-.06-.29-.12-.52-.12-.64,0-.23,.29-.46,.7-.46h.64l-.29-1.63c.87-.64,1.45-1.74,1.39-2.73,.99,.75,1.63,2.03,1.74,3.37,.06,.41-.06,.93-.17,1.51l-.06,.23h0c-.23,.93-.58,1.92-.75,2.38l-.17,.41,.41,.23c.7,.41,1.16,.7,1.16,1.63,0,1.1-.99,1.92-1.92,2.09l-1.34,.23,1.1,.75c.35,.23,.58,.64,.58,1.04,0,.7-.58,1.22-1.28,1.22h-.41l-.12,.35c-.41,1.28-.81,1.92-2.21,2.09,0-.41,0-.81,0-1.34v-.58l-.06-1.22-.87,.87c-.29,.29-.81,.52-1.39,.64v-1.04l-6.1-1.63-2.15,.58c-.46-.46-.58-1.28-.46-1.45m-1.74,13.24l4.41-1.16,4.41,1.16h-8.82Zm9.4-.93l-5.05-1.34-5.05,1.34v-9l5.05-1.34,5.05,1.34v9Zm2.38-1.74c-.46,.64-.52,1.57-.17,2.67h-1.1v-8.59c.41-.06,.81-.17,1.22-.35,0,.35-.06,.7-.12,1.04,0,.12-.06,.17-.06,.29l-.12,.64h.64c.93,0,1.63-.17,2.21-.41v3.6c0,.12-.06,.17-.17,.17h-.17c-.93-.06-1.74,.29-2.15,.93m11.61,.23c-.41,.46-.75,1.22-.52,2.44h-6.56c.7-.06,1.22-.23,1.57-.58,.41-.46,.46-1.04,.46-1.51,0-.06,.06-.17,.41-.35l.58-.23-.35-.52c-.58-.87-.29-2.73-.12-3.77h.06c2.21,0,3.66-.46,5.17-.93,.41-.12,.81-.23,1.22-.41h0s.46-.12,1.04-.29l2.15,3.54v.06c.23,.29,.23,.52-.17,.93l-1.04,1.16-1.74-.35h0c-.75-.12-1.63,.23-2.15,.81m.58,2.44c-.17-.75-.12-1.34,.23-1.74,.35-.41,.81-.46,1.22-.46l2.03,.35h.35l1.45-1.57h0c.23-.29,.99-1.16,.23-2.26l-1.92-3.13c.29-.06,.64-.06,.93-.06h0s.99,0,2.03,.58c.12,.29,.35,.7,.52,1.16,.41,.81,.93,1.86,1.04,2.26,.06,.12,.17,.52-.29,1.04l-3.66,3.89h-4.18v-.06Zm12.54,0h-6.97l2.96-3.13c.58-.64,.81-1.39,.52-2.09-.12-.41-.52-1.22-.93-2.09,1.16,.52,2.96,1.04,6.62,1.34,.46,.06,.58,.17,.64,.58l.17,1.57-1.92,.41c-.64,.12-1.16,.52-1.39,1.16-.23,.7-.12,1.51,.29,2.26m.75-1.86c.12-.29,.29-.46,.58-.52l2.84-.64-.23-2.55v-.06c-.06-.35-.29-1.34-1.63-1.45-5.11-.41-6.27-1.16-7.55-1.97h0l-.06-.06c-1.34-.87-2.67-.87-2.79-.87-1.45,0-3.25,.58-3.43,.64-.46,.12-.87,.29-1.28,.41-1.63,.52-2.96,.99-5.28,.87h-.41l-.12,.41c-.06,.29-.75,2.9-.12,4.53-.58,.46-.58,.93-.58,1.04,0,.58-.12,.7-.17,.75-.29,.29-1.16,.29-1.92,.29h-.29l-.17,.23c-.46,.64-1.45,.81-2.09,.64-.29-.87-.29-1.51,0-1.92,.35-.46,.99-.52,1.28-.52h.17c.7,0,1.22-.58,1.22-1.22v-4.59c.23-.29,.35-.7,.52-1.1,1.1-.17,1.97-1.1,1.97-2.26,0-.46-.12-.87-.35-1.22,1.04-.52,1.92-1.51,1.92-2.84s-.7-1.97-1.34-2.32c.17-.52,.46-1.39,.7-2.32l.87-3.19c.41-1.28,1.45-2.09,2.67-2.09h15.79c-.7,.93-1.63,1.39-2.96,1.39h-9.46l-.52,1.04h8.59c-.7,1.04-1.68,1.57-3.08,1.57h-6.21l-.52,1.04h5.51c-.7,1.04-1.63,1.51-3.02,1.51h-3.37l-.52,1.04h3.54c.06,.06,.12,.23,.12,.64,0,.7-.58,1.22-1.28,1.22-.23,0-.46-.06-.81-.23-.17-.06-.29-.12-.46-.17l-.81,.75c.17,.06,.29,.12,.46,.17h0c.7,.29,1.1,.46,1.63,.46,.64,0,1.22-.29,1.68-.7,.58,.06,1.57,.12,2.55,.17,1.16,.12,2.21,.17,2.79,.23,.29,0,.52,0,.81,.06,.46,0,.93,.06,1.34,.06,2.15,3.48,3.25,3.95,7.43,4.47,.29,.52,.58,1.1,.81,1.68v7.31c-.17,.17-.81,.46-.99,.52l-3.54,1.45c-.46-.64-.64-1.28-.46-1.8"/>
  <polygon class="cls-1" points="35.57 48.42 32.2 47.55 32.2 48.65 35.57 49.52 35.57 48.42"/>
  <polygon class="cls-1" points="27.73 49.52 31.1 48.65 31.1 47.55 27.73 48.42 27.73 49.52"/>
  <polygon class="cls-1" points="27.73 51.73 31.1 50.86 31.1 49.75 27.73 50.62 27.73 51.73"/>
  <polygon class="cls-1" points="35.57 50.62 32.2 49.75 32.2 50.86 35.57 51.73 35.57 50.62"/>
  <polygon class="cls-1" points="35.57 52.83 32.2 51.96 32.2 53.06 35.57 53.93 35.57 52.83"/>
  <polygon class="cls-1" points="27.73 53.93 31.1 53.06 31.1 51.96 27.73 52.83 27.73 53.93"/>
</svg>