<?xml version="1.0" encoding="UTF-8"?>
<svg id="Camada_1" data-name="Camada 1" xmlns="http://www.w3.org/2000/svg" viewBox="0 0 100 100">
  <defs>
    <style>
      .cls-1 {
        fill: #fff;
      }

      .cls-2 {
        fill: none;
        fill-rule: evenodd;
      }
    </style>
  </defs>
  <polygon class="cls-2" points="-81.59 77.55 172.95 77.55 172.95 122 -81.59 122 -81.59 77.55 -81.59 77.55"/>
  <path class="cls-1" d="M57.72,58c-.07-.03-.15-.02-.22-.03-.88-.07-1.73-.3-2.53-.67-.83-.38-1.56-.89-2.2-1.54-.8-.81-1.38-1.74-1.76-2.81-.22-.62-.36-1.25-.4-1.91-.14-2.13,.51-3.99,1.93-5.58,1.07-1.19,2.41-1.94,3.97-2.29,.72-.16,1.46-.21,2.19-.15,1.73,.14,3.25,.78,4.53,1.95,1.2,1.1,1.96,2.45,2.3,4.04,.13,.64,.19,1.29,.13,1.94-.16,1.99-.95,3.67-2.41,5.03-.68,.64-1.46,1.12-2.33,1.47-.77,.3-1.57,.49-2.4,.53-.02,0-.05,0-.07,.01h-.74Zm-3.48-7.55c0,2.19,1.75,3.92,3.9,3.94,2.19,.02,3.97-1.75,3.98-3.93,0-2.12-1.69-3.92-3.89-3.94-2.22-.02-3.99,1.74-4,3.93Z"/>
  <path class="cls-1" d="M16.85,51.03c.03-.07,.02-.16,.03-.23,.2-2.19,1.11-4.04,2.72-5.54,1.12-1.04,2.43-1.71,3.92-2.05,.82-.19,1.66-.25,2.5-.18,2.24,.18,4.13,1.08,5.67,2.72,1.05,1.13,1.73,2.46,2.06,3.97,.16,.71,.22,1.44,.18,2.16-.08,1.5-.54,2.88-1.36,4.13-.33,.5-.7,.97-1.14,1.38-.5,.48-1.09,.64-1.75,.45-.66-.19-1.09-.63-1.24-1.3-.14-.61,.01-1.16,.45-1.6,.48-.49,.87-1.04,1.13-1.68,.84-2.09,.15-4.47-1.68-5.79-.76-.55-1.62-.86-2.56-.93-2.28-.18-4.37,1.19-5.11,3.34-.59,1.72-.15,3.68,1.14,4.97,.3,.3,.5,.64,.57,1.06,.13,.88-.43,1.73-1.29,1.95-.67,.17-1.26,.01-1.75-.47-1.26-1.25-2.04-2.76-2.36-4.51-.05-.3-.09-.6-.1-.91,0-.02,0-.04-.02-.05v-.88Z"/>
  <path class="cls-1" d="M76.03,43c.81,0,1.6,.1,2.38,.33,.44,.13,.87,.3,1.29,.49,.97,.44,1.81,1.06,2.54,1.83,1.11,1.18,1.83,2.56,2.16,4.14,.15,.73,.21,1.48,.15,2.22-.14,1.82-.8,3.43-1.99,4.83-.2,.24-.41,.48-.66,.67-1.04,.82-2.58,.26-2.85-1.03-.12-.59,.03-1.12,.45-1.55,.52-.53,.92-1.12,1.18-1.81,.67-1.76,.23-3.79-1.1-5.12-.76-.76-1.66-1.25-2.72-1.42-1.54-.25-2.92,.13-4.12,1.13-.86,.72-1.41,1.65-1.62,2.75-.29,1.52,.06,2.88,1.04,4.09,.11,.13,.24,.25,.35,.38,.47,.51,.61,1.1,.4,1.75-.22,.66-.69,1.06-1.37,1.19-.61,.12-1.15-.06-1.6-.5-1.21-1.2-1.98-2.63-2.32-4.3-.14-.67-.19-1.35-.15-2.04,.11-1.89,.78-3.58,2-5.03,.88-1.05,1.97-1.84,3.24-2.36,.77-.32,1.56-.52,2.39-.6,.3-.03,.6-.05,.91-.05Z"/>
  <path class="cls-1" d="M43.66,43c1.71,.03,3.44,.7,4.9,2.05,.53,.49,.71,1.11,.49,1.8-.21,.7-.72,1.11-1.44,1.22-.54,.09-1.04-.06-1.45-.43-.44-.4-.93-.72-1.49-.91-.73-.25-1.48-.3-2.23-.11-1.35,.34-2.32,1.15-2.82,2.46-.5,1.34-.3,2.6,.55,3.75,.44,.6,1.02,1.03,1.72,1.29,1.53,.55,2.92,.29,4.15-.77,.3-.26,.61-.45,1-.52,.97-.16,1.9,.49,2.05,1.46,.09,.62-.1,1.14-.55,1.57-1.1,1.03-2.4,1.67-3.89,1.94-.74,.13-1.48,.15-2.23,.05-1.91-.25-3.51-1.1-4.78-2.56-.91-1.04-1.48-2.25-1.73-3.62-.1-.58-.15-1.16-.09-1.75,.12-1.39,.58-2.66,1.4-3.79,1.03-1.41,2.39-2.36,4.07-2.85,.67-.2,1.37-.29,2.35-.29Z"/>
  <path class="cls-1" d="M41.58,50.45c0-.97,.8-1.75,1.79-1.75,.99,0,1.77,.8,1.77,1.78,0,.96-.81,1.74-1.79,1.74-.98,0-1.77-.8-1.76-1.77Z"/>
</svg>