<?xml version="1.0" encoding="UTF-8"?>
<svg id="Camada_1" data-name="Camada 1" xmlns="http://www.w3.org/2000/svg" viewBox="0 0 100 100">
  <defs>
    <style>
      .cls-1 {
        fill: #fff;
      }

      .cls-2 {
        fill: none;
        fill-rule: evenodd;
      }
    </style>
  </defs>
  <polygon class="cls-2" points="-81.59 77.55 172.95 77.55 172.95 122 -81.59 122 -81.59 77.55 -81.59 77.55"/>
  <path class="cls-1" d="M22.34,47.35c.37,1.02,.7,1.91,1.02,2.81,.54,1.51,1.08,3.02,1.63,4.52,.26,.7,.59,.82,1.57,.54-1.39-3.66-2.77-7.31-4.16-10.96-.06-.01-.11-.02-.17-.03l-4.28,10.73c-.07,.01-.13,.03-.2,.04-.36-.66-.8-1.29-1.08-1.98-1.93-4.86,.24-9.98,5.13-11.83,3.16-1.2,6.14-.6,8.8,1.52,.24,.19,.28,.35,.16,.66-1.02,2.61-2.01,5.23-3.01,7.85-.07,.19-.16,.38-.29,.69-.12-.23-.21-.35-.25-.48-.83-2.31-1.68-4.61-2.48-6.93-.16-.46-.39-.61-.84-.57-.22,.02-.44,0-.76,0,1.43,3.77,2.82,7.44,4.21,11.11,.05,0,.11,0,.16-.01,1.44-3.62,2.88-7.24,4.33-10.86,.07-.01,.13-.03,.2-.04,.37,.69,.83,1.36,1.11,2.08,1.84,4.81-.31,9.84-5.1,11.68-3.17,1.22-6.17,.66-8.85-1.47-.24-.19-.28-.36-.16-.67,1.03-2.66,2.04-5.33,3.06-8,.04-.09,.11-.17,.25-.39Z"/>
  <path class="cls-1" d="M64.86,53.07c.02-.33,.03-.49,.03-.66,0-2.28,.02-4.57,.02-6.85,0-.44,.23-.47,.56-.47,.33,0,.58,0,.57,.46-.02,3.28-.03,6.56-.05,9.84,0,.06-.04,.12-.1,.31-2.63-2.71-5.21-5.37-7.79-8.03-.05,.02-.1,.04-.16,.07,0,.16,0,.33,0,.49,0,2.34-.03,4.67-.02,7.01,0,.45-.21,.51-.58,.52-.37,0-.59-.06-.58-.51,.03-3.26,.03-6.52,.05-9.78,0-.06,.03-.13,.08-.31,2.66,2.65,5.25,5.24,7.96,7.94Z"/>
  <path class="cls-1" d="M69.31,50.25c0-1.5,.02-3,0-4.5,0-.48,.15-.65,.63-.62,.94,.05,1.88,0,2.82,.07,2.01,.16,3.32,1.25,3.88,3.18,.46,1.57,.34,3.12-.44,4.56-.86,1.58-2.31,2.26-4.04,2.4-.8,.06-1.6,0-2.4,.03-.38,0-.51-.13-.51-.52,.02-1.53,0-3.07,0-4.6,.02,0,.04,0,.06,0Zm1.02-.01s-.03,0-.05,0c0,1.22,.01,2.44,0,3.66,0,.39,.12,.54,.51,.52,.47-.02,.94,0,1.41-.01,.95-.02,1.79-.36,2.42-1.06,1.3-1.44,1.37-3.15,.88-4.91-.28-1-.86-1.87-1.91-2.11-.95-.22-1.96-.19-2.95-.23-.1,0-.29,.28-.3,.43-.02,1.24-.01,2.48-.01,3.71Z"/>
  <path class="cls-1" d="M85.41,55.07c-1.06,.23-1.21,.16-1.59-.72-.22-.51-.45-1.02-.66-1.53-.13-.31-.32-.45-.68-.45-1.11,.01-2.23,0-3.34-.01-.34,0-.54,.11-.68,.44-.23,.56-.51,1.1-.78,1.65-.36,.75-.5,.81-1.48,.58,1.55-3.45,3.09-6.89,4.63-10.33,.05,0,.1-.01,.15-.02,1.47,3.45,2.94,6.9,4.43,10.39Zm-2.84-3.85c-.57-1.31-1.1-2.54-1.64-3.76-.06,.01-.11,.02-.17,.04-.51,1.22-1.02,2.43-1.57,3.73h3.37Z"/>
  <path class="cls-1" d="M40.7,44.73c.38,.91,.77,1.81,1.15,2.72,1.03,2.42,2.05,4.83,3.09,7.25,.15,.34,.09,.46-.29,.49-.56,.04-.91-.11-1.1-.69-.19-.59-.46-1.17-.75-1.72-.09-.17-.35-.36-.53-.36-1.17-.04-2.33-.02-3.5-.04-.34,0-.5,.17-.63,.44-.23,.52-.48,1.04-.71,1.57-.37,.82-.52,.9-1.53,.66,1.55-3.46,3.09-6.9,4.63-10.34,.06,0,.11,.01,.17,.02Zm1.48,6.51c-.02-.14-.01-.23-.04-.3-.46-1.09-.91-2.17-1.38-3.26-.03-.08-.15-.18-.22-.17-.07,.01-.15,.12-.19,.21-.3,.7-.59,1.41-.88,2.11-.18,.44-.35,.88-.56,1.4h3.27Z"/>
  <path class="cls-1" d="M50.55,50.15c0-1.57,0-3.14,0-4.7,0-.31,.12-.4,.4-.4,1.48,0,2.96,.02,4.44,.02,.41,0,.43,.24,.43,.55,0,.34-.11,.52-.48,.51-1.03-.02-2.06,0-3.08-.03-.47-.01-.61,.16-.6,.61,.03,.66,.01,1.32,0,1.99-.01,.36,.13,.5,.49,.5,1.03,0,2.06,.02,3.09,.02,.38,0,.57,.09,.57,.52,0,.46-.22,.51-.59,.5-.99-.02-1.99,0-2.98-.03-.47-.02-.61,.15-.6,.6,.02,.98,.02,1.95-.02,2.93-.01,.42,.15,.55,.55,.55,.99-.01,1.99,.02,2.98,0,.43,0,.63,.09,.63,.58,0,.48-.25,.49-.6,.48-1.39-.01-2.79-.03-4.18-.02-.43,0-.57-.14-.56-.58,.03-1.53,.01-3.07,.01-4.6,.04,0,.07,0,.11,0Z"/>
  <path class="cls-1" d="M46.18,55.43c-1.31-3.42-2.62-6.83-3.92-10.25,.76-.36,1.13-.2,1.4,.55,.8,2.21,1.61,4.41,2.42,6.62,.04,.11,.1,.21,.2,.42,.11-.21,.19-.33,.24-.46,.86-2.28,1.72-4.56,2.58-6.83,.18-.47,.49-.55,1.24-.28-1.33,3.41-2.65,6.82-3.98,10.22-.06,0-.12,0-.18,.01Z"/>
  <path class="cls-1" d="M68.2,50.29c0,1.52-.02,3.03,.01,4.55,0,.47-.19,.54-.59,.55-.43,.01-.52-.18-.52-.57,.02-3.07,.04-6.14,.04-9.2,0-.41,.17-.5,.53-.5,.37,0,.58,.07,.58,.52-.02,1.55,0,3.1,0,4.65-.01,0-.03,0-.04,0Z"/>
</svg>