<?xml version="1.0" encoding="UTF-8"?>
<svg id="Camada_1" data-name="Camada 1" xmlns="http://www.w3.org/2000/svg" viewBox="0 0 100 100">
  <defs>
    <style>
      .cls-1 {
        fill: #fff;
        fill-rule: evenodd;
      }
    </style>
  </defs>
  <path class="cls-1" d="M44.64,67.38l.15-.02h.15l.12,.02,.12,.02,.12,.07,.1,.05,.07,.1,.1,.07,.15,.25,.1,.25,.05,.25,.02,.27v.3l-.02,.32-.05,.25-.12,.25-.12,.22-.17,.17-.12,.05-.1,.07-.12,.02-.15,.02h-.27l-.15-.02-.12-.07-.19-.1-.17-.2-.12-.2-.12-.25-.05-.27-.05-.27v-.3l.05-.27,.05-.25,.1-.25,.15-.22,.17-.17,.1-.05,.1-.07,.12-.02,.15-.02h0Zm1.31-.25h-.05l-.02-.05-.17-.22-.17-.17-.24-.12-.27-.12-.27-.05-.27-.02h-.27l-.24,.05-.27,.07-.22,.07-.27,.2-.19,.17-.22,.22-.17,.27-.12,.35-.12,.32-.05,.35-.02,.4v.42l.05,.37,.1,.35,.12,.32,.15,.3,.19,.25,.24,.22,.27,.15,.27,.07,.32,.07,.29,.02,.32-.02,.29-.07,.32-.12,.1-.05,.15-.1,.1-.07,.12-.12,.02-.02,.07-.1,.02-.05,.05-.05v.32l-.02,.3-.05,.3-.07,.27-.12,.2-.15,.17-.17,.15-.24,.1-.22,.1-.24,.02h-.24l-.22-.02-.49-.12-.46-.17-.12-.07-.1-.02-.12,1.07,.27,.1,.29,.1,.51,.07,.51,.07h.22l.27-.02h.24l.24-.07,.34-.1,.32-.15,.27-.15,.22-.2,.17-.22,.15-.22,.12-.27,.1-.27,.05-.3,.02-.3,.02-.3v-4.5h-1.22v.65h0Zm-14.09-.62v.27l.02,.12,.02,.15,.05,.17,.05,.15,.05,.15,.12,.15,.1,.12,.12,.12,.15,.12,.12,.07,.32,.17,.32,.15,.34,.15,.32,.12,.29,.15,.24,.15,.07,.07,.1,.05,.05,.1,.05,.12,.05,.12v.22l-.05,.15-.05,.1-.07,.12-.07,.05-.07,.1-.24,.12-.24,.05-.22,.02-.27,.02-.27-.02-.24-.05-.32-.07-.22-.07-.17-.1-.19-.07-.12,1.2,.39,.12,.39,.07,.24,.05h.24l.24,.02h.19l.41-.02,.41-.07,.39-.07,.34-.17,.15-.07,.15-.12,.15-.12,.12-.15,.12-.15,.1-.17,.07-.17,.07-.22,.02-.25,.02-.2-.02-.25-.02-.2-.05-.17-.07-.22-.1-.15-.12-.15-.1-.17-.19-.12-.15-.12-.17-.12-.37-.17-.37-.12-.37-.15-.32-.15-.12-.05-.15-.1-.1-.1-.07-.1-.07-.1-.02-.1v-.2l.02-.22,.1-.2,.1-.1,.05-.07,.12-.07,.07-.05,.27-.1,.27-.02h.27l.29,.02,.24,.07,.24,.05,.19,.05,.17,.07,.12-1.1-.15-.05-.15-.02-.15-.02-.17-.05-.51-.07h-.75l-.27,.02-.24,.05-.24,.07-.22,.07-.22,.12-.19,.12-.17,.17-.17,.2-.1,.2-.12,.25-.07,.27-.02,.17-.02,.15h0Zm28.14,.87l.17-.02h.15l.19,.02,.12,.05,.15,.07,.1,.05,.1,.07,.1,.07,.17,.25,.12,.25,.05,.25,.02,.27v.35l-.02,.3-.07,.3-.1,.22-.15,.25-.17,.17-.12,.07-.12,.05-.12,.02-.15,.05-.17,.02h-.15l-.15-.02-.15-.05-.12-.05-.12-.05-.1-.07-.07-.07-.19-.25-.1-.25-.07-.27-.05-.3v-.32l.02-.32,.05-.27,.12-.27,.1-.12,.05-.1,.12-.07,.1-.1,.22-.12,.24-.05h0Zm-.02-1.02l-.27,.05-.27,.02-.24,.1-.22,.1-.22,.12-.19,.15-.19,.15-.17,.17-.15,.17-.12,.22-.12,.22-.07,.25-.07,.25-.02,.25-.02,.32v.25l.02,.27,.07,.27,.07,.25,.1,.25,.12,.2,.15,.17,.15,.2,.17,.17,.22,.15,.19,.12,.24,.07,.22,.1,.27,.05,.27,.05,.27,.02h.29l.27-.02,.27-.07,.27-.07,.19-.1,.24-.12,.17-.15,.22-.15,.15-.17,.15-.2,.12-.2,.12-.25,.07-.22,.07-.25,.02-.27,.02-.27-.02-.3-.02-.27-.07-.22-.05-.27-.12-.22-.12-.2-.12-.22-.17-.17-.17-.15-.17-.15-.22-.12-.24-.12-.22-.07-.24-.07-.29-.02-.27-.02h-.29Zm-8.16,4.4v.67h1.22v-4.95h-1.29v2.5l-.02,.27-.02,.27-.1,.22-.1,.25-.1,.17-.19,.2-.07,.05-.12,.02-.12,.07h-.12l-.17,.02h-.15l-.12-.02-.12-.07-.07-.05-.1-.1-.07-.07-.05-.1-.05-.25-.07-.3v-.27l-.02-.3,.02-.62v-1.27l-.02-.62h-1.27v3.35l.02,.27,.07,.22,.05,.25,.12,.22,.12,.17,.12,.15,.17,.12,.15,.12,.17,.05,.22,.05,.19,.07h.41l.19-.02,.22-.07,.19-.05,.22-.1,.17-.12,.17-.12,.15-.15,.1-.07,.07-.07h0Zm-13.61-2.3l.05-.22,.05-.22,.1-.2,.15-.15,.15-.15,.17-.1,.22-.07,.22-.05,.27,.05,.22,.05,.17,.1,.15,.15,.12,.17,.07,.17,.07,.25,.02,.22h-2.19Zm3.04,2.67v-1.02l-.32,.17-.51,.17-.27,.1-.22,.02-.27,.02-.29-.02-.24-.02-.22-.1-.19-.12-.15-.15-.15-.15-.1-.2-.07-.22-.05-.25h3.43v-.22l-.02-.25v-.27l-.07-.22-.07-.5-.15-.37-.1-.17-.12-.17-.12-.15-.15-.15-.15-.1-.17-.12-.17-.1-.22-.05-.24-.07-.19-.02-.24-.02h-.41l-.22,.02-.22,.05-.17,.07-.22,.1-.17,.07-.17,.12-.15,.15-.15,.15-.15,.17-.1,.2-.12,.22-.05,.17-.07,.22-.05,.2-.02,.25-.02,.22v.47l.02,.2,.05,.25,.02,.2,.1,.22,.1,.2,.12,.2,.1,.17,.15,.17,.19,.12,.22,.17,.27,.12,.27,.12,.27,.05,.29,.05,.27,.02h.29l.27-.02,.46-.07,.41-.12,.27-.12,.12-.07h0Zm22.37-.85l-.1,1.05,.27,.07,.39,.07,.39,.05,.29,.02h.29l.32-.02,.29-.07,.29-.12,.32-.12,.22-.17,.1-.07,.12-.12,.05-.12,.1-.15,.02-.15,.05-.15v-.17l.05-.2-.05-.15v-.17l-.05-.15-.05-.15-.1-.15-.1-.12-.12-.1-.1-.07-.27-.15-.27-.12-.29-.1-.27-.07-.24-.1-.19-.12-.1-.07-.02-.1-.02-.12,.02-.15,.05-.12,.12-.12,.15-.05,.24-.05,.32-.05,.37,.07,.32,.05,.29,.1,.12-.97-.37-.05-.29-.07-.29-.02-.44-.02-.29,.02-.32,.02-.29,.1-.27,.1-.24,.17-.24,.17-.07,.12-.07,.15-.05,.12-.07,.17-.02,.15-.02,.17,.02,.2v.17l.07,.15,.05,.15,.05,.12,.1,.12,.12,.1,.15,.12,.15,.07,.15,.07,.32,.12,.29,.1,.32,.05,.19,.12,.12,.05,.05,.1,.07,.1,.02,.1v.25l-.05,.1-.07,.07-.05,.1-.1,.02-.12,.07-.12,.02-.22,.02h-.29l-.27-.02-.24-.07-.32-.1-.24-.1h0Zm-8.08-2.7h0v-1.1h-1.14v4.95h1.29l-.02-.6v-.8l.02-.77,.05-.55,.05-.3,.12-.27,.05-.12,.07-.07,.07-.1,.1-.1,.12-.05,.12-.05,.1-.05h.41l.19,.07,.17,.02v-1.3l-.17-.02h-.34l-.15,.02-.15,.05-.15,.07-.12,.05-.12,.1-.19,.17-.17,.25-.12,.25-.1,.25h0Z"/>
  <polygon class="cls-1" points="50.3 22 49.77 22 49.22 22.04 48.69 22.08 48.14 22.19 47.64 22.32 47.13 22.45 46.65 22.64 46.16 22.81 45.7 23.04 45.23 23.27 44.79 23.53 44.37 23.8 43.95 24.1 43.57 24.42 43.14 24.76 42.78 25.09 42.43 25.48 42.11 25.86 41.79 26.28 41.5 26.68 41.2 27.11 40.95 27.55 40.72 28.02 40.53 28.51 40.32 28.99 40.17 29.48 40 29.99 39.89 30.5 39.81 31.01 39.73 31.56 39.7 32.09 39.68 32.66 39.68 33.09 39.73 33.55 39.75 33.98 39.83 34.42 39.89 34.84 40 35.29 40.13 35.69 40.25 36.12 40.38 36.52 40.57 36.9 40.74 37.32 40.93 37.66 41.16 38.07 41.35 38.41 41.62 38.77 41.84 39.1 50.68 27.45 49.75 27.45 48.8 27.45 48.06 27.47 47.36 27.53 46.73 27.57 46.16 27.66 45.87 27.72 45.57 27.83 45.32 27.96 45.06 28.13 44.81 28.34 44.49 28.66 44.24 29.02 43.99 29.4 43.95 29.52 43.84 29.67 43.33 29.55 44.2 26.22 55.25 26.22 46.48 38 46.86 37.98 47.15 37.96 47.41 37.96 47.74 37.96 48.02 37.96 48.42 37.96 48.84 37.98 49.35 38 50.91 38.11 51.33 38.13 51.71 38.13 52.03 38.15 52.32 38.15 52.87 38.13 53.36 38.11 53.78 38.02 54.18 37.94 54.47 37.83 54.77 37.71 55.04 37.54 55.3 37.39 55.53 37.22 55.76 37.01 55.99 36.79 56.2 36.56 56.41 36.35 56.58 36.07 56.73 35.82 56.9 35.57 56.96 35.44 57.05 35.27 57.51 35.4 57.41 35.78 57.32 36.07 57.2 36.37 57.05 36.73 56.86 37.09 56.69 37.45 56.48 37.77 56.27 38.07 56.06 38.34 55.82 38.6 55.59 38.83 55.3 39.04 55.02 39.23 54.73 39.38 54.41 39.55 54.12 39.66 53.78 39.74 53.44 39.83 53.1 39.85 52.72 39.87 52.57 39.87 52.03 39.87 51.46 39.83 50.65 39.72 49.54 39.55 48.36 39.36 47.41 39.25 46.65 39.21 45.95 39.19 45.53 39.19 45.08 39.21 44.66 39.25 44.22 39.32 43.73 39.42 43.33 39.51 42.95 39.66 42.49 39.85 42.85 40.23 43.25 40.61 43.65 40.95 44.09 41.29 44.54 41.58 44.98 41.88 45.46 42.14 45.95 42.37 46.48 42.6 46.98 42.77 47.51 42.92 48.06 43.05 48.59 43.15 49.16 43.24 49.75 43.28 50.3 43.3 50.87 43.28 51.39 43.26 51.94 43.17 52.45 43.07 52.95 42.98 53.46 42.81 53.95 42.67 54.43 42.45 54.92 42.26 55.38 42.03 55.82 41.78 56.25 41.5 56.67 41.18 57.07 40.89 57.45 40.55 57.81 40.19 58.17 39.8 58.5 39.42 58.84 39.04 59.12 38.6 59.39 38.15 59.64 37.73 59.88 37.26 60.11 36.79 60.3 36.31 60.47 35.8 60.59 35.31 60.72 34.8 60.82 34.27 60.87 33.72 60.93 33.19 60.93 32.66 60.93 32.09 60.87 31.56 60.82 31.01 60.72 30.5 60.59 29.99 60.47 29.48 60.3 28.99 60.11 28.51 59.88 28.02 59.64 27.55 59.39 27.11 59.12 26.68 58.84 26.28 58.5 25.86 58.17 25.48 57.81 25.09 57.45 24.76 57.07 24.42 56.67 24.1 56.25 23.8 55.82 23.53 55.38 23.27 54.92 23.04 54.43 22.81 53.95 22.64 53.46 22.45 52.95 22.32 52.45 22.19 51.94 22.08 51.39 22.04 50.87 22 50.3 22 50.3 22 50.3 22"/>
  <path class="cls-1" d="M29.89,51.4h-8.16l-.99,2.14,.42-.19,.36-.14,.36-.14,.34-.1,.4-.1,.36-.08,.32-.04,.34-.02,.36-.04,.44-.02h2l-6.32,8.82h8.93l1.01-2.31-.4,.23-.34,.16-.4,.14-.42,.16-.42,.08-.44,.1-.36,.06-.38,.04-.4,.02-.46,.04h-2.42l6.28-8.82h0Zm26.8,10.07l-.17-.16-.15-.21-.08-.14-.08-.14-.04-.21-.06-.21-.02-.25v-7.31l.02-.31,.02-.19,.06-.21,.06-.19,.08-.14,.08-.12,.06-.1,.11-.06,.13-.12h-3.31l.25,.23,.13,.16,.11,.16,.06,.16,.06,.19,.02,.23,.02,.29v7.29l-.04,.27-.06,.23-.04,.23-.08,.14-.08,.12-.11,.14-.21,.23h3.27Zm10.37-9.99l-.32-.08-.32-.08-.44-.08-.44-.04-.46-.04h-.86l-.4,.02-.38,.04-.36,.06-.38,.06-.34,.1-.36,.1-.34,.12-.38,.16-.36,.21-.34,.23-.32,.23-.23,.19-.23,.21-.21,.23-.17,.23-.19,.23-.17,.25-.13,.25-.13,.25-.15,.27-.08,.29-.08,.27-.08,.27-.04,.31-.04,.29-.04,.31v.62l.04,.29,.04,.29,.04,.29,.06,.29,.11,.27,.06,.25,.13,.27,.13,.23,.13,.25,.17,.23,.17,.23,.19,.23,.19,.21,.21,.16,.23,.21,.38,.27,.4,.23,.46,.21,.46,.16,.51,.12,.51,.1,.55,.04,.59,.02,.36-.02,.36-.02,.36-.02,.34-.06,.36-.04,.36-.08,.4-.08,.34-.12h.08l.11-.06v-1.81l-.27,.16-.21,.12-.32,.16-.32,.14-.46,.16-.44,.12-.44,.06-.44,.02h-.4l-.4-.08-.36-.06-.32-.12-.34-.16-.32-.16-.27-.23-.27-.25-.23-.27-.21-.33-.17-.33-.15-.31-.11-.39-.08-.37-.04-.39-.04-.39,.04-.41,.02-.39,.06-.35,.15-.37,.13-.33,.15-.33,.17-.29,.23-.27,.21-.21,.21-.21,.25-.16,.25-.19,.23-.08,.23-.1,.21-.08,.27-.08,.25-.04,.25-.04,.27-.04h.25l.48,.04,.46,.06,.46,.1,.46,.19,.25,.08,.19,.1,.19,.1,.21,.14v-1.9h0Zm9.04,5.42v3.05l-.02,.23-.02,.21-.02,.23-.08,.21-.04,.14-.11,.12-.11,.12-.11,.14-.08,.06-.06,.06h3.29l-.15-.16-.13-.16-.11-.16-.08-.14-.06-.19-.04-.19-.02-.23-.02-.33v-6.65l.02-.31,.02-.29,.04-.25,.04-.23,.08-.19,.06-.19,.08-.12,.11-.06,.11-.1,.13-.12h-3.37l.13,.08,.11,.1,.06,.1,.08,.12,.11,.19,.06,.16,.06,.19,.02,.25,.02,.27v2.82h-4.61v-2.82l.02-.23,.04-.25,.04-.21,.08-.16,.11-.19,.13-.19,.13-.16,.04-.02,.04-.06h-3.29l.21,.23,.13,.16,.11,.14,.06,.19,.06,.19,.02,.21,.02,.27,.04,.41v6.51l-.04,.29v.23l-.02,.19-.02,.21-.08,.21-.06,.14-.08,.14-.11,.12-.13,.14-.04,.04-.08,.06h3.27l-.15-.16-.13-.19-.08-.14-.08-.14-.06-.21-.02-.21-.04-.19-.02-.31v-3.03h4.61Zm-44.82-5.5l.13,.08,.11,.1,.08,.1,.04,.1,.11,.16,.04,.21,.06,.23,.02,.23v4.74l.02,.45v.35l.04,.33,.02,.25,.04,.29,.06,.21,.08,.25,.08,.23,.13,.21,.13,.23,.15,.21,.19,.19,.17,.19,.21,.16,.21,.14,.23,.16,.23,.12,.25,.1,.25,.08,.42,.12,.46,.1,.48,.06,.51,.02,.59-.02,.55-.06,.51-.1,.46-.14,.21-.06,.21-.1,.21-.12,.21-.12,.19-.12,.19-.16,.15-.14,.15-.14,.19-.21,.15-.23,.13-.23,.11-.21,.11-.27,.06-.27,.06-.27,.04-.31,.02-.35,.04-.39,.02-.45v-4.47l.02-.31,.02-.19,.02-.19,.11-.23,.13-.19,.11-.16,.13-.1,.08-.04,.04-.04h-3.06l.15,.23,.08,.21,.04,.19,.04,.21,.04,.29v.35l.02,.45v4.29l-.02,.43-.02,.39-.02,.29-.06,.21-.04,.19-.08,.19-.11,.16-.11,.16-.13,.14-.13,.12-.15,.1-.17,.12-.19,.06-.21,.08-.19,.04-.34,.08-.38,.02-.38-.02-.4-.08-.32-.08-.32-.12-.17-.14-.19-.12-.15-.12-.11-.14-.11-.16-.06-.16-.08-.16-.04-.21-.04-.23-.02-.27-.02-.29v-5.21l.02-.37,.02-.27,.06-.21,.04-.19,.06-.16,.11-.19,.02-.04,.02-.04h-3.12Zm14.54,7.99v.82l.04,.25,.04,.19,.04,.19,.08,.14,.11,.14,.13,.19,.15,.16h-3.27l.21-.19,.13-.16,.11-.16,.06-.14,.06-.19,.04-.23,.02-.25v-7.29l-.02-.31-.02-.21-.04-.21-.08-.19-.11-.19-.15-.19-.21-.19h3.39l.23,.02h.57l.46,.04,.38,.06,.36,.06,.25,.06,.23,.06,.23,.1,.21,.12,.21,.1,.19,.14,.17,.16,.19,.14,.15,.16,.15,.21,.13,.21,.08,.19,.06,.21,.08,.23,.02,.23v.41l-.02,.21-.02,.21-.08,.19-.04,.16-.08,.16-.08,.14-.08,.12-.23,.29-.25,.27-.3,.21-.3,.19-.34,.14-.36,.19-.23,.08-.23,.06,1.62,1.85,.15,.16,.17,.21,.19,.19,.23,.27,.32,.33,.32,.31,.25,.25,.27,.27,.23,.21,.21,.16,.17,.16,.21,.16h-1.58l-.25-.02-.32-.02-.25-.02-.23-.08-.21-.1-.27-.14-.27-.21-.25-.23-.27-.25-.21-.23-.27-.31-.25-.31-.19-.21-1.92-2.22v2.27h0Zm.17-3.09l.25-.02,.27-.04,.4-.06,.34-.08,.27-.12,.3-.14,.27-.19,.21-.19,.11-.12,.06-.1,.08-.14,.04-.14,.06-.14,.02-.14,.02-.16v-.35l-.02-.21-.06-.14-.04-.19-.08-.14-.08-.14-.11-.12-.13-.1-.17-.12-.17-.1-.19-.08-.17-.06-.32-.08-.34-.04-.36-.04-.4-.02h-.08l-.17,.02v3.73l.08,.02h.08Z"/>
</svg>