<?xml version="1.0" encoding="UTF-8"?>
<svg id="Camada_1" data-name="Camada 1" xmlns="http://www.w3.org/2000/svg" viewBox="0 0 100 100">
  <defs>
    <style>
      .cls-1 {
        fill: #fff;
      }
    </style>
  </defs>
  <g id="g24">
    <polygon id="polygon4" class="cls-1" points="79.92 48.23 79.92 52.18 83.34 50.19 79.92 48.23 79.92 52.18 83.34 50.19 79.92 48.23"/>
    <g id="g10">
      <path id="path6" class="cls-1" d="M77.24,48.15c.94,0,1.71-.76,1.71-1.67s-.76-1.67-1.71-1.67-1.67,.76-1.67,1.67c.04,.91,.76,1.67,1.67,1.67Z"/>
      <path id="path8" class="cls-1" d="M77.27,52.26c-.91,0-1.67,.76-1.67,1.67s.76,1.67,1.67,1.67,1.71-.76,1.71-1.67-.76-1.67-1.71-1.67Z"/>
    </g>
    <g id="g22">
      <path id="path12" class="cls-1" d="M48.57,44.45h-.22c-1.31,0-2.43,.47-3.34,1.38s-1.38,2.03-1.38,3.34v6.47h2.91v-6.47c0-.62,.18-1.09,.54-1.45s.84-.54,1.42-.54,1.05,.18,1.42,.54,.54,.84,.54,1.45v6.47h2.91v-6.47c0-1.31-.47-2.43-1.38-3.34-.98-.94-2.11-1.38-3.41-1.38h0Z"/>
      <polygon id="polygon14" class="cls-1" points="55.4 55.64 58.31 55.64 58.31 47.5 60.67 47.5 60.67 44.77 58.31 44.77 58.31 42.01 55.4 42.01 55.4 55.64"/>
      <path id="path16" class="cls-1" d="M72.51,48.01c-.29-.69-.73-1.34-1.24-1.85-.54-.54-1.16-.94-1.85-1.24-.69-.29-1.45-.44-2.22-.44s-1.53,.15-2.22,.44c-.69,.29-1.34,.73-1.85,1.24-.54,.54-.94,1.16-1.24,1.85-.29,.69-.44,1.45-.44,2.22s.15,1.53,.44,2.22c.29,.69,.73,1.34,1.24,1.85,.54,.54,1.16,.94,1.85,1.24,.69,.29,1.45,.44,2.22,.44s1.53-.15,2.22-.44c.69-.29,1.34-.73,1.85-1.24,.54-.54,.94-1.16,1.24-1.85,.29-.69,.44-1.45,.44-2.22s-.15-1.53-.44-2.22Zm-4.47,5.09c-.25,.07-.54,.15-.87,.15s-.62-.04-.87-.15c-1.24-.36-2.18-1.53-2.18-2.91s.91-2.54,2.18-2.91c.25-.07,.54-.15,.87-.15s.58,.04,.87,.15c1.24,.36,2.18,1.53,2.18,2.91s-.91,2.54-2.18,2.91Z"/>
      <path id="path18" class="cls-1" d="M40.44,46.12c-.54-.54-1.16-.94-1.85-1.24-.69-.29-1.45-.44-2.22-.44s-1.53,.15-2.22,.44c-.69,.29-1.34,.73-1.85,1.24-.54,.54-.94,1.16-1.24,1.85-.29,.69-.44,1.45-.44,2.22s.15,1.53,.44,2.22,.73,1.34,1.24,1.85c.54,.54,1.16,.94,1.85,1.24,.69,.29,1.45,.44,2.22,.44s1.53-.15,2.22-.44,1.34-.73,1.85-1.24c.54-.54,.94-1.16,1.24-1.85s.44-1.45,.44-2.22-.15-1.53-.44-2.22c-.25-.69-.69-1.31-1.24-1.85h0Zm-3.2,6.97c-.25,.07-.54,.15-.87,.15s-.62-.04-.87-.15c-1.24-.36-2.18-1.53-2.18-2.91s.91-2.54,2.18-2.91c.25-.07,.54-.15,.87-.15s.58,.04,.87,.15c1.24,.36,2.18,1.53,2.18,2.91s-.94,2.54-2.18,2.91Z"/>
      <path id="path20" class="cls-1" d="M27.65,46.12c-.54-.54-1.16-.94-1.85-1.24-.69-.29-1.45-.44-2.22-.44s-1.53,.15-2.22,.44c-.69,.29-1.34,.73-1.85,1.24-.54,.54-.94,1.16-1.24,1.85-.25,.62-.4,1.31-.44,1.96h0v9.08h2.91v-3.81c.22,.11,.44,.22,.65,.33,.69,.29,1.45,.44,2.22,.44s1.53-.15,2.22-.44c.69-.29,1.34-.73,1.85-1.24,.54-.54,.94-1.16,1.24-1.85,.29-.69,.44-1.45,.44-2.22s-.15-1.53-.44-2.22c-.33-.73-.73-1.34-1.27-1.89h0Zm-3.2,6.97c-.29,.11-.58,.15-.87,.15-.33,0-.62-.04-.87-.15-1.24-.36-2.14-1.53-2.14-2.91s.91-2.54,2.18-2.91c.25-.07,.54-.15,.87-.15,.29,0,.58,.04,.87,.15,1.27,.36,2.18,1.53,2.18,2.91-.07,1.38-.98,2.54-2.22,2.91h0Z"/>
    </g>
  </g>
</svg>