<?xml version="1.0" encoding="UTF-8"?>
<svg id="Camada_1" data-name="Camada 1" xmlns="http://www.w3.org/2000/svg" viewBox="0 0 100 100">
  <defs>
    <style>
      .cls-1 {
        fill: #fff;
        fill-rule: evenodd;
      }
    </style>
  </defs>
  <polygon class="cls-1" points="83.19 45.49 79.92 45.49 77.19 50.14 77.19 41.45 74.36 41.45 74.36 55.26 77.19 55.26 77.19 51.18 77.19 51.11 77.2 51.06 77.22 51 77.25 50.96 77.26 50.94 77.27 50.92 77.29 50.9 77.31 50.89 77.33 50.88 77.35 50.86 77.37 50.85 77.39 50.84 77.41 50.84 77.43 50.83 77.45 50.83 77.47 50.83 77.5 50.84 77.52 50.84 77.54 50.85 77.57 50.86 77.59 50.87 77.61 50.89 77.64 50.9 77.66 50.92 77.68 50.95 77.7 50.97 77.72 51 77.74 51.03 80.39 55.26 83.66 55.26 80.37 50.01 83.19 45.49 83.19 45.49"/>
  <path class="cls-1" d="M26,53.19h-.19s-.18-.02-.18-.02l-.18-.02-.18-.03-.17-.04-.16-.05-.16-.06-.15-.07-.14-.08-.14-.09-.13-.09-.13-.11-.12-.11-.11-.12-.11-.13-.1-.14-.1-.15-.09-.16-.08-.17-.08-.18-.07-.19-.06-.2-.06-.2-.05-.21-.04-.22-.04-.23-.04-.24-.03-.25-.02-.26-.02-.27v-.28s-.01-.29-.01-.29v-.29s.01-.28,.01-.28l.02-.27,.02-.26,.02-.25,.04-.24,.04-.23,.04-.23,.05-.21,.06-.21,.06-.2,.07-.18,.08-.18,.08-.17,.09-.16,.1-.15,.1-.14,.11-.13,.11-.12,.12-.11,.13-.11,.13-.09,.14-.09,.14-.08,.15-.07,.16-.06,.16-.05,.17-.04,.18-.03,.18-.02,.19-.02h.19s.25,0,.25,0l.23,.02,.22,.04,.21,.05,.2,.06,.18,.08,.17,.09,.16,.1,.15,.11,.14,.12,.13,.13,.12,.14,.11,.15,.1,.15,.09,.16,.08,.17,.08,.17,.07,.18,.06,.18,.06,.19,.05,.19,.04,.19,.04,.2,.03,.2,.03,.2,.02,.2,.02,.2v.2s.02,.2,.02,.2v.2s.01,.2,.01,.2v.47s-.01,.28-.01,.28l-.02,.27-.02,.26-.03,.25-.03,.24-.04,.23-.04,.22-.05,.21-.06,.2-.06,.2-.07,.19-.08,.18-.08,.17-.09,.16-.09,.15-.1,.14-.11,.13-.11,.12-.12,.11-.12,.11-.13,.09-.14,.09-.14,.08-.15,.07-.15,.06-.16,.05-.17,.04-.17,.03-.18,.02-.18,.02h-.19Zm0-11.65h-.35s-.17,.02-.17,.02h-.17s-.17,.03-.17,.03l-.17,.02-.17,.02-.16,.03-.16,.03-.16,.03-.16,.04-.16,.04-.16,.05-.15,.05-.16,.06-.15,.06-.15,.06-.15,.07-.15,.07-.14,.08-.14,.08-.14,.08-.14,.09-.14,.09-.13,.1-.13,.1-.13,.11-.12,.11-.12,.12-.12,.12-.11,.12-.11,.13-.1,.14-.1,.14-.1,.14-.09,.14-.09,.14-.08,.14-.08,.15-.08,.15-.07,.15-.07,.15-.06,.15-.06,.16-.06,.16-.05,.16-.05,.16-.04,.16-.04,.16-.04,.17-.04,.16-.03,.17-.03,.17-.02,.17-.02,.16-.02,.17-.02,.17-.02,.17v.17s-.02,.17-.02,.17v.17s-.01,.16-.01,.16v.17s0,.16,0,.16v.32s0,.16,0,.16v.17s.02,.16,.02,.16v.17s.03,.16,.03,.16l.02,.17,.02,.16,.02,.17,.02,.16,.03,.17,.04,.16,.03,.16,.04,.16,.04,.16,.04,.16,.05,.16,.05,.15,.06,.16,.06,.15,.06,.15,.07,.15,.07,.15,.07,.15,.08,.14,.08,.14,.08,.14,.09,.14,.1,.14,.1,.14,.1,.13,.11,.13,.11,.12,.12,.12,.12,.11,.12,.11,.12,.11,.13,.1,.13,.1,.13,.09,.14,.09,.14,.08,.14,.08,.14,.08,.14,.07,.15,.06,.15,.06,.15,.06,.15,.05,.16,.05,.16,.05,.16,.04,.16,.04,.16,.03,.16,.03,.16,.03,.17,.02,.17,.02,.17,.02h.17s.17,.02,.17,.02h.17s.18,0,.18,0h.35s.17-.02,.17-.02h.17s.17-.03,.17-.03l.17-.02,.17-.02,.16-.03,.16-.03,.16-.03,.16-.04,.16-.04,.16-.05,.16-.05,.16-.05,.15-.06,.15-.06,.15-.06,.14-.07,.14-.08,.14-.08,.14-.08,.14-.09,.13-.09,.13-.1,.13-.1,.13-.11,.12-.11,.12-.11,.12-.12,.12-.12,.11-.13,.1-.13,.1-.14,.1-.14,.09-.14,.09-.14,.08-.14,.08-.14,.08-.15,.07-.15,.07-.15,.06-.15,.06-.15,.05-.16,.06-.15,.05-.16,.04-.16,.04-.16,.04-.16,.04-.16,.03-.16,.03-.17,.03-.16,.02-.17,.02-.16,.02-.17v-.16s.03-.17,.03-.17v-.16s.02-.17,.02-.17v-.16s0-.16,0-.16v-.16s0-.16,0-.16v-.17s0-.16,0-.16v-.17s-.02-.17-.02-.17v-.17s-.03-.17-.03-.17l-.02-.17-.02-.17-.02-.16-.03-.17-.03-.17-.03-.17-.04-.16-.04-.17-.04-.16-.05-.16-.05-.16-.05-.16-.06-.16-.06-.16-.06-.15-.07-.15-.07-.15-.07-.15-.08-.15-.08-.14-.08-.14-.09-.14-.1-.14-.1-.14-.1-.14-.11-.13-.12-.12-.12-.12-.12-.12-.12-.11-.12-.11-.13-.1-.13-.1-.13-.09-.14-.09-.14-.08-.14-.08-.14-.08-.14-.07-.15-.07-.15-.06-.15-.06-.15-.06-.16-.05-.16-.05-.16-.04-.16-.04-.16-.03-.16-.03-.17-.03-.17-.02-.17-.02-.17-.02h-.17s-.17-.02-.17-.02h-.18s-.17,0-.17,0h0Z"/>
  <polygon class="cls-1" points="37.56 45.84 37.44 45.93 37.32 46.02 37.22 46.1 37.13 46.18 37.05 46.25 36.97 46.31 36.93 46.34 36.89 46.36 36.86 46.37 36.82 46.39 36.78 46.4 36.75 46.41 36.71 46.41 36.68 46.41 36.65 46.41 36.62 46.4 36.59 46.39 36.55 46.38 36.53 46.36 36.49 46.34 36.47 46.31 36.44 46.28 36.41 46.24 36.38 46.2 36.35 46.15 36.33 46.09 36.3 46.04 36.27 45.98 36.25 45.91 36.22 45.84 36.17 45.68 36.13 45.49 33.83 45.49 33.83 55.27 36.67 55.27 36.67 50.63 36.68 50.44 36.68 50.25 36.7 50.07 36.72 49.89 36.75 49.72 36.78 49.55 36.82 49.4 36.87 49.25 36.92 49.11 36.98 48.97 37.05 48.84 37.12 48.72 37.2 48.6 37.28 48.49 37.37 48.39 37.47 48.29 37.58 48.2 37.68 48.12 37.8 48.05 37.93 47.98 38.05 47.93 38.19 47.88 38.34 47.83 38.49 47.8 38.64 47.77 38.81 47.75 38.98 47.74 39.16 47.74 39.34 47.75 39.54 47.76 39.73 47.79 39.94 47.82 40 45.46 39.93 45.44 39.86 45.42 39.79 45.41 39.71 45.4 39.64 45.38 39.56 45.38 39.48 45.37 39.4 45.37 39.32 45.37 39.23 45.37 39.15 45.37 39.06 45.38 38.98 45.38 38.89 45.4 38.8 45.41 38.72 45.42 38.55 45.45 38.39 45.49 38.3 45.51 38.22 45.53 38.15 45.56 38.07 45.58 37.99 45.61 37.92 45.64 37.85 45.67 37.79 45.7 37.73 45.73 37.66 45.77 37.61 45.81 37.56 45.84 37.56 45.84"/>
  <path class="cls-1" d="M45.29,53.26h-.27s-.14,0-.14,0h-.14s-.13-.03-.13-.03l-.13-.02h-.07s-.06-.03-.06-.03l-.06-.02-.06-.02v-3.76s.01-.11,.01-.11v-.1s.02-.1,.02-.1l.02-.1,.02-.1,.02-.09,.03-.09,.03-.09,.03-.09,.04-.08,.04-.08,.04-.08,.05-.08,.05-.07,.06-.07,.06-.06,.06-.06,.07-.06,.07-.06,.08-.05,.08-.05,.09-.04,.09-.04,.1-.03,.1-.03,.1-.02,.11-.02,.11-.02h.12s.12,0,.12,0h.16s.15,.02,.15,.02l.14,.02,.14,.03,.12,.04,.12,.04,.12,.05,.1,.05,.1,.06,.09,.07,.08,.07,.08,.08,.07,.08,.07,.09,.06,.09,.06,.09,.05,.1,.04,.11,.04,.11,.04,.11,.03,.12,.03,.11,.02,.12,.02,.12,.02,.12,.02,.12v.13s.02,.12,.02,.12v.13s.01,.13,.01,.13v.12s0,.13,0,.13v.17s0,.16,0,.16v.16s-.03,.15-.03,.15l-.02,.15-.03,.15-.03,.14-.04,.14-.04,.13-.05,.13-.05,.12-.06,.12-.06,.12-.07,.11-.08,.11-.08,.1-.09,.09-.09,.09-.1,.09-.1,.08-.11,.07-.12,.07-.12,.06-.13,.05-.14,.05-.14,.04-.15,.04-.16,.03-.16,.02-.17,.02h-.18s-.18,.02-.18,.02h0Zm1.54-7.99h-.28s-.14,.02-.14,.02l-.14,.02-.14,.02-.14,.03-.14,.03-.14,.03-.14,.04-.14,.05-.13,.05-.13,.06-.12,.06-.12,.07-.06,.04-.06,.04-.06,.04-.05,.04-.06,.05-.06,.04-.05,.03-.05,.02h-.02s-.02,.02-.02,.02h-.02s-.02,0-.02,0h-.04s-.02,0-.02,0h-.02s-.02-.02-.02-.02h-.01s-.01-.03-.01-.03v-.02s-.04-.05-.04-.05l-.02-.06-.02-.07v-.08s-.02-.1-.02-.1v-4.18h-2.83v13.48l.21,.07,.22,.06,.22,.06,.23,.05,.24,.05,.24,.05,.24,.04,.24,.04,.25,.03,.24,.03,.24,.02,.24,.02,.24,.02h.23s.23,.02,.23,.02h.22s.15,0,.15,0h.15s.15-.01,.15-.01h.15s.14-.02,.14-.02h.15s.15-.03,.15-.03l.15-.02,.14-.02,.15-.03,.14-.03,.14-.03,.14-.03,.14-.03,.14-.04,.14-.04,.14-.04,.14-.05,.14-.05,.14-.05,.13-.06,.13-.06,.13-.06,.13-.07,.13-.07,.12-.07,.12-.08,.12-.08,.12-.08,.12-.09,.12-.09,.11-.1,.1-.09,.1-.1,.1-.1,.09-.1,.09-.11,.08-.11,.08-.11,.08-.11,.08-.11,.07-.11,.07-.12,.06-.12,.06-.12,.06-.12,.05-.12,.05-.12,.04-.12,.04-.12,.04-.13,.04-.12,.03-.13,.03-.13,.03-.13,.02-.13,.02-.13,.02-.13,.02-.13v-.14s.02-.13,.02-.13v-.14s.01-.14,.01-.14v-.38s-.01-.25-.01-.25v-.12s-.02-.12-.02-.12v-.12s-.02-.12-.02-.12l-.02-.12-.02-.12-.02-.12-.02-.12-.02-.12-.03-.12-.03-.12-.03-.12-.04-.12-.04-.12-.04-.12-.04-.12-.05-.12-.05-.12-.06-.11-.06-.11-.06-.11-.06-.11-.07-.11-.07-.1-.07-.11-.08-.1-.08-.1-.08-.09-.08-.08-.07-.08-.08-.07-.08-.07-.08-.07-.08-.06-.08-.06-.08-.06-.09-.06-.09-.06-.09-.05-.09-.05-.09-.05-.1-.05-.09-.04-.1-.04-.1-.04-.1-.03-.1-.03-.1-.03-.1-.03-.1-.02-.1-.02-.1-.02-.1-.02-.1-.02h-.11s-.1-.02-.1-.02h-.11s-.11-.01-.11-.01h-.11s-.11,0-.11,0h0Z"/>
  <path class="cls-1" d="M54.97,49.33v-.11s.03-.11,.03-.11l.02-.11,.02-.11,.02-.1,.03-.1,.03-.1,.04-.09,.04-.09,.04-.09,.04-.08,.05-.08,.05-.08,.06-.08,.06-.07,.06-.07,.06-.06,.07-.06,.08-.06,.08-.05,.08-.05,.09-.05,.09-.04,.1-.04,.1-.03,.1-.03,.1-.03,.11-.02,.12-.02h.12s.12-.02,.12-.02h.13s.12,0,.12,0h.11s.11,.02,.11,.02l.11,.02,.1,.02,.1,.03,.09,.03,.09,.04,.09,.04,.08,.05,.08,.05,.08,.05,.07,.06,.07,.06,.06,.06,.06,.07,.06,.07,.05,.07,.05,.08,.05,.08,.04,.08,.04,.08,.04,.09,.03,.09,.03,.09,.03,.09,.02,.1,.02,.09,.02,.1v.1s.02,.1,.02,.1v.1s-4.04,0-4.04,0h0Zm2.18-4.06h-.27s-.13,.01-.13,.01h-.14s-.13,.02-.13,.02l-.13,.02-.13,.02-.13,.02-.13,.02-.13,.03-.13,.03-.12,.03-.12,.04-.12,.04-.12,.04-.12,.05-.12,.05-.12,.05-.12,.05-.11,.06-.11,.06-.11,.06-.11,.07-.11,.07-.1,.07-.1,.08-.1,.08-.1,.08-.1,.09-.1,.09-.09,.09-.09,.1-.08,.1-.08,.1-.08,.1-.08,.1-.07,.11-.07,.1-.06,.11-.06,.11-.06,.11-.06,.11-.06,.11-.05,.11-.05,.12-.04,.11-.04,.12-.04,.12-.04,.12-.03,.12-.03,.12-.03,.12-.03,.12-.02,.12-.02,.12-.02,.12-.02,.12v.12s-.02,.12-.02,.12v.12s-.02,.12-.02,.12v.12s0,.12,0,.12v.36s.02,.24,.02,.24v.12s.02,.12,.02,.12v.12s.03,.12,.03,.12l.02,.12,.02,.12,.02,.12,.02,.12,.03,.12,.03,.12,.03,.12,.04,.12,.04,.12,.04,.11,.04,.11,.05,.11,.05,.11,.05,.11,.06,.11,.06,.11,.06,.11,.07,.1,.07,.1,.08,.1,.08,.1,.08,.1,.08,.09,.09,.09,.1,.1,.1,.09,.11,.09,.11,.09,.11,.08,.12,.08,.12,.08,.12,.07,.12,.07,.12,.06,.12,.06,.13,.06,.13,.06,.13,.05,.13,.05,.14,.04,.14,.04,.14,.04,.14,.03,.14,.03,.14,.03,.14,.03,.14,.02,.14,.02,.14,.02,.14,.02h.14s.14,.02,.14,.02h.14s.14,.01,.14,.01h.14s.14,0,.14,0h.24s.24,0,.24,0h.24s.24-.03,.24-.03l.23-.02,.23-.02,.23-.03,.22-.03,.22-.04,.22-.04,.21-.05,.21-.05,.21-.06,.2-.06,.2-.06,.2-.07-.56-2.04-.16,.06-.16,.05-.17,.05-.17,.05-.17,.04-.17,.04-.17,.04-.18,.03-.17,.03-.18,.02-.18,.02-.18,.02-.18,.02h-.17s-.18,.02-.18,.02h-.17s-.15,0-.15,0h-.14s-.14-.01-.14-.01l-.14-.02-.14-.02-.13-.02-.13-.02-.12-.03-.12-.03-.12-.03-.12-.04-.11-.04-.11-.05-.1-.05-.1-.06-.1-.06-.1-.07-.08-.07-.08-.08-.08-.08-.08-.09-.07-.09-.06-.1-.06-.1-.05-.11-.05-.11-.04-.12-.04-.12-.03-.13-.03-.14-.02-.14v-.14s6.64,0,6.64,0l.02-.15,.02-.16,.02-.16v-.16s.02-.16,.02-.16v-.16s0-.16,0-.16v-.15s0-.11,0-.11v-.11s-.01-.11-.01-.11v-.11s-.02-.11-.02-.11v-.11s-.02-.11-.02-.11l-.02-.11-.02-.11-.02-.11-.02-.11-.02-.11-.03-.11-.03-.11-.04-.11-.03-.11-.04-.11-.04-.11-.04-.11-.04-.1-.05-.1-.05-.1-.05-.1-.06-.1-.06-.1-.06-.09-.06-.09-.07-.09-.07-.09-.07-.09-.08-.09-.08-.09-.08-.09-.08-.08-.09-.08-.09-.08-.09-.07-.09-.07-.1-.07-.09-.06-.1-.06-.1-.06-.1-.06-.1-.05-.1-.05-.1-.05-.1-.05-.11-.04-.1-.04-.11-.04-.11-.03-.11-.03-.11-.03-.12-.03-.11-.02-.12-.02-.12-.02-.12-.02-.12-.02h-.12s-.12-.02-.12-.02h-.12s-.12-.01-.12-.01h-.12Z"/>
  <polygon class="cls-1" points="68.95 45.27 68.82 45.27 68.7 45.28 68.57 45.28 68.45 45.3 68.33 45.32 68.21 45.34 68.1 45.36 67.98 45.39 67.86 45.43 67.75 45.46 67.64 45.51 67.52 45.55 67.41 45.6 67.3 45.66 67.2 45.72 67.09 45.78 66.97 45.86 66.85 45.94 66.73 46.03 66.62 46.12 66.53 46.2 66.45 46.26 66.41 46.28 66.37 46.31 66.34 46.33 66.3 46.35 66.27 46.36 66.24 46.37 66.2 46.38 66.17 46.38 66.14 46.38 66.11 46.38 66.08 46.37 66.05 46.35 66.02 46.34 65.99 46.32 65.96 46.29 65.94 46.26 65.91 46.23 65.88 46.19 65.86 46.14 65.84 46.09 65.81 46.03 65.78 45.97 65.76 45.91 65.74 45.84 65.69 45.68 65.64 45.49 63.31 45.49 63.31 55.26 66.16 55.26 66.16 50.14 66.16 50.01 66.17 49.87 66.18 49.74 66.18 49.6 66.2 49.46 66.22 49.32 66.25 49.19 66.28 49.05 66.32 48.91 66.37 48.78 66.39 48.72 66.42 48.65 66.45 48.59 66.48 48.53 66.51 48.47 66.55 48.41 66.59 48.35 66.63 48.3 66.67 48.24 66.71 48.19 66.76 48.14 66.81 48.09 66.87 48.04 66.93 47.99 67 47.94 67.07 47.9 67.15 47.86 67.23 47.82 67.31 47.78 67.39 47.75 67.48 47.72 67.57 47.7 67.66 47.67 67.75 47.66 67.84 47.64 67.93 47.63 68.02 47.63 68.12 47.62 68.21 47.62 68.3 47.63 68.39 47.64 68.47 47.65 68.56 47.67 68.65 47.69 68.73 47.72 68.81 47.75 68.89 47.78 68.96 47.82 69.03 47.87 69.1 47.92 69.16 47.98 69.22 48.04 69.27 48.1 69.32 48.17 69.36 48.25 69.39 48.32 69.43 48.4 69.46 48.48 69.49 48.57 69.52 48.65 69.54 48.75 69.56 48.84 69.58 48.94 69.6 49.04 69.62 49.15 69.62 49.26 69.64 49.38 69.64 49.49 69.64 49.62 69.65 49.74 69.65 55.26 72.49 55.26 72.49 49.02 72.49 48.79 72.48 48.55 72.46 48.33 72.44 48.12 72.42 48.01 72.41 47.91 72.39 47.81 72.37 47.71 72.35 47.62 72.32 47.52 72.3 47.43 72.27 47.34 72.24 47.25 72.21 47.17 72.18 47.08 72.14 47 72.11 46.92 72.07 46.84 72.03 46.76 71.99 46.69 71.95 46.62 71.9 46.55 71.86 46.48 71.81 46.42 71.76 46.35 71.71 46.29 71.66 46.23 71.6 46.17 71.54 46.12 71.48 46.06 71.42 46.01 71.36 45.96 71.3 45.91 71.24 45.87 71.17 45.82 71.1 45.78 71.03 45.73 70.96 45.7 70.89 45.66 70.81 45.62 70.73 45.59 70.65 45.55 70.57 45.52 70.49 45.49 70.41 45.47 70.32 45.44 70.24 45.42 70.14 45.4 70.06 45.37 69.96 45.35 69.87 45.34 69.77 45.32 69.68 45.31 69.58 45.3 69.47 45.29 69.37 45.28 69.16 45.27 68.95 45.27 68.95 45.27"/>
</svg>