<?xml version="1.0" encoding="UTF-8"?>
<svg id="Camada_1" data-name="Camada 1" xmlns="http://www.w3.org/2000/svg" viewBox="0 0 100 100">
  <defs>
    <style>
      .cls-1 {
        fill: #fff;
      }
    </style>
  </defs>
  <path class="cls-1" d="M50.31,47.42h-1.48v3.5h1.48c1.17,0,1.84-.61,1.85-1.75,0-1.12-.66-1.75-1.85-1.75Z"/>
  <path class="cls-1" d="M40.11,47.34c-1.98,0-3.13,1.52-3.13,3.24s1.16,3.27,3.13,3.27,3.11-1.53,3.1-3.27c0-1.71-1.16-3.24-3.1-3.24Z"/>
  <path class="cls-1" d="M59.18,47.42h-1.48v3.5h1.48c1.19,0,1.85-.61,1.85-1.75s-.66-1.75-1.85-1.75Z"/>
  <path class="cls-1" d="M20.75,41.09v19.27l58.47,2.96v-27.32l-58.47,5.09Zm11.62,14.74h-2.42v-8.29h-2.37v-2.18h7.17v2.18h-2.37v8.29Zm7.73,.27c-3.5,0-5.56-2.63-5.56-5.51s2.07-5.5,5.56-5.5,5.54,2.63,5.54,5.5-2.07,5.51-5.54,5.51Zm14.46-.27h-2.74l-1.88-2.9h-1.12v2.9h-2.4v-10.47h4.15c2.5,0,3.99,1.75,3.99,3.78,0,1.66-.92,2.78-2.21,3.36l2.21,3.34Zm15.35,0l-.46-1.42h-3.64l-.45,1.42h-4.68l-1.88-2.9h-1.12v2.9h-2.4v-10.47h4.15c2.5,0,3.99,1.75,3.99,3.78,0,1.66-.92,2.77-2.21,3.36l1.85,2.81,3.36-9.94h2.53l3.61,10.47h-2.65Z"/>
  <polygon class="cls-1" points="66.39 52.45 68.85 52.45 67.65 48.02 66.39 52.45"/>
</svg>