<?xml version="1.0" encoding="UTF-8"?>
<svg id="Camada_1" data-name="Camada 1" xmlns="http://www.w3.org/2000/svg" viewBox="0 0 100 100">
  <defs>
    <style>
      .cls-1 {
        fill: #fff;
      }

      .cls-2 {
        fill: none;
        fill-rule: evenodd;
      }
    </style>
  </defs>
  <polygon class="cls-2" points="-81.59 77.55 172.95 77.55 172.95 122 -81.59 122 -81.59 77.55 -81.59 77.55"/>
  <g>
    <path class="cls-1" d="M24.55,58.44c-4.5,0-8.23-3.69-8.35-8.01-.12-4.75,3.81-8.69,8.45-8.62,4.38,.07,8.3,3.4,8.3,8.33,0,4.95-3.94,8.33-8.4,8.3Zm-5.51-8.32c-.19,2.85,2.29,5.66,5.55,5.67,3.06,0,5.6-2.58,5.6-5.68,0-3.06-2.62-5.72-5.65-5.63-3.45,.1-5.68,2.97-5.5,5.64Z"/>
    <path class="cls-1" d="M77.26,58.2c-3.66,.44-7.65-2.52-8.42-6.16-1.15-5.42,2.85-10.29,8.37-10.18,4,.08,7,2.8,7.63,6.93q.34,2.25-1.9,2.25c-3.44,0-6.88,0-10.33,0-1.13,0-1.28,.21-.81,1.26,.82,1.84,2.25,2.94,4.21,3.33,1.25,.25,1.26,.22,1.26,1.49,0,.36,0,.73,0,1.08Zm-.51-9.49c1.32,0,2.63,0,3.95,0,1.32,0,1.5-.25,.91-1.45-1.02-2.1-2.78-2.92-5.05-2.81-2.25,.1-3.83,1.19-4.75,3.23-.38,.84-.26,1.02,.65,1.03,1.43,.02,2.86,0,4.29,0Z"/>
    <path class="cls-1" d="M62.5,44.82h-8.11v-2.6h14c-1.99,2.25-3.92,4.43-5.86,6.61-1.94,2.18-3.88,4.35-5.99,6.72,.58,.04,.91,.08,1.23,.08,2.87,0,5.74,.03,8.62-.01,.81-.01,1.12,.2,1.09,1.05-.07,1.76,.15,1.57-1.59,1.57-3.53,0-7.07-.02-10.6,.02-.8,0-.92-.27-1.02-1.03-.31-2.34,.55-4.05,2.2-5.68,2.08-2.04,3.91-4.34,6.03-6.73Z"/>
    <path class="cls-1" d="M51.59,42.15c-.17,3.64,0,7.19-.57,10.6-.65,3.8-4,5.87-8.07,5.69-3.32-.14-6.26-2.8-6.91-6.27-.11-.59-.16-1.19-.17-1.79-.02-2.7,0-5.39,0-8.22,.81,0,1.55-.05,2.27,.04,.16,.02,.39,.49,.39,.76,.03,2.24-.03,4.49,.04,6.73,.03,1.02,.17,2.07,.49,3.03,.69,2.05,2.67,3.21,4.95,3.09,2.11-.12,3.91-1.56,4.41-3.61,.16-.66,.2-1.36,.21-2.04,.02-2.39,.03-4.77,0-7.16,0-.62,.13-.91,.81-.85,.62,.05,1.25,.01,2.16,.01Z"/>
  </g>
</svg>