<?xml version="1.0" encoding="UTF-8"?>
<svg id="Camada_1" data-name="Camada 1" xmlns="http://www.w3.org/2000/svg" viewBox="0 0 100 100">
  <defs>
    <style>
      .cls-1 {
        fill: #fff;
      }
    </style>
  </defs>
  <path class="cls-1" d="M13,50.42c.65-1.85,2.21-2.52,3.96-3.07,.03,1.28,.78,2.2,1.34,3.21,.58,1.04,1.17,2.07,1.77,3.13,.6-1.02,.63-2.07,.05-3.13-.56-1.02-1.16-2.01-1.73-3.02-.58-1.03-.6-2.07-.05-3.11,1.17,2.08,2.33,4.14,3.47,6.19,.63-.72,.69-2.01,.07-3.13-.56-1-1.14-1.99-1.71-2.98-.49-.84-.6-1.73-.27-2.65,.06-.16,.14-.31,.21-.45,.86,1.52,1.72,3.02,2.55,4.52,.18,.33,.32,.71,.4,1.08,.06,.3,.21,.4,.47,.52,.83,.38,1.72,.7,2.44,1.24,1.52,1.14,1.51,2.78,.06,4.02-1.13,.97-2.49,1.41-3.93,1.63-2.16,.34-4.28,.21-6.33-.63-1.28-.52-2.35-1.28-2.78-2.7v-.68Z"/>
  <path class="cls-1" d="M77.28,54.17h-1.23c-.05-.24-.09-.46-.14-.75-.59,.78-1.35,1.04-2.24,.93-1.22-.15-1.99-.87-2.35-2.02-.27-.86-.29-1.75-.08-2.63,.36-1.51,1.46-2.39,3.07-2.46,.51-.02,1.03,0,1.62,0,0-.53,.03-1.09,0-1.65-.03-.43,.15-.58,.54-.58,.08,0,.16,0,.24-.02,.45-.09,.62,.05,.62,.54-.02,2.71-.01,5.42-.01,8.13,0,.16-.02,.31-.03,.51Zm-1.35-3.51c0-.48-.04-.97,.01-1.45,.06-.54-.18-.68-.66-.74-1.73-.2-2.68,.61-2.69,2.36,0,.21,0,.42,.03,.63,.09,.7,.33,1.33,1.03,1.63,.73,.32,1.42,.15,2.07-.25,.12-.07,.2-.29,.2-.44,.02-.58,0-1.16,0-1.74Z"/>
  <path class="cls-1" d="M35.3,46.38c-.9-.09-1.72-.22-2.53-.23-.92,0-1.47,.52-1.34,1.26,.06,.33,.29,.69,.55,.9,.36,.29,.82,.44,1.23,.65,.56,.29,1.14,.53,1.67,.87,.81,.53,1.14,1.33,1.04,2.3-.11,1.03-.7,1.7-1.65,2.01-1.36,.45-2.74,.36-4.08-.11-.13-.05-.28-.3-.28-.45,0-.31,.11-.62,.18-.95,1.06,.37,2.07,.62,3.14,.42,.55-.1,1.05-.27,1.2-.89,.15-.6-.1-1.1-.75-1.48-.39-.23-.81-.4-1.21-.59-.39-.19-.8-.34-1.18-.56-1.08-.64-1.52-1.64-1.28-2.78,.21-1,1.02-1.75,2.23-1.82,.92-.06,1.86,.09,2.79,.15,.43,.03,.53,.28,.44,.66-.06,.23-.12,.46-.16,.63Z"/>
  <path class="cls-1" d="M80.03,51.37c.16,1.13,.79,1.76,1.84,1.76,.84,0,1.68-.16,2.54-.25,.15,.73-.07,1.17-.88,1.29-.76,.11-1.55,.18-2.31,.08-1.63-.22-2.54-1.32-2.64-3.09-.03-.53,0-1.07,.12-1.59,.48-2.17,3.18-3.13,4.97-1.8,.73,.54,1.01,1.33,1.06,2.19,.08,1.41,.07,1.41-1.33,1.41-1.11,0-2.23,0-3.37,0Zm.02-1.22h3.23c.1-1-.49-1.71-1.43-1.76-1.06-.06-1.77,.61-1.8,1.76Z"/>
  <path class="cls-1" d="M62.44,54.17h-1.28c-.03-.22-.06-.43-.08-.61-.4,.24-.78,.57-1.21,.7-1.49,.44-2.93-.41-3.39-1.95-.25-.85-.28-1.72-.08-2.59,.33-1.44,1.31-2.35,2.86-2.45,.93-.06,1.89,.13,2.83,.24,.13,.01,.33,.23,.33,.35,.02,2.08,.01,4.17,.01,6.3Zm-1.43-3.51c0-.31,0-.61,0-.92q0-1.35-1.36-1.27c-.92,.05-1.64,.58-1.83,1.45-.12,.54-.16,1.13-.07,1.67,.25,1.53,1.61,2.13,2.94,1.33,.16-.09,.29-.34,.31-.52,.04-.58,.01-1.16,.01-1.74Z"/>
  <path class="cls-1" d="M42.99,54.17q-1.21,.1-1.31-.66c-.06,.03-.13,.04-.15,.08-.78,1.15-3.14,1.09-4.03-.44-.84-1.44-.84-2.96-.06-4.44,.5-.95,1.42-1.39,2.44-1.43,.94-.04,1.89,.12,2.83,.23,.13,.01,.34,.23,.34,.35,.02,2.07,0,4.13,0,6.2,0,.03-.02,.06-.05,.12Zm-1.31-3.46c0-.32,0-.65,0-.97q0-1.36-1.37-1.28c-1,.06-1.75,.69-1.9,1.68-.07,.46-.07,.93-.02,1.39,.18,1.56,1.73,2.24,3.03,1.33,.13-.09,.24-.31,.24-.47,.03-.56,.01-1.13,.01-1.69Z"/>
  <path class="cls-1" d="M50.53,54.17h-1.37c0-.37,0-.72,0-1.07,0-1,.01-2,0-3-.02-1.18-.44-1.6-1.62-1.63-.45,0-.9,0-1.4,0v5.7h-1.4c0-.13-.02-.24-.02-.35,0-1.94,0-3.88,0-5.81,0-.29,.06-.42,.37-.49,1.15-.23,2.29-.4,3.46-.18,1.31,.24,1.95,.95,1.98,2.28,.02,1.5,0,3,0,4.56Z"/>
  <path class="cls-1" d="M64.1,54.16c0-1,0-1.95,0-2.9,0-1.1,0-2.2,0-3.3,0-.23,.02-.39,.3-.45,1.16-.23,2.32-.42,3.5-.19,1.35,.25,2,.98,2.01,2.36,.02,1.37,0,2.75,0,4.12,0,.11-.02,.22-.03,.36h-1.4c0-.61,0-1.18,0-1.76,0-.86,0-1.71-.01-2.57-.02-.85-.38-1.23-1.21-1.35-.03,0-.06,0-.1,0-1.65-.16-1.7-.11-1.7,1.51,0,1.21,0,2.42,0,3.63,0,.17-.01,.35-.02,.55h-1.35Z"/>
  <path class="cls-1" d="M55.69,53.08c.01,.06,.03,.09,.03,.12-.12,1.09-.22,1.18-1.34,1.19-1.55,0-2.29-.72-2.29-2.28,0-2.12,.02-4.23-.02-6.35,0-.53,.18-.71,.66-.76,.76-.08,.76-.1,.76,.66,0,.58,0,1.16,0,1.8h2.28c-.02,.36,0,.67-.07,.96-.02,.11-.24,.23-.37,.24-.58,.03-1.16,.01-1.8,.01-.01,.23-.03,.44-.04,.64,0,.89-.01,1.78,0,2.66,.02,.9,.4,1.25,1.31,1.2,.29-.01,.57-.06,.89-.1Z"/>
  <path class="cls-1" d="M87.52,54.17h-1.37c-.01-.16-.03-.3-.03-.44,0-1.9,0-3.81,0-5.71,0-.33,.09-.49,.42-.56,1.06-.23,2.13-.32,3.27-.14-.03,.39-.07,.76-.1,1.15-.56,0-1.07,.02-1.58,0-.44-.02-.62,.12-.61,.6,.03,1.51,.01,3.03,.01,4.55v.56Z"/>
</svg>