<?xml version="1.0" encoding="UTF-8"?>
<svg id="Camada_1" data-name="Camada 1" xmlns="http://www.w3.org/2000/svg" viewBox="0 0 100 100">
  <defs>
    <style>
      .cls-1 {
        fill: #fff;
      }

      .cls-2 {
        fill: none;
        fill-rule: evenodd;
      }
    </style>
  </defs>
  <path class="cls-1" d="M18.99,54.08c-.68-.05-1.37,.06-2.05-.12-1.14-.29-1.7-.99-1.73-2.16-.02-.85,.24-1.66,.38-2.49,.05-.28,.11-.57,.16-.85,.04-.19-.04-.29-.24-.29-.3,0-.6,0-.91,0-.23,0-.31-.08-.26-.32,.1-.44,.17-.88,.25-1.33,.04-.24,.17-.33,.41-.32,.28,.01,.56,0,.84,0,.27,.01,.4-.07,.45-.35,.13-.73,.3-1.45,.43-2.17,.04-.24,.16-.32,.4-.32,1.02,0,2.05,0,3.07,0,.39,0,.47,.11,.4,.49-.12,.63-.24,1.27-.37,1.9-.06,.28,.01,.41,.32,.41,.44-.01,.88-.01,1.33,0,.4,.01,.48,.12,.42,.49-.06,.38-.14,.75-.2,1.12-.04,.28-.2,.4-.48,.39-.5,0-1,0-1.5,0-.25,0-.37,.08-.42,.34-.13,.8-.3,1.59-.44,2.38-.14,.79,.2,1.18,1.01,1.2,.19,0,.37,.01,.56,0,.3-.03,.4,.08,.34,.38-.08,.39-.15,.79-.22,1.19-.05,.31-.21,.44-.52,.42-.24-.02-.49,0-.73,0-.23,0-.47,0-.7,0Z"/>
  <path class="cls-1" d="M37.27,46.93c.5-.51,1.03-.78,1.66-.88,.56-.09,1.12-.06,1.65,.15,.7,.27,1.08,.81,1.27,1.5,.26,.95,.03,1.88-.16,2.81-.2,1.03-.41,2.06-.61,3.09-.09,.44-.14,.49-.6,.49-.37,0-.74,0-1.12,0q-.58,0-.47-.58c.26-1.32,.52-2.65,.78-3.97,.01-.06,.03-.11,.03-.17,.02-.46,.07-.95-.4-1.25-.5-.31-1.01-.23-1.49,.04-.55,.31-.92,.79-1.06,1.4-.28,1.25-.52,2.51-.77,3.76-.03,.14-.05,.27-.08,.41-.05,.26-.2,.37-.46,.36-.44-.01-.88,0-1.33,0-.47,0-.48-.02-.39-.47,.26-1.29,.52-2.58,.77-3.87,.39-1.98,.79-3.96,1.17-5.94,.06-.34,.2-.47,.55-.44,.39,.03,.79,0,1.19,0,.47,0,.54,.09,.45,.53-.17,.86-.34,1.72-.51,2.58-.02,.12-.04,.24-.07,.45Z"/>
  <path class="cls-1" d="M67.42,49.7c0,2.69-2.08,4.71-4.78,4.65-2.22-.05-3.76-1.81-3.52-4,.17-1.63,.92-2.88,2.36-3.7,1.6-.92,3.8-.68,5.01,.56,.67,.69,.93,1.55,.94,2.5Zm-2.2,.14c0-1.42-1.03-2.16-2.39-1.7-1.2,.4-1.72,1.8-1.52,2.88,.2,1.12,1.15,1.66,2.25,1.32,1-.3,1.66-1.3,1.66-2.51Z"/>
  <path class="cls-1" d="M46.93,53.44c-.49,.48-1.07,.78-1.74,.87-.35,.05-.7,.06-1.04,0-1.05-.17-1.69-.74-1.88-1.64-.21-1,.22-2.05,1.06-2.6,.6-.4,1.27-.56,1.98-.59,.66-.03,1.33-.02,1.99-.01,.28,0,.34-.11,.31-.36-.11-.68-.63-1.1-1.41-1.13-.81-.03-1.6,.07-2.39,.24-.35,.08-.36,.06-.28-.29,.08-.36,.17-.72,.25-1.08,.05-.22,.14-.39,.38-.45,1.16-.31,2.33-.47,3.5-.1,1.55,.49,2.31,1.83,2.01,3.56-.23,1.31-.51,2.6-.75,3.91-.05,.29-.21,.42-.5,.42-.38,0-.77,0-1.15,0-.4,0-.41-.02-.34-.42,.02-.1,.08-.19,.03-.33Zm-.67-2.44s0,.01,0,.02c-.29,0-.58,0-.87,0-.29,.01-.57,.09-.81,.28-.28,.21-.38,.48-.33,.82,.05,.33,.26,.53,.58,.62,1,.3,2.28-.45,2.5-1.46,.04-.2-.02-.28-.22-.27-.28,0-.56,0-.84,0Z"/>
  <path class="cls-1" d="M27.16,50.95c-.71,0-1.42,0-2.13,0-.37,0-.41,.06-.28,.41,.31,.8,.99,1.02,1.75,1.08,.72,.05,1.44,0,2.15-.16,.34-.08,.36-.05,.29,.3-.08,.38-.17,.77-.25,1.15-.05,.21-.16,.36-.38,.41-1.36,.32-2.7,.38-3.98-.29-1.07-.56-1.59-1.5-1.72-2.65-.17-1.55,.25-2.92,1.42-4.02,1.11-1.04,2.96-1.4,4.36-.78,1.02,.45,1.51,1.31,1.63,2.37,.06,.55,.06,1.11-.07,1.65-.1,.44-.22,.54-.67,.54-.71,0-1.42,0-2.13,0Zm-.79-1.56c.44,0,.88,0,1.32,0,.15,0,.26-.02,.3-.21,.12-.67-.37-1.31-1.06-1.35-.88-.06-1.68,.43-2.05,1.22-.12,.26-.05,.36,.23,.35,.42,0,.84,0,1.25,0Z"/>
  <path class="cls-1" d="M53.51,47.05c.55-.57,1.22-.88,2-.94,1.51-.12,2.68,.6,2.76,2.34,.04,1-.24,1.94-.42,2.9-.15,.78-.32,1.56-.47,2.34-.05,.28-.2,.39-.48,.38-.47-.01-.93-.02-1.4,0-.31,.01-.38-.09-.32-.38,.27-1.28,.53-2.55,.77-3.83,.06-.33,.13-.65,.07-.99-.11-.63-.55-.95-1.2-.87-.89,.12-1.57,.75-1.79,1.75-.28,1.26-.52,2.53-.77,3.8-.1,.49-.14,.52-.64,.52-.42,0-.84,0-1.26,0-.28,0-.39-.06-.33-.38,.48-2.36,.95-4.73,1.41-7.1,.05-.25,.17-.34,.43-.33,.38,.02,.77,0,1.15,0,.49,0,.55,.08,.48,.55-.01,.06-.06,.13,0,.22Z"/>
  <path class="cls-1" d="M84.15,50.95c-.72,0-1.44,0-2.17,0-.27,0-.35,.08-.27,.35,.2,.64,.66,.96,1.29,1.07,.87,.16,1.74,.09,2.6-.09,.36-.07,.38-.06,.3,.28-.09,.39-.18,.79-.27,1.18-.04,.19-.15,.34-.35,.39-.97,.21-1.95,.33-2.94,.1-1.56-.37-2.54-1.41-2.72-3-.18-1.65,.29-3.08,1.59-4.19,1.12-.95,3.02-1.19,4.27-.54,.92,.48,1.36,1.27,1.47,2.26,.06,.53,.06,1.08-.05,1.62-.11,.5-.2,.58-.73,.58-.68,0-1.35,0-2.03,0Zm-.81-1.56c.44,0,.88,0,1.33,0,.16,0,.27-.04,.3-.22,.11-.58-.41-1.26-1.01-1.33-.87-.1-1.77,.43-2.1,1.24-.1,.25-.01,.31,.22,.31,.42,0,.84,0,1.26,0Z"/>
  <path class="cls-1" d="M78,48.18c-.27,0-.54,0-.8,0-.23,0-.33,.09-.37,.31-.14,.76-.31,1.51-.45,2.27-.03,.17-.03,.34-.02,.52,.01,.43,.23,.68,.67,.75,.36,.06,.72,.08,1.08,.06,.24-.01,.32,.08,.27,.31-.09,.44-.18,.88-.26,1.32-.04,.21-.16,.33-.37,.34-.67,.01-1.35,.04-2.01-.13-.99-.25-1.6-1.05-1.64-2.07-.05-1.18,.31-2.3,.52-3.45,.3-1.56,.64-3.12,.94-4.68,.05-.27,.17-.39,.46-.38,.42,.02,.84,0,1.26,0,.53,0,.59,.07,.48,.6-.12,.62-.24,1.25-.38,1.86-.06,.27,0,.39,.3,.38,.5-.01,1,0,1.5,0,.36,0,.44,.1,.37,.45-.07,.37-.15,.75-.21,1.12-.05,.27-.21,.4-.48,.4-.28,0-.56,0-.84,0h0Z"/>
  <path class="cls-1" d="M31.36,54.08c-.21,0-.42-.01-.63,0-.31,.02-.41-.09-.35-.41,.28-1.39,.54-2.79,.81-4.18,.37-1.9,.74-3.81,1.1-5.71,.06-.3,.17-.44,.49-.42,.41,.02,.81,0,1.22,0,.45,0,.52,.07,.43,.52-.28,1.5-.57,2.99-.86,4.49-.32,1.69-.65,3.38-.97,5.07-.12,.62-.14,.64-.76,.64-.16,0-.33,0-.49,0Z"/>
  <path class="cls-1" d="M71.14,46.96c.71-.62,1.52-.85,2.41-.88,.45-.01,.55,.1,.46,.53-.07,.36-.15,.72-.21,1.09-.05,.3-.21,.41-.5,.41-.27,0-.53,0-.8,.06-.91,.19-1.46,.78-1.75,1.62-.28,.8-.36,1.64-.54,2.47-.1,.46-.19,.93-.27,1.39-.05,.32-.22,.45-.55,.43-.44-.02-.89-.02-1.33,0-.34,.02-.39-.12-.33-.41,.29-1.47,.57-2.94,.86-4.42,.18-.93,.37-1.86,.53-2.79,.05-.29,.18-.41,.49-.4,.45,.02,.91,.01,1.36,0,.24,0,.32,.08,.27,.31-.04,.19-.07,.38-.1,.57Z"/>
  <polygon class="cls-2" points="-81.59 77.55 172.95 77.55 172.95 122 -81.59 122 -81.59 77.55 -81.59 77.55"/>
</svg>