<?xml version="1.0" encoding="UTF-8"?>
<svg id="Camada_1" data-name="Camada 1" xmlns="http://www.w3.org/2000/svg" viewBox="0 0 100 100">
  <defs>
    <style>
      .cls-1 {
        fill: #fff;
      }

      .cls-2 {
        fill: none;
        fill-rule: evenodd;
      }
    </style>
  </defs>
  <polygon class="cls-2" points="-81.59 77.55 172.95 77.55 172.95 122 -81.59 122 -81.59 77.55 -81.59 77.55"/>
  <path class="cls-1" d="M84.93,43.61H19.2c.47-.05,.99-.07,1.5-.11,.55-.04,1.09-.08,1.64-.12,.77-.05,1.55-.11,2.32-.16,.56-.04,1.13-.07,1.69-.11,.72-.05,1.45-.1,2.17-.15,.55-.04,1.11-.07,1.66-.11,.73-.05,1.46-.1,2.19-.15,.53-.04,1.06-.07,1.59-.11,.76-.05,1.52-.11,2.29-.16,.53-.04,1.06-.07,1.59-.11,.76-.05,1.51-.1,2.27-.16,.52-.04,1.04-.07,1.56-.11,.77-.05,1.54-.11,2.3-.16,.56-.04,1.12-.07,1.67-.11,.73-.05,1.46-.1,2.19-.15,.55-.04,1.11-.07,1.66-.11,.73-.05,1.46-.1,2.19-.15,.54-.04,1.07-.07,1.61-.11,.76-.05,1.51-.11,2.27-.16,.54-.04,1.08-.07,1.62-.11,.75-.05,1.49-.1,2.24-.16,.53-.04,1.06-.07,1.59-.11,.76-.05,1.51-.11,2.27-.16,.52-.04,1.05-.07,1.57-.11,.77-.05,1.54-.11,2.3-.16,.53-.04,1.06-.07,1.59-.11,.75-.05,1.5-.1,2.25-.16,.53-.04,1.06-.07,1.59-.11,.76-.05,1.51-.11,2.27-.16,.52-.04,1.05-.07,1.57-.11,.77-.05,1.54-.11,2.3-.16,.51-.04,1.03-.07,1.54-.11,.77-.05,1.55-.11,2.32-.16,.56-.04,1.13-.07,1.69-.11,.19-.01,.38-.02,.56-.04,.07,0,.1,.02,.1,.09,0,.03,0,.06,0,.08,0,1.4,0,2.79,0,4.19,0,.05,.01,.11-.02,.17Z"/>
  <path class="cls-1" d="M84.7,44.77c-10.92,0-21.84,0-32.76,0s-21.87,0-32.81,0c-.22,0-.2-.03-.2,.21,0,4.11,0,8.23,0,12.34,0,.24,0,.21,.2,.21,21.86,0,43.73,0,65.59,0,.23,0,.21,.03,.21-.22,0-4.1,0-8.2,0-12.29,0-.29,.04-.25-.24-.25Zm-60.03,6.1c-.03,.12-.08,.24-.14,.35-.21,.39-.54,.6-.98,.66-.3,.05-.61,.02-.91,.03-.25,0-.25,0-.25,.25v2.31s0,.07,0,.1c0,.08-.02,.12-.11,.12-.14,0-.28,0-.42,0-.27,0-.54,0-.81,0-.14,0-.14,0-.14-.15,0-.51,0-1.02,0-1.53v-5.08s0-.08,0-.12c0-.12,0-.13,.13-.13,.66,0,1.33-.01,1.99,.01,.27,.01,.54,.05,.8,.13,.4,.13,.67,.39,.81,.79,.1,.27,.13,.55,.15,.83,.03,.48,.01,.95-.12,1.42Zm4.21,2.83c0,.28,0,.56,0,.85,0,.14,0,.14-.15,.14-.66,0-1.33,0-1.99,0-.34,0-.68,0-1.01,0-.22,0-.19,.02-.19-.18,0-.94,0-1.87,0-2.81v-3.79s0-.07,0-.1c0-.12,0-.13,.13-.13,1,0,2,0,3.01,0,.13,0,.13,0,.13,.13,0,.37,0,.73,0,1.1,0,.12,0,.12-.13,.12-.49,0-.97,0-1.46,0-.04,0-.08,0-.12,0-.06,0-.09,.02-.09,.09,0,.02,0,.04,0,.07,0,.37,0,.73,0,1.1,0,.15,0,.15,.14,.15,.41,0,.82,0,1.23,0,.04,0,.08,0,.12,0,.07,0,.1,.03,.09,.1,0,.03,0,.06,0,.08,0,.33,0,.65,0,.98,0,.21,.01,.19-.18,.19-.42,0-.84,0-1.26,0-.13,0-.13,0-.14,.14,0,.43,0,.86,0,1.3,0,.13,0,.13,.13,.13,.51,0,1.03,0,1.54,0,.04,0,.08,0,.12,0,.06,0,.09,.03,.09,.09,0,.09,0,.18,0,.27Zm4.58,.99c-.38,0-.75,0-1.13,0-.14,0-.16,0-.2-.14-.05-.15-.07-.31-.08-.47-.03-.58-.02-1.15-.02-1.73,0-.09,0-.19-.01-.28-.03-.23-.15-.34-.37-.38-.12-.02-.23-.02-.35-.02-.05,0-.08,.02-.08,.08,0,.04,0,.08,0,.12,0,.87,0,1.74,0,2.61,0,.04,0,.08,0,.12,.01,.09-.04,.11-.12,.11-.4,0-.81,0-1.21,0-.08,0-.13-.02-.12-.11,0-.03,0-.07,0-.1,0-2.2,0-4.4,0-6.59,0-.22-.02-.2,.21-.2,.67,0,1.34-.01,2.01,.01,.22,0,.43,.04,.64,.11,.41,.13,.67,.41,.79,.83,.1,.35,.11,.7,.08,1.05,0,.14-.02,.29-.05,.43-.08,.38-.28,.65-.64,.81-.05,.02-.11,.03-.15,.08,.02,.01,.04,.02,.06,.03,.41,.12,.75,.47,.76,1.09,0,.51,0,1.03,0,1.54,0,.22,0,.44,.03,.66,.02,.11,.05,.22,.08,.33-.05,.04-.09,.03-.13,.03Zm5.14,0c-.42,0-.84,0-1.26,0-.16,0-.16,0-.2-.15-.37-1.31-.73-2.62-1.1-3.93-.02-.07-.03-.14-.09-.22v4.08s0,.06,0,.08c0,.14,0,.14-.15,.14-.39,0-.78,0-1.16,0-.13,0-.13,0-.14-.14,0-.02,0-.04,0-.07,0-2.2,0-4.4,0-6.59,0-.23-.03-.2,.21-.2,.43,0,.85,0,1.28,0,.13,0,.14-.03,.19,.14,.36,1.25,.73,2.51,1.1,3.76,.02,.06,.04,.11,.05,.17,.01,0,.02,0,.03,0v-2.91c0-.34,0-.68,0-1.01,0-.14,0-.14,.15-.14,.38,0,.76,0,1.15,0,.15,0,.15,0,.15,.16,0,.23,0,.45,0,.68,0,1.99,0,3.98,0,5.96,0,.23,.03,.2-.21,.2Zm4.59,0c-.28,0-.55,0-.83,0-.12,0-.12,0-.13-.12-.04-.33-.07-.66-.11-.99-.01-.13-.01-.13-.14-.13-.27,0-.53,0-.8,0-.1,0-.12,0-.14,.13-.04,.34-.08,.67-.12,1,0,.07-.03,.11-.11,.11-.44,0-.89,0-1.33,0-.02,0-.03-.01-.06-.02,.05-.29,.1-.58,.15-.86,.16-.94,.32-1.89,.48-2.83,.16-.94,.32-1.89,.48-2.83,.02-.11,.04-.23,.06-.34,.01-.07,.03-.12,.12-.12,.59,0,1.17,0,1.76,0,.11,0,.11,.06,.13,.13,.06,.34,.12,.69,.18,1.03,.18,1.07,.37,2.14,.55,3.2,.15,.84,.29,1.69,.44,2.53,0,.03,0,.05,0,.1h-.6Zm6.75,0c-.37,0-.74,0-1.11,0-.17,0-.16,.01-.16-.16,0-1.36,0-2.72,0-4.09,0-.37,0-.74,0-1.13-.07,.12-.07,.23-.08,.34-.22,1.38-.43,2.77-.65,4.15-.04,.26-.09,.51-.12,.77-.01,.09-.04,.12-.13,.12-.25,0-.51,0-.76,0-.09,0-.12-.03-.14-.12-.08-.52-.16-1.04-.24-1.56-.12-.74-.23-1.49-.35-2.23-.07-.45-.14-.91-.21-1.36,0-.02,0-.05-.04-.08v5.1s0,.07,0,.1c0,.14,0,.15-.15,.15-.4,0-.8,0-1.2,0-.13,0-.13,0-.13-.13,0-.15,0-.3,0-.45v-6.18s0-.07,0-.1c0-.14,0-.15,.15-.15,.7,0,1.41,0,2.11,0,.14,0,.14,0,.16,.15,.1,.77,.19,1.54,.29,2.31,.04,.32,.08,.64,.12,.96,.08-.25,.09-.5,.12-.75,.09-.69,.17-1.37,.26-2.06,.02-.16,.04-.33,.06-.49,0-.07,.04-.1,.12-.1,.73,0,1.45,0,2.18,0,.08,0,.13,.02,.12,.11,0,.03,0,.06,0,.08,0,2.2,0,4.41,0,6.61,0,.21,.03,.2-.19,.2Zm4.65-1.11c-.2,.68-.68,1.07-1.39,1.09-.73,.02-1.46,0-2.19,.01-.08,0-.12-.02-.11-.11,0-.03,0-.07,0-.1v-6.58s0-.03,0-.05c0-.17-.01-.16,.16-.16,.64,0,1.27,0,1.91,0,.21,0,.41,.01,.61,.06,.49,.12,.79,.42,.91,.91,.12,.49,.11,.99,0,1.48-.08,.37-.29,.64-.64,.8-.02,.01-.05,.01-.07,.06,.53,.12,.8,.48,.89,.98,.1,.54,.08,1.07-.07,1.59Zm4.63,.03c-.24,.67-.72,1.06-1.42,1.17-.37,.06-.73,.04-1.08-.09-.62-.22-.97-.67-1.13-1.29-.05-.2-.07-.4-.07-.61,0-1.65,0-3.3,0-4.95,0-.03,0-.07,0-.1,0-.04,.03-.06,.06-.06,.03,0,.06,0,.08,0,.4,0,.8,0,1.2,0,.14,0,.15,0,.15,.15,0,.87,0,1.74,0,2.61h0c0,.81,0,1.63,0,2.44,0,.12,0,.24,.03,.36,.06,.18,.18,.27,.39,.27,.21,0,.34-.08,.39-.26,.04-.14,.04-.28,.04-.43,0-1.57,0-3.14,0-4.72,0-.11,0-.21,0-.32,0-.07,.02-.1,.09-.1,.43,0,.86,0,1.3,0,.07,0,.1,.03,.09,.1,0,.03,0,.06,0,.08,0,1.63,0,3.25,0,4.88,0,.3-.03,.59-.13,.87Zm4.65-.44c-.05,.36-.16,.69-.39,.97-.33,.42-.79,.61-1.31,.66-.33,.03-.67,0-.98-.14-.63-.25-.95-.74-1.08-1.39-.03-.18-.04-.35-.04-.53,0-.53,0-1.05,0-1.58h0c0-.54,0-1.07,0-1.61,0-.26,.03-.52,.11-.77,.2-.62,.61-1.01,1.25-1.16,.39-.09,.78-.09,1.17,.01,.67,.18,1.06,.63,1.23,1.29,.1,.41,.07,.82,.07,1.24,0,.06-.03,.08-.08,.08-.12,0-.24,0-.37,0-.3,0-.6,0-.9,0-.14,0-.14,0-.14-.15,0-.24,0-.49,0-.73,0-.09,0-.19-.04-.28-.06-.18-.18-.27-.39-.27-.21,0-.33,.08-.39,.27-.04,.11-.04,.22-.04,.33,0,1.18,0,2.36,0,3.54,0,.12,.01,.24,.06,.36,.07,.17,.19,.25,.37,.25,.19,0,.31-.08,.37-.25,.04-.1,.05-.21,.05-.33,0-.32,0-.63,0-.95,0-.15,0-.15,.14-.15,.4,0,.81,0,1.21,0,.13,0,.14,0,.13,.12,0,.39,.03,.77-.03,1.16Zm4.73,1.49s-.09,.02-.13,.02c-.42,0-.84,0-1.26,0-.14,0-.15,0-.16-.15-.04-.32-.08-.65-.11-.97,0-.09-.04-.12-.13-.12-.27,0-.53,0-.8,0-.12,0-.13,0-.14,.13-.04,.3-.07,.6-.11,.91,0,.02,0,.03,0,.05-.02,.16-.02,.16-.18,.16-.39,0-.79,0-1.18,0-.14,0-.14,0-.12-.14,.1-.6,.21-1.21,.31-1.81,.15-.88,.3-1.76,.45-2.63,.13-.76,.26-1.53,.39-2.29,.02-.12,.02-.12,.14-.12,.58,0,1.15,0,1.73,0,.09,0,.12,.03,.14,.12,.14,.82,.28,1.65,.43,2.47,.16,.93,.32,1.86,.48,2.8,.09,.52,.18,1.05,.27,1.57,0,0,0,.02,0,.03Zm4.94-.17s0,.03,0,.05c0,.14,0,.14-.15,.14-.44,0-.88,0-1.31,0-.17,0-.16,.03-.21-.16-.37-1.3-.73-2.61-1.1-3.91-.02-.07-.02-.14-.09-.23,0,1.39,0,2.74,0,4.09,0,.23,.03,.21-.2,.21-.37,0-.73,0-1.1,0-.14,0-.15,0-.15-.14,0-.53,0-1.06,0-1.59,0-1.69,0-3.38,0-5.07,0-.22-.03-.2,.19-.2,.42,0,.84,0,1.26,0,.21,0,.17-.02,.23,.18,.36,1.23,.72,2.46,1.08,3.69,.02,.07,.02,.14,.09,.22v-3.87s0-.09,0-.13c0-.06,.02-.09,.09-.09,.43,0,.85,0,1.28,0,.06,0,.08,.02,.08,.08,0,.04,0,.08,0,.12,0,2.2,0,4.41,0,6.61Zm4.8,.17s-.1,.02-.15,.02c-.42,0-.83,0-1.25,0-.16,0-.15,0-.17-.15-.03-.31-.06-.63-.11-.94-.02-.16,0-.15-.17-.15-.25,0-.5,0-.75,0-.14,0-.14,0-.16,.15-.04,.31-.07,.62-.11,.92,0,.02,0,.04,0,.07,0,.08-.04,.11-.13,.11-.43,0-.86,0-1.3,0-.02,0-.03,0-.06-.01,0-.18,.05-.36,.08-.53,.16-.95,.32-1.91,.49-2.86,.16-.94,.32-1.89,.48-2.83,.04-.22,.08-.44,.11-.65,.01-.09,.05-.11,.13-.11,.59,0,1.17,0,1.76,0,.08,0,.1,.03,.12,.1,.08,.5,.17,.99,.26,1.49,.16,.93,.32,1.86,.48,2.8,.15,.85,.29,1.7,.44,2.55,0,.02,0,.03,0,.05Zm4.28-1.19c-.22,.75-.74,1.17-1.5,1.3-.43,.07-.85,.05-1.26-.09-.64-.22-1.07-.77-1.11-1.45-.02-.27,0-.54-.01-.81,0-.08,.03-.1,.11-.1,.2,0,.41,0,.61,0,.2,0,.41,0,.61,0,.08,0,.11,.03,.1,.11,0,.17,0,.33,0,.5,0,.1,.01,.2,.04,.3,.07,.24,.23,.35,.48,.34,.24,0,.42-.14,.47-.36,.05-.18,.02-.36-.05-.54-.07-.18-.19-.33-.33-.47-.19-.2-.4-.36-.62-.53-.24-.19-.47-.4-.7-.61-.55-.49-.72-1.12-.65-1.83,.02-.16,.04-.32,.09-.47,.17-.58,.54-.95,1.12-1.09,.48-.12,.97-.12,1.44,.02,.6,.17,.94,.58,1.06,1.18,.07,.35,.03,.7,.04,1.04,0,.06-.03,.07-.08,.07-.41,0-.82,0-1.23,0-.07,0-.08-.04-.08-.09,0-.15,0-.3,0-.45,0-.11-.02-.21-.05-.31-.06-.18-.18-.29-.38-.29-.2,0-.37,.05-.47,.24-.09,.17-.09,.35,0,.53,.07,.14,.17,.26,.28,.37,.18,.19,.38,.36,.58,.52,.28,.22,.54,.46,.8,.69,.36,.32,.6,.71,.69,1.18,.07,.37,.1,.75,0,1.12Z"/>
  <path class="cls-1" d="M52.37,52.53c0-.28,0-.55,0-.83,0-.08,.03-.12,.11-.11,.08,0,.17,0,.25,0,.2,0,.34,.11,.42,.3,.04,.09,.06,.19,.07,.29,.02,.3,.03,.61-.02,.91-.05,.28-.16,.38-.44,.4-.12,0-.27,.05-.35-.02-.08-.07-.03-.22-.03-.33,0-.2,0-.41,0-.61Z"/>
  <path class="cls-1" d="M52.37,49.66c0-.22,0-.44,0-.66,0-.12,0-.12,.12-.12,.1,0,.21,0,.31,.01,.14,.02,.23,.1,.29,.23,.02,.04,.03,.08,.04,.13,.05,.27,.06,.55,0,.82-.05,.27-.2,.39-.48,.39-.34,0-.27,.05-.28-.28,0-.17,0-.34,0-.51Z"/>
  <path class="cls-1" d="M31.22,49.66c0-.22,0-.44,0-.66,0-.13,0-.13,.12-.13,.12,0,.23,0,.35,.02,.21,.03,.33,.13,.35,.34,.04,.29,.04,.57,0,.86-.03,.25-.17,.36-.42,.38-.1,0-.2,0-.3,0-.08,0-.11-.03-.1-.11,0,0,0-.01,0-.02,0-.23,0-.45,0-.68Z"/>
  <path class="cls-1" d="M76.18,48.83c.06,.58,.12,1.17,.18,1.75,.05,.5,.1,.99,.15,1.49,.01,.12,.01,.13-.12,.13-.16,0-.32,0-.48,0-.12,0-.12,0-.11-.12,.03-.26,.05-.53,.08-.79,.06-.56,.12-1.12,.19-1.68,.03-.26,.06-.51,.09-.77,0,0,.02,0,.03,0Z"/>
  <path class="cls-1" d="M66.44,48.83c.03,.28,.06,.54,.08,.79,.06,.63,.13,1.26,.19,1.9,.02,.19,.04,.37,.05,.56,0,.11,0,.11-.1,.11-.17,0-.33,0-.5,0-.1,0-.13,0-.11-.12,.06-.46,.1-.92,.15-1.38,.06-.59,.13-1.18,.2-1.76,0-.03,0-.05,.04-.1Z"/>
  <path class="cls-1" d="M41.22,52.2c.13-1.13,.25-2.25,.37-3.37,0,0,.02,0,.03,0,.04,.34,.07,.67,.1,1.01,.06,.63,.13,1.25,.19,1.88,.01,.13,.03,.26,.04,.4,0,.05-.01,.08-.07,.08-.21,0-.43,0-.66,0Z"/>
  <path class="cls-1" d="M22.39,49.78c0-.25,0-.5,0-.75,0-.09,.03-.12,.11-.11,.15,0,.3,0,.45,.03,.15,.03,.25,.12,.3,.26,.02,.07,.04,.14,.05,.21,.04,.29,.04,.57-.01,.86-.05,.25-.18,.37-.45,.38-.11,0-.22,0-.33,0-.09,0-.12-.03-.11-.11,0-.25,0-.51,0-.76Z"/>
</svg>