<?xml version="1.0" encoding="UTF-8"?>
<svg id="Camada_1" data-name="Camada 1" xmlns="http://www.w3.org/2000/svg" viewBox="0 0 100 100">
  <defs>
    <style>
      .cls-1 {
        fill: #fff;
      }
    </style>
  </defs>
  <path class="cls-1" d="M89.57,51.88c-.04,.12-.1,.23-.12,.35-.45,3.34-3.92,5.32-7.2,4.07-2.23-.85-3.43-2.65-3.35-5.02,.09-2.82,2.13-4.79,4.8-5.01,2.07-.17,3.8,.53,4.96,2.31,.38,.58,.53,1.31,.77,1.98,.06,.18,.09,.37,.14,.55v.76Zm-3.63-.4c0-.11,.02-.23,0-.33-.1-.64-.31-1.23-.97-1.48-.6-.23-1.23-.26-1.78,.14-.91,.66-.99,2.38-.18,3.16,.49,.47,1.27,.61,1.96,.28,.74-.35,.95-1.02,.97-1.77Z"/>
  <path class="cls-1" d="M31.4,52.05c-1.63-1.62-3.22-3.21-4.82-4.8-.04,.02-.08,.04-.12,.06,1.71,2.75,1.4,5.19-1.14,7.21-1.57,1.24-4.39,1.33-6.87-.71,.15,.77,2.01,2.18,3.6,2.61,3.43,.92,6.34,.07,8.75-2.76-.41,1.13-.76,2.14-1.14,3.14-.45,1.19-.45,1.19-1.71,1.19-4.75,0-9.49,0-14.24,0-.15,0-.31-.01-.55-.02,1.5-4.13,2.97-8.21,4.49-12.38,1.63,1.63,3.21,3.2,4.8,4.77,.04-.02,.08-.03,.12-.05-1.67-2.57-1.52-5,.85-6.93,2.41-1.96,4.86-1.26,7.16,.39-.14-.8-2.26-2.3-4.17-2.71-3.21-.7-5.93,.23-8.11,2.75,.25-.69,.5-1.38,.75-2.07,.54-1.5,1.07-3,1.63-4.48,.05-.13,.34-.25,.52-.25,2.82-.02,5.64-.01,8.46-.01,2.23,0,4.46,.01,6.69,.02,.14,0,.28,.01,.48,.02-1.82,5.02-3.62,9.99-5.44,15.01Z"/>
  <path class="cls-1" d="M59.54,56.41c-.13,.02-.18,.03-.22,.03-1.21,0-2.42,0-3.64,0-.57-1.07-1.14-2.13-1.7-3.19-.04,0-.09,.01-.13,.02v3.15h-3.43c-.01-.16-.03-.3-.03-.44,0-3,0-5.99-.01-8.99,0-.45,.13-.56,.57-.55,1.59,.05,3.19-.03,4.77,.1,1.98,.16,3.2,1.33,3.14,3.4-.04,1.16-.53,1.89-1.63,2.31-.36,.14-.2,.32-.07,.51,.78,1.19,1.57,2.39,2.39,3.65Zm-5.73-6.45c0,.09,0,.19,0,.28-.01,.83,.1,.92,.93,.75,.74-.15,1.08-1.03,.64-1.64-.21-.3-1.11-.61-1.38-.38-.17,.14-.14,.53-.19,.8-.01,.06,0,.13,0,.19Z"/>
  <path class="cls-1" d="M76.32,52.4c.88,1.35,1.73,2.65,2.62,4.03-.28,0-.49,0-.7,0-.92,0-1.85,0-2.77,.01-.3,0-.45-.09-.59-.35-.44-.86-.91-1.71-1.37-2.57-.06-.1-.13-.2-.3-.28v3.17h-3.39v-9.92c.09-.01,.21-.04,.33-.04,1.5,0,2.99-.04,4.49,.03,1.13,.05,2.17,.35,2.97,1.27,.79,.91,.83,3.18,0,3.9-.25,.21-.54,.38-.82,.55-.13,.08-.28,.11-.49,.2Zm-3.11-2.44h0c0,.14,0,.29,0,.43,0,.64,0,.65,.62,.63,.13,0,.26,0,.38-.04,.36-.09,.65-.27,.72-.67,.07-.42,.09-.9-.32-1.11-.36-.18-.81-.2-1.22-.22-.05,0-.11,.51-.17,.79-.01,.06,0,.13,0,.19Z"/>
  <path class="cls-1" d="M63.76,56.43h-3.46v-9.97c.58,0,1.13,0,1.68,0,1.24,.02,2.49,0,3.72,.1,.81,.06,1.6,.31,2.21,.9,.9,.87,.99,1.99,.91,3.15-.12,1.65-1.15,2.66-2.83,2.79-.6,.05-1.21,.08-1.81,.06-.32,0-.42,.1-.42,.4,.01,.84,0,1.68,0,2.57Zm.02-6.44c0,1,.24,1.19,1.14,.87,.42-.14,.6-.43,.59-.87-.01-.43-.25-.66-.64-.78-.91-.26-1.09-.14-1.09,.77Z"/>
  <path class="cls-1" d="M41.64,47.17c-.34,.81-.67,1.59-1.02,2.43-.26-.14-.49-.33-.75-.39-.51-.13-1.04-.25-1.57-.27-.18,0-.43,.24-.52,.43-.04,.09,.18,.42,.34,.48,.48,.19,.99,.34,1.5,.46,2.52,.56,2.59,3.18,1.66,4.57-.72,1.08-1.78,1.63-3.07,1.75-1.47,.14-2.84-.19-4.15-.85-.29-.15-.36-.27-.22-.58,.33-.74,.62-1.49,.93-2.25,.54,.27,1.03,.57,1.56,.76,.38,.13,.81,.17,1.21,.14,.21-.02,.49-.27,.55-.47,.04-.14-.21-.46-.4-.54-.39-.18-.81-.27-1.23-.36-2.73-.59-2.64-3.52-1.43-4.88,.72-.8,1.63-1.21,2.67-1.32,1.26-.14,2.47,.12,3.62,.66,.11,.05,.21,.14,.33,.22Z"/>
  <path class="cls-1" d="M48.98,52.64c-.81,0-1.59,.04-2.37-.01-.75-.05-.43,.5-.49,.82-.08,.41,.24,.37,.49,.38,.78,0,1.56,0,2.34-.01,.33,0,.45,.1,.44,.44-.02,.71,0,1.43,0,2.17h-6.65c-.01-.18-.03-.35-.03-.52,0-2.95,0-5.9-.01-8.84,0-.47,.11-.62,.61-.61,1.85,.03,3.7,.02,5.54,0,.33,0,.46,.08,.45,.42-.02,.71,0,1.43,0,2.21-.92,0-1.79,.02-2.66,0-.37,0-.55,.06-.53,.49,.02,.4,.02,.67,.55,.63,.76-.05,1.53-.01,2.33-.01v2.45Z"/>
</svg>