<?xml version="1.0" encoding="UTF-8"?>
<svg id="Camada_1" data-name="Camada 1" xmlns="http://www.w3.org/2000/svg" viewBox="0 0 100 100">
  <defs>
    <style>
      .cls-1 {
        fill: #fff;
        fill-rule: evenodd;
      }
    </style>
  </defs>
  <polygon class="cls-1" points="45.89 63.58 46.61 65.9 47.8 64.36 46.98 62.09 45.89 63.58"/>
  <polygon class="cls-1" points="36.55 60 41.14 60 39.75 55.76 36.55 60"/>
  <polygon class="cls-1" points="53.97 60 58.41 60 57.03 55.76 53.97 60"/>
  <path class="cls-1" d="M73.54,27l-18.38,24.36h-2.81l18.38-24.36H26.04v45h48.05V27h-.56Zm-12.47,42.04h0c-.15-1.04-.3-1.54-.48-2.13l-1.52-4.83h-6.73l-1.22,1.59,1.09,3.27c.22,.68,.44,1.22,.85,2.09h-3.83l-.63-2.09-1.54,2.09h-3.07l-.67-2.09-1.61,2.09h-3.09c.07-.06,.15-.13,.2-.18,.78-.68,1.28-1.31,1.7-1.89l1.96-2.57-.78-2.31h-6.71l-5.25,6.95h-3.25c1.24-1.07,1.57-1.41,2.02-2.02l9.95-13.15c.15-.18,.26-.37,.37-.55,.18-.31,.35-.67,.44-1.09h3.24c0,.72,.09,1.11,.26,1.66l2.26,7.1,1.17-1.54-1.85-5.64c-.15-.43-.31-.94-.65-1.59h3.92c.11,.63,.2,1.13,.39,1.68l.7,2.22,1.68-2.24c.39-.52,.91-1.11,1.15-1.66h3.42c-.67,.54-1.11,1.09-1.52,1.63l-3.79,5.03,.67,2.09,5.42-7.1c.15-.2,.3-.39,.44-.59,.2-.31,.37-.63,.48-1.05h3.2c.04,.55,.11,1.05,.28,1.57l4.11,13.13c.2,.7,.33,1.13,.85,2.11h-4.03Z"/>
</svg>