<?xml version="1.0" encoding="UTF-8"?>
<svg id="Camada_1" data-name="Camada 1" xmlns="http://www.w3.org/2000/svg" viewBox="0 0 100 100">
  <defs>
    <style>
      .cls-1 {
        fill: #fff;
        fill-rule: evenodd;
      }
    </style>
  </defs>
  <polygon class="cls-1" points="18.45 45.96 18.32 45.78 18.21 45.62 18.13 45.45 18.06 45.3 18.02 45.16 17.99 45.02 17.99 44.9 18.01 44.78 18.04 44.66 18.09 44.55 18.16 44.46 18.25 44.37 18.36 44.28 18.47 44.2 18.61 44.13 18.76 44.06 18.92 44 19.1 43.94 19.29 43.89 19.49 43.85 19.7 43.8 19.93 43.76 20.17 43.73 20.41 43.7 20.68 43.68 20.94 43.65 21.22 43.64 21.5 43.62 22.1 43.6 22.71 43.59 22.08 43.65 21.48 43.72 21.21 43.76 20.94 43.8 20.69 43.84 20.45 43.88 20.22 43.93 20.01 43.97 19.81 44.02 19.62 44.07 19.44 44.13 19.27 44.18 19.12 44.25 18.98 44.31 18.85 44.37 18.74 44.45 18.64 44.53 18.54 44.6 18.47 44.69 18.4 44.78 18.35 44.87 18.31 44.97 18.28 45.07 18.27 45.19 18.27 45.3 18.28 45.41 18.3 45.54 18.34 45.68 18.39 45.81 18.45 45.96 18.45 45.96 18.45 45.96"/>
  <polygon class="cls-1" points="18.39 45.37 18.28 45.22 18.18 45.08 18.11 44.96 18.05 44.83 18.01 44.72 18 44.62 17.99 44.52 18 44.42 18.03 44.33 18.08 44.25 18.14 44.17 18.21 44.1 18.31 44.04 18.41 43.98 18.53 43.92 18.66 43.87 18.8 43.83 18.96 43.79 19.13 43.75 19.3 43.72 19.49 43.69 19.69 43.67 19.9 43.64 20.11 43.63 20.34 43.61 20.57 43.6 20.81 43.6 21.07 43.59 21.58 43.59 22.12 43.6 21.56 43.63 21.05 43.67 20.8 43.69 20.57 43.72 20.35 43.75 20.14 43.77 19.95 43.8 19.76 43.83 19.58 43.87 19.41 43.9 19.26 43.94 19.11 43.98 18.98 44.02 18.85 44.07 18.74 44.12 18.64 44.18 18.55 44.24 18.47 44.29 18.41 44.36 18.35 44.43 18.31 44.51 18.27 44.58 18.25 44.66 18.24 44.75 18.24 44.84 18.24 44.93 18.26 45.03 18.29 45.14 18.34 45.25 18.39 45.37 18.39 45.37 18.39 45.37"/>
  <polygon class="cls-1" points="18.51 45.37 18.36 45.21 18.24 45.06 18.14 44.92 18.07 44.79 18.02 44.67 17.99 44.55 17.99 44.44 18.01 44.34 18.05 44.25 18.1 44.17 18.18 44.09 18.28 44.02 18.39 43.95 18.53 43.9 18.68 43.84 18.85 43.79 19.03 43.75 19.23 43.71 19.45 43.68 19.68 43.66 19.92 43.63 20.17 43.62 20.44 43.61 20.72 43.6 21.01 43.59 21.31 43.59 21.62 43.6 21.94 43.6 22.6 43.62 23.3 43.65 22.58 43.66 21.92 43.68 21.61 43.69 21.31 43.71 21.02 43.73 20.76 43.75 20.5 43.77 20.26 43.8 20.03 43.83 19.82 43.86 19.62 43.89 19.43 43.93 19.26 43.97 19.1 44.01 18.96 44.07 18.83 44.12 18.71 44.17 18.61 44.23 18.52 44.3 18.45 44.37 18.39 44.45 18.34 44.53 18.32 44.61 18.3 44.7 18.3 44.8 18.31 44.9 18.33 45.01 18.38 45.12 18.43 45.24 18.51 45.37 18.51 45.37 18.51 45.37"/>
  <polygon class="cls-1" points="16.85 48.32 16.67 48.1 16.53 47.89 16.41 47.69 16.32 47.5 16.26 47.32 16.23 47.15 16.22 46.99 16.24 46.85 16.29 46.7 16.36 46.57 16.46 46.45 16.58 46.33 16.72 46.23 16.88 46.13 17.07 46.04 17.27 45.95 17.5 45.87 17.74 45.8 18 45.73 18.28 45.68 18.58 45.63 18.89 45.58 19.22 45.54 19.56 45.5 19.91 45.47 20.27 45.45 20.65 45.42 21.04 45.4 21.45 45.39 21.86 45.38 22.28 45.37 22.71 45.37 22.26 45.4 21.83 45.44 21.42 45.48 21.02 45.53 20.64 45.57 20.27 45.62 19.93 45.67 19.6 45.72 19.29 45.78 18.99 45.83 18.72 45.9 18.46 45.97 18.21 46.03 17.98 46.1 17.77 46.18 17.58 46.26 17.41 46.34 17.25 46.43 17.11 46.53 16.98 46.63 16.87 46.74 16.78 46.85 16.71 46.96 16.66 47.09 16.62 47.22 16.6 47.35 16.6 47.5 16.62 47.65 16.65 47.8 16.7 47.97 16.76 48.14 16.85 48.32 16.85 48.32 16.85 48.32"/>
  <polygon class="cls-1" points="16.85 48.32 16.67 48.08 16.53 47.86 16.41 47.64 16.32 47.44 16.26 47.25 16.23 47.07 16.22 46.9 16.24 46.75 16.29 46.59 16.36 46.46 16.46 46.33 16.58 46.21 16.72 46.11 16.88 46.01 17.07 45.92 17.28 45.83 17.5 45.76 17.74 45.69 18.01 45.63 18.28 45.58 18.58 45.53 18.89 45.49 19.22 45.46 19.56 45.43 19.92 45.41 20.28 45.39 20.66 45.38 21.05 45.37 21.45 45.37 21.86 45.37 22.29 45.37 22.71 45.38 22.27 45.41 21.83 45.44 21.42 45.47 21.02 45.5 20.64 45.54 20.28 45.58 19.94 45.62 19.6 45.66 19.29 45.71 18.99 45.76 18.72 45.82 18.45 45.87 18.21 45.94 17.99 46.01 17.78 46.09 17.58 46.17 17.41 46.25 17.25 46.34 17.11 46.44 16.98 46.54 16.87 46.65 16.79 46.76 16.71 46.89 16.66 47.01 16.62 47.15 16.61 47.29 16.6 47.44 16.62 47.6 16.65 47.77 16.7 47.94 16.77 48.13 16.85 48.32 16.85 48.32 16.85 48.32"/>
  <polygon class="cls-1" points="16.37 48.32 16.16 48.06 15.98 47.82 15.85 47.58 15.74 47.37 15.67 47.16 15.64 46.97 15.63 46.79 15.65 46.62 15.71 46.47 15.8 46.32 15.91 46.2 16.05 46.07 16.22 45.96 16.41 45.86 16.63 45.78 16.87 45.7 17.14 45.63 17.42 45.57 17.74 45.51 18.06 45.47 18.42 45.43 18.78 45.41 19.17 45.39 19.57 45.37 19.99 45.37 20.42 45.37 20.87 45.37 21.34 45.38 21.81 45.39 22.29 45.41 22.79 45.43 23.3 45.46 22.77 45.47 22.26 45.48 21.77 45.5 21.3 45.51 20.85 45.54 20.43 45.56 20.01 45.59 19.63 45.62 19.25 45.66 18.91 45.7 18.58 45.75 18.27 45.8 17.98 45.86 17.71 45.92 17.47 45.99 17.23 46.07 17.03 46.15 16.85 46.24 16.67 46.33 16.53 46.44 16.4 46.55 16.3 46.66 16.21 46.79 16.15 46.93 16.1 47.07 16.08 47.22 16.08 47.38 16.1 47.55 16.13 47.73 16.19 47.92 16.27 48.12 16.37 48.32 16.37 48.32 16.37 48.32"/>
  <polygon class="cls-1" points="16.52 50.69 16.29 50.44 16.09 50.2 15.92 49.97 15.8 49.76 15.71 49.56 15.65 49.37 15.63 49.2 15.65 49.03 15.69 48.88 15.76 48.74 15.86 48.61 15.99 48.49 16.15 48.38 16.34 48.28 16.56 48.19 16.79 48.11 17.06 48.04 17.34 47.97 17.65 47.92 17.98 47.87 18.33 47.83 18.71 47.8 19.1 47.77 19.5 47.76 19.93 47.74 20.37 47.74 20.83 47.73 21.3 47.74 21.78 47.74 22.27 47.75 22.78 47.77 23.3 47.79 22.76 47.81 22.25 47.82 21.75 47.85 21.28 47.87 20.82 47.9 20.39 47.93 19.98 47.96 19.58 48 19.21 48.04 18.86 48.09 18.53 48.14 18.22 48.2 17.94 48.26 17.67 48.32 17.42 48.39 17.2 48.47 17 48.55 16.81 48.64 16.65 48.74 16.51 48.84 16.39 48.95 16.3 49.07 16.23 49.19 16.17 49.32 16.14 49.46 16.13 49.61 16.14 49.77 16.17 49.94 16.23 50.11 16.31 50.29 16.4 50.49 16.52 50.69 16.52 50.69 16.52 50.69"/>
  <polygon class="cls-1" points="16.52 50.69 16.28 50.42 16.08 50.17 15.92 49.93 15.8 49.71 15.71 49.49 15.65 49.3 15.63 49.12 15.64 48.95 15.68 48.79 15.76 48.65 15.86 48.52 15.99 48.4 16.15 48.3 16.34 48.19 16.55 48.11 16.79 48.03 17.06 47.96 17.34 47.9 17.65 47.85 17.98 47.81 18.33 47.78 18.71 47.76 19.09 47.74 19.51 47.74 19.93 47.73 20.37 47.74 20.83 47.74 21.3 47.76 21.78 47.78 22.28 47.81 22.78 47.84 23.3 47.87 22.76 47.88 22.25 47.88 21.75 47.89 21.28 47.9 20.82 47.92 20.39 47.94 19.98 47.96 19.58 47.99 19.21 48.02 18.86 48.06 18.53 48.1 18.22 48.15 17.93 48.21 17.66 48.27 17.42 48.34 17.2 48.41 16.99 48.49 16.81 48.58 16.65 48.67 16.51 48.78 16.39 48.89 16.29 49.01 16.22 49.13 16.16 49.27 16.13 49.41 16.12 49.56 16.14 49.73 16.17 49.9 16.22 50.08 16.3 50.27 16.4 50.48 16.52 50.69 16.52 50.69 16.52 50.69"/>
  <polygon class="cls-1" points="16.11 50.69 15.82 50.39 15.58 50.12 15.39 49.86 15.23 49.62 15.13 49.39 15.07 49.19 15.04 49 15.06 48.82 15.12 48.66 15.21 48.51 15.34 48.38 15.5 48.26 15.7 48.15 15.93 48.06 16.2 47.98 16.49 47.92 16.81 47.86 17.17 47.81 17.55 47.78 17.95 47.75 18.39 47.74 18.84 47.73 19.32 47.74 19.82 47.74 20.34 47.77 20.88 47.79 21.44 47.83 22.02 47.87 22.61 47.92 23.22 47.97 23.84 48.02 24.48 48.09 23.82 48.06 23.19 48.04 22.58 48.02 21.99 48.01 21.44 48 20.9 48 20.39 48.01 19.92 48.02 19.46 48.03 19.02 48.06 18.62 48.08 18.24 48.12 17.89 48.16 17.56 48.21 17.26 48.27 16.98 48.33 16.73 48.41 16.5 48.49 16.3 48.58 16.13 48.68 15.98 48.79 15.86 48.91 15.77 49.04 15.7 49.18 15.66 49.33 15.64 49.49 15.65 49.66 15.69 49.84 15.76 50.03 15.84 50.24 15.96 50.46 16.11 50.69 16.11 50.69 16.11 50.69"/>
  <polygon class="cls-1" points="17.46 53.64 17.1 53.48 16.79 53.32 16.51 53.15 16.28 52.98 16.08 52.8 15.92 52.63 15.79 52.45 15.7 52.27 15.65 52.1 15.63 51.92 15.65 51.75 15.69 51.58 15.77 51.42 15.89 51.26 16.03 51.11 16.21 50.97 16.42 50.83 16.65 50.7 16.92 50.59 17.21 50.48 17.53 50.39 17.88 50.3 18.25 50.23 18.65 50.17 19.08 50.13 19.53 50.11 20.01 50.1 20.51 50.11 21.02 50.13 21.56 50.18 22.13 50.24 22.71 50.33 22.17 50.34 21.65 50.35 21.15 50.36 20.67 50.39 20.21 50.41 19.77 50.45 19.36 50.48 18.96 50.53 18.59 50.58 18.24 50.64 17.92 50.7 17.62 50.76 17.35 50.84 17.1 50.93 16.87 51.01 16.68 51.11 16.51 51.21 16.37 51.32 16.25 51.43 16.17 51.56 16.1 51.69 16.07 51.83 16.07 51.97 16.1 52.12 16.16 52.29 16.25 52.46 16.37 52.64 16.52 52.82 16.71 53.01 16.93 53.22 17.17 53.43 17.46 53.64 17.46 53.64 17.46 53.64"/>
  <polygon class="cls-1" points="15.04 51.87 15.06 51.75 15.09 51.63 15.14 51.52 15.2 51.41 15.29 51.3 15.38 51.19 15.49 51.09 15.62 50.99 15.76 50.89 15.92 50.8 16.09 50.71 16.28 50.63 16.48 50.55 16.7 50.48 16.93 50.42 17.17 50.35 17.43 50.3 17.69 50.25 17.97 50.2 18.27 50.17 18.58 50.14 18.9 50.11 19.23 50.1 19.57 50.1 19.92 50.1 20.29 50.11 20.67 50.13 21.06 50.16 21.45 50.2 21.87 50.25 22.28 50.31 22.71 50.37 22.3 50.37 21.91 50.37 21.53 50.38 21.15 50.38 20.79 50.39 20.43 50.41 20.09 50.42 19.76 50.44 19.44 50.47 19.13 50.49 18.83 50.52 18.54 50.55 18.27 50.58 18 50.62 17.75 50.66 17.51 50.7 17.28 50.75 17.07 50.8 16.87 50.85 16.68 50.91 16.51 50.97 16.34 51.04 16.19 51.1 16.06 51.17 15.94 51.24 15.83 51.32 15.73 51.4 15.66 51.48 15.59 51.57 15.54 51.66 15.51 51.76 15.48 51.86 15.04 51.87 15.04 51.87 15.04 51.87"/>
  <polygon class="cls-1" points="16.77 53.64 16.41 53.46 16.1 53.27 15.83 53.09 15.6 52.9 15.41 52.71 15.26 52.52 15.15 52.33 15.08 52.15 15.04 51.96 15.04 51.78 15.08 51.61 15.15 51.44 15.26 51.27 15.4 51.12 15.57 50.97 15.77 50.82 16.01 50.7 16.27 50.58 16.56 50.47 16.88 50.37 17.23 50.29 17.61 50.22 18.02 50.16 18.45 50.12 18.9 50.1 19.38 50.1 19.88 50.11 20.4 50.14 20.95 50.19 21.51 50.26 22.1 50.36 22.71 50.48 22.14 50.46 21.58 50.44 21.05 50.44 20.55 50.44 20.06 50.44 19.59 50.46 19.15 50.48 18.73 50.51 18.33 50.54 17.96 50.58 17.61 50.63 17.29 50.69 16.99 50.75 16.72 50.82 16.47 50.9 16.25 50.99 16.06 51.09 15.9 51.2 15.76 51.31 15.65 51.43 15.57 51.56 15.52 51.7 15.5 51.86 15.52 52.02 15.56 52.19 15.63 52.36 15.74 52.55 15.88 52.75 16.05 52.96 16.26 53.17 16.49 53.41 16.77 53.64 16.77 53.64 16.77 53.64"/>
  <polygon class="cls-1" points="22.71 53.37 22.31 53.29 21.93 53.21 21.55 53.16 21.19 53.11 20.84 53.08 20.51 53.06 20.18 53.05 19.88 53.06 19.59 53.07 19.31 53.1 19.05 53.13 18.8 53.18 18.58 53.24 18.37 53.3 18.18 53.37 18.01 53.45 17.86 53.54 17.73 53.63 17.62 53.73 17.53 53.84 17.46 53.95 17.42 54.07 17.4 54.19 17.41 54.32 17.43 54.45 17.49 54.58 17.57 54.71 17.68 54.86 17.81 54.99 17.97 55.13 18.16 55.27 18.38 55.42 18.21 55.23 18.06 55.06 17.95 54.9 17.85 54.75 17.78 54.6 17.73 54.47 17.71 54.34 17.71 54.22 17.73 54.11 17.77 54.01 17.83 53.92 17.91 53.83 18.01 53.75 18.13 53.68 18.27 53.62 18.42 53.56 18.59 53.51 18.77 53.47 18.97 53.43 19.19 53.4 19.42 53.37 19.66 53.35 19.92 53.33 20.18 53.32 20.47 53.31 20.76 53.31 21.06 53.31 21.37 53.32 21.69 53.33 22.03 53.34 22.36 53.36 22.71 53.37 22.71 53.37 22.71 53.37"/>
  <polygon class="cls-1" points="22.71 53.37 22.32 53.29 21.93 53.21 21.56 53.15 21.2 53.11 20.85 53.08 20.51 53.06 20.19 53.05 19.88 53.06 19.59 53.07 19.31 53.1 19.05 53.13 18.81 53.18 18.58 53.23 18.37 53.3 18.18 53.37 18.01 53.45 17.86 53.54 17.73 53.63 17.62 53.73 17.53 53.84 17.46 53.95 17.42 54.06 17.4 54.19 17.41 54.32 17.44 54.45 17.49 54.58 17.57 54.71 17.68 54.85 17.81 54.99 17.97 55.13 18.16 55.27 18.38 55.42 18.21 55.23 18.07 55.06 17.95 54.9 17.86 54.74 17.78 54.6 17.74 54.47 17.72 54.34 17.71 54.22 17.74 54.11 17.77 54.01 17.83 53.91 17.92 53.83 18.01 53.75 18.13 53.68 18.26 53.62 18.42 53.56 18.59 53.51 18.77 53.47 18.97 53.43 19.19 53.4 19.42 53.37 19.66 53.35 19.92 53.33 20.19 53.32 20.47 53.31 20.76 53.31 21.07 53.31 21.38 53.32 21.7 53.33 22.03 53.34 22.37 53.35 22.71 53.37 22.71 53.37 22.71 53.37"/>
  <polygon class="cls-1" points="22.71 53.43 22.27 53.33 21.84 53.25 21.43 53.19 21.02 53.13 20.64 53.09 20.26 53.07 19.91 53.05 19.56 53.05 19.24 53.06 18.93 53.08 18.64 53.11 18.37 53.15 18.12 53.2 17.88 53.26 17.67 53.33 17.49 53.41 17.32 53.5 17.17 53.59 17.05 53.69 16.95 53.79 16.88 53.91 16.84 54.02 16.81 54.14 16.82 54.28 16.85 54.41 16.91 54.55 17 54.68 17.12 54.83 17.26 54.97 17.45 55.12 17.66 55.27 17.89 55.42 17.71 55.23 17.55 55.05 17.42 54.88 17.31 54.72 17.23 54.57 17.18 54.43 17.16 54.31 17.15 54.19 17.17 54.07 17.22 53.97 17.28 53.88 17.38 53.79 17.49 53.72 17.62 53.65 17.77 53.59 17.94 53.53 18.13 53.48 18.33 53.44 18.56 53.41 18.8 53.38 19.05 53.35 19.32 53.34 19.61 53.33 19.91 53.32 20.22 53.32 20.54 53.32 20.87 53.33 21.22 53.34 21.58 53.37 21.95 53.38 22.32 53.41 22.71 53.43 22.71 53.43 22.71 53.43"/>
  <polygon class="cls-1" points="21.53 43 21.31 43.22 21.1 43.45 20.89 43.68 20.68 43.91 20.49 44.15 20.3 44.39 20.12 44.64 19.95 44.89 19.78 45.15 19.62 45.42 19.46 45.68 19.32 45.96 19.18 46.23 19.05 46.52 18.93 46.8 18.8 47.1 18.7 47.39 18.6 47.7 18.5 48 18.42 48.32 18.34 48.63 18.27 48.95 18.2 49.29 18.15 49.62 18.1 49.96 18.06 50.3 18.03 50.65 18.01 51 18 51.36 17.99 51.72 18 52.09 18 52.46 18.01 52.12 18.01 51.77 18.03 51.43 18.05 51.09 18.09 50.76 18.13 50.42 18.17 50.09 18.23 49.77 18.29 49.45 18.35 49.13 18.43 48.82 18.51 48.51 18.6 48.2 18.69 47.9 18.8 47.59 18.91 47.29 19.03 47 19.15 46.71 19.27 46.43 19.41 46.14 19.56 45.86 19.7 45.58 19.86 45.31 20.02 45.04 20.19 44.77 20.37 44.51 20.54 44.25 20.73 43.99 20.92 43.74 21.12 43.49 21.32 43.25 21.53 43 21.53 43 21.53 43"/>
  <polygon class="cls-1" points="21.53 43 21.31 43.22 21.09 43.44 20.88 43.66 20.67 43.89 20.48 44.13 20.28 44.37 20.1 44.61 19.93 44.87 19.77 45.12 19.6 45.38 19.45 45.65 19.3 45.92 19.17 46.19 19.04 46.48 18.92 46.76 18.8 47.06 18.69 47.35 18.59 47.65 18.5 47.96 18.42 48.28 18.34 48.6 18.27 48.92 18.21 49.25 18.15 49.58 18.11 49.93 18.07 50.27 18.04 50.62 18.01 50.98 18 51.34 17.99 51.71 17.99 52.09 18 52.46 18 52.11 18.01 51.76 18.03 51.41 18.06 51.07 18.09 50.73 18.13 50.4 18.17 50.07 18.23 49.74 18.29 49.42 18.36 49.1 18.43 48.78 18.51 48.47 18.59 48.16 18.69 47.86 18.79 47.56 18.9 47.26 19.01 46.97 19.13 46.68 19.26 46.39 19.4 46.11 19.54 45.83 19.69 45.56 19.84 45.28 20 45.02 20.17 44.75 20.35 44.49 20.53 44.23 20.71 43.98 20.91 43.73 21.11 43.49 21.32 43.25 21.53 43 21.53 43 21.53 43"/>
  <polygon class="cls-1" points="21.53 43 21.14 43.37 20.77 43.74 20.42 44.11 20.09 44.49 19.78 44.87 19.48 45.25 19.21 45.63 18.95 46.01 18.71 46.41 18.5 46.79 18.3 47.19 18.12 47.58 17.96 47.98 17.82 48.38 17.7 48.78 17.6 49.19 17.52 49.6 17.46 50 17.42 50.41 17.4 50.83 17.4 51.25 17.42 51.67 17.46 52.09 17.53 52.52 17.61 52.95 17.71 53.37 17.84 53.81 17.99 54.24 18.16 54.68 18.35 55.12 18.56 55.56 18.79 56.01 18.62 55.56 18.47 55.12 18.33 54.67 18.21 54.23 18.11 53.79 18.03 53.36 17.95 52.92 17.9 52.49 17.87 52.07 17.84 51.64 17.84 51.22 17.86 50.8 17.88 50.39 17.93 49.97 18 49.56 18.08 49.15 18.17 48.75 18.28 48.35 18.41 47.95 18.55 47.55 18.71 47.16 18.89 46.76 19.08 46.38 19.29 45.99 19.52 45.61 19.76 45.23 20.01 44.85 20.29 44.47 20.57 44.11 20.87 43.73 21.2 43.37 21.53 43 21.53 43 21.53 43"/>
  <polygon class="cls-1" points="23.89 43 23.67 43.38 23.46 43.75 23.25 44.14 23.06 44.51 22.88 44.89 22.7 45.27 22.53 45.66 22.37 46.04 22.22 46.42 22.07 46.8 21.93 47.19 21.81 47.57 21.69 47.96 21.58 48.34 21.48 48.73 21.39 49.12 21.3 49.51 21.23 49.9 21.16 50.29 21.1 50.68 21.05 51.07 21.01 51.46 20.98 51.85 20.96 52.25 20.95 52.64 20.94 53.03 20.95 53.43 20.95 53.83 20.98 54.22 21.01 54.62 21.04 55.02 21.09 55.42 21.1 54.96 21.11 54.51 21.12 54.06 21.15 53.62 21.17 53.18 21.2 52.75 21.25 52.33 21.29 51.9 21.34 51.49 21.4 51.07 21.46 50.66 21.53 50.26 21.6 49.86 21.68 49.46 21.76 49.07 21.85 48.68 21.95 48.3 22.04 47.92 22.15 47.54 22.26 47.18 22.37 46.81 22.48 46.44 22.61 46.08 22.73 45.73 22.87 45.38 23 45.02 23.14 44.68 23.28 44.34 23.42 44 23.58 43.66 23.73 43.33 23.89 43 23.89 43 23.89 43"/>
  <polygon class="cls-1" points="23.3 43 23.08 43.38 22.87 43.75 22.67 44.14 22.47 44.51 22.28 44.89 22.11 45.27 21.94 45.66 21.78 46.04 21.63 46.42 21.48 46.8 21.35 47.19 21.22 47.57 21.1 47.96 20.99 48.34 20.89 48.73 20.8 49.12 20.71 49.51 20.64 49.9 20.57 50.29 20.52 50.68 20.47 51.07 20.43 51.46 20.4 51.85 20.37 52.25 20.36 52.64 20.35 53.03 20.36 53.43 20.37 53.83 20.39 54.22 20.42 54.62 20.46 55.02 20.5 55.42 20.51 54.96 20.52 54.51 20.53 54.06 20.56 53.62 20.58 53.18 20.62 52.75 20.66 52.33 20.7 51.9 20.75 51.49 20.81 51.07 20.88 50.66 20.95 50.26 21.02 49.86 21.09 49.46 21.18 49.07 21.26 48.68 21.36 48.3 21.45 47.92 21.56 47.54 21.67 47.18 21.78 46.81 21.9 46.44 22.02 46.08 22.14 45.73 22.27 45.38 22.41 45.02 22.54 44.68 22.69 44.34 22.84 44 22.98 43.66 23.14 43.33 23.3 43 23.3 43 23.3 43"/>
  <polygon class="cls-1" points="23.3 43 23.08 43.37 22.87 43.75 22.67 44.13 22.48 44.51 22.28 44.88 22.11 45.26 21.94 45.64 21.78 46.02 21.63 46.41 21.49 46.79 21.35 47.17 21.22 47.55 21.11 47.94 21 48.32 20.89 48.71 20.8 49.1 20.72 49.49 20.64 49.88 20.58 50.27 20.52 50.66 20.47 51.05 20.43 51.44 20.4 51.84 20.37 52.23 20.36 52.62 20.35 53.03 20.35 53.42 20.36 53.82 20.38 54.22 20.41 54.62 20.45 55.02 20.5 55.42 20.5 54.96 20.51 54.51 20.53 54.06 20.55 53.62 20.58 53.18 20.62 52.74 20.66 52.32 20.7 51.89 20.75 51.47 20.81 51.06 20.87 50.65 20.95 50.24 21.02 49.84 21.1 49.45 21.18 49.05 21.26 48.67 21.36 48.28 21.46 47.91 21.56 47.53 21.67 47.16 21.78 46.8 21.9 46.43 22.02 46.07 22.14 45.72 22.27 45.36 22.41 45.02 22.55 44.67 22.69 44.33 22.83 43.99 22.99 43.66 23.14 43.32 23.3 43 23.3 43 23.3 43"/>
  <polygon class="cls-1" points="26.25 56.79 27.2 56.74 27.21 56.79 27.22 56.84 27.23 56.88 27.25 56.92 27.27 56.95 27.29 56.99 27.31 57.02 27.33 57.05 27.37 57.09 27.41 57.13 27.46 57.15 27.52 57.18 27.58 57.2 27.64 57.21 27.71 57.22 27.78 57.22 27.82 57.22 27.87 57.21 27.92 57.21 27.97 57.2 28 57.19 28.04 57.17 28.07 57.15 28.1 57.13 28.13 57.11 28.16 57.09 28.18 57.06 28.19 57.04 28.2 57.01 28.21 56.98 28.22 56.96 28.22 56.93 28.22 56.9 28.21 56.88 28.2 56.85 28.19 56.82 28.18 56.8 28.16 56.77 28.14 56.75 28.11 56.73 28.08 56.7 28.04 56.68 27.98 56.66 27.93 56.64 27.86 56.62 27.78 56.6 27.7 56.58 27.6 56.56 27.44 56.53 27.29 56.49 27.16 56.45 27.03 56.41 26.92 56.37 26.82 56.32 26.73 56.27 26.65 56.22 26.59 56.16 26.53 56.1 26.48 56.04 26.44 55.97 26.42 55.9 26.39 55.83 26.38 55.75 26.37 55.66 26.38 55.61 26.38 55.56 26.4 55.5 26.41 55.45 26.43 55.4 26.45 55.35 26.48 55.3 26.52 55.25 26.56 55.2 26.6 55.15 26.64 55.11 26.7 55.07 26.76 55.03 26.82 55 26.89 54.97 26.96 54.94 27.03 54.92 27.12 54.89 27.2 54.87 27.3 54.86 27.4 54.85 27.51 54.84 27.63 54.83 27.76 54.83 27.91 54.83 28.05 54.84 28.18 54.86 28.3 54.88 28.42 54.91 28.52 54.94 28.57 54.96 28.62 54.99 28.66 55.01 28.7 55.03 28.75 55.06 28.78 55.09 28.81 55.12 28.85 55.15 28.88 55.18 28.91 55.22 28.94 55.25 28.96 55.29 28.98 55.34 29.01 55.39 29.02 55.43 29.04 55.48 29.07 55.57 29.1 55.68 28.15 55.73 28.14 55.68 28.12 55.64 28.11 55.6 28.09 55.57 28.07 55.53 28.04 55.5 28.02 55.47 27.99 55.45 27.96 55.43 27.92 55.41 27.89 55.39 27.85 55.39 27.8 55.37 27.76 55.37 27.71 55.36 27.66 55.36 27.61 55.36 27.58 55.37 27.54 55.37 27.5 55.38 27.47 55.39 27.44 55.4 27.41 55.41 27.39 55.43 27.37 55.44 27.35 55.46 27.34 55.48 27.33 55.5 27.32 55.52 27.31 55.54 27.3 55.56 27.3 55.58 27.31 55.62 27.32 55.65 27.34 55.68 27.38 55.71 27.4 55.72 27.42 55.73 27.45 55.75 27.49 55.76 27.59 55.79 27.71 55.81 27.87 55.84 28.01 55.87 28.15 55.9 28.27 55.93 28.39 55.97 28.49 56 28.57 56.04 28.65 56.07 28.72 56.1 28.78 56.13 28.84 56.17 28.9 56.21 28.95 56.25 28.99 56.29 29.03 56.33 29.07 56.38 29.1 56.43 29.13 56.48 29.15 56.53 29.16 56.58 29.18 56.63 29.19 56.69 29.2 56.75 29.2 56.81 29.19 56.88 29.19 56.94 29.17 57.01 29.15 57.07 29.13 57.13 29.1 57.19 29.06 57.25 29.02 57.31 28.97 57.37 28.93 57.42 28.87 57.47 28.81 57.52 28.76 57.56 28.69 57.6 28.62 57.64 28.54 57.67 28.46 57.69 28.38 57.72 28.28 57.74 28.19 57.75 28.09 57.77 27.98 57.78 27.87 57.78 27.76 57.78 27.66 57.78 27.56 57.78 27.46 57.78 27.38 57.77 27.29 57.76 27.21 57.75 27.13 57.73 27.06 57.71 26.99 57.7 26.92 57.67 26.86 57.65 26.81 57.63 26.75 57.6 26.7 57.57 26.65 57.54 26.61 57.5 26.57 57.47 26.54 57.43 26.5 57.39 26.47 57.35 26.44 57.31 26.41 57.27 26.39 57.23 26.36 57.18 26.34 57.14 26.32 57.09 26.3 57.05 26.29 57 26.26 56.9 26.25 56.79 26.25 56.79 26.25 56.79"/>
  <polygon class="cls-1" points="29.79 54.83 30.38 54.83 30.38 57.78 29.79 57.78 29.79 54.83 29.79 54.83"/>
  <polygon class="cls-1" points="30.97 56.79 31.93 56.74 31.94 56.79 31.94 56.84 31.96 56.88 31.97 56.92 31.99 56.95 32.01 56.99 32.03 57.02 32.05 57.05 32.09 57.09 32.14 57.13 32.18 57.15 32.24 57.18 32.3 57.2 32.36 57.21 32.42 57.22 32.49 57.22 32.55 57.22 32.59 57.21 32.64 57.21 32.68 57.2 32.73 57.19 32.76 57.17 32.79 57.15 32.82 57.13 32.85 57.11 32.88 57.09 32.9 57.06 32.91 57.04 32.93 57.01 32.94 56.98 32.94 56.96 32.94 56.93 32.94 56.9 32.94 56.88 32.93 56.85 32.92 56.82 32.9 56.8 32.88 56.77 32.86 56.75 32.83 56.73 32.8 56.7 32.76 56.68 32.71 56.66 32.65 56.64 32.58 56.62 32.5 56.6 32.41 56.58 32.32 56.56 32.16 56.53 32.01 56.49 31.87 56.45 31.75 56.41 31.64 56.37 31.54 56.32 31.45 56.27 31.37 56.22 31.31 56.16 31.25 56.1 31.2 56.04 31.16 55.97 31.13 55.9 31.11 55.83 31.1 55.75 31.09 55.66 31.09 55.61 31.1 55.56 31.11 55.5 31.13 55.45 31.15 55.4 31.17 55.35 31.2 55.3 31.24 55.25 31.28 55.2 31.32 55.15 31.37 55.11 31.42 55.07 31.48 55.03 31.53 55 31.6 54.97 31.67 54.94 31.75 54.92 31.83 54.89 31.93 54.87 32.02 54.86 32.13 54.85 32.23 54.84 32.35 54.83 32.47 54.83 32.62 54.83 32.77 54.84 32.9 54.86 33.02 54.88 33.14 54.91 33.24 54.94 33.29 54.96 33.34 54.99 33.38 55.01 33.42 55.03 33.46 55.06 33.5 55.09 33.54 55.12 33.58 55.15 33.61 55.18 33.63 55.22 33.66 55.25 33.69 55.29 33.71 55.34 33.73 55.39 33.75 55.43 33.77 55.48 33.8 55.57 33.82 55.68 32.87 55.73 32.86 55.68 32.85 55.64 32.83 55.6 32.81 55.57 32.79 55.53 32.77 55.5 32.74 55.47 32.71 55.45 32.68 55.43 32.64 55.41 32.6 55.39 32.57 55.39 32.52 55.37 32.48 55.37 32.43 55.36 32.37 55.36 32.34 55.36 32.29 55.37 32.26 55.37 32.22 55.38 32.19 55.39 32.16 55.4 32.14 55.41 32.11 55.43 32.09 55.44 32.07 55.46 32.06 55.48 32.05 55.5 32.04 55.52 32.03 55.54 32.03 55.56 32.02 55.58 32.03 55.62 32.04 55.65 32.07 55.68 32.1 55.71 32.12 55.72 32.15 55.73 32.17 55.75 32.21 55.76 32.31 55.79 32.43 55.81 32.59 55.84 32.74 55.87 32.87 55.9 32.99 55.93 33.11 55.97 33.21 56 33.3 56.04 33.37 56.07 33.44 56.1 33.51 56.13 33.57 56.17 33.62 56.21 33.67 56.25 33.72 56.29 33.76 56.33 33.79 56.38 33.82 56.43 33.84 56.48 33.87 56.53 33.89 56.58 33.9 56.63 33.91 56.69 33.92 56.75 33.92 56.81 33.92 56.88 33.91 56.94 33.89 57.01 33.87 57.07 33.85 57.13 33.82 57.19 33.79 57.25 33.75 57.31 33.7 57.37 33.65 57.42 33.6 57.47 33.54 57.52 33.47 57.56 33.4 57.6 33.34 57.64 33.26 57.67 33.18 57.69 33.1 57.72 33 57.74 32.91 57.75 32.81 57.77 32.71 57.78 32.59 57.78 32.48 57.78 32.37 57.78 32.28 57.78 32.18 57.78 32.1 57.77 32.01 57.76 31.93 57.75 31.85 57.73 31.77 57.71 31.71 57.7 31.64 57.67 31.58 57.65 31.52 57.63 31.47 57.6 31.42 57.57 31.37 57.54 31.33 57.5 31.29 57.47 31.26 57.43 31.22 57.39 31.19 57.35 31.16 57.31 31.13 57.27 31.1 57.23 31.08 57.18 31.06 57.14 31.04 57.09 31.02 57.05 31 57 30.98 56.9 30.97 56.79 30.97 56.79 30.97 56.79"/>
  <polygon class="cls-1" points="33.92 54.83 36.87 54.83 36.87 55.56 35.88 55.56 35.88 57.78 34.91 57.78 34.91 55.56 33.92 55.56 33.92 54.83 33.92 54.83 33.92 54.83"/>
  <polygon class="cls-1" points="37.46 54.83 39.77 54.83 39.77 55.46 38.33 55.46 38.33 55.93 39.67 55.93 39.67 56.53 38.33 56.53 38.33 57.12 39.82 57.12 39.82 57.78 37.46 57.78 37.46 54.83 37.46 54.83 37.46 54.83"/>
  <polygon class="cls-1" points="40.41 54.83 41.48 54.83 41.88 56.63 42.29 54.83 43.36 54.83 43.36 57.78 42.69 57.78 42.69 55.53 42.18 57.78 41.58 57.78 41.07 55.53 41.07 57.78 40.41 57.78 40.41 54.83 40.41 54.83 40.41 54.83"/>
  <path class="cls-1" d="M46.27,57.3h-1.13l-.17,.49h-1.02l1.22-2.96h1.1l1.22,2.96h-1.06l-.16-.49h0Zm-.21-.64l-.36-1.06-.35,1.06h.71Z"/>
  <path class="cls-1" d="M48.66,56.31v-.17s.01-.08,.01-.08v-.08s.03-.07,.03-.07l.02-.07,.02-.07,.02-.07,.03-.07,.03-.06,.03-.06,.03-.06,.03-.06,.04-.05,.04-.06,.05-.05,.05-.05,.05-.04,.06-.04,.06-.04,.06-.04,.06-.03,.06-.03,.06-.02,.07-.03,.07-.02,.07-.02h.08s.08-.02,.08-.02h.08s.08-.01,.08-.01h.09s.09,0,.09,0h.09s.08,.01,.08,.01h.08s.08,.02,.08,.02l.07,.02,.07,.02,.07,.02,.07,.03,.06,.03,.06,.03,.06,.04,.06,.04,.05,.04,.05,.04,.06,.04,.05,.05,.04,.05,.04,.06,.04,.06,.03,.06,.03,.06,.03,.06,.03,.07,.02,.07,.02,.07,.02,.07v.07s.02,.08,.02,.08v.08s.01,.08,.01,.08v.32s-.02,.11-.02,.11l-.02,.11-.03,.1-.03,.09-.03,.09-.04,.08-.04,.07-.05,.07-.06,.07-.06,.06-.06,.07-.07,.05-.07,.05-.08,.05-.08,.04-.09,.04-.09,.03-.1,.03-.1,.02h-.11s-.11,.02-.11,.02h-.12s-.12,0-.12,0h-.12s-.11-.02-.11-.02l-.1-.02-.1-.02-.09-.03-.09-.03-.08-.04-.08-.04-.07-.05-.08-.05-.06-.06-.06-.06-.06-.07-.06-.07-.05-.08-.04-.09-.04-.09-.03-.1-.03-.1-.02-.11v-.11s-.02-.12-.02-.12v-.12h0Zm.88,0v.1s.01,.1,.01,.1v.09s.03,.08,.03,.08l.02,.07,.03,.07,.03,.06,.04,.05,.04,.04,.05,.04,.05,.03,.06,.03,.06,.02h.06s.06,.02,.06,.02h.06s.07,0,.07,0h.07s.06-.02,.06-.02l.06-.02,.05-.03,.05-.04,.05-.04,.04-.04,.02-.02,.02-.03,.02-.03,.02-.03,.03-.07,.02-.08,.02-.09v-.1s.02-.11,.02-.11v-.11s0-.1,0-.1v-.09s-.02-.09-.02-.09l-.02-.07-.02-.07-.03-.06-.03-.06-.04-.05-.05-.04-.05-.04-.05-.03-.05-.03-.06-.02h-.06s-.06-.02-.06-.02h-.06s-.07,0-.07,0h-.06s-.06,.02-.06,.02l-.05,.02-.06,.03-.05,.03-.04,.04-.04,.04-.04,.05-.03,.06-.03,.07-.02,.07-.02,.08v.1s-.02,.1-.02,.1v.11h0Z"/>
  <path class="cls-1" d="M52.2,54.83h1.58s.1,0,.1,0h.1s.09,.02,.09,.02l.08,.02,.08,.02,.07,.02,.08,.02,.06,.03,.06,.03,.06,.04,.05,.04,.05,.04,.05,.05,.05,.05,.04,.05,.04,.06,.04,.05,.04,.05,.03,.06,.03,.06,.02,.06,.02,.06,.02,.06,.02,.07,.02,.07v.07s.02,.07,.02,.07v.08s.01,.07,.01,.07v.07s0,.07,0,.07v.22s-.01,.1-.01,.1v.1s-.03,.09-.03,.09l-.02,.08-.02,.07-.02,.07-.03,.06-.03,.06-.03,.06-.04,.05-.04,.05-.04,.05-.05,.05-.05,.05-.05,.05-.05,.04-.05,.03-.06,.03-.06,.03-.05,.02-.06,.02-.07,.02-.15,.03-.15,.03h-.07s-.07,.01-.07,.01h-.07s-.07,0-.07,0h-1.47v-2.96h0Zm.99,.67v1.61h.39s.06,0,.06,0h.06s.05-.02,.05-.02h.05s.04-.02,.04-.02h.04s.03-.03,.03-.03l.03-.02,.03-.02,.03-.03,.02-.03,.02-.03,.02-.04,.02-.04,.02-.05v-.05s.03-.06,.03-.06v-.06s.01-.07,.01-.07v-.07s0-.08,0-.08v-.09s0-.11,0-.11v-.1s-.02-.1-.02-.1l-.02-.08-.02-.08-.03-.06v-.03s-.03-.03-.03-.03l-.02-.02-.02-.02-.04-.04-.05-.04-.06-.03-.07-.02-.07-.02h-.08s-.09-.02-.09-.02h-.34Z"/>
  <path class="cls-1" d="M55.74,56.31v-.08s0-.08,0-.08v-.08s.02-.08,.02-.08v-.07s.03-.07,.03-.07l.02-.07,.03-.07,.03-.07,.03-.06,.03-.06,.03-.06,.04-.06,.04-.05,.05-.06,.05-.05,.05-.05,.05-.04,.06-.04,.06-.04,.06-.04,.06-.03,.06-.03,.07-.02,.07-.03,.07-.02,.07-.02h.08s.08-.02,.08-.02h.08s.08-.01,.08-.01h.09s.09,0,.09,0h.09s.09,.01,.09,.01h.08s.08,.02,.08,.02l.08,.02,.07,.02,.07,.02,.06,.03,.06,.03,.06,.03,.06,.04,.06,.04,.06,.04,.05,.04,.05,.04,.05,.05,.04,.05,.04,.06,.03,.06,.03,.06,.03,.06,.03,.06,.03,.07,.03,.07,.02,.07,.02,.07v.07s.03,.08,.03,.08v.08s0,.08,0,.08v.08s0,.12,0,.12v.11s-.02,.11-.02,.11l-.02,.11-.03,.1-.03,.09-.03,.09-.04,.08-.05,.07-.05,.07-.06,.07-.06,.06-.06,.07-.07,.05-.07,.05-.08,.05-.08,.04-.09,.04-.09,.03-.09,.03-.1,.02h-.11s-.12,.02-.12,.02h-.12s-.12,0-.12,0h-.11s-.11-.02-.11-.02l-.1-.02-.1-.02-.09-.03-.09-.03-.08-.04-.08-.04-.07-.05-.07-.05-.07-.06-.06-.06-.06-.07-.06-.07-.05-.08-.05-.09-.04-.09-.03-.1-.03-.1-.02-.11-.02-.11v-.12s-.01-.12-.01-.12h0Zm.88,0v.2s.02,.09,.02,.09l.02,.08,.02,.07,.03,.07,.03,.06,.04,.05,.04,.04,.04,.04,.05,.03,.05,.03,.06,.02h.06s.06,.02,.06,.02h.07s.07,0,.07,0h.06s.06-.02,.06-.02l.06-.02,.06-.03,.05-.04,.04-.04,.04-.04,.02-.02,.02-.03,.02-.03,.02-.03,.03-.07,.02-.08,.02-.09v-.1s.02-.11,.02-.11v-.3s-.02-.09-.02-.09l-.02-.07-.03-.07-.03-.06-.03-.06-.04-.05-.04-.04-.05-.04-.05-.03-.05-.03-.06-.02h-.06s-.06-.02-.06-.02h-.07s-.06,0-.06,0h-.06s-.06,.02-.06,.02l-.06,.02-.05,.03-.05,.03-.05,.04-.04,.04-.04,.05-.03,.06-.03,.07-.02,.07-.02,.08v.1s-.02,.1-.02,.1v.11h0Z"/>
  <polygon class="cls-1" points="59.28 54.83 60.17 54.83 61.33 56.46 61.33 54.83 62.23 54.83 62.23 57.78 61.33 57.78 60.18 56.16 60.18 57.78 59.28 57.78 59.28 54.83 59.28 54.83 59.28 54.83"/>
  <polygon class="cls-1" points="62.23 54.83 65.18 54.83 65.18 55.56 64.19 55.56 64.19 57.78 63.22 57.78 63.22 55.56 62.23 55.56 62.23 54.83 62.23 54.83 62.23 54.83"/>
  <path class="cls-1" d="M65.18,56.31v-.17s.02-.08,.02-.08l.02-.08,.02-.07,.02-.07,.02-.07,.03-.07,.03-.07,.03-.06,.04-.06,.04-.06,.05-.06,.05-.05,.06-.06,.05-.05,.06-.05,.06-.04,.07-.04,.07-.04,.07-.04,.07-.03,.08-.03,.08-.02,.08-.03,.08-.02,.09-.02h.09s.09-.02,.09-.02h.1s.1-.01,.1-.01h.1s.11,0,.11,0h.1s.1,.01,.1,.01h.09s.09,.02,.09,.02l.1,.02,.08,.02,.09,.02,.08,.03,.08,.03,.08,.03,.07,.04,.07,.04,.07,.04,.06,.04,.06,.04,.06,.05,.05,.05,.05,.06,.04,.06,.04,.06,.04,.06,.03,.06,.03,.07,.03,.07,.02,.07,.02,.07,.02,.07v.08s.02,.08,.02,.08v.08s.01,.08,.01,.08v.12s-.02,.11-.02,.11l-.02,.11-.02,.11-.03,.1-.03,.09-.04,.09-.05,.08-.06,.07-.06,.07-.07,.07-.07,.06-.08,.07-.08,.05-.09,.05-.09,.05-.1,.04-.1,.04-.11,.03-.11,.03-.13,.02h-.13s-.13,.02-.13,.02h-.14s-.14,0-.14,0h-.13s-.13-.02-.13-.02l-.12-.02-.12-.02-.11-.03-.1-.03-.1-.04-.09-.04-.09-.05-.09-.05-.08-.06-.07-.06-.07-.07-.06-.07-.06-.08-.06-.09-.05-.09-.04-.1-.03-.1-.03-.11-.02-.11v-.12s-.02-.12-.02-.12h0Zm1.06,0v.2s.03,.09,.03,.09l.02,.08,.03,.07,.04,.07,.04,.06,.05,.05,.05,.04,.05,.04,.06,.03,.06,.03,.07,.02h.07s.08,.02,.08,.02h.08s.08,0,.08,0h.08s.07-.02,.07-.02l.07-.02,.07-.03,.06-.04,.05-.04,.05-.04,.03-.02,.02-.03,.02-.03,.02-.03,.03-.07,.03-.08,.02-.09,.02-.1v-.11s.01-.11,.01-.11v-.19s-.03-.09-.03-.09l-.02-.07-.03-.07-.03-.06-.04-.06-.05-.05-.05-.04-.05-.04-.06-.03-.06-.03-.07-.02h-.08s-.07-.02-.07-.02h-.08s-.08,0-.08,0h-.08s-.07,.02-.07,.02l-.07,.02-.06,.03-.06,.03-.05,.04-.05,.04-.05,.05-.04,.06-.04,.07-.03,.07-.02,.08-.02,.1v.1s-.01,.11-.01,.11h0Z"/>
  <polygon class="cls-1" points="68.72 54.83 69.64 54.83 69.64 57.06 71.08 57.06 71.08 57.78 68.72 57.78 68.72 54.83 68.72 54.83 68.72 54.83"/>
  <path class="cls-1" d="M71.67,56.35v-.16s.01-.08,.01-.08v-.08s.03-.07,.03-.07l.02-.07,.02-.07,.03-.07,.03-.06,.03-.06,.03-.06,.03-.06,.04-.06,.04-.05,.04-.06,.05-.05,.05-.05,.05-.04,.06-.04,.06-.04,.06-.03,.06-.03,.07-.03,.06-.02,.07-.03,.07-.02,.07-.02h.08s.08-.02,.08-.02h.08s.08-.01,.08-.01h.09s.09,0,.09,0h.09s.08,.01,.08,.01h.08s.08,.02,.08,.02l.07,.02,.07,.02,.07,.02,.07,.03,.06,.03,.06,.03,.06,.03,.06,.04,.05,.04,.05,.04,.05,.04,.05,.05,.04,.05,.04,.06,.04,.06,.03,.06,.03,.06,.03,.06,.03,.06,.02,.07,.02,.07,.02,.07v.07s.02,.08,.02,.08v.08s.01,.08,.01,.08v.31s-.02,.11-.02,.11l-.02,.11-.03,.1-.03,.09-.03,.09-.04,.08-.04,.07-.05,.07-.06,.07-.06,.06-.06,.06-.07,.05-.07,.05-.08,.05-.08,.04-.09,.03-.09,.03-.1,.03-.1,.02h-.11s-.11,.02-.11,.02h-.12s-.12,0-.12,0h-.11s-.11-.02-.11-.02l-.1-.02-.1-.02-.09-.03-.09-.03-.09-.03-.08-.04-.07-.05-.07-.05-.06-.06-.06-.06-.06-.07-.06-.07-.05-.08-.05-.09-.04-.09-.04-.09-.03-.1-.02-.11v-.11s-.02-.12-.02-.12v-.12h0Zm.88,0v.1s.01,.09,.01,.09v.09s.03,.08,.03,.08l.02,.07,.03,.06,.03,.06,.04,.05,.04,.04,.05,.04,.05,.03,.05,.03,.06,.02h.06s.06,.02,.06,.02h.07s.07,0,.07,0h.06s.06-.02,.06-.02l.06-.02,.05-.03,.05-.03,.04-.03,.04-.04,.02-.02,.02-.03,.02-.03,.02-.03,.03-.07,.02-.08,.02-.09v-.09s.02-.1,.02-.1v-.11s0-.09,0-.09v-.09s-.02-.09-.02-.09l-.02-.07-.02-.07-.03-.06-.03-.06-.04-.05-.04-.04-.04-.04-.05-.03-.05-.03-.06-.02h-.06s-.06-.02-.06-.02h-.06s-.07,0-.07,0h-.06s-.06,.02-.06,.02l-.06,.02-.05,.03-.05,.03-.04,.04-.04,.04-.04,.05-.03,.06-.03,.06-.02,.07-.02,.08v.09s-.02,.09-.02,.09v.1h0Zm.58-2.12h.68l-.62,.56h-.38l.32-.56h0Z"/>
  <polygon class="cls-1" points="76.77 56.7 76.77 56.11 78.16 56.11 78.16 57.32 78.06 57.38 77.97 57.45 77.87 57.5 77.78 57.55 77.7 57.59 77.62 57.63 77.53 57.66 77.45 57.69 77.38 57.71 77.3 57.73 77.21 57.75 77.12 57.76 77.03 57.77 76.93 57.78 76.83 57.78 76.73 57.78 76.6 57.78 76.49 57.78 76.37 57.76 76.26 57.74 76.16 57.72 76.06 57.69 75.97 57.65 75.89 57.61 75.81 57.56 75.74 57.52 75.67 57.46 75.6 57.39 75.54 57.33 75.49 57.25 75.43 57.18 75.38 57.09 75.34 57.01 75.3 56.92 75.27 56.82 75.25 56.73 75.23 56.62 75.22 56.52 75.21 56.42 75.21 56.31 75.21 56.19 75.22 56.08 75.23 55.97 75.26 55.87 75.28 55.77 75.32 55.67 75.36 55.58 75.4 55.5 75.46 55.41 75.51 55.33 75.58 55.25 75.64 55.19 75.72 55.13 75.8 55.06 75.88 55.02 75.97 54.97 76.05 54.93 76.14 54.91 76.23 54.88 76.32 54.86 76.43 54.85 76.53 54.84 76.65 54.83 76.76 54.83 76.89 54.83 77 54.84 77.1 54.84 77.19 54.85 77.27 54.86 77.35 54.88 77.42 54.89 77.48 54.92 77.55 54.94 77.6 54.96 77.66 54.99 77.7 55.03 77.75 55.06 77.8 55.1 77.84 55.14 77.88 55.18 77.92 55.23 77.96 55.28 77.99 55.33 78.02 55.39 78.05 55.45 78.07 55.51 78.1 55.57 78.12 55.64 77.26 55.79 77.24 55.75 77.23 55.72 77.2 55.68 77.18 55.65 77.16 55.62 77.13 55.59 77.1 55.57 77.07 55.54 77.04 55.52 77.01 55.5 76.97 55.49 76.93 55.48 76.89 55.47 76.85 55.46 76.8 55.46 76.75 55.46 76.68 55.46 76.61 55.47 76.55 55.49 76.49 55.51 76.43 55.54 76.38 55.57 76.33 55.61 76.28 55.66 76.24 55.71 76.2 55.77 76.18 55.84 76.15 55.92 76.13 56 76.11 56.09 76.11 56.19 76.1 56.3 76.11 56.41 76.11 56.51 76.13 56.61 76.15 56.69 76.18 56.77 76.21 56.84 76.23 56.88 76.24 56.91 76.26 56.93 76.28 56.96 76.33 57.01 76.38 57.05 76.43 57.08 76.5 57.11 76.56 57.13 76.63 57.14 76.7 57.15 76.77 57.16 76.85 57.16 76.92 57.15 76.99 57.13 77.06 57.12 77.13 57.09 77.21 57.06 77.29 57.02 77.37 56.97 77.37 56.7 76.77 56.7 76.77 56.7 76.77 56.7"/>
  <polygon class="cls-1" points="78.75 54.83 79.93 54.83 79.93 57.78 78.75 57.78 78.75 54.83 78.75 54.83"/>
  <polygon class="cls-1" points="82.22 56.56 82.88 56.8 82.86 56.88 82.84 56.96 82.82 57.03 82.79 57.1 82.76 57.17 82.73 57.23 82.7 57.29 82.67 57.34 82.63 57.39 82.59 57.45 82.55 57.49 82.51 57.54 82.47 57.58 82.42 57.61 82.37 57.64 82.31 57.67 82.26 57.7 82.2 57.72 82.14 57.74 82.08 57.76 82.01 57.77 81.93 57.78 81.86 57.78 81.78 57.78 81.68 57.78 81.59 57.78 81.5 57.77 81.42 57.75 81.34 57.73 81.27 57.71 81.2 57.68 81.13 57.65 81.07 57.61 81.01 57.57 80.95 57.52 80.9 57.46 80.85 57.4 80.8 57.33 80.75 57.25 80.7 57.17 80.66 57.09 80.62 56.99 80.59 56.89 80.56 56.79 80.54 56.67 80.53 56.55 80.52 56.43 80.52 56.3 80.52 56.21 80.52 56.13 80.53 56.05 80.54 55.97 80.55 55.89 80.56 55.81 80.58 55.74 80.6 55.67 80.62 55.61 80.64 55.54 80.67 55.48 80.7 55.42 80.73 55.37 80.76 55.31 80.8 55.26 80.84 55.21 80.88 55.16 80.92 55.12 80.97 55.08 81.01 55.04 81.06 55.01 81.12 54.98 81.17 54.95 81.22 54.92 81.28 54.9 81.34 54.88 81.4 54.87 81.47 54.85 81.53 54.85 81.6 54.84 81.67 54.83 81.74 54.83 81.86 54.83 81.96 54.85 82.06 54.86 82.15 54.88 82.24 54.92 82.32 54.95 82.36 54.97 82.39 54.99 82.43 55.02 82.47 55.05 82.53 55.1 82.59 55.17 82.64 55.24 82.69 55.33 82.74 55.41 82.78 55.51 82.82 55.61 82.85 55.72 82.19 55.89 82.17 55.83 82.16 55.78 82.14 55.74 82.12 55.7 82.09 55.65 82.05 55.61 82.01 55.58 81.97 55.55 81.92 55.52 81.87 55.5 81.82 55.5 81.76 55.49 81.7 55.5 81.64 55.51 81.59 55.53 81.54 55.55 81.49 55.59 81.45 55.63 81.41 55.68 81.37 55.73 81.35 55.78 81.33 55.83 81.31 55.9 81.3 55.96 81.29 56.04 81.28 56.12 81.27 56.2 81.27 56.3 81.27 56.41 81.28 56.51 81.29 56.61 81.3 56.69 81.32 56.77 81.34 56.84 81.36 56.9 81.39 56.95 81.43 56.99 81.46 57.02 81.5 57.05 81.54 57.08 81.58 57.09 81.63 57.11 81.68 57.12 81.73 57.12 81.79 57.12 81.84 57.11 81.88 57.1 81.93 57.09 81.96 57.06 82 57.04 82.03 57.01 82.06 56.98 82.09 56.94 82.11 56.9 82.13 56.86 82.16 56.8 82.17 56.75 82.19 56.69 82.21 56.63 82.22 56.56 82.22 56.56 82.22 56.56"/>
  <path class="cls-1" d="M83.47,56.31v-.17s.01-.08,.01-.08v-.08s.03-.07,.03-.07l.02-.07,.02-.07,.03-.07,.03-.07,.03-.06,.03-.06,.03-.06,.04-.06,.04-.05,.04-.06,.05-.05,.05-.05,.05-.04,.06-.04,.06-.04,.06-.04,.06-.03,.06-.03,.07-.02,.07-.03,.07-.02,.07-.02h.08s.08-.02,.08-.02h.08s.08-.01,.08-.01h.09s.09,0,.09,0h.08s.09,.01,.09,.01h.08s.08,.02,.08,.02l.08,.02,.07,.02,.07,.02,.06,.03,.06,.03,.06,.03,.06,.04,.06,.04,.06,.04,.05,.04,.05,.04,.05,.05,.04,.05,.04,.06,.04,.06,.03,.06,.03,.06,.03,.06,.03,.07,.02,.07,.02,.07,.02,.07v.07s.02,.08,.02,.08v.08s.01,.08,.01,.08v.08s0,.12,0,.12v.11s-.02,.11-.02,.11l-.02,.11-.03,.1-.03,.09-.03,.09-.04,.08-.05,.07-.05,.07-.06,.07-.06,.06-.07,.07-.07,.05-.07,.05-.08,.05-.08,.04-.09,.04-.09,.03-.1,.03-.1,.02h-.11s-.11,.02-.11,.02h-.12s-.12,0-.12,0h-.11s-.11-.02-.11-.02l-.1-.02-.1-.02-.09-.03-.09-.03-.08-.04-.08-.04-.07-.05-.07-.05-.07-.06-.06-.06-.06-.07-.06-.07-.05-.08-.05-.09-.04-.09-.03-.1-.03-.1-.02-.11v-.11s-.02-.12-.02-.12v-.12h0Zm.87,0v.1s.01,.1,.01,.1v.09s.03,.08,.03,.08l.02,.07,.03,.07,.03,.06,.04,.05,.04,.04,.04,.04,.05,.03,.06,.03,.06,.02h.06s.06,.02,.06,.02h.07s.07,0,.07,0h.06s.06-.02,.06-.02l.06-.02,.05-.03,.05-.04,.04-.04,.05-.04,.02-.02,.02-.03,.02-.03,.02-.03,.03-.07,.02-.08,.02-.09v-.1s.02-.11,.02-.11v-.11s0-.1,0-.1v-.09s-.02-.09-.02-.09l-.02-.07-.03-.07-.03-.06-.03-.06-.04-.05-.05-.04-.04-.04-.05-.03-.05-.03-.06-.02h-.06s-.06-.02-.06-.02h-.06s-.06,0-.06,0h-.06s-.06,.02-.06,.02l-.06,.02-.06,.03-.05,.03-.04,.04-.04,.04-.04,.05-.03,.06-.03,.07-.02,.07-.02,.08v.1s-.02,.1-.02,.1v.11h0Z"/>
  <polygon class="cls-1" points="38.05 46.48 38.05 53.04 40.41 53.05 40.38 45.37 38.05 45.4 38.05 46.48 38.05 46.48 38.05 46.48"/>
  <path class="cls-1" d="M44.51,45.37h6.77s.12,.03,.12,.03l.11,.02,.11,.03,.11,.03,.11,.04,.1,.05,.1,.05,.11,.05,.09,.06,.09,.06,.09,.07,.09,.07,.09,.08,.08,.08,.08,.09,.08,.08,.07,.09,.06,.09,.06,.1,.05,.1,.05,.1,.04,.1,.04,.11,.04,.11,.03,.11,.02,.11,.02,.12v.11s.02,.13,.02,.13v.12s0,2.97,0,2.97v.12s-.01,.12-.01,.12v.12s-.04,.12-.04,.12l-.02,.12-.03,.11-.04,.11-.04,.11-.04,.1-.05,.1-.05,.1-.06,.1-.06,.1-.07,.09-.08,.09-.08,.08-.08,.08-.09,.08-.09,.07-.09,.06-.09,.07-.09,.05-.11,.05-.1,.05-.1,.05-.11,.04-.11,.03-.11,.03-.11,.02h-.12s-.12,.02-.12,.02h-.12s-6.53,0-6.53,0h-.12s-.12-.01-.12-.01h-.11s-.12-.03-.12-.03l-.11-.03-.11-.03-.11-.04-.11-.05-.1-.05-.1-.05-.1-.05-.09-.07-.09-.06-.09-.07-.08-.08-.08-.08-.08-.08-.07-.09-.07-.09-.07-.1-.06-.1-.06-.1-.05-.1-.05-.1-.04-.11-.04-.11-.03-.11-.03-.12-.02-.12-.02-.12v-.12s0-.12,0-.12v-3.21s.03-.11,.03-.11l.02-.12,.03-.11,.03-.11,.04-.11,.04-.11,.05-.1,.05-.1,.06-.1,.06-.1,.07-.09,.07-.09,.07-.08,.08-.09,.08-.08,.08-.08,.09-.07,.09-.07,.09-.06,.1-.06,.1-.05,.1-.05,.11-.05,.11-.04,.11-.03,.11-.03,.12-.02,.11-.02h.12s.12,0,.12,0h0Zm1.51,1.78h3.64s.06,.01,.06,.01h.06s.06,.03,.06,.03l.07,.02,.06,.02,.05,.02,.06,.03,.05,.03,.05,.03,.05,.04,.04,.03,.05,.04,.04,.04,.04,.04,.04,.04,.04,.05,.04,.05,.04,.05,.03,.05,.04,.05,.03,.05,.03,.05,.02,.06,.02,.06,.02,.06v.06s.02,.06,.02,.06v.06s.01,.07,.01,.07v.06s0,1.6,0,1.6v.07s0,.06,0,.06v.06s-.02,.06-.02,.06v.06s-.03,.06-.03,.06l-.02,.06-.02,.06-.03,.06-.03,.05-.04,.05-.03,.05-.04,.05-.04,.05-.04,.05-.04,.05-.04,.04-.04,.04-.05,.04-.04,.04-.05,.03-.05,.03-.05,.03-.06,.03-.05,.02-.06,.02-.07,.02-.06,.02h-.06s-.06,.02-.06,.02h-.06s-.06,0-.06,0h-3.58s-.06,0-.06,0h-.06s-.06-.02-.06-.02l-.06-.02-.06-.02-.06-.02-.06-.02-.05-.03-.05-.03-.05-.03-.05-.03-.05-.04-.04-.04-.04-.04-.04-.04-.04-.05-.04-.05-.04-.05-.04-.05-.03-.05-.03-.05-.03-.05-.03-.06-.02-.06-.02-.06-.02-.06v-.06s-.03-.06-.03-.06v-.06s-.01-.06-.01-.06v-1.8s.01-.06,.01-.06v-.06s.03-.06,.03-.06l.02-.06,.02-.06,.02-.06,.03-.05,.03-.05,.03-.05,.03-.05,.04-.05,.04-.05,.04-.05,.04-.04,.04-.04,.04-.04,.04-.04,.05-.03,.05-.04,.05-.03,.05-.03,.05-.03,.06-.02,.06-.02,.06-.02h.06s.06-.03,.06-.03h.06s.06-.01,.06-.01h.07Z"/>
  <path class="cls-1" d="M43.93,44.77h6.64s.12,.01,.12,.01h.12s.11,.04,.11,.04l.11,.03,.11,.03,.11,.04,.11,.04,.1,.05,.1,.05,.09,.06,.09,.06,.09,.07,.09,.07,.09,.07,.09,.08,.08,.08,.07,.09,.07,.09,.06,.09,.06,.1,.05,.1,.05,.1,.04,.1,.04,.1,.04,.11,.03,.11,.02,.12,.03,.11v.12s.02,.12,.02,.12v.12s0,2.96,0,2.96v.12s-.01,.12-.01,.12v.12s-.04,.11-.04,.11l-.02,.11-.03,.11-.04,.11-.04,.11-.04,.1-.05,.1-.05,.1-.06,.1-.06,.09-.07,.09-.07,.09-.08,.09-.09,.08-.09,.07-.09,.07-.09,.06-.09,.06-.09,.05-.1,.05-.1,.05-.11,.04-.11,.04-.11,.03-.11,.03-.11,.03h-.12s-.12,.02-.12,.02h-.12s-6.52,0-6.52,0h-.12s-.12-.01-.12-.01h-.12s-.11-.04-.11-.04l-.12-.03-.11-.03-.11-.04-.11-.04-.1-.05-.1-.05-.1-.05-.1-.06-.09-.06-.09-.07-.09-.07-.08-.08-.08-.09-.07-.09-.07-.09-.07-.09-.06-.1-.06-.1-.05-.1-.05-.1-.04-.11-.04-.11-.03-.11-.03-.11-.02-.11v-.12s-.02-.12-.02-.12v-.12s0-2.96,0-2.96v-.12s.01-.12,.01-.12v-.12s.04-.11,.04-.11l.03-.12,.03-.11,.04-.11,.04-.1,.05-.1,.05-.1,.06-.1,.06-.1,.07-.09,.07-.09,.07-.09,.08-.08,.08-.08,.09-.07,.09-.07,.09-.07,.1-.06,.1-.06,.1-.05,.1-.05,.11-.04,.11-.04,.11-.03,.12-.03,.11-.02h.12s.12-.02,.12-.02h.12Zm1.5,1.77h3.64s.06,.01,.06,.01h.07s.06,.03,.06,.03h.06s.05,.04,.05,.04l.06,.02,.05,.02,.05,.03,.05,.03,.05,.03,.05,.04,.05,.04,.04,.04,.04,.05,.04,.04,.04,.05,.04,.05,.04,.05,.03,.05,.03,.05,.03,.05,.03,.05,.02,.06,.02,.06,.02,.06v.06s.02,.06,.02,.06v.06s.01,.06,.01,.06v1.79s-.01,.06-.01,.06v.06s-.02,.06-.02,.06l-.02,.06-.02,.06-.02,.05-.03,.06-.03,.05-.03,.05-.03,.05-.04,.05-.04,.05-.04,.05-.04,.05-.04,.04-.04,.04-.05,.04-.05,.04-.05,.03-.05,.03-.05,.03-.05,.03-.06,.02-.05,.02-.06,.02h-.06s-.07,.02-.07,.02h-.06s-.06,.01-.06,.01h-.06s-3.51,0-3.51,0h-.06s-.06,0-.06,0h-.06s-.06-.02-.06-.02h-.06s-.06-.03-.06-.03l-.06-.02-.06-.02-.05-.03-.05-.03-.06-.03-.05-.03-.05-.04-.04-.04-.05-.04-.04-.04-.04-.05-.04-.05-.04-.05-.03-.05-.04-.05-.03-.05-.03-.05-.03-.06-.02-.05-.02-.06-.02-.06v-.06s-.03-.06-.03-.06v-.06s-.01-.07-.01-.07v-1.78s.01-.06,.01-.06v-.06s.03-.06,.03-.06l.02-.06,.02-.06,.02-.06,.03-.05,.03-.05,.03-.05,.04-.05,.03-.05,.04-.05,.04-.05,.04-.04,.04-.05,.05-.04,.04-.04,.05-.04,.05-.03,.06-.03,.05-.03,.05-.02,.06-.02,.06-.03h.06s.06-.03,.06-.03h.06s.06-.02,.06-.02h.06s.06,0,.06,0h0Z"/>
  <polygon class="cls-1" points="38.05 45.37 40.41 45.37 40.41 53.05 38.05 53.05 38.05 45.37 38.05 45.37"/>
  <path class="cls-1" d="M25.66,45.37h1.07s.53,0,.53,0h2.07s.52,0,.52,0h2.06s.52,0,.52,0h1.82s.21,.04,.21,.04l.2,.04,.19,.06,.18,.08,.16,.08,.15,.09,.14,.11,.13,.11,.11,.13,.1,.14,.09,.14,.07,.14,.06,.15,.05,.15,.03,.16,.02,.16v.16s0,.16,0,.16l-.02,.16-.04,.16-.05,.15-.06,.14-.08,.14-.09,.14-.11,.13-.13,.12-.14,.11-.15,.09-.17,.09-.19,.07-.2,.06,.18,.03,.17,.05,.16,.07,.15,.08,.14,.09,.13,.1,.12,.11,.11,.13,.1,.13,.09,.14,.07,.15,.06,.16,.05,.16,.04,.16,.02,.17v.17s0,.17,0,.17l-.02,.17-.03,.18-.05,.16-.06,.16-.08,.16-.1,.16-.1,.14-.13,.14-.15,.13-.15,.12-.18,.11-.19,.11-.21,.09-.23,.08-.25,.06h-8.69v-7.69h0Zm2.55,4.52h4.83s.07,.01,.07,.01l.06,.02,.07,.02,.06,.03,.06,.03,.06,.04,.05,.05,.05,.05,.04,.05,.03,.06,.03,.06,.02,.06,.02,.07v.07s.01,.07,.01,.07v.14s-.01,.06-.01,.06v.06s-.04,.06-.04,.06l-.03,.05-.03,.05-.04,.05-.04,.05-.05,.04-.05,.04-.05,.03-.06,.03-.05,.02-.06,.02h-.06s-.06,0-.06,0h-4.84v-1.4h0Zm0-2.96h4.91s.06,.03,.06,.03l.07,.03,.06,.03,.06,.04,.06,.04,.05,.05,.05,.05,.04,.05,.03,.06,.03,.06,.02,.06,.02,.07v.07s.01,.07,.01,.07v.14s-.01,.06-.01,.06v.06s-.04,.05-.04,.05l-.03,.05-.03,.05-.04,.05-.04,.04-.05,.04-.05,.04-.05,.03-.06,.03-.05,.02h-.06s-.06,.02-.06,.02h-.06s-4.84,0-4.84,0v-1.4h0Z"/>
  <polygon class="cls-1" points="79.34 45.37 81.94 45.37 81.94 51.18 87 51.18 87 53.05 81.94 53.05 79.34 53.05 79.34 51.18 79.34 45.37 79.34 45.37 79.34 45.37"/>
  <path class="cls-1" d="M65.77,53.05l4.54-7.69h3.4l4.44,7.66h-2.72l-.86-1.13h-5.32l-.67,1.16h-2.81Zm7.81-3.11l-1.67-2.74-1.59,2.74h3.26Z"/>
  <path class="cls-1" d="M57.6,51.12v1.91h-2.42v-3.08h-.03v-4.59h8.14s.1,0,.1,0h.1s.1,.03,.1,.03l.1,.02,.1,.03,.09,.03,.09,.04,.09,.05,.08,.05,.08,.05,.08,.05,.08,.05,.08,.06,.07,.06,.07,.07,.07,.07,.06,.08,.06,.08,.06,.09,.05,.08,.05,.09,.04,.09,.04,.09,.03,.09,.03,.1,.03,.1,.02,.1,.02,.1v.1s.02,.1,.02,.1v1.32s-.01,.07-.01,.07v.07s-.03,.07-.03,.07l-.02,.07-.03,.06-.03,.07-.03,.06-.03,.06-.03,.06-.03,.05-.04,.06-.04,.05-.04,.05-.05,.05-.05,.05-.05,.05-.05,.04-.05,.04-.06,.04-.06,.04-.06,.03-.06,.03-.07,.03-.06,.02-.07,.02-.07,.02h-.07s-.07,.02-.07,.02h-.07s-.07,0-.07,0h-.33s.07,0,.07,0h.07s.07,.02,.07,.02l.07,.02,.07,.02,.07,.02,.07,.03,.07,.03,.07,.03,.06,.04,.06,.04,.06,.05,.06,.05,.06,.05,.05,.05,.05,.05,.04,.05,.04,.06,.04,.06,.04,.07,.03,.06,.03,.07,.03,.07,.03,.07,.03,.07,.02,.07,.02,.07v.08s.02,.08,.02,.08v.08s0,.08,0,.08v1.55h-2.44v-1.07s-.01-.05-.01-.05v-.05s-.02-.05-.02-.05v-.05s-.03-.05-.03-.05l-.02-.05-.04-.08-.05-.08-.06-.08-.06-.07-.07-.06-.07-.06-.07-.05-.08-.04-.04-.02h-.04s-.04-.03-.04-.03h-.04s-.05-.02-.05-.02h-.04s-.05-.01-.05-.01h-3.95Zm.09-3.87h3.85s.05,0,.05,0h.05s.05,.02,.05,.02h.05s.05,.03,.05,.03l.04,.02,.04,.02,.04,.02,.04,.03,.04,.03,.04,.03,.04,.03,.03,.03,.03,.04,.03,.04,.03,.04,.03,.04,.03,.04,.03,.05,.03,.04,.02,.05,.02,.05,.02,.05,.02,.05v.05s.02,.05,.02,.05v.05s.02,.05,.02,.05v.05s0,.05,0,.05v.19s0,.05,0,.05v.05s-.02,.05-.02,.05v.05s-.03,.04-.03,.04l-.02,.05-.03,.08-.05,.08-.05,.07-.06,.07-.07,.06-.07,.06-.07,.05-.08,.04-.04,.02h-.04s-.04,.03-.04,.03h-.04s-.04,.02-.04,.02h-.05s-.05,0-.05,0h-.05s-3.83,0-3.83,0v-2.09h0Z"/>
</svg>