<?xml version="1.0" encoding="UTF-8"?>
<svg id="Camada_1" data-name="Camada 1" xmlns="http://www.w3.org/2000/svg" viewBox="0 0 100 100">
  <defs>
    <style>
      .cls-1 {
        fill: #fff;
      }
    </style>
  </defs>
  <path class="cls-1" d="M12.85,41.06v17.74H30.59v-17.74H12.85Zm4.17,15.1c-.47-.46-.76-.87-1.04-1.47-.52-.24-.9-.46-1.36-.75,.33-.15,.62-.25,1.02-.36-.13-.71-.09-1.35,0-2.24,.18,.84,.35,1.45,.7,2.08,.44-.08,.82-.14,1.33-.22-.28,.41-.45,.73-.6,1.15,.5,.47,.95,.74,1.58,.97-.66-.02-1.16-.11-1.74-.28-.04,.41-.02,.73,.09,1.12Zm1.78-5.52c-.26-.62-.63-1.87-.63-1.87-.72,.38-2.36,1.93-2.36,1.93,.9-1.81,1.82-2.64,1.82-2.64-.32-.32-1.14-.48-1.75-.51,.32-.13,1.12-.28,1.74-.31,.62-.02,1,.02,1,.02,.55-.44,1.39-.81,1.68-.85h0s0,0,0,0c0,0,0,0,0,0-.2,.25-.42,.73-.48,.95,1.62,.22,2.92,1.05,2.92,1.05-1.42-.25-2.17-.22-2.7-.17-.53,.05-.63,.11-.63,.11-.38,.84-.61,2.28-.61,2.28Zm3.45,5.16c-.19,.04-.46,.06-.74,.05-.54,.32-1.27,.56-1.83,.69,.33-.21,.62-.43,.96-.74-.34-.07-.66-.17-.98-.34,.53,0,.97-.06,1.51-.21,.32-.36,.56-.66,.85-1.05h0c.01,.27,.02,.48,.05,.72,.52-.25,.91-.48,1.37-.8-.43,.43-.8,.79-1.31,1.18,.04,.21,.07,.34,.12,.5Zm5.57-10.8c.18,.49-.25,3.16-.61,3.87-.01-1.12-.11-2.53-.53-3.15-1.1,.64-1.43,.7-2.62,1.41,.69-.75,.93-1.07,1.36-1.7-1.1,.06-2.69,.19-3.83,.44,.99-.53,2.96-1.12,3.99-1.26-.24-.33-2.19-1.39-2.67-1.59,1.54,.12,3.43,.7,4.34,1.25,.36-.11,.73-.12,1.4-.18-.17,.29-.18,.46-.83,.9Z"/>
  <path class="cls-1" d="M37.08,53.03c.59,0,1.23,.21,1.23,.76,0,.3-.25,.56-.63,.69,.5,.18,.79,.47,.79,.85,0,.66-.8,.89-1.56,.89h-1.73c.04-.41,.05-1.01,.05-1.67,0-.44,0-1.1-.05-1.51h1.89Zm-.48,.4c-.15,0-.31,.01-.38,.02-.02,.41-.02,.61-.02,1.09,0,.57,0,.79,.02,1.24h.46c.54,0,.8-.16,.8-.49,0-.37-.34-.54-.78-.54h-.27l.18-.48h.2c.22,0,.53-.12,.53-.41,0-.31-.28-.44-.74-.44m5.39-.4c-.03,.36-.05,1.2-.05,1.51,0,.29,0,1.24,.05,1.67h-.75l-1.21-1.78c-.1-.14-.17-.28-.2-.44v1.01c0,.38,.01,.93,.05,1.21h-.86c.05-.48,.06-1.39,.06-1.67,0-.3-.02-1.15-.04-1.51h.97l1.02,1.66c.05,.08,.07,.12,.09,.2v-1.85h.86Zm2.32,0c.69,0,1.53,.2,1.53,.93,0,.65-.59,.98-1.79,.98-.07,0-.27,0-.32,0,.02,.44,.02,.98,.05,1.28h-1.05c.04-.44,.05-1.16,.05-1.67,0-.46-.01-1.21-.05-1.51h1.58Zm-.57,.44c0,.21-.01,.42-.01,.63,0,.15,0,.27,.01,.38,.04,0,.2,0,.31,0,.34,0,.8-.09,.8-.53s-.48-.5-.84-.5c-.05,0-.22,0-.27,0m5.39-.44c.69,0,1.52,.2,1.52,.93,0,.65-.59,.98-1.79,.98-.07,0-.27,0-.32,0,.02,.44,.02,.98,.05,1.28h-1.05c.04-.44,.05-1.16,.05-1.67,0-.46-.01-1.21-.05-1.51h1.58Zm-.57,.44c0,.21-.01,.42-.01,.63,0,.15,0,.27,.01,.38,.04,0,.2,0,.31,0,.34,0,.8-.09,.8-.53s-.48-.5-.84-.5c-.05,0-.22,0-.27,0m3.96-.44c.12,.38,1.17,2.67,1.41,3.19h-1.05c-.04-.12-.12-.3-.28-.7-.16,0-.33,0-.54,0s-.37,0-.54,.01c-.09,.26-.18,.47-.25,.69h-.91c.18-.4,1.22-2.68,1.41-3.19h.74Zm-.09,2c-.12-.31-.3-.69-.38-.96-.09,.27-.28,.69-.37,.96,.12,0,.28,.01,.38,.01,.15,0,.22,0,.37-.01m3.46-2c.7,0,1.53,.25,1.53,.99,0,.4-.29,.68-.76,.86,.09,.16,.87,1.17,1.02,1.33h-1.14c-.2-.38-.59-1.05-.96-1.61,.45,.06,.85-.16,.85-.6s-.48-.54-.72-.54c-.11,0-.31,0-.38,0-.01,.36-.02,.71-.02,1.07,0,.28,0,1.19,.05,1.67h-1.06c.05-.47,.07-1.03,.07-1.67,0-.54,0-1.19-.05-1.51h1.58Zm3.26,0c-.02,.36-.04,1.21-.04,1.52,0,.28,0,1.23,.04,1.67h-1.05c.05-.48,.06-1.39,.06-1.67,0-.3-.02-1.16-.04-1.52h1.03Zm2.58,0c.59,0,1.24,.21,1.24,.76,0,.3-.25,.56-.63,.69,.5,.18,.79,.47,.79,.85,0,.66-.8,.89-1.56,.89h-1.73c.04-.41,.05-1.01,.05-1.67,0-.44,0-1.1-.05-1.51h1.89Zm-.48,.4c-.15,0-.31,.01-.38,.02-.02,.41-.02,.61-.02,1.09,0,.57,0,.79,.02,1.24h.46c.54,0,.8-.16,.8-.49,0-.37-.34-.54-.78-.54h-.27l.18-.48h.2c.22,0,.53-.12,.53-.41,0-.31-.28-.44-.74-.44m4.15-.4c.12,.38,1.17,2.67,1.41,3.19h-1.05c-.04-.12-.13-.3-.28-.7-.16,0-.33,0-.54,0s-.37,0-.54,.01c-.09,.26-.18,.47-.25,.69h-.91c.18-.4,1.22-2.68,1.41-3.19h.74Zm-.09,2c-.12-.31-.3-.69-.38-.96-.09,.27-.28,.69-.37,.96,.12,0,.28,.01,.38,.01,.15,0,.23,0,.37-.01m3.14-2.09c.41,0,.8,.06,1.05,.14v.81c-.35-.2-.69-.37-1.15-.37-.36,0-.38,.14-.38,.25,0,.54,1.81,.54,1.81,1.51,0,.63-.58,1.02-1.56,1.02-.44,0-.85-.09-1.13-.19v-.77c.67,.31,1.02,.41,1.33,.41,.25,0,.43-.11,.43-.32,0-.61-1.81-.55-1.81-1.58,0-.57,.57-.89,1.41-.89m6.49,1.72c-.02,.31-.04,.98-.05,1.35-.34,.18-.88,.28-1.4,.28-1.18,0-1.94-.75-1.94-1.66,0-.96,.79-1.69,2.08-1.69,.3,0,.74,.05,1.05,.12l-.23,.63c-.22-.14-.59-.25-.83-.25-.74,0-1.01,.66-1.01,1.19,0,.89,.48,1.18,1.02,1.18,.06,0,.27,0,.34-.02,0-.38,0-.87-.04-1.13h1.01s0,0,0,0Zm2.2-1.64c.7,0,1.53,.25,1.53,.99,0,.4-.3,.68-.76,.86,.1,.16,.87,1.17,1.02,1.33h-1.14c-.2-.38-.59-1.05-.96-1.61,.46,.06,.85-.16,.85-.6s-.48-.54-.72-.54c-.11,0-.31,0-.38,0-.01,.36-.02,.71-.02,1.07,0,.28,0,1.19,.05,1.67h-1.06c.05-.47,.06-1.03,.06-1.67,0-.54,0-1.19-.05-1.51h1.58s0,0,0,0Zm3.7,3.27c-.99,0-1.74-.68-1.74-1.68s.74-1.68,1.74-1.68,1.73,.67,1.73,1.68-.74,1.68-1.73,1.68m0-2.95c-.46,0-.75,.45-.75,1.27s.29,1.26,.75,1.26,.74-.44,.74-1.26c0-.82-.28-1.27-.74-1.27m3.21-.33c-.02,.21-.02,.43-.02,.66v1.52c0,.41,.13,.66,.54,.66,.35,0,.7-.14,.7-.79v-1.54c0-.32,0-.36-.03-.5h.88c-.03,.28-.03,.8-.03,1.31v.9c0,.73-.51,1.05-1.53,1.05-.92,0-1.49-.2-1.49-1.1v-1.16c0-.29-.01-.78-.05-1h1.03s0,0,0,0Zm4.27,0c.69,0,1.52,.2,1.52,.93,0,.65-.59,.98-1.79,.98-.07,0-.27,0-.32,0,.02,.44,.02,.98,.05,1.28h-1.05c.04-.44,.05-1.16,.05-1.67,0-.46-.01-1.21-.05-1.51h1.58Zm-.57,.44c0,.21-.01,.42-.01,.63,0,.15,0,.27,.01,.38,.04,0,.2,0,.31,0,.34,0,.8-.09,.8-.53s-.48-.5-.84-.5c-.05,0-.22,0-.27,0m-47.12-8.49c-.39-.23-.86-.42-1.48-.42-1.81,0-2.43,1.45-2.43,2.67,0,1.7,1.04,2.57,2.44,2.57,.87,0,1.53-.41,2.12-.92v1.47c-.59,.24-1.32,.45-2.42,.45-2.52,0-4.1-1.59-4.1-3.58,0-2.11,1.67-3.65,4.42-3.65,.65,0,1.27,.1,1.88,.25l-.42,1.16h0Zm5.91-1.27c.27,.72,2.55,5.8,3.09,6.95h-1.92c-.11-.32-.34-.89-.64-1.64-.4,0-.8-.02-1.37-.02-.53,0-.92,.01-1.38,.02-.2,.54-.39,1.09-.56,1.64h-1.67c.4-.86,2.73-5.93,3.1-6.95h1.34Zm.17,4.4c-.46-1.09-.86-2.03-.99-2.35-.32,.68-.67,1.47-1.03,2.35,.3,0,.71,.02,1.03,.02s.66-.01,.99-.02m6.93-4.4c1.46,0,3.2,.41,3.2,2.02,0,.9-.53,1.51-1.57,1.83,.15,.3,1.83,2.85,2.11,3.11h-2.08c-.46-.86-1.49-2.61-2.25-3.74,.13,.03,.32,.05,.54,.05,.61,0,1.46-.44,1.46-1.24,0-1-1.21-1.18-1.82-1.18-.31,0-.61,.02-.76,.04-.04,.86-.06,1.95-.06,2.43,0,.62,0,2.67,.11,3.65h-1.94c.1-.96,.12-2.21,.12-3.65,0-1.21,0-2.66-.1-3.31h3.03Zm7.39,0c2.93,0,4.05,1.54,4.05,3.47s-1.09,3.49-4.16,3.49h-2.58c.1-.93,.1-2.22,.1-3.64,0-.68,0-2.41-.1-3.32h2.69s0,0,0,0Zm-.82,.87c-.04,.46-.05,1.64-.05,2.44,0,1.01,0,1.81,.04,2.75,.1,0,.26,.03,.5,.03,1.68,0,2.55-.53,2.55-2.66s-.89-2.61-2.59-2.57h-.45s0,.01,0,.01Zm8.06-.87c-.06,.8-.1,2.63-.1,3.32,0,.61,0,2.67,.1,3.64h-1.93c.1-.96,.11-3.03,.11-3.64,0-.68-.04-2.51-.09-3.32h1.91Zm6.96,0v1c-.55-.03-1.91-.07-2.36-.07-.34,0-.72,0-1.1,.03-.02,.68-.02,1.5-.03,2.04l2.42-.04v1.08l-2.42-.1c.01,.88,.02,2.25,.11,3.01h-1.95c.12-.96,.12-3.03,.12-3.64,0-.68-.05-2.51-.11-3.32h5.33Z"/>
</svg>