<?xml version="1.0" encoding="UTF-8"?>
<svg id="Camada_1" data-name="Camada 1" xmlns="http://www.w3.org/2000/svg" viewBox="0 0 100 100">
  <defs>
    <style>
      .cls-1 {
        fill: #fff;
      }

      .cls-2 {
        fill: none;
        fill-rule: evenodd;
      }
    </style>
  </defs>
  <polygon class="cls-2" points="-81.59 77.55 172.95 77.55 172.95 122 -81.59 122 -81.59 77.55 -81.59 77.55"/>
  <path class="cls-1" d="M41.38,43.33c-.8,.06-1.58,.22-2.35,.42-2.38,.63-4.5,1.75-6.35,3.38-.15,.13-.29,.19-.49,.18-1.35,0-2.71,0-4.12,0,1.65-2.1,3.61-3.77,5.92-5.02,2.31-1.26,4.78-1.99,7.4-2.22,1.07-.08,2.13-.09,3.2,0,2.3,.19,4.49,.79,6.58,1.78,2.05,.98,3.85,2.29,5.43,3.92,.46,.48,.9,.97,1.3,1.5-.04,.06-.1,.03-.15,.03-1.35,0-2.71,0-4.06,0-.11,0-.19-.03-.27-.1-2.39-2.12-5.18-3.4-8.35-3.83-1.22-.17-2.45-.19-3.68-.05Z"/>
  <path class="cls-1" d="M41.38,61.51c0-4.33,0-8.67,0-13,0-.09,0-.18,0-.26,1.01,0,2.02,0,3.03,0,.16,0,.21,.04,.21,.2,0,4.29,0,8.58,0,12.87,0,.15-.02,.21-.2,.21-1.02-.01-2.03,0-3.05-.01Z"/>
  <path class="cls-1" d="M49.8,53.12c.52,.34,1.06,.57,1.68,.56,.31,0,.5-.11,.54-.3,.04-.18-.08-.35-.38-.46-.3-.11-.62-.2-.93-.3-.22-.07-.43-.16-.63-.27-.81-.46-.66-1.6-.19-2.09,.46-.48,1.04-.6,1.67-.55,.5,.04,.96,.21,1.4,.45,.11,.06,.13,.1,.07,.21-.13,.22-.24,.44-.35,.66-.06,.12-.1,.14-.22,.06-.3-.2-.64-.32-1-.37-.16-.02-.31-.01-.46,.02-.16,.04-.28,.13-.31,.31-.03,.18,.06,.3,.21,.38,.22,.13,.47,.18,.71,.24,.27,.07,.53,.15,.79,.26,.6,.25,.88,.69,.85,1.33-.02,.63-.37,1.1-.96,1.29-.8,.26-1.58,.14-2.34-.14-.19-.07-.37-.16-.55-.26-.07-.04-.1-.07-.05-.16,.15-.29,.3-.59,.45-.9Z"/>
  <path class="cls-1" d="M64.94,54.05c-.43,.56-1,.7-1.65,.65-.49-.04-.84-.43-.89-1-.05-.47-.01-.95-.02-1.42,0-.36,0-.72,0-1.08,0-.17,.05-.2,.21-.2,.24,.01,.49,.01,.73,0,.14,0,.18,.04,.18,.18,0,.59,0,1.18,0,1.77,0,.06,0,.12,0,.18,.02,.42,.19,.63,.52,.63,.4,0,.76-.33,.76-.69,0-.62,0-1.24,0-1.87,0-.15,.03-.22,.2-.21,.26,.02,.51,.01,.77,0,.13,0,.16,.04,.16,.16,0,.72,0,1.45,0,2.17,0,.15-.01,.31,.19,.35,.06,.02,.05,.07,.05,.12,0,.24,0,.47,0,.71,0,.09-.02,.14-.12,.14-.1,0-.2,.03-.3,.03-.5,.01-.69-.14-.77-.65Z"/>
  <path class="cls-1" d="M74.88,50.96c.48,0,.92,.11,1.31,.41,.09,.07,.12,.12,.04,.23-.11,.14-.2,.29-.29,.44-.05,.09-.09,.1-.18,.04-.22-.15-.45-.27-.71-.32-.14-.03-.28-.03-.42,.02-.12,.04-.2,.12-.2,.25,0,.12,.06,.21,.17,.25,.15,.06,.31,.11,.46,.15,.28,.08,.55,.17,.82,.28,.85,.35,.67,1.4,.14,1.75-.34,.22-.71,.29-1.1,.28-.54-.02-1.04-.15-1.49-.47-.11-.08-.14-.14-.06-.26,.11-.16,.16-.41,.31-.48,.16-.08,.33,.15,.5,.22,.28,.12,.56,.21,.86,.18,.16-.01,.3-.06,.34-.23,.04-.18-.1-.27-.24-.32-.27-.09-.54-.17-.81-.26-.11-.04-.22-.07-.32-.12-.71-.31-.83-1.17-.24-1.67,.3-.25,.64-.37,1.11-.37Z"/>
  <path class="cls-1" d="M50.36,58.72c.25-.35,.54-.57,.92-.66,.77-.18,1.33,.19,1.41,.97,.08,.8,.02,1.6,.03,2.39,0,.07-.02,.11-.09,.1,0,0-.01,0-.02,0-.62,.06-.62,.05-.62-.56,0-.55,.04-1.11-.03-1.66-.07-.55-.51-.79-1-.53-.37,.2-.62,.49-.6,.95,.02,.55,0,1.1,0,1.64,0,.13-.04,.16-.16,.16-.19-.01-.44,.06-.55-.03-.12-.1-.04-.36-.04-.54,0-1.35,0-2.69,0-4.04,0-.16,.04-.22,.2-.2,.17,.02,.4-.07,.51,.04,.11,.11,.03,.33,.03,.51,0,.47,0,.94,0,1.46Z"/>
  <path class="cls-1" d="M65.89,58.73c.34-.47,.77-.69,1.3-.71,.67-.02,1.02,.29,1.09,.95,.08,.7,.02,1.41,.03,2.11,0,.43,0,.43-.42,.43-.31,0-.3,0-.31-.31-.01-.64,.04-1.29-.03-1.93-.06-.55-.46-.77-.96-.53-.4,.2-.66,.49-.64,.98,.02,.53,0,1.06,0,1.58,0,.14-.02,.21-.18,.19-.18-.02-.42,.05-.53-.04-.11-.1-.03-.34-.03-.52,0-.9,0-1.8,0-2.7,0-.15,.04-.19,.19-.19,.48,0,.48,0,.48,.48,0,.04,0,.08,0,.17Z"/>
  <path class="cls-1" d="M67.74,51.64c.27-.35,.57-.6,1-.66,.27-.04,.28-.03,.28,.23,0,.22,0,.43,0,.65,0,.09-.02,.12-.12,.13-.29,.02-.58,.08-.83,.24-.16,.11-.25,.23-.25,.45,.02,.6,0,1.2,0,1.8,0,.14-.04,.18-.18,.18-.27-.01-.54,0-.81,0-.11,0-.14-.03-.14-.14,0-1.12,0-2.23,0-3.35,0-.12,.05-.15,.15-.14,.24,0,.49,0,.73,0,.11,0,.16,.03,.15,.15,0,.15,0,.31,0,.46Z"/>
  <path class="cls-1" d="M58.92,60.86c.03,.15,.06,.3,.09,.45,.02,.1-.03,.13-.11,.16-.26,.08-.52,.13-.8,.1-.39-.04-.63-.29-.64-.68,0-.3,0-.61,0-.91,0-1.03,0-2.06,0-3.08,0-.14,.03-.2,.18-.18,.18,.02,.42-.08,.52,.04,.09,.1,.03,.33,.03,.51,0,1.03,0,2.07,0,3.1,0,.53,.14,.64,.65,.51,.02,0,.04,0,.07-.01Z"/>
  <path class="cls-1" d="M63.63,59.82c0-.53,0-1.05,0-1.58,0-.12,.03-.17,.16-.16,.19,.01,.43-.06,.55,.04,.13,.1,.04,.35,.04,.54,0,.9,0,1.8,0,2.7,0,.14-.03,.19-.18,.18-.18-.01-.42,.06-.53-.03-.12-.11-.04-.36-.04-.54,0-.38,0-.76,0-1.13Z"/>
  <path class="cls-1" d="M84.89,61.65c-.38,0-.69-.09-.97-.26-.14-.08-.1-.16-.03-.26,.06-.08,.08-.2,.24-.09,.23,.16,.49,.25,.78,.23,.08,0,.16-.02,.23-.06,.1-.05,.17-.13,.17-.25,0-.13-.08-.2-.19-.24-.22-.07-.44-.14-.66-.2-.47-.14-.58-.27-.57-.63,.01-.33,.24-.58,.63-.66,.39-.08,.76-.01,1.1,.21,.1,.07,.09,.13,.02,.18-.07,.06-.05,.27-.24,.13-.2-.15-.43-.22-.69-.19-.17,.02-.32,.07-.35,.27-.03,.2,.12,.27,.28,.31,.22,.06,.44,.12,.66,.19,.36,.12,.5,.3,.49,.6,0,.31-.21,.56-.54,.65-.14,.04-.28,.06-.37,.05Z"/>
  <path class="cls-1" d="M75.1,60.06c0,.64,0,1.27,0,1.91,0,.16-.04,.23-.2,.2-.05,0-.11,0-.16,0-.1,0-.15-.02-.14-.13,0-1.3,0-2.61,0-3.91,0-.11,.03-.14,.14-.14,.37-.01,.37-.02,.37,.36,0,.57,0,1.15,0,1.72Z"/>
  <path class="cls-1" d="M87.32,59.77c0-.43,0-.87,0-1.3,0-.14,.04-.17,.17-.17,.35,0,.35,0,.35,.33,0,.74,0,1.48,0,2.21,0,.3,.1,.38,.38,.31,.1-.02,.11,.02,.13,.09,.08,.29,.08,.3-.21,.36-.06,.01-.12,.02-.18,.03-.43,.03-.63-.16-.64-.59,0-.43,0-.85,0-1.28Z"/>
  <path class="cls-1" d="M80.3,59.68c.16-.22,.34-.4,.62-.45,.16-.03,.23,0,.22,.18,0,.17,0,.28-.24,.31-.42,.06-.59,.3-.59,.72,0,.34,0,.68,0,1.01,0,.13-.04,.16-.16,.16-.36,0-.36,0-.36-.36,0-.6,0-1.2,0-1.8,0-.17,.05-.22,.22-.21,.26,.01,.26,0,.27,.27,0,.05-.02,.11,.03,.17Z"/>
  <path class="cls-1" d="M86.22,60.42c0-.34,0-.67,0-1.01,0-.12,.03-.16,.15-.16,.36,0,.36,0,.36,.36,0,.61,0,1.21,0,1.82,0,.15-.03,.2-.19,.19-.33-.01-.33,0-.33-.33,0-.29,0-.58,0-.87Z"/>
  <path class="cls-1" d="M64.38,57.12q0,.41-.41,.41t-.33-.35,.43-.47,.31,.41Z"/>
  <path class="cls-1" d="M86.74,58.55c0,.35,.05,.32-.26,.32-.26,0-.24,0-.26-.32-.02-.26,.11-.23,.29-.24,.25-.03,.26,.1,.24,.25Z"/>
  <path class="cls-1" d="M41.45,57.31c0-2.9,0-5.79,0-8.69,0-.13,.03-.26-.06-.37,0-1.64,0-3.28,0-4.91-.05-.06-.12-.05-.19-.04-1.05,.12-2.07,.34-3.07,.67-2.03,.67-3.86,1.7-5.47,3.12-.14,.12-.29,.18-.48,.18-1.27,0-2.53,0-3.8,0-.06,0-.12,.02-.17-.03,.04-.07,.1-.14,.15-.2,.64-.77,1.33-1.5,2.08-2.17,1.15-1.04,2.42-1.92,3.79-2.64,2.12-1.11,4.38-1.8,6.76-2.06,.13-.01,.29,.01,.4-.09,0-1.61,0-3.22,0-4.83,0-.2-.04-.24-.24-.24-8.68,0-17.37,0-26.05,0-.19,0-.24,.04-.24,.24,0,8.68,0,17.35,0,26.03,0,.2,.04,.26,.25,.26,8.68,0,17.37,0,26.05,0,.07,0,.15,0,.22,0,.1-.1,.07-.23,.07-.35,0-1.29,0-2.57,0-3.86Zm-18.03-.15c-.71,.81-1.61,1.23-2.48,1.25-2.04,0-3.54-1.37-3.72-3.21-.18-1.77,1.08-3.45,2.86-3.77,1.31-.23,2.43,.17,3.33,1.16,.09,.1,.12,.16-.02,.26-.32,.23-.63,.47-.94,.71-.1,.08-.15,.08-.24-.02-.32-.35-.71-.59-1.17-.67-.99-.18-1.95,.47-2.22,1.49-.34,1.3,.64,2.6,1.95,2.56,.57-.01,1.04-.27,1.42-.68,.11-.12,.18-.11,.29-.02,.3,.24,.61,.47,.92,.7,.11,.08,.12,.13,.03,.23Zm7.46,.91c0,.11-.03,.15-.15,.15-.36,0-.72,0-1.08,0-.14,0-.19-.08-.25-.17-.96-1.24-1.93-2.48-2.89-3.71-.03-.04-.06-.08-.13-.16,0,1.31,0,2.56,0,3.81,0,.17-.03,.24-.22,.23-.37-.02-.74,0-1.12,0-.12,0-.16-.03-.16-.16,0-2.11,0-4.22,0-6.33,0-.12,.03-.17,.16-.16,.36,0,.72,0,1.08,0,.11,0,.17,.05,.23,.13,.96,1.23,1.92,2.47,2.88,3.7,.04,.06,.09,.11,.17,.21v-.23c0-1.2,0-2.39,0-3.59,0-.19,.05-.22,.22-.22,.37,.01,.74,0,1.12,0,.11,0,.15,.03,.15,.15,0,2.12,0,4.24,0,6.35Zm6.13-1.49c-.36,.07-.73,.03-1.09,.04-.39,0-.77,.01-1.16,0-.18,0-.21,.05-.21,.22,.01,.41,0,.81,0,1.22,0,.13-.03,.18-.16,.17-.38,0-.76-.01-1.14,0-.16,0-.19-.05-.19-.2,0-1.05,0-2.1,0-3.15s0-2.06,0-3.09c0-.19,.06-.23,.24-.23,1.08,0,2.17,0,3.25,0,1.25,0,2.35,1,2.48,2.22,.15,1.4-.8,2.56-2.02,2.79Z"/>
  <path class="cls-1" d="M61.65,51.15c0-.09-.04-.11-.12-.11-.24,0-.47,0-.71,0-.11,0-.14,.04-.13,.14,0,.12,0,.25,0,.41-.67-.93-2.04-.77-2.58,.11-.43,.7-.45,1.43-.07,2.16,.52,.99,1.88,1.08,2.5,.27,0,.15,0,.26,0,.38-.02,.45-.3,.78-.75,.84-.38,.06-.74-.02-1.07-.22-.11-.07-.19-.26-.33-.21-.12,.05-.2,.19-.3,.29,0,0,0,.01-.01,.02-.27,.29-.27,.3,.05,.54,.77,.56,1.61,.57,2.47,.25,.63-.24,1.03-.72,1.05-1.41,.03-1.15,.01-2.3,.02-3.45Zm-1.56,2.57c-.31,.14-.62,.09-.87-.14-.31-.28-.37-.65-.26-1.04,.11-.37,.4-.62,.73-.64,.31-.01,.66,.23,.81,.56,.06,.14,.02,.29,.03,.44,.08,.4-.09,.67-.44,.82Z"/>
  <path class="cls-1" d="M57.14,51.74c-.42-.59-1.01-.8-1.71-.77-.73,.03-1.31,.33-1.64,1-.33,.69-.31,1.38,.14,2.02,.46,.63,1.13,.81,1.87,.74,.6-.06,1.08-.32,1.41-.84,.06-.09,.07-.13-.06-.16-.22-.05-.44-.12-.66-.19-.11-.03-.17-.02-.24,.09-.17,.25-.6,.37-.92,.27-.34-.1-.52-.32-.56-.7h.22c.76,0,1.52,0,2.27,0,.14,0,.19-.03,.2-.17,.03-.47-.06-.91-.33-1.29Zm-.99,.77c-.21-.01-.42,0-.63,0-.22,0-.43,0-.65,0-.1,0-.13-.03-.11-.13,.06-.34,.37-.6,.74-.6,.39,0,.69,.23,.77,.59,.02,.11,0,.15-.12,.15Z"/>
  <path class="cls-1" d="M72.81,52.03c-.33-.75-.97-1.05-1.77-1.07-.52,0-.98,.14-1.36,.5-.57,.52-.74,1.37-.45,2.13,.25,.67,.91,1.12,1.67,1.15,.62,.02,1.19-.12,1.61-.6,.54-.63,.63-1.36,.29-2.1Zm-1.91,1.75s-.09-.02-.14-.04c-.35-.14-.56-.53-.52-.98,.04-.46,.3-.76,.69-.83,.41-.07,.81,.24,.88,.7,0,.06,.01,.12,.02,.22,.04,.58-.4,1.03-.95,.94Z"/>
  <path class="cls-1" d="M72.44,61.14c0-.96,0-1.92,0-2.88,0-.14-.03-.18-.18-.18-.47,0-.47,0-.48,.47,0,.03,0,.05,0,.12-.07-.07-.11-.11-.15-.16-.53-.58-1.39-.66-2.01-.17-.82,.64-.9,2.03-.15,2.78,.52,.52,1.32,.6,1.91,.17,.12-.09,.2-.2,.33-.32,0,.21,.01,.4,0,.58-.03,.38-.22,.66-.57,.79-.52,.19-1.01,.11-1.46-.21-.1-.07-.15-.24-.26-.21-.1,.02-.17,.16-.27,.23-.13,.09-.1,.15-.01,.25,.5,.57,1.16,.67,1.85,.58,.78-.1,1.28-.53,1.43-1.18,.05-.21,.03-.43,.03-.65Zm-.89-.55c-.43,.5-1.15,.5-1.57,0-.55-.65-.22-1.75,.56-1.92,.57-.12,1.17,.37,1.17,.95,0,.08,0,.16,0,.24,0,.25,.03,.51-.16,.73Z"/>
  <path class="cls-1" d="M62.93,61.18c.01-.06,0-.12,0-.18,0-.04,0-.09-.04-.1-.19-.05-.16-.21-.16-.35,0-1.12,0-2.23,0-3.35,0-.49,0-.48-.5-.49-.2,0-.25,.05-.24,.25,.01,.56,0,1.12,0,1.73-.71-1.01-2.13-.84-2.61,.33-.22,.53-.21,1.07,.02,1.6,.31,.71,1,1.09,1.76,.95,.39-.07,.69-.28,.94-.62,0,.11,0,.18,.02,.25,.04,.26,.27,.39,.61,.37,.31-.01,.17-.24,.2-.38Zm-1.2-.48c-.32,.25-.66,.35-1.04,.19-.42-.18-.65-.53-.68-.98-.05-.53,.27-1.06,.7-1.22,.59-.21,1.3,.29,1.3,.91v.22c.02,.32,.02,.64-.27,.87Z"/>
  <path class="cls-1" d="M55.07,58.03c-1.02,0-1.78,.76-1.78,1.78,0,1.02,.76,1.79,1.77,1.79,1.01,0,1.77-.76,1.78-1.79,0-1.02-.76-1.79-1.78-1.79Zm.06,2.94c-.62,.03-1.11-.49-1.09-1.17,0-.17,.04-.34,.11-.49,.19-.42,.58-.68,.98-.65,.43,.03,.8,.36,.91,.81,.03,.12,.04,.24,.05,.31,0,.67-.43,1.17-.96,1.2Z"/>
  <path class="cls-1" d="M79.3,60.5c-.08-.27-.26-.43-.52-.54,.05-.04,.1-.07,.15-.11,.25-.22,.34-.59,.22-.93-.11-.31-.35-.52-.65-.52-.52,0-1.04,0-1.56,0-.1,0-.12,.03-.12,.13,0,.99,0,1.97,0,2.96,0,.1,.03,.13,.13,.12,.51,0,1.03,.01,1.54,0,.62-.02,.98-.53,.82-1.1Zm-1.97-1.25c0-.4,0-.4,.41-.4,.17,0,.34,0,.51,0,.26,0,.44,.19,.44,.46,0,.27-.18,.47-.45,.48-.13,0-.26,0-.39,0,0,0,0,0,0-.01-.17,0-.39,.07-.49-.02-.11-.1-.03-.33-.04-.5Zm.99,1.91c-.14,0-.28,0-.43,0h0c-.18-.01-.42,.06-.53-.03-.12-.1-.04-.35-.04-.54,0-.4,0-.4,.4-.4,.2,0,.39,0,.59,0,.29,0,.5,.22,.49,.5,0,.26-.21,.46-.49,.46Z"/>
  <path class="cls-1" d="M83.43,61.15c-.07-.06-.06-.15-.06-.23,0-.29,0-.58,0-.87-.01-.41-.26-.7-.65-.8-.43-.11-.84-.03-1.23,.2-.19,.11-.01,.21,.01,.3,.03,.13,.11,.05,.17,.01,.13-.08,.26-.14,.41-.17,.52-.12,.84,.16,.77,.67-.28-.08-.57-.12-.86-.07-.47,.07-.77,.4-.74,.81,.04,.41,.39,.68,.87,.66,.32-.01,.58-.16,.82-.39,0,.05,.01,.08,.01,.1,.02,.17,.12,.25,.28,.27,.09,0,.24,.03,.25-.06,.02-.14,.1-.3-.06-.43Zm-.66-.1c-.19,.18-.41,.25-.66,.22-.2-.02-.34-.17-.37-.35-.02-.19,.08-.33,.28-.41,.11-.04,.22-.05,.34-.05,.08,0,.16,0,.24,.03,.09,.03,.24,0,.26,.13,.02,.15,.04,.3-.1,.43Z"/>
  <path class="cls-1" d="M34.55,54.09c0-.3,0-.6,0-.89,0-.11,.01-.17,.15-.16,.57,0,1.14,0,1.71,0,.62,0,1.08,.47,1.08,1.06,0,.6-.48,1.05-1.11,1.05-.56,0-1.11,0-1.67,0-.14,0-.17-.04-.16-.17,0-.3,0-.6,0-.89Z"/>
</svg>