<?xml version="1.0" encoding="UTF-8"?>
<svg id="Camada_1" data-name="Camada 1" xmlns="http://www.w3.org/2000/svg" viewBox="0 0 100 100">
  <defs>
    <style>
      .cls-1 {
        fill: #fff;
        fill-rule: evenodd;
      }
    </style>
  </defs>
  <path class="cls-1" d="M23.93,47.37l1.59,.3-.08,.23-.19,.43-.24,.35-.28,.31-.16,.12-.18,.12-.37,.19-.41,.12-.46,.06-.24,.02-.38-.02-.69-.14-.57-.28-.48-.42-.19-.27-.15-.23-.22-.51-.15-.57-.07-.62v-.34s0-.39,0-.39l.1-.73,.19-.64,.29-.55,.19-.25,.19-.22,.44-.34,.49-.24,.55-.11,.29-.02,.32,.02,.6,.11,.54,.25,.45,.36,.2,.24,.19,.25,.28,.61,.19,.75,.08,.87v.49h-3.98v.19s.06,.34,.06,.34l.1,.29,.14,.27,.08,.11,.1,.1,.2,.16,.23,.11,.25,.05h.31s.31-.12,.31-.12l.13-.1,.12-.12,.19-.35,.07-.25h0Zm.09-1.75v-.19s-.05-.34-.05-.34l-.09-.28-.12-.25-.09-.1-.09-.09-.18-.16-.21-.09-.22-.05h-.12s-.13,0-.13,0l-.24,.05-.21,.1-.19,.16-.08,.09-.08,.11-.12,.24-.09,.29-.04,.31v.18h2.37Z"/>
  <path class="cls-1" d="M28.74,49.48v-3.04h-1.9v-1.34h1.9v-3.59h3.24s.95,.06,.95,.06l.26,.06,.17,.05,.31,.14,.29,.2,.25,.25,.12,.14,.11,.16,.17,.34,.12,.38,.06,.43v.59s-.14,.62-.14,.62l-.12,.26-.13,.24-.35,.4-.19,.14-.21,.14-.41,.19-.21,.05-.3,.06-.83,.06h-.52s-1.04,0-1.04,0v3h-1.59Zm35.41-4.01l-1.37-.26,.06-.21,.16-.36,.21-.3,.24-.26,.14-.11,.15-.09,.35-.16,.42-.1,.48-.05,.28-.02,.48,.02,.58,.09,.32,.09,.13,.06,.24,.13,.35,.3,.1,.19,.1,.21,.09,.69v.47s0,1.79,0,1.79v.37s.04,.56,.04,.56l.04,.19,.04,.18,.13,.39,.09,.19h-1.5l-.06-.18-.08-.26-.04-.13-.02-.06-.2,.18-.41,.29-.22,.1-.22,.09-.47,.1-.25,.02-.22-.02-.39-.06-.35-.12-.31-.18-.13-.11-.13-.13-.18-.27-.13-.3-.07-.34v-.19l.02-.23,.11-.43,.11-.2,.12-.18,.33-.3,.19-.11,.23-.1,.6-.18,.38-.08,.5-.1,.73-.18,.24-.09v-.37s-.12-.31-.12-.31l-.09-.11-.13-.07-.41-.1h-.28s-.19,0-.19,0l-.32,.08-.11,.08-.12,.09-.17,.28-.08,.19h0Zm2.02,1.24l-.35,.1-.58,.13-.29,.06-.41,.14-.12,.06-.13,.12-.14,.26-.02,.16v.15s.13,.28,.13,.28l.12,.13,.12,.1,.3,.12h.18s.21,0,.21,0l.39-.14,.18-.12,.13-.11,.18-.26,.05-.14,.06-.26v-.48s0-.31,0-.31h0Zm-13.05-3h1.39v.78l.2-.22,.4-.34,.45-.23,.47-.11,.25-.02,.28,.02,.47,.11,.21,.11,.21,.12,.33,.34,.13,.22,.18-.22,.41-.34,.21-.12,.22-.11,.47-.11,.24-.02,.3,.02,.54,.14,.24,.12,.21,.14,.32,.38,.12,.25,.08,.19,.08,.6v.4s0,3.69,0,3.69h-1.51v-3.71s-.09-.55-.09-.55l-.07-.15-.06-.08-.13-.12-.25-.11-.21-.02h-.17s-.29,.11-.29,.11l-.14,.09-.14,.1-.19,.29-.07,.18-.06,.22-.07,.59v3.16h-1.51v-3.55l-.04-.55-.04-.15-.05-.1-.13-.19-.08-.06-.09-.05-.24-.06h-.13s-.17,0-.17,0l-.31,.1-.15,.09-.13,.1-.2,.27-.06,.17-.06,.21-.06,.59v.39s0,2.81,0,2.81h-1.51v-5.77h0Zm-2.73,5.77h-1.51v-5.77h1.4v.82l.17-.28,.32-.38,.16-.1,.14-.08,.32-.1,.18-.02,.25,.02,.5,.14,.24,.14-.47,1.34-.19-.12-.35-.12h-.17s-.16,0-.16,0l-.27,.09-.11,.09-.1,.1-.18,.32-.06,.22-.06,.26-.06,.98v.7s0,1.78,0,1.78h0Zm-6.44-4.01l-1.38-.26,.07-.21,.16-.36,.19-.3,.24-.26,.13-.11,.15-.09,.35-.16,.42-.1,.49-.05,.27-.02,.49,.02,.58,.09,.31,.09,.13,.06,.24,.13,.35,.3,.12,.19,.09,.21,.11,.69v.47s-.02,1.79-.02,1.79v.37l.04,.56,.03,.19,.05,.18,.13,.39,.09,.19h-1.49l-.06-.18-.09-.26-.02-.13-.02-.06-.19,.18-.42,.29-.21,.1-.23,.09-.47,.1-.24,.02-.22-.02-.39-.06-.35-.12-.3-.18-.13-.11-.13-.13-.2-.27-.13-.3-.06-.34v-.19s0-.23,0-.23l.12-.43,.1-.2,.13-.18,.32-.3,.21-.11,.22-.1,.6-.18,.38-.08,.5-.1,.74-.18,.23-.09v-.37s-.11-.31-.11-.31l-.1-.11-.13-.07-.4-.1h-.28s-.2,0-.2,0l-.31,.08-.13,.08-.11,.09-.18,.28-.07,.19h0Zm2.02,1.24l-.35,.1-.58,.13-.28,.06-.42,.14-.12,.06-.13,.12-.15,.26v.16s0,.15,0,.15l.12,.28,.1,.13,.13,.1,.31,.12h.17s.21,0,.21,0l.39-.14,.19-.12,.13-.11,.18-.26,.06-.14,.05-.26v-.48s0-.31,0-.31h0Zm-8.37-5.21v2.94l.18-.21,.4-.33,.43-.22,.48-.1,.25-.02,.25,.02,.47,.1,.21,.09,.21,.11,.32,.24,.12,.15,.09,.16,.15,.33,.04,.19,.04,.2,.04,.58v.37s0,3.39,0,3.39h-1.51v-3.47l-.05-.58-.04-.15-.05-.12-.16-.19-.09-.07-.12-.07-.28-.07h-.15s-.2,0-.2,0l-.33,.09-.16,.09-.13,.1-.22,.27-.07,.19-.06,.19-.07,.55v3.24h-1.51v-7.98h1.51Zm-7.26,1.36v2.26h1.33l.62-.07,.19-.05,.15-.07,.25-.19,.1-.13,.08-.14,.09-.32v-.17s0-.22,0-.22l-.13-.35-.12-.15-.13-.14-.32-.17-.19-.05-.38-.05h-1.54Z"/>
  <polygon class="cls-1" points="71.1 39 71.73 39 71.73 51.5 71.1 51.5 71.1 39 71.1 39"/>
  <polygon class="cls-1" points="79.82 39.62 80.02 39.63 80.39 39.7 80.72 39.82 81.03 39.98 81.28 40.19 81.48 40.45 81.62 40.73 81.69 41.03 81.7 41.19 81.69 41.35 81.62 41.66 81.48 41.94 81.28 42.18 81.03 42.4 80.72 42.57 80.39 42.68 80.02 42.75 79.82 42.75 79.64 42.75 79.26 42.68 78.94 42.57 78.63 42.4 78.39 42.18 78.17 41.94 78.03 41.66 77.97 41.35 77.96 41.19 77.97 41.03 78.03 40.73 78.17 40.45 78.39 40.19 78.63 39.98 78.94 39.82 79.26 39.7 79.64 39.63 79.82 39.62 79.82 39.62 79.82 39.62"/>
  <polygon class="cls-1" points="81.51 43.97 81.79 43.99 82.1 44.09 82.23 44.2 82.32 44.34 82.32 44.51 82.27 44.71 82.13 44.93 82.02 45.05 81.4 45.71 80.27 47.13 79.26 48.59 78.32 50.11 77.87 50.87 77.92 50.28 78.13 49.13 78.63 47.36 79.05 46.17 79.1 45.98 79.08 45.65 78.93 45.37 78.69 45.17 78.54 45.1 77.97 44.85 76.85 44.31 75.77 43.72 74.72 43.08 74.22 42.75 75.12 42.97 76.93 43.41 78.75 43.75 80.13 43.92 81.05 43.96 81.51 43.97 81.51 43.97 81.51 43.97"/>
  <path class="cls-1" d="M18.74,58.01v-3.37h.42v3.37h-.42Zm1.11,0v-2.44h.35v.35l.06-.1,.16-.15,.18-.09,.21-.05,.12-.02,.21,.03,.18,.06,.16,.08,.1,.13,.08,.14,.04,.17,.02,.14v1.76h-.38v-1.48l-.02-.24-.04-.14-.06-.12-.1-.08-.13-.06h-.15s-.13,0-.13,0l-.21,.08-.1,.07-.08,.09-.1,.33v1.55h-.39Zm2.31-1.22v-.17s.05-.29,.05-.29l.09-.25,.14-.2,.09-.08,.14-.13,.37-.14,.21-.03,.23,.03,.38,.17,.16,.14,.08,.08,.1,.19,.11,.36v.28s0,.22,0,.22l-.06,.37-.07,.15-.07,.12-.19,.21-.12,.08-.13,.08-.29,.07h-.37s-.39-.18-.39-.18l-.16-.14-.06-.08-.12-.2-.1-.37-.02-.29h0Zm.41,0v.22s.1,.36,.1,.36l.09,.12,.1,.12,.24,.12h.14s.14,0,.14,0l.24-.12,.1-.12,.09-.12,.09-.36,.02-.23-.02-.22-.1-.35-.09-.13-.1-.11-.24-.12h-.14s-.14,0-.14,0l-.24,.12-.1,.11-.09,.13-.1,.35v.23h0Zm2.85,1.22l-.88-2.44h.41l.5,1.46,.08,.25,.06,.25,.06-.19,.08-.26,.52-1.49h.39l-.86,2.44h-.37Zm3.07-.3l-.21,.18-.21,.11-.21,.06h-.22s-.18,0-.18,0l-.29-.1-.11-.08-.1-.1-.1-.25v-.15s0-.17,0-.17l.07-.15,.08-.14,.12-.11,.14-.08,.14-.05,.14-.03,.2-.03,.44-.07,.26-.08v-.24l-.06-.17-.05-.06-.08-.06-.22-.08h-.14s-.14,0-.14,0l-.2,.06-.08,.03-.06,.07-.1,.18-.02,.13-.38-.06,.02-.12,.1-.22,.05-.08,.06-.08,.17-.13,.11-.03,.23-.08,.29-.03,.28,.03,.19,.06,.17,.08,.11,.1,.08,.13,.04,.16,.02,.14v1.31s.03,.22,.03,.22l.02,.14,.07,.14h-.41l-.05-.14-.02-.17h0Zm-.03-.92l-.25,.09-.39,.07-.22,.03-.12,.04-.1,.06-.06,.08-.05,.09v.1s0,.08,0,.08l.06,.14,.06,.07,.06,.05,.17,.05h.22l.2-.05,.09-.05,.09-.05,.13-.15,.05-.08,.06-.16v-.25s0-.15,0-.15h0Zm2.5,.33l.38,.05-.04,.21-.17,.32-.12,.14-.14,.1-.31,.12h-.19s-.22,0-.22,0l-.38-.17-.15-.14-.06-.08-.11-.19-.1-.36v-.3s0-.19,0-.19l.06-.35,.06-.15,.07-.14,.18-.23,.13-.08,.13-.08,.27-.07,.14-.02,.19,.02,.3,.1,.13,.09,.1,.1,.16,.3,.04,.18-.38,.06-.03-.13-.1-.17-.06-.08-.07-.05-.17-.07h-.1s-.15,0-.15,0l-.23,.12-.1,.1-.08,.12-.1,.36v.24s0,.23,0,.23l.09,.36,.09,.12,.09,.1,.24,.12h.14s.11,0,.11,0l.19-.08,.08-.08,.07-.07,.1-.25,.03-.14h0Zm-.9,1.21l.1-.41h.29l-.08,.24,.09,.03,.14,.05,.06,.05,.04,.05,.05,.11v.14s-.08,.14-.08,.14l-.08,.08-.08,.06-.23,.06h-.33l-.14-.02,.02-.27h.13s.08,0,.08,0h.18s.1-.06,.1-.06l.05-.05v-.07s0-.03,0-.03l-.02-.04-.04-.03-.06-.03-.08-.02h-.14Zm3.11-.62l-.22,.18-.21,.11-.21,.06h-.22s-.18,0-.18,0l-.29-.1-.11-.08-.1-.1-.1-.25v-.15s0-.17,0-.17l.06-.15,.09-.14,.12-.11,.13-.08,.15-.05,.14-.03,.21-.03,.43-.07,.26-.08v-.11s0-.13,0-.13l-.06-.17-.05-.06-.08-.06-.22-.08h-.14s-.13,0-.13,0l-.21,.06-.06,.03-.07,.07-.1,.18-.03,.13-.38-.06,.03-.12,.09-.22,.05-.08,.07-.08,.18-.13,.1-.03,.24-.08,.29-.03,.27,.03,.2,.06,.18,.08,.1,.1,.08,.13,.04,.16,.02,.14v1.31s.02,.22,.02,.22l.03,.14,.07,.14h-.41l-.06-.14-.02-.17h0Zm-.04-.92l-.25,.09-.39,.07-.22,.03-.12,.04-.1,.06-.06,.08-.04,.09-.02,.1v.08l.06,.14,.06,.07,.06,.05,.18,.05h.22l.2-.05,.1-.05,.08-.05,.13-.15,.05-.08,.05-.16v-.25s0-.15,0-.15h0Zm-1.27-1.57l.02-.12,.06-.19,.06-.08,.07-.06,.16-.08h.09l.14,.03,.22,.1,.13,.05h.08s.07,0,.07,0l.04-.03,.02-.07,.02-.1h.29l-.02,.13-.06,.19-.06,.08-.06,.06-.14,.07h-.09l-.16-.03-.21-.1-.13-.07-.08-.02h-.08s-.05,.05-.05,.05l-.04,.08v.09h-.29Zm2.12,1.58l.02-.17,.04-.29,.09-.25,.14-.2,.08-.08,.15-.13,.37-.14,.21-.03,.23,.03,.38,.17,.16,.14,.07,.08,.12,.19,.1,.36,.02,.28v.22s-.08,.37-.08,.37l-.06,.15-.07,.12-.19,.21-.12,.08-.13,.08-.29,.07h-.38s-.38-.18-.38-.18l-.15-.14-.08-.08-.11-.2-.1-.37-.02-.29h0Zm.41,0v.22s.1,.36,.1,.36l.1,.12,.1,.12,.25,.12h.14s.14,0,.14,0l.25-.12,.1-.12,.09-.12,.1-.36v-.23s0-.22,0-.22l-.1-.35-.09-.13-.1-.11-.25-.12h-.14s-.14,0-.14,0l-.25,.12-.1,.11-.1,.13-.1,.35v.23h0Zm5.01,.44l.41,.05-.06,.18-.18,.29-.13,.12-.13,.09-.33,.1h-.44s-.3-.13-.3-.13l-.18-.12-.07-.08-.07-.08-.11-.19-.1-.36v-.29s0-.3,0-.3l.1-.36,.11-.2,.07-.09,.16-.15,.39-.17,.22-.03,.23,.03,.37,.17,.16,.14,.07,.09,.1,.19,.1,.36,.02,.29v.11h-1.71v.2s.11,.3,.11,.3l.09,.12,.11,.1,.24,.11h.14s.1,0,.1,0l.19-.06,.08-.06,.06-.06,.12-.19,.05-.12h0Zm-1.27-.68h1.28l-.02-.15-.08-.23-.05-.08-.1-.1-.25-.13h-.15s-.13,0-.13,0l-.22,.09-.1,.08-.08,.11-.1,.25-.02,.15h0Zm3.4-1.44v-.47h.4v.47h-.4Zm0,2.89v-2.44h.4v2.44h-.4Zm.99,0v-2.44h.35v.35l.06-.1,.16-.15,.18-.09,.21-.05,.12-.02,.21,.03,.18,.06,.17,.08,.1,.13,.08,.14,.04,.17,.02,.14v1.76h-.38v-1.72s-.05-.14-.05-.14l-.06-.12-.1-.08-.13-.06h-.15s-.12,0-.12,0l-.22,.08-.1,.07-.08,.09-.09,.33v.21s0,1.34,0,1.34h-.39Zm3.31-.36l.06,.36-.16,.03h-.33s-.14-.08-.14-.08l-.1-.07-.06-.12-.06-.16v-1.73h-.29v-.32h.29v-.61l.38-.25v.85h.4v.32h-.4v1.58l.02,.08,.03,.04,.04,.03,.05,.03h.25Zm1.95-.42l.4,.05-.05,.18-.18,.29-.13,.12-.13,.09-.33,.1h-.44s-.31-.13-.31-.13l-.16-.12-.08-.08-.07-.08-.12-.19-.1-.36v-.29s0-.3,0-.3l.1-.36,.12-.2,.07-.09,.15-.15,.4-.17,.22-.03,.22,.03,.37,.17,.16,.14,.06,.09,.11,.19,.1,.36,.02,.29v.11h-1.72l.02,.2,.1,.3,.1,.12,.1,.1,.23,.11h.15s.1,0,.1,0l.18-.06,.08-.06,.07-.06,.12-.19,.05-.12h0Zm-1.27-.68h1.28l-.02-.15-.08-.23-.05-.08-.1-.1-.25-.13h-.14s-.14,0-.14,0l-.22,.09-.09,.08-.1,.11-.1,.25-.02,.15h0Zm2.09,1.67l.38,.05,.02,.09,.06,.14,.05,.04,.08,.05,.2,.06h.25l.21-.06,.07-.05,.07-.07,.1-.15,.03-.1,.03-.17v-.36l-.13,.14-.33,.17h-.18s-.12,0-.12,0l-.21-.05-.18-.08-.16-.14-.07-.09-.11-.19-.13-.44-.02-.24v-.18l.07-.32,.05-.15,.07-.14,.17-.23,.1-.08,.12-.07,.26-.08,.15-.02,.21,.03,.33,.18,.14,.15v-.29h.36v2.38s-.06,.41-.06,.41l-.05,.14-.06,.11-.17,.19-.12,.08-.11,.06-.29,.08h-.37s-.33-.1-.33-.1l-.13-.09-.12-.11-.12-.29v-.19h0Zm.33-1.47v.23s.1,.35,.1,.35l.08,.13,.1,.1,.23,.1h.13s.13,0,.13,0l.22-.1,.1-.1,.08-.12,.1-.35v-.45l-.1-.33-.09-.13-.1-.1-.23-.12h-.13s-.13,0-.13,0l-.22,.12-.1,.1-.08,.13-.09,.32v.22h0Zm2.21,1.26v-2.44h.35v.36l.13-.23,.12-.12,.12-.06,.14-.03,.1,.02,.2,.06,.1,.06-.13,.39-.14-.08-.14-.02-.13,.02-.11,.07-.09,.09-.06,.14-.06,.23v.25s0,1.28,0,1.28h-.39Zm2.98-.3l-.22,.18-.21,.11-.2,.06h-.22s-.18,0-.18,0l-.29-.1-.1-.08-.1-.1-.1-.25v-.32s.07-.15,.07-.15l.09-.14,.11-.11,.13-.08,.15-.05,.14-.03,.22-.03,.43-.07,.27-.08v-.11l-.02-.13-.05-.17-.06-.06-.08-.06-.22-.08h-.15s-.13,0-.13,0l-.2,.06-.07,.03-.06,.07-.1,.18-.04,.13-.38-.06,.03-.12,.09-.22,.06-.08,.06-.08,.18-.13,.11-.03,.23-.08,.29-.03,.27,.03,.21,.06,.17,.08,.1,.1,.08,.13,.05,.16,.02,.14v.25s0,.55,0,.55v.52l.02,.22,.04,.14,.06,.14h-.41l-.06-.14-.02-.17h0Zm-.02-.92l-.25,.09-.38,.07-.22,.03-.13,.04-.09,.06-.06,.08-.04,.09v.1s0,.08,0,.08l.06,.14,.06,.07,.06,.05,.18,.05h.22l.21-.05,.09-.05,.08-.05,.14-.15,.04-.08,.06-.16,.02-.25v-.15h0Zm2.48,.33l.38,.05-.03,.21-.16,.32-.13,.14-.13,.1-.33,.12h-.18s-.24,0-.24,0l-.37-.17-.16-.14-.07-.08-.1-.19-.1-.36v-.3s0-.19,0-.19l.06-.35,.06-.15,.07-.14,.18-.23,.12-.08,.13-.08,.28-.07,.14-.02,.18,.02,.32,.1,.11,.09,.12,.1,.15,.3,.04,.18-.37,.06-.03-.13-.1-.17-.07-.08-.07-.05-.16-.07h-.1s-.14,0-.14,0l-.24,.12-.1,.1-.09,.12-.09,.36v.24s0,.23,0,.23l.09,.36,.08,.12,.1,.1,.23,.12h.14s.12,0,.12,0l.18-.08,.08-.08,.08-.07,.1-.25,.02-.14h0Zm-.9,1.21l.12-.41h.29l-.07,.24,.09,.03,.14,.05,.05,.05,.04,.05,.06,.11v.06s0,.08,0,.08l-.08,.14-.07,.08-.09,.06-.24,.06h-.31l-.14-.02,.02-.27h.12s.08,0,.08,0h.18s.1-.06,.1-.06l.06-.05v-.07s0-.03,0-.03l-.02-.04-.03-.03-.06-.03-.07-.02h-.15Zm3.12-.62l-.22,.18-.2,.11-.21,.06h-.22s-.19,0-.19,0l-.28-.1-.12-.08-.09-.1-.1-.25-.02-.15,.02-.17,.06-.15,.08-.14,.12-.11,.13-.08,.15-.05,.14-.03,.22-.03,.43-.07,.26-.08v-.24l-.06-.17-.06-.06-.07-.06-.23-.08h-.14s-.14,0-.14,0l-.21,.06-.07,.03-.06,.07-.1,.18-.04,.13-.37-.06,.03-.12,.07-.22,.06-.08,.06-.08,.17-.13,.11-.03,.24-.08,.28-.03,.28,.03,.21,.06,.17,.08,.1,.1,.08,.13,.04,.16,.02,.14v1.31l.02,.22,.04,.14,.06,.14h-.41l-.06-.14-.02-.17h0Zm-.03-.92l-.25,.09-.39,.07-.22,.03-.13,.04-.09,.06-.06,.08-.05,.09v.1s0,.08,0,.08l.06,.14,.05,.07,.06,.05,.17,.05h.23l.19-.05,.09-.05,.09-.05,.13-.15,.04-.08,.06-.16v-.25s0-.15,0-.15h0Zm-1.27-1.57v-.12l.07-.19,.06-.08,.06-.06,.15-.08h.1l.14,.03,.22,.1,.12,.05h.09s.06,0,.06,0l.06-.03,.02-.07,.02-.1h.27v.13l-.06,.19-.06,.08-.06,.06-.16,.07h-.09l-.14-.03-.21-.1-.14-.07-.08-.02h-.07s-.05,.05-.05,.05l-.04,.08v.09h-.29Zm2.12,1.58v-.17l.05-.29,.09-.25,.13-.2,.09-.08,.16-.13,.36-.14,.22-.03,.22,.03,.39,.17,.16,.14,.07,.08,.1,.19,.11,.36v.28s0,.22,0,.22l-.07,.37-.06,.15-.08,.12-.18,.21-.13,.08-.13,.08-.28,.07h-.38s-.39-.18-.39-.18l-.16-.14-.07-.08-.11-.2-.1-.37v-.29h0Zm.41,0v.22l.1,.36,.09,.12,.1,.12,.25,.12h.15s.14,0,.14,0l.25-.12,.1-.12,.09-.12,.1-.36v-.45l-.1-.35-.09-.13-.11-.11-.23-.12h-.14s-.15,0-.15,0l-.25,.12-.1,.11-.09,.13-.1,.35v.23h0Zm5.01,.44l.4,.05-.06,.18-.18,.29-.12,.12-.14,.09-.33,.1h-.44s-.3-.13-.3-.13l-.18-.12-.07-.08-.07-.08-.11-.19-.1-.36v-.29s0-.3,0-.3l.1-.36,.11-.2,.08-.09,.16-.15,.38-.17,.23-.03,.21,.03,.38,.17,.15,.14,.06,.09,.12,.19,.1,.36,.02,.29v.11h-1.72l.02,.2,.1,.3,.09,.12,.1,.1,.24,.11h.14s.1,0,.1,0l.18-.06,.08-.06,.08-.06,.12-.19,.05-.12h0Zm-1.28-.68h1.28l-.02-.15-.06-.23-.06-.08-.1-.1-.23-.13h-.15s-.13,0-.13,0l-.22,.09-.1,.08-.09,.11-.1,.25-.02,.15h0Zm2.17,1.46v-2.44h.34v.35l.06-.1,.15-.14,.09-.05,.09-.05,.21-.05,.11-.02,.13,.02,.2,.05,.09,.05,.08,.06,.12,.16,.03,.09,.08-.09,.15-.17,.18-.1,.19-.05,.11-.02,.17,.02,.25,.1,.1,.09,.09,.1,.09,.31v.2s0,1.68,0,1.68h-.38v-1.76s-.04-.14-.04-.14l-.05-.1-.09-.08-.1-.05h-.13s-.12,0-.12,0l-.21,.08-.08,.07-.08,.09-.08,.29v1.59h-.39v-1.72s-.05-.21-.05-.21l-.05-.07-.05-.07-.16-.07h-.26s-.15,.09-.15,.09l-.06,.04-.11,.14-.02,.09-.06,.19v.31s0,1.26,0,1.26h-.38Zm4.76-.73l.39-.07,.02,.12,.09,.19,.07,.08,.08,.06,.22,.07h.13s.13,0,.13,0l.19-.06,.07-.05,.06-.06,.07-.14v-.14l-.06-.12-.05-.04-.11-.06-.29-.08-.38-.11-.21-.08-.08-.05-.13-.12-.05-.08-.07-.14-.02-.18v-.15s.06-.14,.06-.14l.1-.14,.1-.09,.1-.07,.15-.05,.17-.04,.18-.02,.25,.03,.22,.06,.1,.05,.15,.11,.06,.07,.09,.16,.04,.22-.37,.06-.02-.09-.08-.14-.06-.07-.06-.03-.18-.06h-.12s-.13,0-.13,0l-.18,.04-.07,.04-.05,.05-.06,.11v.14s.05,.06,.05,.06l.05,.07,.1,.05,.1,.03,.25,.07,.37,.12,.21,.07,.08,.04,.13,.12,.05,.06,.04,.08,.05,.18v.2l-.06,.2-.05,.09-.07,.08-.15,.14-.11,.05-.11,.04-.24,.05h-.34l-.35-.1-.13-.09-.1-.11-.15-.29-.04-.19h0Zm3.87,.42l-.21,.18-.21,.11-.21,.06h-.22s-.18,0-.18,0l-.29-.1-.11-.08-.1-.1-.1-.25v-.15s0-.17,0-.17l.07-.15,.09-.14,.11-.11,.14-.08,.14-.05,.14-.03,.21-.03,.43-.07,.26-.08v-.24l-.06-.17-.06-.06-.07-.06-.23-.08h-.14s-.14,0-.14,0l-.2,.06-.08,.03-.06,.07-.1,.18-.03,.13-.38-.06,.03-.12,.09-.22,.05-.08,.06-.08,.17-.13,.11-.03,.25-.08,.28-.03,.28,.03,.2,.06,.16,.08,.11,.1,.08,.13,.04,.16,.02,.14v1.31s.03,.22,.03,.22l.03,.14,.06,.14h-.41l-.06-.14-.02-.17h0Zm-.03-.92l-.25,.09-.39,.07-.22,.03-.12,.04-.1,.06-.06,.08-.05,.09v.1s0,.08,0,.08l.06,.14,.05,.07,.06,.05,.17,.05h.23l.19-.05,.09-.05,.09-.05,.13-.15,.06-.08,.05-.16v-.25s0-.15,0-.15h0Zm2.5,1.23v-.36l-.07,.09-.15,.16-.18,.1-.21,.05h-.32s-.18-.08-.18-.08l-.16-.08-.1-.13-.08-.13-.05-.18-.02-.14v-1.75h.4v1.63l.02,.16,.02,.07,.07,.13,.06,.05,.06,.04,.15,.05h.18l.17-.05,.06-.04,.08-.05,.11-.13,.04-.08,.05-.19v-.29s0-1.3,0-1.3h.39v2.44h-.35Zm-.81-2.74l.28-.64h.52l-.48,.64h-.32Zm3.26,2.74v-.31l-.06,.09-.13,.14-.16,.09-.19,.04h-.23l-.25-.08-.12-.07-.11-.08-.18-.23-.07-.14-.06-.14-.07-.34v-.36l.06-.33,.05-.16,.07-.14,.17-.23,.11-.08,.11-.07,.26-.08,.14-.02,.1,.02,.18,.04,.09,.04,.15,.1,.1,.14v-1.21h.39v3.37h-.36Zm-1.23-1.22v.23l.1,.35,.09,.12,.09,.12,.23,.12h.12s.13,0,.13,0l.22-.12,.1-.1,.08-.12,.09-.34v-.22s0-.25,0-.25l-.09-.36-.09-.13-.09-.1-.23-.13h-.13s-.13,0-.13,0l-.21,.12-.1,.1-.08,.13-.09,.36v.23h0Z"/>
  <path class="cls-1" d="M81.96,57.14l.36,.04-.06,.13-.15,.21-.11,.09-.12,.07-.29,.07h-.39s-.27-.09-.27-.09l-.15-.09-.07-.06-.06-.06-.09-.14-.1-.27v-.21s0-.22,0-.22l.1-.27,.09-.15,.07-.07,.14-.11,.34-.12,.2-.02,.19,.02,.34,.12,.13,.11,.06,.07,.11,.14,.09,.27v.21s0,.04,0,.04v.04h-1.52l.02,.15,.09,.22,.08,.09,.09,.07,.21,.08h.13s.09,0,.09,0l.15-.04,.07-.04,.07-.04,.11-.14,.04-.09h0Zm-1.13-.5h1.13v-.11s-.08-.17-.08-.17l-.05-.06-.09-.07-.2-.09h-.13s-.11,0-.11,0l-.2,.07-.08,.06-.08,.08-.08,.19v.11h-.01Z"/>
</svg>