<?xml version="1.0" encoding="UTF-8"?>
<svg id="Camada_1" data-name="Camada 1" xmlns="http://www.w3.org/2000/svg" viewBox="0 0 100 100">
  <defs>
    <style>
      .cls-1 {
        fill: #fff;
        fill-rule: evenodd;
      }
    </style>
  </defs>
  <path class="cls-1" d="M49.3,55.46h2.1v-5.38l.14,.21,.25,.4,.31,.58,.35,.65,.37,.65,.34,.61,.28,.51,.19,.33,.12,.18,.11,.22,.09,.19,.11,.18,.08,.1,.08,.1,.09,.09,.09,.1,.09,.06,.09,.07,.11,.06,.14,.04,.11,.06,.14,.03,.12,.03h.14s.12,.01,.12,.01h.15l.14-.04,.14-.03,.15-.03,.12-.06,.09-.07,.11-.04,.08-.07,.08-.09,.08-.09,.06-.09,.06-.21,.06-.22,.02-.25,.02-.3,.03-.55v-2.33l-.03-.59v-1.68l.03-.64v-.62l-.03-.51h-2.1v5.17l-.12-.18-.11-.21-.11-.19-.11-.19-.32-.56-.34-.58-.31-.59-.34-.59-.32-.56-.35-.62-.11-.16-.09-.15-.11-.12-.12-.13-.12-.1-.12-.09-.14-.07-.12-.04-.14-.04-.12-.03h-.14s-.15-.01-.15-.01h-.12s-.12,.01-.12,.01l-.14,.03-.12,.04-.14,.03-.11,.06-.11,.07-.12,.06-.09,.07-.09,.12-.08,.09-.06,.1-.06,.12-.06,.13-.02,.12-.02,.1-.02,.25v7.09h0Zm18.68-6.77h3.35v-1.65h-3.29s-.46,.03-.46,.03h-.28s-.19,.07-.19,.07l-.17,.06-.14,.06-.12,.12-.12,.09-.09,.12-.06,.13-.06,.13-.05,.15-.03,.16-.03,.16-.03,.16-.02,.34v5.05l.02,.22,.05,.22,.03,.19,.09,.19,.09,.18,.15,.16,.08,.07,.08,.07,.09,.04,.09,.04,.2,.07,.23,.04h.23s.25,.04,.25,.04h1.56s.49,.01,.49,.01h1.25s.15-.01,.15-.01v-1.66h-3.36l.02-1.92h.25s.37-.01,.37-.01h1.02s.49,.01,.49,.01h1.03v-1.62h-3.18l.02-1.57h0Zm-35.2-.13v6.91h1.8v-3.15h2.78v-1.66h-2.78v-1.59h3.41v-2.02h-3.8s-.14,.03-.14,.03h-.17s-.15,.06-.15,.06l-.12,.04-.15,.06-.09,.07-.09,.09-.09,.07-.08,.1-.08,.1-.05,.13-.06,.12-.06,.19-.03,.15v.13l-.02,.1-.03,.03h0Zm28.02,.33v6.6h1.77v-6.6h-1.77Zm-1.36-1.6h4.43l.12,.06,.14,.06,.11,.09,.08,.1,.08,.1,.03,.13,.02,.13v.92h-5.69v-.94l.02-.12,.05-.13,.05-.12,.09-.09,.11-.09,.12-.06,.12-.06h.14Zm-16.03,1.63l.23,.03,.22,.03,.22,.07,.19,.09,.2,.1,.17,.13,.17,.13,.17,.16,.12,.18,.14,.22,.11,.19,.09,.24,.08,.24,.05,.24,.03,.25,.02,.28-.02,.27-.03,.25-.05,.24-.08,.24-.09,.22-.11,.21-.14,.21-.12,.18-.17,.18-.17,.13-.17,.13-.2,.1-.19,.09-.22,.06-.22,.04h-.45l-.23-.04-.2-.06-.2-.09-.2-.1-.15-.13-.17-.13-.17-.18-.14-.18-.12-.21-.11-.21-.09-.22-.08-.24-.06-.24-.02-.25-.02-.27,.02-.28,.02-.25,.06-.24,.08-.24,.09-.24,.11-.19,.12-.22,.14-.18,.17-.16,.17-.13,.15-.13,.2-.1,.2-.09,.2-.07,.23-.03,.22-.03h0Zm-.11-1.81h.23l.22,.03,.23,.03,.22,.03,.2,.04,.22,.07,.2,.06,.19,.07,.2,.09,.2,.09,.19,.12,.17,.12,.15,.1,.17,.15,.15,.13,.17,.15,.12,.15,.15,.16,.14,.16,.11,.18,.11,.18,.11,.18,.09,.19,.09,.18,.08,.22,.08,.19,.06,.22,.03,.19,.05,.24,.03,.21,.02,.22v.45l-.02,.24-.03,.21-.05,.22-.03,.21-.06,.22-.08,.19-.08,.19-.09,.21-.09,.19-.11,.18-.11,.18-.11,.16-.14,.18-.15,.16-.12,.15-.17,.13-.15,.15-.17,.12-.15,.13-.17,.1-.19,.1-.2,.12-.2,.09-.19,.07-.2,.06-.22,.06-.2,.06-.22,.03-.23,.03-.22,.03h-.46l-.2-.03-.22-.03-.23-.03-.2-.06-.22-.06-.2-.06-.19-.07-.2-.09-.19-.12-.19-.1-.17-.1-.17-.13-.17-.12-.17-.15-.15-.13-.12-.15-.15-.16-.12-.18-.12-.16-.11-.18-.11-.18-.09-.19-.09-.21-.08-.19-.08-.19-.06-.22-.03-.21-.03-.22-.05-.21-.02-.24v-.45l.02-.22,.05-.21,.03-.24,.03-.19,.06-.22,.08-.19,.08-.22,.09-.18,.09-.19,.11-.18,.11-.18,.12-.18,.12-.16,.15-.16,.12-.15,.15-.15,.17-.13,.17-.15,.17-.1,.17-.12,.19-.12,.19-.09,.2-.09,.19-.07,.2-.06,.22-.07,.2-.04,.23-.03,.22-.03,.2-.03h.23Zm30.27,8.5v-1.9h3.96l.15-.06,.11-.04,.09-.07,.08-.09,.02-.1,.02-.12-.02-.12-.06-.13-.06-.1-.09-.12-.12-.12-.14-.1-.17-.09-.17-.07-.2-.04-.48-.09-.45-.12-.4-.12-.39-.13-.35-.12-.31-.16-.15-.09-.12-.09-.14-.09-.12-.09-.12-.1-.09-.12-.09-.12-.09-.12-.05-.13-.08-.15-.05-.13-.05-.16-.02-.16-.03-.16-.02-.19,.02-.18v-.21l.05-.21,.03-.22,.06-.22,.05-.18,.09-.16,.12-.15,.14-.15,.17-.12,.17-.1,.19-.12,.22-.09,.2-.06,.19-.07,.2-.06,.19-.06,.32-.04h.26s3.44-.04,3.44-.04v1.59h-3.38s-.22,.04-.22,.04l-.19,.06-.17,.07-.11,.09-.11,.1-.08,.1-.03,.13v.24l.05,.1,.08,.1,.11,.09,.15,.07,.17,.06,.2,.03,.32,.06,.29,.03,.28,.06,.28,.07,.26,.06,.25,.07,.25,.09,.22,.09,.22,.12,.2,.09,.2,.12,.17,.1,.19,.13,.15,.12,.15,.13,.14,.13,.09,.13,.11,.12,.06,.15,.06,.15,.06,.13,.03,.15,.03,.15,.03,.13,.02,.15v.16l-.02,.15-.03,.13-.02,.16-.05,.15-.06,.13-.06,.15-.06,.15-.11,.13-.11,.13-.11,.12-.11,.13-.14,.12-.15,.13-.15,.1-.17,.1-.19,.09-.22,.09-.2,.07-.23,.09-.22,.06-.25,.04-.26,.06-3.53,.09h0Z"/>
  <path class="cls-1" d="M32.91,57.83l.02,.15,.02,.17,.03,.15,.02,.18v2.06h.5v-1.66l.03-.17,.03-.14,.06-.14,.03-.05,.06-.06,.03-.03,.06-.05,.08-.03,.06-.05,.11-.02h.2l.09,.02,.08,.03,.08,.02,.05,.03,.06,.06,.03,.05,.05,.06,.03,.15,.02,.14v1.83h.51v-1.62l.02-.15,.02-.15,.06-.14,.02-.06,.06-.06,.03-.05,.06-.06,.08-.03,.08-.02,.09-.03,.11-.02h.2l.09,.02,.08,.05,.06,.03,.03,.05,.06,.05,.02,.08,.03,.14,.03,.15,.02,.17v1.66h.51v-1.62l-.03-.34-.02-.26-.05-.18-.06-.09-.08-.08-.09-.08-.09-.05-.14-.06-.12-.02-.15-.02h-.14l-.22,.02-.19,.05-.09,.05-.08,.05-.08,.06-.05,.06-.05,.03-.03,.06-.08,.08-.12-.15-.15-.15-.09-.08-.14-.03-.14-.03h-.36l-.14,.03-.12,.03-.11,.06-.09,.06-.11,.09-.06,.08-.05,.06-.03-.18-.05-.17h-.48Zm-7.38,.35l.11-.03h.09l.09,.02,.09,.02,.08,.03,.08,.05,.06,.06,.05,.05,.09,.14,.08,.17,.06,.18,.02,.17,.02,.2-.02,.18-.03,.18-.06,.17-.08,.17-.09,.12-.06,.06-.06,.05-.08,.03-.08,.02-.11,.02h-.19l-.08-.02-.09-.03-.06-.05-.08-.05-.05-.06-.12-.12-.08-.17-.05-.17-.05-.18-.02-.21,.02-.18,.05-.18,.05-.18,.09-.14,.12-.14,.05-.06,.08-.03,.08-.03,.08-.03h0Zm-1.15-.35l.03,.49,.03,.47v.49l.02,.47v.49l-.02,.47v.96l.5-.02v-1.45l.14,.12,.12,.12,.14,.08,.14,.06,.15,.03h.31l.12-.03,.15-.06,.12-.08,.14-.09,.11-.11,.11-.14,.08-.14,.08-.17,.05-.21,.05-.2v-.4l-.02-.17-.05-.15-.05-.15-.06-.12-.08-.14-.08-.11-.09-.11-.11-.09-.11-.08-.12-.06-.12-.05-.12-.02-.14-.03-.15,.03-.14,.02-.09,.03-.09,.05-.08,.03-.08,.06-.15,.12-.05,.09-.05,.02-.02-.18-.03-.17h-.5Zm46.75,.66l.06-.02h.12l.05,.02,.12,.05,.09,.08,.05,.11,.06,.14,.03,.12,.05,.17v.15l-.02,.17-.03,.14-.03,.14-.06,.12-.08,.12-.06,.06-.12,.06-.08,.02h-.12l-.08-.02-.09-.06-.09-.09-.08-.11-.03-.12-.05-.15-.02-.12-.02-.17,.02-.15,.02-.17,.05-.12,.05-.14,.08-.09,.09-.08,.12-.05h0Zm.62,0l-.06-.08-.08-.09-.06-.06-.05-.03-.08-.05-.09-.03h-.17l-.15,.02-.12,.05-.11,.06-.09,.08-.08,.12-.08,.11-.06,.12-.05,.15-.03,.15-.02,.14-.02,.15v.17l.02,.14,.05,.15,.05,.15,.06,.12,.08,.12,.09,.11,.11,.08,.11,.05,.15,.05,.15,.02,.14-.02,.09-.05,.09-.03,.06-.06,.06-.05,.08-.12,.02-.03,.03,.29h.34l-.03-.37v-2.72h-.36v1.19h0Zm-21.14,.7v.21l-.02,.23-.02,.11-.05,.09-.06,.08-.05,.08-.08,.06-.08,.05-.09,.03-.12,.03h-.09l-.09-.03-.11-.02-.06-.03-.06-.05-.06-.05-.03-.06-.02-.06-.02-.05v-.08l.02-.06,.02-.08,.03-.05,.06-.06,.06-.05,.06-.06,.2-.08,.2-.05,.22-.05,.23-.03h0Zm-1.04-.49l.05-.09,.03-.08,.06-.06,.08-.05,.08-.03,.11-.05h.22l.12,.02,.09,.05,.06,.06,.06,.05,.06,.08,.02,.09v.09l-.02,.11-.26,.06-.28,.06-.26,.05-.25,.09-.11,.06-.09,.06-.09,.06-.08,.09-.05,.09-.03,.12-.02,.11v.12l.02,.12,.03,.09,.05,.09,.05,.08,.08,.05,.08,.06,.09,.03,.09,.05,.19,.03,.22,.02,.19-.03,.17-.05,.11-.05,.08-.08,.08-.08,.06-.09,.05,.29h.4l-.03-.11-.02-.12v-.15l-.02-.15v-.31l.02-.34v-.31l-.05-.29-.02-.12-.03-.11-.05-.09-.08-.08-.05-.06-.09-.03-.11-.05-.12-.03-.12-.02-.14-.02h-.28l-.12,.03-.14,.03-.12,.06-.12,.08-.09,.09-.06,.11-.06,.14-.05,.14h.43Zm19.1,.41h-1.21v-.11l.06-.14,.06-.11,.03-.09,.09-.09,.11-.06,.12-.03,.12-.02h.14l.11,.03,.11,.06,.09,.09,.06,.09,.06,.11,.03,.12v.14h0Zm.37,.79l-.37-.05-.06,.08-.05,.09-.08,.06-.09,.06-.14,.03h-.26l-.11-.03-.11-.06-.09-.06-.06-.08-.08-.09-.03-.09-.05-.11-.02-.12v-.14h1.66l.02-.09v-.11l-.02-.14-.02-.11-.08-.21-.08-.17-.11-.14-.14-.12-.08-.06-.09-.03-.11-.05-.11-.02-.14-.02h-.22l-.12,.02-.11,.05-.09,.03-.09,.06-.08,.05-.08,.06-.06,.08-.06,.09-.06,.08-.09,.18-.05,.2-.03,.2v.21l.03,.2,.05,.18,.09,.18,.14,.17,.05,.08,.09,.05,.08,.06,.09,.06,.12,.03,.11,.02,.11,.03,.11,.02,.12-.02h.09l.11-.03,.11-.03,.09-.05,.09-.05,.08-.06,.08-.05,.08-.08,.06-.09,.03-.08,.02-.09h0Zm10.54-.52l-.03,.17-.05,.17-.06,.14-.09,.12-.06,.05-.05,.06-.06,.03-.08,.03-.08,.02-.06,.02-.09-.02-.11-.02-.05-.03-.08-.03-.06-.05-.05-.05-.09-.14-.06-.12-.06-.17-.03-.18v-.37l.03-.21,.08-.15,.08-.15,.09-.11,.11-.08,.12-.06,.12-.02,.11,.02,.14,.05,.11,.05,.09,.12,.09,.12,.06,.15,.06,.18,.02,.21-.02,.24h0Zm-.76-1.5l-.12,.03-.12,.03-.09,.05-.09,.06-.09,.06-.09,.06-.05,.09-.08,.09-.06,.11-.06,.11-.03,.11-.02,.12-.05,.14v.12l-.02,.15,.02,.14v.12l.05,.12,.02,.12,.06,.11,.03,.11,.06,.11,.08,.11,.06,.09,.08,.06,.09,.06,.09,.06,.12,.05,.09,.05,.12,.02h.11l.14-.02,.12-.02,.09-.05,.12-.03,.09-.06,.08-.08,.09-.08,.05-.06,.08-.12,.06-.09,.03-.11,.05-.11,.03-.14,.03-.23v-.29l-.02-.12-.02-.14-.03-.11-.05-.11-.03-.11-.06-.12-.08-.09-.08-.06-.06-.09-.09-.06-.11-.06-.09-.05-.11-.05-.11-.02h-.25Zm-15.65,1.74h-.4l-.03,.12-.03,.11-.06,.12-.06,.06-.11,.05-.11,.03-.11,.03-.11-.03-.12-.03-.11-.06-.11-.09-.09-.12-.06-.17-.03-.17v-.2l.02-.21,.03-.2,.08-.17,.06-.09,.08-.05,.05-.06,.09-.03,.09-.05,.12-.02,.09,.02,.11,.02,.09,.06,.08,.06,.06,.11,.05,.11v.06l.02,.02v.03h.42l-.02-.09-.02-.09-.05-.09-.03-.09-.05-.08-.06-.08-.06-.06-.08-.06-.08-.03-.09-.06-.09-.02-.09-.02-.11-.03h-.11l-.12,.03-.12,.02-.09,.02-.09,.03-.08,.06-.08,.06-.15,.11-.11,.15-.08,.15-.08,.2-.03,.18v.38l.03,.2,.08,.17,.09,.17,.12,.15,.14,.12,.08,.05,.09,.05,.09,.02,.11,.05,.12,.02h.22l.11-.02,.12-.05,.09-.02,.09-.05,.08-.05,.11-.11,.11-.17,.05-.09,.03-.09,.02-.11v-.09h0Zm12.72-1.51h-.37l-.02,.31h.39l-.02,.35-.02,.49v.82l.02,.09,.03,.08,.05,.05,.06,.06,.05,.06,.06,.03,.09,.02,.17,.05h.2l.2-.05,.17-.05v-.34l-.12,.03-.14,.05h-.2l-.08-.05-.03-.03-.05-.05-.02-.06-.02-.06v-.89l.02-.29v-.32h.6v-.31h-.6l.02-.69h-.4l-.05,.69h0Zm-10.77,.46v-.11l-.02-.12v-.11l-.03-.11h-.4l.02,.57,.03,.58v1.15h.42l-.02-.5v-.55l.02-.27,.06-.24,.06-.11,.03-.09,.08-.08,.08-.08,.09-.06,.09-.02h.17l.14,.06,.12,.03v-.38l-.14-.06-.12-.02-.14,.02-.11,.05-.11,.06-.09,.08-.08,.09-.08,.12-.03,.05-.05,.06h0Zm8.68,1.97h.48v-2.5h-.46l-.02,.08v2.43h0Zm-5.96-2.99h.23l.08-.05,.14-.14,.34-.29h-.36l-.05,.02h-.02l-.02,.03-.36,.43h0Zm6.16-.57l-.06,.02-.05,.03-.05,.06-.02,.03-.02,.06v.09l.02,.06,.05,.03,.02,.05,.03,.03,.06,.03,.05,.03h.14l.06-.03,.05-.02,.06-.03,.03-.05,.02-.05,.03-.06v-.09l-.03-.06-.02-.03-.03-.06-.05-.03-.03-.02-.06-.02-.05-.03-.08,.03-.08,.02h0Zm-15.41,2.12h-1.22l.02-.11,.05-.14,.05-.11,.06-.09,.09-.09,.11-.06,.11-.03,.14-.02h.11l.14,.03,.11,.06,.09,.09,.06,.09,.05,.11,.05,.12v.14h0Zm.37,.79l-.37-.05-.06,.08-.06,.09-.06,.06-.12,.06-.11,.03h-.26l-.12-.03-.09-.06-.11-.06-.06-.08-.06-.09-.03-.09-.05-.11-.02-.12-.02-.14h1.66l.03-.09v-.11l-.03-.14-.02-.11-.08-.21-.06-.17-.12-.14-.12-.12-.09-.06-.08-.03-.11-.05-.12-.02-.12-.02h-.25l-.09,.02-.11,.05-.09,.03-.09,.06-.08,.05-.08,.06-.08,.08-.05,.09-.06,.08-.09,.18-.06,.2-.03,.2v.21l.03,.2,.06,.18,.09,.18,.11,.17,.08,.08,.08,.05,.09,.06,.09,.06,.11,.03,.12,.02,.11,.03,.09,.02,.11-.02h.11l.12-.03,.09-.03,.11-.05,.09-.05,.08-.06,.08-.05,.08-.08,.03-.09,.06-.08,.02-.09h0Zm-4.58-1.42l.08-.02h.14l.05,.02,.12,.05,.08,.08,.06,.11,.06,.14,.03,.12,.03,.17v.32l-.03,.14-.05,.14-.05,.12-.06,.12-.11,.06-.09,.06-.06,.02h-.15l-.06-.02-.11-.06-.08-.09-.08-.11-.05-.12-.05-.15-.02-.12v-.32l.03-.17,.05-.12,.06-.14,.06-.09,.08-.08,.11-.05h0Zm.65,0l-.06-.08-.08-.09-.05-.06-.08-.03-.08-.05-.09-.03h-.15l-.15,.02-.12,.05-.11,.06-.09,.08-.09,.12-.06,.11-.06,.12-.05,.15-.05,.15-.02,.14v.32l.02,.14,.05,.15,.03,.15,.08,.12,.08,.12,.09,.11,.09,.08,.12,.05,.15,.05,.15,.02,.14-.02,.09-.05,.08-.03,.08-.06,.06-.05,.08-.12,.02-.03,.03,.29h.34l-.03-.37-.03-.38v-.41l.03-.37v-1.27l-.03-.29h-.32v1.19h0Zm-10.09,.9l-.03,.17-.05,.17-.06,.14-.09,.12-.05,.05-.05,.06-.08,.03-.08,.03-.06,.02-.09,.02-.08-.02-.09-.02-.08-.03-.05-.03-.06-.05-.05-.05-.11-.14-.06-.12-.05-.17-.03-.18-.02-.18,.02-.18,.03-.21,.06-.15,.08-.15,.11-.11,.09-.08,.12-.06,.12-.02,.12,.02,.11,.05,.12,.05,.11,.12,.08,.12,.08,.15,.03,.18,.02,.21v.24h0Zm-.76-1.5l-.12,.03-.11,.03-.11,.05-.09,.06-.09,.06-.08,.06-.08,.09-.06,.09-.05,.11-.06,.11-.03,.11-.05,.12-.02,.14-.02,.12v.29l.02,.12,.02,.12,.05,.12,.03,.11,.06,.11,.05,.11,.06,.11,.08,.09,.09,.06,.08,.06,.11,.06,.09,.05,.11,.05,.12,.02h.12l.14-.02,.11-.02,.11-.05,.09-.03,.09-.06,.09-.08,.08-.08,.08-.06,.06-.12,.05-.09,.06-.11,.03-.11,.05-.14,.03-.23v-.29l-.02-.12-.02-.14-.05-.11-.03-.11-.06-.11-.05-.12-.06-.09-.08-.06-.08-.09-.09-.06-.09-.06-.09-.05-.11-.05-.11-.02h-.26Zm-2.91,.23h-.39v.31h.39l-.02,.35-.02,.49-.03,.44v.31l.03,.08,.02,.09,.03,.08,.05,.05,.03,.06,.06,.06,.08,.03,.06,.02,.2,.05h.2l.2-.05,.15-.05,.02-.34-.12,.03-.15,.05h-.2l-.06-.05-.06-.03-.03-.05-.02-.06-.03-.06v-.29l.03-.31v-.58l.02-.32h.57l.03-.31h-.6l.02-.69h-.43l-.02,.69h0Zm5.94,.46v-.11l-.02-.12v-.11l-.05-.11h-.39l.02,.57,.02,.58v1.15h.43l-.02-.5v-.55l.02-.27,.06-.24,.05-.11,.05-.09,.08-.08,.06-.08,.09-.06,.09-.02h.17l.15,.06,.11,.03v-.38l-.12-.06-.14-.02-.12,.02-.11,.05-.12,.06-.09,.08-.08,.09-.06,.12-.05,.05-.03,.06h0Zm-18.99,0v-.23l-.02-.11-.03-.11h-.4l.03,.57,.02,.58v1.15h.43l-.03-.5v-.55l.05-.27,.05-.24,.05-.11,.06-.09,.05-.08,.08-.08,.09-.06,.09-.02h.19l.15,.06,.09,.03v-.38l-.14-.06-.12-.02-.12,.02-.12,.05-.11,.06-.09,.08-.08,.09-.08,.12-.03,.05-.05,.06h0Zm11.16,.81l-.02,.17-.06,.17-.08,.14-.08,.12-.05,.05-.06,.06-.08,.03-.06,.03-.06,.02-.08,.02-.09-.02-.09-.02-.06-.03-.08-.03-.05-.05-.06-.05-.09-.14-.06-.12-.05-.17-.05-.18v-.37l.05-.21,.05-.15,.09-.15,.09-.11,.12-.08,.11-.06,.11-.02,.14,.02,.11,.05,.11,.05,.11,.12,.08,.12,.08,.15,.06,.18,.02,.21-.02,.24h0Zm-.76-1.5l-.12,.03-.11,.03-.09,.05-.12,.06-.08,.06-.09,.06-.06,.09-.06,.09-.06,.11-.05,.11-.05,.11-.03,.12-.02,.14v.12l-.03,.15,.03,.14v.12l.03,.12,.02,.12,.05,.11,.05,.11,.06,.11,.08,.11,.08,.09,.06,.06,.09,.06,.11,.06,.09,.05,.11,.05,.12,.02h.12l.12-.02,.11-.02,.12-.05,.11-.03,.09-.06,.08-.08,.08-.08,.06-.06,.08-.12,.06-.09,.03-.11,.05-.11,.03-.14,.05-.23v-.29l-.03-.12-.02-.14-.03-.11-.05-.11-.03-.11-.06-.12-.08-.09-.06-.06-.08-.09-.09-.06-.09-.06-.09-.05-.12-.05-.11-.02h-.25Zm-7.09,1.5l-.03,.17-.05,.17-.08,.14-.08,.12-.06,.05-.05,.06-.08,.03-.06,.03-.08,.02-.09,.02-.06-.02-.11-.02-.05-.03-.08-.03-.06-.05-.05-.05-.09-.14-.08-.12-.05-.17-.03-.18v-.37l.03-.21,.06-.15,.09-.15,.09-.11,.11-.08,.12-.06,.11-.02,.12,.02,.12,.05,.11,.05,.11,.12,.08,.12,.08,.15,.03,.18,.05,.21-.02,.24h0Zm-.76-1.5l-.12,.03-.12,.03-.09,.05-.11,.06-.08,.06-.09,.06-.08,.09-.05,.09-.06,.11-.06,.11-.03,.11-.03,.12-.03,.14-.02,.12v.29l.02,.12,.03,.12,.03,.12,.03,.11,.06,.11,.06,.11,.08,.11,.05,.09,.09,.06,.09,.06,.09,.06,.09,.05,.12,.05,.11,.02h.12l.14-.02,.11-.02,.11-.05,.09-.03,.09-.06,.11-.08,.06-.08,.08-.06,.08-.12,.06-.09,.03-.11,.05-.11,.03-.14,.03-.23v-.29l-.02-.12-.02-.14-.03-.11-.05-.11-.06-.11-.05-.12-.06-.09-.08-.06-.06-.09-.11-.06-.09-.06-.09-.05-.11-.05-.11-.02h-.25Z"/>
  <polygon class="cls-1" points="22.88 43.02 23.17 43.48 23.48 43.94 23.63 44.14 23.78 44.34 23.95 44.5 24.12 44.67 24.29 44.83 24.44 44.95 24.64 45.08 24.82 45.19 25.01 45.26 25.21 45.31 25.41 45.36 25.62 45.36 30.58 45.37 25.19 39.08 31.2 44.98 31.16 39.86 31.16 39.68 31.13 39.5 31.08 39.33 31.04 39.15 30.97 38.97 30.9 38.8 30.81 38.62 30.68 38.44 30.58 38.29 30.42 38.12 30.3 37.94 30.13 37.79 29.96 37.63 29.8 37.49 29.61 37.34 29.41 37.21 29.02 36.98 28.63 36.79 28.25 36.63 27.85 36.52 27.49 36.46 27.1 36.43 26.71 36.43 26.34 36.46 25.99 36.52 25.63 36.62 25.28 36.76 24.95 36.9 24.64 37.07 24.32 37.26 24.03 37.49 23.77 37.73 23.51 37.98 23.26 38.26 23.06 38.54 22.85 38.85 22.68 39.16 22.56 39.49 22.45 39.83 22.36 40.19 22.3 40.52 22.28 40.88 22.28 41.24 22.33 41.6 22.41 41.96 22.53 42.31 22.67 42.67 22.88 43.02 22.88 43.02 22.88 43.02"/>
  <polygon class="cls-1" points="34.92 37.13 34.47 37.46 34.04 37.79 33.86 37.94 33.67 38.11 33.5 38.27 33.36 38.45 33.22 38.61 33.1 38.79 33.01 38.97 32.92 39.15 32.86 39.36 32.79 39.54 32.78 39.75 32.78 39.96 33.1 44.8 38.94 39.14 33.53 45.37 38.59 45.01 38.74 45 38.91 44.97 39.08 44.91 39.26 44.85 39.43 44.77 39.6 44.69 39.77 44.58 39.94 44.48 40.1 44.34 40.27 44.21 40.4 44.06 40.56 43.89 40.71 43.71 40.84 43.53 40.97 43.35 41.08 43.13 41.28 42.76 41.45 42.35 41.56 41.98 41.64 41.6 41.7 41.22 41.7 40.84 41.68 40.48 41.62 40.12 41.53 39.75 41.42 39.44 41.27 39.09 41.1 38.78 40.91 38.48 40.68 38.18 40.45 37.91 40.2 37.67 39.93 37.45 39.65 37.22 39.34 37.04 39.03 36.86 38.71 36.71 38.37 36.61 38.03 36.52 37.68 36.46 37.35 36.43 37 36.43 36.64 36.45 36.29 36.52 35.94 36.61 35.6 36.76 35.26 36.92 34.92 37.13 34.92 37.13 34.92 37.13"/>
  <polygon class="cls-1" points="29.48 55.24 29.94 54.94 30.38 54.61 30.57 54.46 30.75 54.31 30.94 54.14 31.09 53.97 31.25 53.81 31.37 53.62 31.48 53.46 31.57 53.28 31.64 53.08 31.7 52.87 31.73 52.67 31.73 52.47 31.6 47.57 25.51 53.05 31.2 46.95 26.1 47.15 25.93 47.16 25.76 47.18 25.57 47.22 25.4 47.3 25.23 47.34 25.04 47.44 24.87 47.53 24.7 47.63 24.53 47.77 24.39 47.89 24.22 48.04 24.07 48.21 23.93 48.37 23.77 48.56 23.63 48.74 23.51 48.93 23.27 49.33 23.1 49.71 22.98 50.11 22.89 50.49 22.82 50.87 22.81 51.25 22.81 51.63 22.87 51.99 22.95 52.34 23.04 52.69 23.17 53.03 23.32 53.37 23.51 53.67 23.71 53.97 23.94 54.24 24.17 54.52 24.44 54.76 24.73 54.97 25.03 55.18 25.32 55.36 25.65 55.52 25.99 55.65 26.31 55.74 26.66 55.82 27.01 55.86 27.37 55.89 27.73 55.86 28.08 55.82 28.42 55.73 28.78 55.59 29.14 55.42 29.48 55.24 29.48 55.24 29.48 55.24"/>
</svg>