<?xml version="1.0" encoding="UTF-8"?>
<svg id="Camada_1" data-name="Camada 1" xmlns="http://www.w3.org/2000/svg" viewBox="0 0 100 100">
  <defs>
    <style>
      .cls-1 {
        fill: #fff;
      }
    </style>
  </defs>
  <path class="cls-1" d="M83.79,51.63c-.25-.73-.7-1.32-1.23-1.87-.9-.94-1.96-1.65-3.08-2.29-1.76-1.01-3.62-1.77-5.52-2.44-2.94-1.03-5.94-1.82-8.99-2.47-3.14-.67-6.3-1.21-9.49-1.61-1.73-.22-3.47-.42-5.21-.59-1.55-.16-3.11-.28-4.66-.4-1.4-.1-2.81-.19-4.22-.25-2-.09-4.01-.15-6.01-.22,0,0,0,0,0,.01-.2,0-.41,0-.61,0-1.82-.05-3.63-.03-5.45,.04-.45,.02-.81,.31-.88,.74-.06,.35,.12,.61,.46,.68,.79,.16,1.59,.31,2.38,.5,1.94,.46,3.88,.92,5.81,1.41,2.1,.53,4.18,1.15,6.23,1.84,1.68,.57,3.34,1.19,5,1.8,2.19,.8,4.36,1.69,6.47,2.69,2.42,1.15,4.76,2.44,6.93,4.03,1.44,1.05,2.77,2.22,3.87,3.63,.96,1.23,1.69,2.58,2.04,4.11,.16,.68,.56,1.19,1.23,1.45,.27,.11,.54,.13,.84,.05,1.47-.38,2.92-.81,4.35-1.31,1.66-.59,3.28-1.28,4.82-2.15,1.31-.74,2.54-1.58,3.56-2.7,.51-.56,.95-1.17,1.24-1.88,.37-.92,.44-1.86,.11-2.81Z"/>
  <path class="cls-1" d="M49.55,55.4c-.12,0-.19,.03-.25,.13-1.14,1.66-2.29,3.31-3.43,4.97-.02,.04-.05,.07-.11,.14,0-.13,0-.22,0-.3-.03-.42-.03-.85-.1-1.26-.06-.39-.28-.69-.68-.83,0,0-.01-.02-.01-.03,.2-.04,.4-.06,.58-.12,.62-.2,1.13-.55,1.34-1.2,.21-.65-.05-1.16-.71-1.35-.3-.08-.61-.12-.92-.13-.64-.02-1.27,0-1.91,0-.14,0-.2,.03-.24,.17-.55,1.65-1.1,3.3-1.66,4.95-.02,.05-.03,.11-.05,.17,.37,0,.72,0,1.07,0,.11,0,.15-.03,.19-.13,.19-.56,.38-1.13,.57-1.69q.12-.36,.5-.33c.43,.03,.68,.23,.72,.66,.04,.39,.02,.79,.03,1.19,0,.1,0,.19,0,.29,.04,0,.05,.01,.07,.01,.84,0,1.67,0,2.51,0,.05,0,.12-.05,.16-.09,.19-.29,.38-.58,.55-.87,.05-.09,.11-.13,.22-.13,.47,0,.95,0,1.42,0h.16v1.09h1.3c-.07-1.76-.15-3.51-.22-5.28-.38,0-.74,0-1.1,0Zm-5.88,2.19c.11-.32,.2-.6,.29-.88,.1-.31,.1-.31,.43-.31,.25,0,.5,0,.75,.03,.19,.02,.38,.07,.44,.29,.06,.23,0,.45-.19,.59-.13,.1-.3,.19-.46,.21-.41,.05-.82,.05-1.26,.07Zm5.94,.99h-1.14c.39-.63,.77-1.23,1.14-1.84v1.84Z"/>
  <path class="cls-1" d="M40.69,57.95s-.08-.02-.15-.04c.1-.03,.16-.04,.21-.06,.55-.18,.98-.49,1.16-1.06,.2-.61-.08-1.13-.71-1.28-.25-.06-.52-.08-.77-.09-.68-.01-1.37,0-2.05,0-.13,0-.19,.04-.23,.17-.55,1.65-1.11,3.31-1.66,4.96-.02,.05-.03,.1-.04,.15,.04,0,.06,.01,.09,.01,.81,0,1.62,0,2.43,0,.45,0,.9-.05,1.32-.23,.55-.24,.98-.6,1.16-1.19,.2-.66-.09-1.15-.76-1.31Zm-.77,1.51c-.13,.09-.29,.18-.44,.19-.48,.04-.96,.04-1.48,.06,.14-.43,.27-.82,.41-1.2,.01-.04,.08-.09,.13-.09,.35,0,.7-.01,1.05,0,.25,0,.48,.07,.58,.34,.08,.23-.02,.54-.26,.7Zm.45-2.21c-.15,.09-.33,.17-.5,.19-.36,.03-.72,0-1.1,0,.11-.33,.21-.64,.32-.95,.01-.04,.08-.08,.12-.08,.3,0,.61,0,.91,0,.2,0,.39,.06,.47,.27,.06,.18-.02,.45-.22,.56Z"/>
  <path class="cls-1" d="M25.97,55.37c-2.05-.39-4.03,1.31-3.96,3.47,.02,.75,.34,1.35,1.04,1.69,.35,.17,.73,.23,1.13,.25,.21-.02,.42-.03,.62-.08,1.5-.31,2.65-1.63,2.77-3.16,.08-1.12-.53-1.97-1.59-2.17Zm.28,2.13c-.05,.86-.39,1.56-1.14,2.02-.18,.11-.4,.18-.61,.22-.57,.1-1.06-.25-1.18-.82-.2-.96,.47-2.16,1.39-2.5,.24-.09,.49-.12,.74-.07,.47,.1,.76,.47,.8,1.02,0,.04,0,.08,0,.13Z"/>
  <path class="cls-1" d="M31.94,55.53c-.29-.08-.6-.11-.89-.12-.65-.02-1.29,0-1.94,0-.11,0-.16,.04-.19,.14-.56,1.66-1.12,3.33-1.68,4.99-.02,.05-.03,.1-.04,.16,.37,0,.72,0,1.07,0,.11,0,.15-.03,.19-.13,.19-.56,.38-1.13,.57-1.69q.12-.36,.5-.33c.42,.03,.66,.22,.72,.64,.04,.24,.03,.49,.04,.73,0,.25,0,.51,0,.77h1.25c0-.42,.02-.83,0-1.24-.03-.53-.2-.99-.75-1.21,0,0,0,0,0-.02,.15-.03,.3-.04,.45-.08,.64-.17,1.18-.5,1.44-1.14,.28-.69,.01-1.26-.71-1.46Zm-.76,1.77c-.1,.09-.24,.16-.37,.2-.44,.13-.89,.06-1.36,.08,.13-.39,.25-.75,.37-1.12,0-.03,.06-.05,.1-.05,.33,0,.67,0,1,.03,.19,.01,.38,.07,.44,.29,.06,.23-.01,.43-.19,.58Z"/>
  <path class="cls-1" d="M54.72,57.74c-.2-.1-.42-.16-.63-.24-.2-.07-.4-.11-.59-.2-.29-.13-.33-.4-.11-.64,.16-.17,.36-.24,.59-.26,.54-.06,1.01,.11,1.45,.39,.09,.06,.19,.13,.29,.2,.13-.38,.25-.75,.38-1.11-.77-.5-1.68-.66-2.55-.44-.64,.16-1.17,.48-1.46,1.1-.34,.73-.07,1.4,.68,1.69,.16,.06,.34,.11,.51,.16,.16,.05,.32,.08,.48,.15,.32,.14,.39,.41,.2,.7-.16,.24-.41,.37-.69,.43-.54,.11-1.03-.04-1.49-.32-.17-.11-.33-.23-.51-.36-.12,.35-.23,.69-.34,1.03-.02,.07-.03,.13,.05,.19,1.02,.74,2.47,.77,3.5,.08,.43-.29,.74-.67,.86-1.19,.14-.6-.06-1.06-.61-1.34Z"/>
  <path class="cls-1" d="M19.47,56.54s.1-.07,.15-.07c.42,0,.83,0,1.25,0,.38,0,.76,0,1.15,0,.12-.36,.24-.7,.36-1.06-.05,0-.08,0-.11,0-1.18,0-2.36,0-3.54,0-.12,0-.14,.07-.17,.15-.45,1.35-.9,2.71-1.36,4.06-.12,.35-.23,.7-.36,1.08,.39,0,.74,0,1.1,0,.11,0,.15-.04,.18-.14,.2-.61,.41-1.22,.62-1.84,.04-.12,.09-.16,.22-.16,.7,0,1.4,0,2.1,0,.05,0,.13-.02,.15-.05,.11-.31,.22-.62,.33-.96h-2.4c.12-.35,.22-.68,.34-1.01Z"/>
  <path class="cls-1" d="M37.29,56.49s.12-.03,.14-.06c.12-.33,.23-.66,.35-1-.03,0-.04-.01-.05-.01-1.38,0-2.77,0-4.15,0-.04,0-.11,.06-.12,.1-.1,.28-.2,.56-.29,.84-.01,.04-.02,.08-.03,.14h1.5c-.47,1.41-.94,2.79-1.41,4.2,.38,0,.73,0,1.08,0,.12,0,.17-.04,.21-.15,.44-1.31,.88-2.61,1.32-3.92,.04-.11,.09-.14,.2-.14,.42,0,.85,0,1.27,0Z"/>
  <path class="cls-1" d="M60.23,55.41h-1.24c-.59,1.75-1.18,3.5-1.77,5.28,1.23,0,2.43,0,3.63,0,.03,0,.09-.02,.1-.05,.12-.33,.23-.66,.35-1h-2.49c.48-1.42,.95-2.82,1.42-4.23Z"/>
  <path class="cls-1" d="M58.28,55.4c-.38,0-.74,0-1.1,0-.11,0-.15,.03-.19,.13-.33,.98-.66,1.95-.99,2.93-.25,.73-.5,1.47-.75,2.23,.37,0,.72,0,1.07,0,.14,0,.2-.04,.24-.17,.49-1.46,.98-2.92,1.47-4.38,.08-.24,.16-.48,.25-.74Z"/>
</svg>