<svg xmlns="http://www.w3.org/2000/svg" width="293.078" height="68.382" viewBox="0 0 293.078 68.382">
  <g id="logo_branco_" data-name="logo branco " transform="translate(-32.86 -32.52)">
    <path id="Caminho_10534" data-name="Caminho 10534" d="M221.053,84.9c0,.485.775.485.775.485H234.9c5.423,0,7.359,3.39,7.359,7.455s-1.936,7.455-7.359,7.455H208.856c-6.295,0-8.616-3.487-8.616-7.455,0-6.1,2.808-11.715,10.358-19.558L222.41,60.89c2.905-3,4.262-5.229,4.262-7.552,0-3.387-1.841-5.711-5.423-5.711-3,0-5.035,1.354-7.552,3.581a6.938,6.938,0,0,1-5.035,2.033c-3.581,0-7.938-3.487-7.938-7.649,0-2.711,1.451-4.357,3-6a24.357,24.357,0,0,1,17.525-7.068c14.136,0,21.2,8.519,21.2,20.719,0,5.035-2.421,10.843-8.134,16.944L224.058,81.028a24.81,24.81,0,0,0-2.808,3.387,1.192,1.192,0,0,0-.194.485Z" transform="translate(-128.757)" fill="#fff"/>
    <path id="Caminho_10535" data-name="Caminho 10535" d="M435.185,58.768a5.446,5.446,0,0,0,5.52-5.713c0-3.487-2.13-5.616-5.326-5.616-3,0-4.647,1.645-7.068,3.39a6.856,6.856,0,0,1-5.132,2.13c-3.583,0-7.94-3.293-7.94-7.455,0-2.614,1.936-5.035,3.487-6.68,3.68-3.678,8.522-6.292,16.653-6.292,13.167,0,21.107,7.938,21.107,19.459a16.59,16.59,0,0,1-5.517,12.878.988.988,0,0,0-.485.775c0,.291.194.485.485.775a17.177,17.177,0,0,1,6.68,13.845c0,11.327-8.037,20.43-22.267,20.43-11.233,0-16.362-5.81-18.589-8.231a8.325,8.325,0,0,1-2.132-5.132c0-3.1,3.874-7.647,8.037-7.647,1.548,0,2.808.288,5.326,2.709a10.554,10.554,0,0,0,7.359,3.39c3.872,0,6.389-2.517,6.389-6.486a6.328,6.328,0,0,0-6.68-6.583h-.969c-4.453,0-6.486-2.905-6.486-7.068s2.227-6.874,6.583-6.874h.967Z" transform="translate(-293.7 -0.008)" fill="#fff"/>
    <path id="Caminho_10536" data-name="Caminho 10536" d="M657.739,39.043c-.582,0-.87.194-.87.872V99.555c0,1.936-1.354,2.421-2.711,2.421s-2.711-.485-2.711-2.421V39.913c0-.678-.194-.872-.872-.872H632.567a2.175,2.175,0,0,1-2.227-2.421,2.175,2.175,0,0,1,2.227-2.421h43.18a2.175,2.175,0,0,1,2.227,2.421,2.175,2.175,0,0,1-2.227,2.421H657.739Z" transform="translate(-459.613 -1.292)" fill="#fff"/>
    <path id="Caminho_10537" data-name="Caminho 10537" d="M1056.25,91.105V34.66c0-1.551,1.161-2.13,2.421-2.13a2.154,2.154,0,0,1,2.421,2.13v55.77c0,4.357,1.645,5.711,5.616,5.711a1.91,1.91,0,0,1,2.033,2.132c0,1.742-1.066,2.421-3.2,2.421-5.132,0-9.295-2.227-9.295-9.585Z" transform="translate(-787.245 -0.008)" fill="#fff"/>
    <path id="Caminho_10538" data-name="Caminho 10538" d="M870.29,161.307a2.331,2.331,0,0,1,1.066,4.453,28.314,28.314,0,0,1-15.3,4.647c-15.975,0-19.267-8.616-19.267-23.624,0-13.266,2.614-23.624,18.589-23.624,13.166,0,18.2,7.262,18.2,20.237,0,2.905-.579,5.713-4.55,5.713H842.4c-.581,0-.775.291-.775.676.291,10.554,2.517,16.169,15.1,16.169a22.027,22.027,0,0,0,10.845-3.2c1.161-.678,2.033-1.454,2.711-1.454Zm-14.911-33.791c-10.94,0-13.748,6.2-13.748,16.265,0,.485.1.872.775.872h25.948c.388,0,.676-.1.676-.581C869.03,134.487,866.9,127.516,855.379,127.516Z" transform="translate(-618.425 -69.725)" fill="#fff"/>
    <path id="Caminho_10539" data-name="Caminho 10539" d="M47.189,61.549a.471.471,0,0,1,.235.065c.249.166.249.611.249.858V72.761a8.681,8.681,0,0,0,4.209,7.479,7.765,7.765,0,0,0,7.264.106,8.43,8.43,0,0,0,4.213-7.227V41.245c0-6.562-3.874-8.715-7.746-8.715A8.048,8.048,0,0,0,49.9,35.2L35.571,50.166a8.706,8.706,0,0,0-2.711,5.946c0,5.13,5.337,9.29,8.325,8.51,1.641-.427,5.4-3.078,6-3.076Z" transform="translate(0 -0.008)" fill="#fff"/>
    <g id="Grupo_2339" data-name="Grupo 2339" transform="translate(289.145 53.433)">
      <path id="Caminho_10540" data-name="Caminho 10540" d="M1162.119,123.152c-15.975,0-18.589,10.358-18.589,23.624,0,15.008,3.293,23.624,19.267,23.624a25.8,25.8,0,0,0,3.761-.3,2.208,2.208,0,1,0-.51-4.368,17.43,17.43,0,0,1-2.573.215c-12.587,0-14.814-5.616-15.1-16.169,0-.388.194-.676.775-.676h26.626c3.971,0,4.55-2.808,4.55-5.713,0-12.975-5.035-20.237-18.2-20.237Zm12.975,21.494h-25.948c-.676,0-.775-.388-.775-.872,0-10.068,2.808-16.265,13.748-16.265,11.521,0,13.651,6.971,13.651,16.556C1175.77,144.55,1175.479,144.646,1175.094,144.646Z" transform="translate(-1143.53 -123.15)" fill="#fff"/>
      <circle id="Elipse_147" data-name="Elipse 147" cx="2.914" cy="2.914" r="2.914" transform="translate(29.704 38.59)" fill="#13e499"/>
    </g>
    <path id="Caminho_10541" data-name="Caminho 10541" d="M104.893,260.89a7.843,7.843,0,1,0,7.843,7.843A7.844,7.844,0,0,0,104.893,260.89Zm0,12.35a4.507,4.507,0,1,1,4.509-4.507,4.507,4.507,0,0,1-4.509,4.507Z" transform="translate(-49.378 -175.674)" fill="#13e499"/>
  </g>
</svg>
